%TF.GenerationSoftware,KiCad,Pcbnew,10.0.1*%
%TF.CreationDate,2026-09-05T01:31:50-04:00*%
%TF.ProjectId,robot-board,726f626f-742d-4626-9f61-72642e6b6963,rev?*%
%TF.SameCoordinates,Original*%
%TF.FileFunction,Legend,Top*%
%TF.FilePolarity,Positive*%
%FSLAX46Y46*%
G04 Gerber Fmt 4.6, Leading zero omitted, Abs format (unit mm)*
G04 Created by KiCad (PCBNEW 10.0.1) date 2026-09-05 01:31:50*
%MOMM*%
%LPD*%
G01*
G04 APERTURE LIST*
%ADD10C,0.100000*%
%ADD11C,0.250000*%
%ADD12C,0.150000*%
%ADD13C,0.120000*%
%ADD14C,0.000000*%
%ADD15C,0.152400*%
%ADD16C,0.508000*%
G04 APERTURE END LIST*
D10*
X64645265Y-99646800D02*
X64788122Y-99694419D01*
X64788122Y-99694419D02*
X65026217Y-99694419D01*
X65026217Y-99694419D02*
X65121455Y-99646800D01*
X65121455Y-99646800D02*
X65169074Y-99599180D01*
X65169074Y-99599180D02*
X65216693Y-99503942D01*
X65216693Y-99503942D02*
X65216693Y-99408704D01*
X65216693Y-99408704D02*
X65169074Y-99313466D01*
X65169074Y-99313466D02*
X65121455Y-99265847D01*
X65121455Y-99265847D02*
X65026217Y-99218228D01*
X65026217Y-99218228D02*
X64835741Y-99170609D01*
X64835741Y-99170609D02*
X64740503Y-99122990D01*
X64740503Y-99122990D02*
X64692884Y-99075371D01*
X64692884Y-99075371D02*
X64645265Y-98980133D01*
X64645265Y-98980133D02*
X64645265Y-98884895D01*
X64645265Y-98884895D02*
X64692884Y-98789657D01*
X64692884Y-98789657D02*
X64740503Y-98742038D01*
X64740503Y-98742038D02*
X64835741Y-98694419D01*
X64835741Y-98694419D02*
X65073836Y-98694419D01*
X65073836Y-98694419D02*
X65216693Y-98742038D01*
X65645265Y-99694419D02*
X65645265Y-98694419D01*
X65645265Y-98694419D02*
X65883360Y-98694419D01*
X65883360Y-98694419D02*
X66026217Y-98742038D01*
X66026217Y-98742038D02*
X66121455Y-98837276D01*
X66121455Y-98837276D02*
X66169074Y-98932514D01*
X66169074Y-98932514D02*
X66216693Y-99122990D01*
X66216693Y-99122990D02*
X66216693Y-99265847D01*
X66216693Y-99265847D02*
X66169074Y-99456323D01*
X66169074Y-99456323D02*
X66121455Y-99551561D01*
X66121455Y-99551561D02*
X66026217Y-99646800D01*
X66026217Y-99646800D02*
X65883360Y-99694419D01*
X65883360Y-99694419D02*
X65645265Y-99694419D01*
X66645265Y-99694419D02*
X66645265Y-98694419D01*
X67074074Y-118236419D02*
X66597884Y-118236419D01*
X66597884Y-118236419D02*
X66597884Y-117236419D01*
X67597884Y-117236419D02*
X67788360Y-117236419D01*
X67788360Y-117236419D02*
X67883598Y-117284038D01*
X67883598Y-117284038D02*
X67978836Y-117379276D01*
X67978836Y-117379276D02*
X68026455Y-117569752D01*
X68026455Y-117569752D02*
X68026455Y-117903085D01*
X68026455Y-117903085D02*
X67978836Y-118093561D01*
X67978836Y-118093561D02*
X67883598Y-118188800D01*
X67883598Y-118188800D02*
X67788360Y-118236419D01*
X67788360Y-118236419D02*
X67597884Y-118236419D01*
X67597884Y-118236419D02*
X67502646Y-118188800D01*
X67502646Y-118188800D02*
X67407408Y-118093561D01*
X67407408Y-118093561D02*
X67359789Y-117903085D01*
X67359789Y-117903085D02*
X67359789Y-117569752D01*
X67359789Y-117569752D02*
X67407408Y-117379276D01*
X67407408Y-117379276D02*
X67502646Y-117284038D01*
X67502646Y-117284038D02*
X67597884Y-117236419D01*
X68407408Y-117950704D02*
X68883598Y-117950704D01*
X68312170Y-118236419D02*
X68645503Y-117236419D01*
X68645503Y-117236419D02*
X68978836Y-118236419D01*
X69312170Y-118236419D02*
X69312170Y-117236419D01*
X69312170Y-117236419D02*
X69550265Y-117236419D01*
X69550265Y-117236419D02*
X69693122Y-117284038D01*
X69693122Y-117284038D02*
X69788360Y-117379276D01*
X69788360Y-117379276D02*
X69835979Y-117474514D01*
X69835979Y-117474514D02*
X69883598Y-117664990D01*
X69883598Y-117664990D02*
X69883598Y-117807847D01*
X69883598Y-117807847D02*
X69835979Y-117998323D01*
X69835979Y-117998323D02*
X69788360Y-118093561D01*
X69788360Y-118093561D02*
X69693122Y-118188800D01*
X69693122Y-118188800D02*
X69550265Y-118236419D01*
X69550265Y-118236419D02*
X69312170Y-118236419D01*
X68185312Y-102647180D02*
X68137693Y-102694800D01*
X68137693Y-102694800D02*
X67994836Y-102742419D01*
X67994836Y-102742419D02*
X67899598Y-102742419D01*
X67899598Y-102742419D02*
X67756741Y-102694800D01*
X67756741Y-102694800D02*
X67661503Y-102599561D01*
X67661503Y-102599561D02*
X67613884Y-102504323D01*
X67613884Y-102504323D02*
X67566265Y-102313847D01*
X67566265Y-102313847D02*
X67566265Y-102170990D01*
X67566265Y-102170990D02*
X67613884Y-101980514D01*
X67613884Y-101980514D02*
X67661503Y-101885276D01*
X67661503Y-101885276D02*
X67756741Y-101790038D01*
X67756741Y-101790038D02*
X67899598Y-101742419D01*
X67899598Y-101742419D02*
X67994836Y-101742419D01*
X67994836Y-101742419D02*
X68137693Y-101790038D01*
X68137693Y-101790038D02*
X68185312Y-101837657D01*
X69090074Y-102742419D02*
X68613884Y-102742419D01*
X68613884Y-102742419D02*
X68613884Y-101742419D01*
X69423408Y-102742419D02*
X69423408Y-101742419D01*
X69994836Y-102742419D02*
X69566265Y-102170990D01*
X69994836Y-101742419D02*
X69423408Y-102313847D01*
D11*
X89193044Y-83742238D02*
X88240663Y-83742238D01*
X88240663Y-83742238D02*
X88240663Y-81742238D01*
X90240663Y-81742238D02*
X90621616Y-81742238D01*
X90621616Y-81742238D02*
X90812092Y-81837476D01*
X90812092Y-81837476D02*
X91002568Y-82027952D01*
X91002568Y-82027952D02*
X91097806Y-82408904D01*
X91097806Y-82408904D02*
X91097806Y-83075571D01*
X91097806Y-83075571D02*
X91002568Y-83456523D01*
X91002568Y-83456523D02*
X90812092Y-83647000D01*
X90812092Y-83647000D02*
X90621616Y-83742238D01*
X90621616Y-83742238D02*
X90240663Y-83742238D01*
X90240663Y-83742238D02*
X90050187Y-83647000D01*
X90050187Y-83647000D02*
X89859711Y-83456523D01*
X89859711Y-83456523D02*
X89764473Y-83075571D01*
X89764473Y-83075571D02*
X89764473Y-82408904D01*
X89764473Y-82408904D02*
X89859711Y-82027952D01*
X89859711Y-82027952D02*
X90050187Y-81837476D01*
X90050187Y-81837476D02*
X90240663Y-81742238D01*
X91764473Y-81742238D02*
X92240663Y-83742238D01*
X92240663Y-83742238D02*
X92621616Y-82313666D01*
X92621616Y-82313666D02*
X93002568Y-83742238D01*
X93002568Y-83742238D02*
X93478759Y-81742238D01*
X96431140Y-82694619D02*
X96716854Y-82789857D01*
X96716854Y-82789857D02*
X96812092Y-82885095D01*
X96812092Y-82885095D02*
X96907330Y-83075571D01*
X96907330Y-83075571D02*
X96907330Y-83361285D01*
X96907330Y-83361285D02*
X96812092Y-83551761D01*
X96812092Y-83551761D02*
X96716854Y-83647000D01*
X96716854Y-83647000D02*
X96526378Y-83742238D01*
X96526378Y-83742238D02*
X95764473Y-83742238D01*
X95764473Y-83742238D02*
X95764473Y-81742238D01*
X95764473Y-81742238D02*
X96431140Y-81742238D01*
X96431140Y-81742238D02*
X96621616Y-81837476D01*
X96621616Y-81837476D02*
X96716854Y-81932714D01*
X96716854Y-81932714D02*
X96812092Y-82123190D01*
X96812092Y-82123190D02*
X96812092Y-82313666D01*
X96812092Y-82313666D02*
X96716854Y-82504142D01*
X96716854Y-82504142D02*
X96621616Y-82599380D01*
X96621616Y-82599380D02*
X96431140Y-82694619D01*
X96431140Y-82694619D02*
X95764473Y-82694619D01*
X97669235Y-83170809D02*
X98621616Y-83170809D01*
X97478759Y-83742238D02*
X98145425Y-81742238D01*
X98145425Y-81742238D02*
X98812092Y-83742238D01*
X99193045Y-81742238D02*
X100335902Y-81742238D01*
X99764473Y-83742238D02*
X99764473Y-81742238D01*
X100716855Y-81742238D02*
X101859712Y-81742238D01*
X101288283Y-83742238D02*
X101288283Y-81742238D01*
X93183520Y-94251761D02*
X93088282Y-94347000D01*
X93088282Y-94347000D02*
X92802568Y-94442238D01*
X92802568Y-94442238D02*
X92612092Y-94442238D01*
X92612092Y-94442238D02*
X92326377Y-94347000D01*
X92326377Y-94347000D02*
X92135901Y-94156523D01*
X92135901Y-94156523D02*
X92040663Y-93966047D01*
X92040663Y-93966047D02*
X91945425Y-93585095D01*
X91945425Y-93585095D02*
X91945425Y-93299380D01*
X91945425Y-93299380D02*
X92040663Y-92918428D01*
X92040663Y-92918428D02*
X92135901Y-92727952D01*
X92135901Y-92727952D02*
X92326377Y-92537476D01*
X92326377Y-92537476D02*
X92612092Y-92442238D01*
X92612092Y-92442238D02*
X92802568Y-92442238D01*
X92802568Y-92442238D02*
X93088282Y-92537476D01*
X93088282Y-92537476D02*
X93183520Y-92632714D01*
X94421615Y-92442238D02*
X94802568Y-92442238D01*
X94802568Y-92442238D02*
X94993044Y-92537476D01*
X94993044Y-92537476D02*
X95183520Y-92727952D01*
X95183520Y-92727952D02*
X95278758Y-93108904D01*
X95278758Y-93108904D02*
X95278758Y-93775571D01*
X95278758Y-93775571D02*
X95183520Y-94156523D01*
X95183520Y-94156523D02*
X94993044Y-94347000D01*
X94993044Y-94347000D02*
X94802568Y-94442238D01*
X94802568Y-94442238D02*
X94421615Y-94442238D01*
X94421615Y-94442238D02*
X94231139Y-94347000D01*
X94231139Y-94347000D02*
X94040663Y-94156523D01*
X94040663Y-94156523D02*
X93945425Y-93775571D01*
X93945425Y-93775571D02*
X93945425Y-93108904D01*
X93945425Y-93108904D02*
X94040663Y-92727952D01*
X94040663Y-92727952D02*
X94231139Y-92537476D01*
X94231139Y-92537476D02*
X94421615Y-92442238D01*
X96135901Y-94442238D02*
X96135901Y-92442238D01*
X96135901Y-92442238D02*
X96802568Y-93870809D01*
X96802568Y-93870809D02*
X97469234Y-92442238D01*
X97469234Y-92442238D02*
X97469234Y-94442238D01*
X98421615Y-94442238D02*
X98421615Y-92442238D01*
X98421615Y-92442238D02*
X99088282Y-93870809D01*
X99088282Y-93870809D02*
X99754948Y-92442238D01*
X99754948Y-92442238D02*
X99754948Y-94442238D01*
X100612091Y-94347000D02*
X100897805Y-94442238D01*
X100897805Y-94442238D02*
X101373996Y-94442238D01*
X101373996Y-94442238D02*
X101564472Y-94347000D01*
X101564472Y-94347000D02*
X101659710Y-94251761D01*
X101659710Y-94251761D02*
X101754948Y-94061285D01*
X101754948Y-94061285D02*
X101754948Y-93870809D01*
X101754948Y-93870809D02*
X101659710Y-93680333D01*
X101659710Y-93680333D02*
X101564472Y-93585095D01*
X101564472Y-93585095D02*
X101373996Y-93489857D01*
X101373996Y-93489857D02*
X100993043Y-93394619D01*
X100993043Y-93394619D02*
X100802567Y-93299380D01*
X100802567Y-93299380D02*
X100707329Y-93204142D01*
X100707329Y-93204142D02*
X100612091Y-93013666D01*
X100612091Y-93013666D02*
X100612091Y-92823190D01*
X100612091Y-92823190D02*
X100707329Y-92632714D01*
X100707329Y-92632714D02*
X100802567Y-92537476D01*
X100802567Y-92537476D02*
X100993043Y-92442238D01*
X100993043Y-92442238D02*
X101469234Y-92442238D01*
X101469234Y-92442238D02*
X101754948Y-92537476D01*
X92340663Y-88842238D02*
X92340663Y-86842238D01*
X92340663Y-86842238D02*
X93102568Y-86842238D01*
X93102568Y-86842238D02*
X93293044Y-86937476D01*
X93293044Y-86937476D02*
X93388282Y-87032714D01*
X93388282Y-87032714D02*
X93483520Y-87223190D01*
X93483520Y-87223190D02*
X93483520Y-87508904D01*
X93483520Y-87508904D02*
X93388282Y-87699380D01*
X93388282Y-87699380D02*
X93293044Y-87794619D01*
X93293044Y-87794619D02*
X93102568Y-87889857D01*
X93102568Y-87889857D02*
X92340663Y-87889857D01*
X94721615Y-86842238D02*
X95102568Y-86842238D01*
X95102568Y-86842238D02*
X95293044Y-86937476D01*
X95293044Y-86937476D02*
X95483520Y-87127952D01*
X95483520Y-87127952D02*
X95578758Y-87508904D01*
X95578758Y-87508904D02*
X95578758Y-88175571D01*
X95578758Y-88175571D02*
X95483520Y-88556523D01*
X95483520Y-88556523D02*
X95293044Y-88747000D01*
X95293044Y-88747000D02*
X95102568Y-88842238D01*
X95102568Y-88842238D02*
X94721615Y-88842238D01*
X94721615Y-88842238D02*
X94531139Y-88747000D01*
X94531139Y-88747000D02*
X94340663Y-88556523D01*
X94340663Y-88556523D02*
X94245425Y-88175571D01*
X94245425Y-88175571D02*
X94245425Y-87508904D01*
X94245425Y-87508904D02*
X94340663Y-87127952D01*
X94340663Y-87127952D02*
X94531139Y-86937476D01*
X94531139Y-86937476D02*
X94721615Y-86842238D01*
X96245425Y-86842238D02*
X96721615Y-88842238D01*
X96721615Y-88842238D02*
X97102568Y-87413666D01*
X97102568Y-87413666D02*
X97483520Y-88842238D01*
X97483520Y-88842238D02*
X97959711Y-86842238D01*
X98721615Y-87794619D02*
X99388282Y-87794619D01*
X99673996Y-88842238D02*
X98721615Y-88842238D01*
X98721615Y-88842238D02*
X98721615Y-86842238D01*
X98721615Y-86842238D02*
X99673996Y-86842238D01*
X101673996Y-88842238D02*
X101007329Y-87889857D01*
X100531139Y-88842238D02*
X100531139Y-86842238D01*
X100531139Y-86842238D02*
X101293044Y-86842238D01*
X101293044Y-86842238D02*
X101483520Y-86937476D01*
X101483520Y-86937476D02*
X101578758Y-87032714D01*
X101578758Y-87032714D02*
X101673996Y-87223190D01*
X101673996Y-87223190D02*
X101673996Y-87508904D01*
X101673996Y-87508904D02*
X101578758Y-87699380D01*
X101578758Y-87699380D02*
X101483520Y-87794619D01*
X101483520Y-87794619D02*
X101293044Y-87889857D01*
X101293044Y-87889857D02*
X100531139Y-87889857D01*
X99683520Y-107142238D02*
X99016853Y-106189857D01*
X98540663Y-107142238D02*
X98540663Y-105142238D01*
X98540663Y-105142238D02*
X99302568Y-105142238D01*
X99302568Y-105142238D02*
X99493044Y-105237476D01*
X99493044Y-105237476D02*
X99588282Y-105332714D01*
X99588282Y-105332714D02*
X99683520Y-105523190D01*
X99683520Y-105523190D02*
X99683520Y-105808904D01*
X99683520Y-105808904D02*
X99588282Y-105999380D01*
X99588282Y-105999380D02*
X99493044Y-106094619D01*
X99493044Y-106094619D02*
X99302568Y-106189857D01*
X99302568Y-106189857D02*
X98540663Y-106189857D01*
X100350187Y-105142238D02*
X101683520Y-107142238D01*
X101683520Y-105142238D02*
X100350187Y-107142238D01*
X98729949Y-99342238D02*
X99872806Y-99342238D01*
X99301377Y-101342238D02*
X99301377Y-99342238D01*
X100348997Y-99342238D02*
X101682330Y-101342238D01*
X101682330Y-99342238D02*
X100348997Y-101342238D01*
D12*
X56612008Y-65374901D02*
X56850103Y-65374901D01*
X56754865Y-65612996D02*
X56850103Y-65374901D01*
X56850103Y-65374901D02*
X56754865Y-65136806D01*
X57040579Y-65517758D02*
X56850103Y-65374901D01*
X56850103Y-65374901D02*
X57040579Y-65232044D01*
X57702369Y-65374902D02*
X57464274Y-65374902D01*
X57559512Y-65136807D02*
X57464274Y-65374902D01*
X57464274Y-65374902D02*
X57559512Y-65612997D01*
X57273798Y-65232045D02*
X57464274Y-65374902D01*
X57464274Y-65374902D02*
X57273798Y-65517759D01*
X40259095Y-67805819D02*
X40259095Y-66805819D01*
X40259095Y-67282009D02*
X40830523Y-67282009D01*
X40830523Y-67805819D02*
X40830523Y-66805819D01*
X41211476Y-66805819D02*
X41830523Y-66805819D01*
X41830523Y-66805819D02*
X41497190Y-67186771D01*
X41497190Y-67186771D02*
X41640047Y-67186771D01*
X41640047Y-67186771D02*
X41735285Y-67234390D01*
X41735285Y-67234390D02*
X41782904Y-67282009D01*
X41782904Y-67282009D02*
X41830523Y-67377247D01*
X41830523Y-67377247D02*
X41830523Y-67615342D01*
X41830523Y-67615342D02*
X41782904Y-67710580D01*
X41782904Y-67710580D02*
X41735285Y-67758200D01*
X41735285Y-67758200D02*
X41640047Y-67805819D01*
X41640047Y-67805819D02*
X41354333Y-67805819D01*
X41354333Y-67805819D02*
X41259095Y-67758200D01*
X41259095Y-67758200D02*
X41211476Y-67710580D01*
X86463819Y-115362094D02*
X87273342Y-115362094D01*
X87273342Y-115362094D02*
X87368580Y-115314475D01*
X87368580Y-115314475D02*
X87416200Y-115266856D01*
X87416200Y-115266856D02*
X87463819Y-115171618D01*
X87463819Y-115171618D02*
X87463819Y-114981142D01*
X87463819Y-114981142D02*
X87416200Y-114885904D01*
X87416200Y-114885904D02*
X87368580Y-114838285D01*
X87368580Y-114838285D02*
X87273342Y-114790666D01*
X87273342Y-114790666D02*
X86463819Y-114790666D01*
X87463819Y-113790666D02*
X87463819Y-114362094D01*
X87463819Y-114076380D02*
X86463819Y-114076380D01*
X86463819Y-114076380D02*
X86606676Y-114171618D01*
X86606676Y-114171618D02*
X86701914Y-114266856D01*
X86701914Y-114266856D02*
X86749533Y-114362094D01*
X86463819Y-113171618D02*
X86463819Y-113076380D01*
X86463819Y-113076380D02*
X86511438Y-112981142D01*
X86511438Y-112981142D02*
X86559057Y-112933523D01*
X86559057Y-112933523D02*
X86654295Y-112885904D01*
X86654295Y-112885904D02*
X86844771Y-112838285D01*
X86844771Y-112838285D02*
X87082866Y-112838285D01*
X87082866Y-112838285D02*
X87273342Y-112885904D01*
X87273342Y-112885904D02*
X87368580Y-112933523D01*
X87368580Y-112933523D02*
X87416200Y-112981142D01*
X87416200Y-112981142D02*
X87463819Y-113076380D01*
X87463819Y-113076380D02*
X87463819Y-113171618D01*
X87463819Y-113171618D02*
X87416200Y-113266856D01*
X87416200Y-113266856D02*
X87368580Y-113314475D01*
X87368580Y-113314475D02*
X87273342Y-113362094D01*
X87273342Y-113362094D02*
X87082866Y-113409713D01*
X87082866Y-113409713D02*
X86844771Y-113409713D01*
X86844771Y-113409713D02*
X86654295Y-113362094D01*
X86654295Y-113362094D02*
X86559057Y-113314475D01*
X86559057Y-113314475D02*
X86511438Y-113266856D01*
X86511438Y-113266856D02*
X86463819Y-113171618D01*
X63334580Y-106786857D02*
X63382200Y-106834476D01*
X63382200Y-106834476D02*
X63429819Y-106977333D01*
X63429819Y-106977333D02*
X63429819Y-107072571D01*
X63429819Y-107072571D02*
X63382200Y-107215428D01*
X63382200Y-107215428D02*
X63286961Y-107310666D01*
X63286961Y-107310666D02*
X63191723Y-107358285D01*
X63191723Y-107358285D02*
X63001247Y-107405904D01*
X63001247Y-107405904D02*
X62858390Y-107405904D01*
X62858390Y-107405904D02*
X62667914Y-107358285D01*
X62667914Y-107358285D02*
X62572676Y-107310666D01*
X62572676Y-107310666D02*
X62477438Y-107215428D01*
X62477438Y-107215428D02*
X62429819Y-107072571D01*
X62429819Y-107072571D02*
X62429819Y-106977333D01*
X62429819Y-106977333D02*
X62477438Y-106834476D01*
X62477438Y-106834476D02*
X62525057Y-106786857D01*
X62429819Y-106453523D02*
X62429819Y-105834476D01*
X62429819Y-105834476D02*
X62810771Y-106167809D01*
X62810771Y-106167809D02*
X62810771Y-106024952D01*
X62810771Y-106024952D02*
X62858390Y-105929714D01*
X62858390Y-105929714D02*
X62906009Y-105882095D01*
X62906009Y-105882095D02*
X63001247Y-105834476D01*
X63001247Y-105834476D02*
X63239342Y-105834476D01*
X63239342Y-105834476D02*
X63334580Y-105882095D01*
X63334580Y-105882095D02*
X63382200Y-105929714D01*
X63382200Y-105929714D02*
X63429819Y-106024952D01*
X63429819Y-106024952D02*
X63429819Y-106310666D01*
X63429819Y-106310666D02*
X63382200Y-106405904D01*
X63382200Y-106405904D02*
X63334580Y-106453523D01*
X62429819Y-104977333D02*
X62429819Y-105167809D01*
X62429819Y-105167809D02*
X62477438Y-105263047D01*
X62477438Y-105263047D02*
X62525057Y-105310666D01*
X62525057Y-105310666D02*
X62667914Y-105405904D01*
X62667914Y-105405904D02*
X62858390Y-105453523D01*
X62858390Y-105453523D02*
X63239342Y-105453523D01*
X63239342Y-105453523D02*
X63334580Y-105405904D01*
X63334580Y-105405904D02*
X63382200Y-105358285D01*
X63382200Y-105358285D02*
X63429819Y-105263047D01*
X63429819Y-105263047D02*
X63429819Y-105072571D01*
X63429819Y-105072571D02*
X63382200Y-104977333D01*
X63382200Y-104977333D02*
X63334580Y-104929714D01*
X63334580Y-104929714D02*
X63239342Y-104882095D01*
X63239342Y-104882095D02*
X63001247Y-104882095D01*
X63001247Y-104882095D02*
X62906009Y-104929714D01*
X62906009Y-104929714D02*
X62858390Y-104977333D01*
X62858390Y-104977333D02*
X62810771Y-105072571D01*
X62810771Y-105072571D02*
X62810771Y-105263047D01*
X62810771Y-105263047D02*
X62858390Y-105358285D01*
X62858390Y-105358285D02*
X62906009Y-105405904D01*
X62906009Y-105405904D02*
X63001247Y-105453523D01*
X63269819Y-110812404D02*
X64079342Y-110812404D01*
X64079342Y-110812404D02*
X64174580Y-110764785D01*
X64174580Y-110764785D02*
X64222200Y-110717166D01*
X64222200Y-110717166D02*
X64269819Y-110621928D01*
X64269819Y-110621928D02*
X64269819Y-110431452D01*
X64269819Y-110431452D02*
X64222200Y-110336214D01*
X64222200Y-110336214D02*
X64174580Y-110288595D01*
X64174580Y-110288595D02*
X64079342Y-110240976D01*
X64079342Y-110240976D02*
X63269819Y-110240976D01*
X64269819Y-109717166D02*
X64269819Y-109526690D01*
X64269819Y-109526690D02*
X64222200Y-109431452D01*
X64222200Y-109431452D02*
X64174580Y-109383833D01*
X64174580Y-109383833D02*
X64031723Y-109288595D01*
X64031723Y-109288595D02*
X63841247Y-109240976D01*
X63841247Y-109240976D02*
X63460295Y-109240976D01*
X63460295Y-109240976D02*
X63365057Y-109288595D01*
X63365057Y-109288595D02*
X63317438Y-109336214D01*
X63317438Y-109336214D02*
X63269819Y-109431452D01*
X63269819Y-109431452D02*
X63269819Y-109621928D01*
X63269819Y-109621928D02*
X63317438Y-109717166D01*
X63317438Y-109717166D02*
X63365057Y-109764785D01*
X63365057Y-109764785D02*
X63460295Y-109812404D01*
X63460295Y-109812404D02*
X63698390Y-109812404D01*
X63698390Y-109812404D02*
X63793628Y-109764785D01*
X63793628Y-109764785D02*
X63841247Y-109717166D01*
X63841247Y-109717166D02*
X63888866Y-109621928D01*
X63888866Y-109621928D02*
X63888866Y-109431452D01*
X63888866Y-109431452D02*
X63841247Y-109336214D01*
X63841247Y-109336214D02*
X63793628Y-109288595D01*
X63793628Y-109288595D02*
X63698390Y-109240976D01*
X53175819Y-87701333D02*
X53890104Y-87701333D01*
X53890104Y-87701333D02*
X54032961Y-87748952D01*
X54032961Y-87748952D02*
X54128200Y-87844190D01*
X54128200Y-87844190D02*
X54175819Y-87987047D01*
X54175819Y-87987047D02*
X54175819Y-88082285D01*
X54175819Y-87225142D02*
X53175819Y-87225142D01*
X53175819Y-87225142D02*
X53175819Y-86844190D01*
X53175819Y-86844190D02*
X53223438Y-86748952D01*
X53223438Y-86748952D02*
X53271057Y-86701333D01*
X53271057Y-86701333D02*
X53366295Y-86653714D01*
X53366295Y-86653714D02*
X53509152Y-86653714D01*
X53509152Y-86653714D02*
X53604390Y-86701333D01*
X53604390Y-86701333D02*
X53652009Y-86748952D01*
X53652009Y-86748952D02*
X53699628Y-86844190D01*
X53699628Y-86844190D02*
X53699628Y-87225142D01*
X54175819Y-85701333D02*
X54175819Y-86272761D01*
X54175819Y-85987047D02*
X53175819Y-85987047D01*
X53175819Y-85987047D02*
X53318676Y-86082285D01*
X53318676Y-86082285D02*
X53413914Y-86177523D01*
X53413914Y-86177523D02*
X53461533Y-86272761D01*
X46935714Y-89954819D02*
X46935714Y-88954819D01*
X46935714Y-88954819D02*
X47173809Y-88954819D01*
X47173809Y-88954819D02*
X47316666Y-89002438D01*
X47316666Y-89002438D02*
X47411904Y-89097676D01*
X47411904Y-89097676D02*
X47459523Y-89192914D01*
X47459523Y-89192914D02*
X47507142Y-89383390D01*
X47507142Y-89383390D02*
X47507142Y-89526247D01*
X47507142Y-89526247D02*
X47459523Y-89716723D01*
X47459523Y-89716723D02*
X47411904Y-89811961D01*
X47411904Y-89811961D02*
X47316666Y-89907200D01*
X47316666Y-89907200D02*
X47173809Y-89954819D01*
X47173809Y-89954819D02*
X46935714Y-89954819D01*
X48459523Y-89954819D02*
X47888095Y-89954819D01*
X48173809Y-89954819D02*
X48173809Y-88954819D01*
X48173809Y-88954819D02*
X48078571Y-89097676D01*
X48078571Y-89097676D02*
X47983333Y-89192914D01*
X47983333Y-89192914D02*
X47888095Y-89240533D01*
X49078571Y-88954819D02*
X49173809Y-88954819D01*
X49173809Y-88954819D02*
X49269047Y-89002438D01*
X49269047Y-89002438D02*
X49316666Y-89050057D01*
X49316666Y-89050057D02*
X49364285Y-89145295D01*
X49364285Y-89145295D02*
X49411904Y-89335771D01*
X49411904Y-89335771D02*
X49411904Y-89573866D01*
X49411904Y-89573866D02*
X49364285Y-89764342D01*
X49364285Y-89764342D02*
X49316666Y-89859580D01*
X49316666Y-89859580D02*
X49269047Y-89907200D01*
X49269047Y-89907200D02*
X49173809Y-89954819D01*
X49173809Y-89954819D02*
X49078571Y-89954819D01*
X49078571Y-89954819D02*
X48983333Y-89907200D01*
X48983333Y-89907200D02*
X48935714Y-89859580D01*
X48935714Y-89859580D02*
X48888095Y-89764342D01*
X48888095Y-89764342D02*
X48840476Y-89573866D01*
X48840476Y-89573866D02*
X48840476Y-89335771D01*
X48840476Y-89335771D02*
X48888095Y-89145295D01*
X48888095Y-89145295D02*
X48935714Y-89050057D01*
X48935714Y-89050057D02*
X48983333Y-89002438D01*
X48983333Y-89002438D02*
X49078571Y-88954819D01*
X70858142Y-122533580D02*
X70810523Y-122581200D01*
X70810523Y-122581200D02*
X70667666Y-122628819D01*
X70667666Y-122628819D02*
X70572428Y-122628819D01*
X70572428Y-122628819D02*
X70429571Y-122581200D01*
X70429571Y-122581200D02*
X70334333Y-122485961D01*
X70334333Y-122485961D02*
X70286714Y-122390723D01*
X70286714Y-122390723D02*
X70239095Y-122200247D01*
X70239095Y-122200247D02*
X70239095Y-122057390D01*
X70239095Y-122057390D02*
X70286714Y-121866914D01*
X70286714Y-121866914D02*
X70334333Y-121771676D01*
X70334333Y-121771676D02*
X70429571Y-121676438D01*
X70429571Y-121676438D02*
X70572428Y-121628819D01*
X70572428Y-121628819D02*
X70667666Y-121628819D01*
X70667666Y-121628819D02*
X70810523Y-121676438D01*
X70810523Y-121676438D02*
X70858142Y-121724057D01*
X71191476Y-121628819D02*
X71810523Y-121628819D01*
X71810523Y-121628819D02*
X71477190Y-122009771D01*
X71477190Y-122009771D02*
X71620047Y-122009771D01*
X71620047Y-122009771D02*
X71715285Y-122057390D01*
X71715285Y-122057390D02*
X71762904Y-122105009D01*
X71762904Y-122105009D02*
X71810523Y-122200247D01*
X71810523Y-122200247D02*
X71810523Y-122438342D01*
X71810523Y-122438342D02*
X71762904Y-122533580D01*
X71762904Y-122533580D02*
X71715285Y-122581200D01*
X71715285Y-122581200D02*
X71620047Y-122628819D01*
X71620047Y-122628819D02*
X71334333Y-122628819D01*
X71334333Y-122628819D02*
X71239095Y-122581200D01*
X71239095Y-122581200D02*
X71191476Y-122533580D01*
X72667666Y-121962152D02*
X72667666Y-122628819D01*
X72429571Y-121581200D02*
X72191476Y-122295485D01*
X72191476Y-122295485D02*
X72810523Y-122295485D01*
X88011095Y-139560819D02*
X88011095Y-138560819D01*
X88011095Y-139037009D02*
X88582523Y-139037009D01*
X88582523Y-139560819D02*
X88582523Y-138560819D01*
X89011095Y-138656057D02*
X89058714Y-138608438D01*
X89058714Y-138608438D02*
X89153952Y-138560819D01*
X89153952Y-138560819D02*
X89392047Y-138560819D01*
X89392047Y-138560819D02*
X89487285Y-138608438D01*
X89487285Y-138608438D02*
X89534904Y-138656057D01*
X89534904Y-138656057D02*
X89582523Y-138751295D01*
X89582523Y-138751295D02*
X89582523Y-138846533D01*
X89582523Y-138846533D02*
X89534904Y-138989390D01*
X89534904Y-138989390D02*
X88963476Y-139560819D01*
X88963476Y-139560819D02*
X89582523Y-139560819D01*
X66751580Y-74622857D02*
X66799200Y-74670476D01*
X66799200Y-74670476D02*
X66846819Y-74813333D01*
X66846819Y-74813333D02*
X66846819Y-74908571D01*
X66846819Y-74908571D02*
X66799200Y-75051428D01*
X66799200Y-75051428D02*
X66703961Y-75146666D01*
X66703961Y-75146666D02*
X66608723Y-75194285D01*
X66608723Y-75194285D02*
X66418247Y-75241904D01*
X66418247Y-75241904D02*
X66275390Y-75241904D01*
X66275390Y-75241904D02*
X66084914Y-75194285D01*
X66084914Y-75194285D02*
X65989676Y-75146666D01*
X65989676Y-75146666D02*
X65894438Y-75051428D01*
X65894438Y-75051428D02*
X65846819Y-74908571D01*
X65846819Y-74908571D02*
X65846819Y-74813333D01*
X65846819Y-74813333D02*
X65894438Y-74670476D01*
X65894438Y-74670476D02*
X65942057Y-74622857D01*
X66846819Y-73670476D02*
X66846819Y-74241904D01*
X66846819Y-73956190D02*
X65846819Y-73956190D01*
X65846819Y-73956190D02*
X65989676Y-74051428D01*
X65989676Y-74051428D02*
X66084914Y-74146666D01*
X66084914Y-74146666D02*
X66132533Y-74241904D01*
X65846819Y-72765714D02*
X65846819Y-73241904D01*
X65846819Y-73241904D02*
X66323009Y-73289523D01*
X66323009Y-73289523D02*
X66275390Y-73241904D01*
X66275390Y-73241904D02*
X66227771Y-73146666D01*
X66227771Y-73146666D02*
X66227771Y-72908571D01*
X66227771Y-72908571D02*
X66275390Y-72813333D01*
X66275390Y-72813333D02*
X66323009Y-72765714D01*
X66323009Y-72765714D02*
X66418247Y-72718095D01*
X66418247Y-72718095D02*
X66656342Y-72718095D01*
X66656342Y-72718095D02*
X66751580Y-72765714D01*
X66751580Y-72765714D02*
X66799200Y-72813333D01*
X66799200Y-72813333D02*
X66846819Y-72908571D01*
X66846819Y-72908571D02*
X66846819Y-73146666D01*
X66846819Y-73146666D02*
X66799200Y-73241904D01*
X66799200Y-73241904D02*
X66751580Y-73289523D01*
X93345095Y-64757819D02*
X93345095Y-63757819D01*
X93345095Y-64234009D02*
X93916523Y-64234009D01*
X93916523Y-64757819D02*
X93916523Y-63757819D01*
X94916523Y-64757819D02*
X94345095Y-64757819D01*
X94630809Y-64757819D02*
X94630809Y-63757819D01*
X94630809Y-63757819D02*
X94535571Y-63900676D01*
X94535571Y-63900676D02*
X94440333Y-63995914D01*
X94440333Y-63995914D02*
X94345095Y-64043533D01*
X76827142Y-123295580D02*
X76779523Y-123343200D01*
X76779523Y-123343200D02*
X76636666Y-123390819D01*
X76636666Y-123390819D02*
X76541428Y-123390819D01*
X76541428Y-123390819D02*
X76398571Y-123343200D01*
X76398571Y-123343200D02*
X76303333Y-123247961D01*
X76303333Y-123247961D02*
X76255714Y-123152723D01*
X76255714Y-123152723D02*
X76208095Y-122962247D01*
X76208095Y-122962247D02*
X76208095Y-122819390D01*
X76208095Y-122819390D02*
X76255714Y-122628914D01*
X76255714Y-122628914D02*
X76303333Y-122533676D01*
X76303333Y-122533676D02*
X76398571Y-122438438D01*
X76398571Y-122438438D02*
X76541428Y-122390819D01*
X76541428Y-122390819D02*
X76636666Y-122390819D01*
X76636666Y-122390819D02*
X76779523Y-122438438D01*
X76779523Y-122438438D02*
X76827142Y-122486057D01*
X77160476Y-122390819D02*
X77779523Y-122390819D01*
X77779523Y-122390819D02*
X77446190Y-122771771D01*
X77446190Y-122771771D02*
X77589047Y-122771771D01*
X77589047Y-122771771D02*
X77684285Y-122819390D01*
X77684285Y-122819390D02*
X77731904Y-122867009D01*
X77731904Y-122867009D02*
X77779523Y-122962247D01*
X77779523Y-122962247D02*
X77779523Y-123200342D01*
X77779523Y-123200342D02*
X77731904Y-123295580D01*
X77731904Y-123295580D02*
X77684285Y-123343200D01*
X77684285Y-123343200D02*
X77589047Y-123390819D01*
X77589047Y-123390819D02*
X77303333Y-123390819D01*
X77303333Y-123390819D02*
X77208095Y-123343200D01*
X77208095Y-123343200D02*
X77160476Y-123295580D01*
X78684285Y-122390819D02*
X78208095Y-122390819D01*
X78208095Y-122390819D02*
X78160476Y-122867009D01*
X78160476Y-122867009D02*
X78208095Y-122819390D01*
X78208095Y-122819390D02*
X78303333Y-122771771D01*
X78303333Y-122771771D02*
X78541428Y-122771771D01*
X78541428Y-122771771D02*
X78636666Y-122819390D01*
X78636666Y-122819390D02*
X78684285Y-122867009D01*
X78684285Y-122867009D02*
X78731904Y-122962247D01*
X78731904Y-122962247D02*
X78731904Y-123200342D01*
X78731904Y-123200342D02*
X78684285Y-123295580D01*
X78684285Y-123295580D02*
X78636666Y-123343200D01*
X78636666Y-123343200D02*
X78541428Y-123390819D01*
X78541428Y-123390819D02*
X78303333Y-123390819D01*
X78303333Y-123390819D02*
X78208095Y-123343200D01*
X78208095Y-123343200D02*
X78160476Y-123295580D01*
X79748142Y-121231819D02*
X79414809Y-120755628D01*
X79176714Y-121231819D02*
X79176714Y-120231819D01*
X79176714Y-120231819D02*
X79557666Y-120231819D01*
X79557666Y-120231819D02*
X79652904Y-120279438D01*
X79652904Y-120279438D02*
X79700523Y-120327057D01*
X79700523Y-120327057D02*
X79748142Y-120422295D01*
X79748142Y-120422295D02*
X79748142Y-120565152D01*
X79748142Y-120565152D02*
X79700523Y-120660390D01*
X79700523Y-120660390D02*
X79652904Y-120708009D01*
X79652904Y-120708009D02*
X79557666Y-120755628D01*
X79557666Y-120755628D02*
X79176714Y-120755628D01*
X80129095Y-120327057D02*
X80176714Y-120279438D01*
X80176714Y-120279438D02*
X80271952Y-120231819D01*
X80271952Y-120231819D02*
X80510047Y-120231819D01*
X80510047Y-120231819D02*
X80605285Y-120279438D01*
X80605285Y-120279438D02*
X80652904Y-120327057D01*
X80652904Y-120327057D02*
X80700523Y-120422295D01*
X80700523Y-120422295D02*
X80700523Y-120517533D01*
X80700523Y-120517533D02*
X80652904Y-120660390D01*
X80652904Y-120660390D02*
X80081476Y-121231819D01*
X80081476Y-121231819D02*
X80700523Y-121231819D01*
X81652904Y-121231819D02*
X81081476Y-121231819D01*
X81367190Y-121231819D02*
X81367190Y-120231819D01*
X81367190Y-120231819D02*
X81271952Y-120374676D01*
X81271952Y-120374676D02*
X81176714Y-120469914D01*
X81176714Y-120469914D02*
X81081476Y-120517533D01*
%TO.C,R32*%
D13*
X53296359Y-70795000D02*
X53603641Y-70795000D01*
X53296359Y-71555000D02*
X53603641Y-71555000D01*
%TO.C,U2*%
X41237500Y-64390000D02*
X44237500Y-64390000D01*
X41237500Y-67660000D02*
X44237500Y-67660000D01*
X40687500Y-64475000D02*
X40207500Y-64475000D01*
X40687500Y-63995000D01*
X40687500Y-64475000D01*
G36*
X40687500Y-64475000D02*
G01*
X40207500Y-64475000D01*
X40687500Y-63995000D01*
X40687500Y-64475000D01*
G37*
%TO.C,R43*%
X53745000Y-119238641D02*
X53745000Y-118931359D01*
X54505000Y-119238641D02*
X54505000Y-118931359D01*
%TO.C,C29*%
X55913000Y-131372164D02*
X55913000Y-131587836D01*
X56633000Y-131372164D02*
X56633000Y-131587836D01*
%TO.C,R44*%
X41520000Y-87646359D02*
X41520000Y-87953641D01*
X42280000Y-87646359D02*
X42280000Y-87953641D01*
%TO.C,R30*%
X55562258Y-72192500D02*
X55087742Y-72192500D01*
X55562258Y-73237500D02*
X55087742Y-73237500D01*
%TO.C,R13*%
X94210000Y-136991359D02*
X94210000Y-137298641D01*
X94970000Y-136991359D02*
X94970000Y-137298641D01*
%TO.C,R14*%
X94110000Y-127841359D02*
X94110000Y-128148641D01*
X94870000Y-127841359D02*
X94870000Y-128148641D01*
D14*
%TO.C,G\u002A\u002A\u002A*%
G36*
X96607900Y-75317226D02*
G01*
X96607900Y-76128173D01*
X95666623Y-76128173D01*
X94725346Y-76128173D01*
X94725346Y-75317226D01*
X94725346Y-74506280D01*
X95666623Y-74506280D01*
X96607900Y-74506280D01*
X96607900Y-75317226D01*
G37*
G36*
X100894331Y-72044478D02*
G01*
X100894331Y-73289860D01*
X99504137Y-73289860D01*
X98113943Y-73289860D01*
X98113943Y-72044478D01*
X98113943Y-70799096D01*
X99504137Y-70799096D01*
X100894331Y-70799096D01*
X100894331Y-72044478D01*
G37*
G36*
X101965939Y-76041286D02*
G01*
X101965939Y-78358275D01*
X99504137Y-78358275D01*
X97042336Y-78358275D01*
X97042336Y-76041286D01*
X97042336Y-73724296D01*
X99504137Y-73724296D01*
X101965939Y-73724296D01*
X101965939Y-76041286D01*
G37*
G36*
X103964342Y-76968082D02*
G01*
X103964342Y-77605254D01*
X103360960Y-77605254D01*
X103179588Y-77604366D01*
X103018174Y-77601886D01*
X102885580Y-77598090D01*
X102790666Y-77593250D01*
X102742293Y-77587643D01*
X102738269Y-77585946D01*
X102732558Y-77552485D01*
X102727518Y-77469849D01*
X102723413Y-77346785D01*
X102720508Y-77192043D01*
X102719069Y-77014369D01*
X102718960Y-76948773D01*
X102718960Y-76330909D01*
X103341651Y-76330909D01*
X103964342Y-76330909D01*
X103964342Y-76968082D01*
G37*
G36*
X104282928Y-75360670D02*
G01*
X104282928Y-76215060D01*
X103360960Y-76215060D01*
X103135398Y-76214475D01*
X102928615Y-76212816D01*
X102747676Y-76210228D01*
X102599648Y-76206856D01*
X102491595Y-76202845D01*
X102430583Y-76198340D01*
X102419683Y-76195752D01*
X102414741Y-76162911D01*
X102410266Y-76079592D01*
X102406427Y-75953239D01*
X102403392Y-75791298D01*
X102401330Y-75601214D01*
X102400407Y-75390432D01*
X102400374Y-75341362D01*
X102400374Y-74506280D01*
X103341651Y-74506280D01*
X104282928Y-74506280D01*
X104282928Y-75360670D01*
G37*
G36*
X100832043Y-78659764D02*
G01*
X101022918Y-78662742D01*
X101198212Y-78668534D01*
X101347435Y-78677131D01*
X101460097Y-78688522D01*
X101525707Y-78702697D01*
X101526699Y-78703106D01*
X101614207Y-78763421D01*
X101662683Y-78857999D01*
X101676315Y-78981237D01*
X101653022Y-79095619D01*
X101582065Y-79180326D01*
X101461832Y-79236821D01*
X101372210Y-79256706D01*
X101272951Y-79267005D01*
X101129814Y-79274436D01*
X100956427Y-79279022D01*
X100766415Y-79280782D01*
X100573406Y-79279738D01*
X100391028Y-79275911D01*
X100232906Y-79269321D01*
X100112669Y-79259990D01*
X100073404Y-79254711D01*
X99941591Y-79217474D01*
X99856672Y-79154562D01*
X99810969Y-79059720D01*
X99805939Y-79036803D01*
X99803570Y-78908364D01*
X99842053Y-78797445D01*
X99915279Y-78718553D01*
X99947072Y-78701576D01*
X100011129Y-78687452D01*
X100122549Y-78676204D01*
X100270841Y-78667821D01*
X100445514Y-78662294D01*
X100636078Y-78659612D01*
X100832043Y-78659764D01*
G37*
G36*
X98672427Y-78653495D02*
G01*
X98849127Y-78663644D01*
X98983919Y-78682257D01*
X99082092Y-78710803D01*
X99148938Y-78750751D01*
X99189748Y-78803570D01*
X99209814Y-78870728D01*
X99214513Y-78942082D01*
X99200225Y-79076445D01*
X99154493Y-79167825D01*
X99073022Y-79224409D01*
X99064529Y-79227793D01*
X99005387Y-79239489D01*
X98899131Y-79249999D01*
X98756563Y-79259081D01*
X98588486Y-79266494D01*
X98405702Y-79271996D01*
X98219015Y-79275345D01*
X98039227Y-79276299D01*
X97877140Y-79274617D01*
X97743558Y-79270056D01*
X97649282Y-79262375D01*
X97632581Y-79259844D01*
X97488583Y-79216548D01*
X97394890Y-79146004D01*
X97350275Y-79047778D01*
X97348155Y-78908185D01*
X97393971Y-78790588D01*
X97458670Y-78722267D01*
X97488786Y-78702491D01*
X97524650Y-78687386D01*
X97574364Y-78676161D01*
X97646033Y-78668027D01*
X97747759Y-78662194D01*
X97887646Y-78657871D01*
X98073798Y-78654269D01*
X98172134Y-78652714D01*
X98448526Y-78650341D01*
X98672427Y-78653495D01*
G37*
G36*
X103593065Y-68430389D02*
G01*
X103778010Y-68492092D01*
X103930228Y-68598747D01*
X104054495Y-68753037D01*
X104090148Y-68814794D01*
X104106072Y-68846666D01*
X104119091Y-68880759D01*
X104129561Y-68923098D01*
X104137837Y-68979710D01*
X104144278Y-69056622D01*
X104149239Y-69159859D01*
X104153077Y-69295447D01*
X104156149Y-69469414D01*
X104158812Y-69687784D01*
X104161422Y-69956584D01*
X104162090Y-70030343D01*
X104163065Y-70370784D01*
X104160537Y-70758159D01*
X104154780Y-71181600D01*
X104146068Y-71630242D01*
X104134673Y-72093215D01*
X104120869Y-72559653D01*
X104104931Y-73018688D01*
X104087132Y-73459453D01*
X104067745Y-73871080D01*
X104063181Y-73958790D01*
X104045363Y-74294653D01*
X103563176Y-74328453D01*
X103375392Y-74341537D01*
X103235808Y-74350637D01*
X103134836Y-74355754D01*
X103062888Y-74356887D01*
X103010378Y-74354037D01*
X102967718Y-74347205D01*
X102925320Y-74336391D01*
X102897722Y-74328482D01*
X102840124Y-74303010D01*
X102791206Y-74259078D01*
X102749637Y-74191500D01*
X102714085Y-74095093D01*
X102683219Y-73964672D01*
X102655709Y-73795053D01*
X102630222Y-73581052D01*
X102605427Y-73317484D01*
X102590107Y-73130567D01*
X102578067Y-72966720D01*
X102564229Y-72759782D01*
X102548934Y-72516260D01*
X102532521Y-72242665D01*
X102515330Y-71945503D01*
X102497699Y-71631285D01*
X102479968Y-71306518D01*
X102462478Y-70977711D01*
X102445567Y-70651372D01*
X102429574Y-70334011D01*
X102414840Y-70032135D01*
X102401704Y-69752253D01*
X102390506Y-69500875D01*
X102381584Y-69284507D01*
X102375279Y-69109660D01*
X102371929Y-68982841D01*
X102371469Y-68939147D01*
X102379052Y-68895574D01*
X102407830Y-68852350D01*
X102466743Y-68800249D01*
X102564730Y-68730041D01*
X102591947Y-68711567D01*
X102772877Y-68594632D01*
X102923179Y-68511131D01*
X103055623Y-68456135D01*
X103182978Y-68424715D01*
X103318015Y-68411941D01*
X103370614Y-68410958D01*
X103593065Y-68430389D01*
G37*
G36*
X94577427Y-60768715D02*
G01*
X94765144Y-60774917D01*
X94928951Y-60786687D01*
X95085815Y-60805261D01*
X95252704Y-60831877D01*
X95260793Y-60833296D01*
X95751115Y-60939034D01*
X96248788Y-61085731D01*
X96760660Y-61275777D01*
X97293580Y-61511564D01*
X97520215Y-61622245D01*
X98082487Y-61933617D01*
X98603519Y-62283982D01*
X99083889Y-62674057D01*
X99524175Y-63104561D01*
X99924955Y-63576213D01*
X100286807Y-64089729D01*
X100610308Y-64645829D01*
X100896038Y-65245231D01*
X101144574Y-65888652D01*
X101272516Y-66284298D01*
X101396785Y-66732244D01*
X101505020Y-67201888D01*
X101598497Y-67700651D01*
X101678495Y-68235955D01*
X101746293Y-68815221D01*
X101790751Y-69293053D01*
X101808020Y-69496194D01*
X101824556Y-69685735D01*
X101839500Y-69852211D01*
X101851992Y-69986155D01*
X101861174Y-70078100D01*
X101865011Y-70111240D01*
X101879736Y-70219849D01*
X99637281Y-70219849D01*
X97394826Y-70219849D01*
X97378177Y-70009872D01*
X97371695Y-69921195D01*
X97362494Y-69785721D01*
X97351289Y-69614477D01*
X97338796Y-69418488D01*
X97325728Y-69208781D01*
X97317599Y-69075835D01*
X97284681Y-68621296D01*
X97243696Y-68206304D01*
X97195170Y-67834127D01*
X97139627Y-67508034D01*
X97077592Y-67231293D01*
X97009588Y-67007169D01*
X96969579Y-66906949D01*
X96820843Y-66631094D01*
X96623491Y-66354052D01*
X96386062Y-66084061D01*
X96117091Y-65829356D01*
X95825118Y-65598176D01*
X95518679Y-65398756D01*
X95271829Y-65269016D01*
X95043590Y-65169034D01*
X94842261Y-65098891D01*
X94648011Y-65054213D01*
X94441008Y-65030625D01*
X94201421Y-65023753D01*
X94160580Y-65023900D01*
X93984735Y-65026550D01*
X93850107Y-65033059D01*
X93740017Y-65045443D01*
X93637787Y-65065720D01*
X93526737Y-65095907D01*
X93500698Y-65103706D01*
X93100284Y-65251276D01*
X92731881Y-65443329D01*
X92387936Y-65684313D01*
X92129754Y-65911052D01*
X91824524Y-66236900D01*
X91566802Y-66585507D01*
X91346989Y-66969939D01*
X91336717Y-66990545D01*
X91260208Y-67148690D01*
X91192837Y-67298015D01*
X91133931Y-67443359D01*
X91082819Y-67589563D01*
X91038828Y-67741467D01*
X91001288Y-67903911D01*
X90969525Y-68081738D01*
X90942868Y-68279785D01*
X90920646Y-68502895D01*
X90902185Y-68755908D01*
X90886815Y-69043663D01*
X90873863Y-69371003D01*
X90862658Y-69742766D01*
X90852527Y-70163794D01*
X90844851Y-70533982D01*
X90840988Y-70746206D01*
X90836754Y-71008875D01*
X90832205Y-71316833D01*
X90827393Y-71664921D01*
X90822373Y-72047984D01*
X90817198Y-72460863D01*
X90811923Y-72898402D01*
X90806600Y-73355443D01*
X90801284Y-73826830D01*
X90796030Y-74307405D01*
X90790890Y-74792012D01*
X90785918Y-75275492D01*
X90781169Y-75752689D01*
X90776696Y-76218445D01*
X90772553Y-76667604D01*
X90768794Y-77095008D01*
X90765472Y-77495500D01*
X90762643Y-77863924D01*
X90760359Y-78195121D01*
X90758674Y-78483935D01*
X90757642Y-78725208D01*
X90757318Y-78913784D01*
X90757319Y-78915801D01*
X90757501Y-79429883D01*
X88596163Y-79429883D01*
X86434825Y-79429883D01*
X86450931Y-74875550D01*
X86453589Y-74169183D01*
X86456419Y-73517763D01*
X86459502Y-72918316D01*
X86462919Y-72367863D01*
X86466749Y-71863428D01*
X86471074Y-71402035D01*
X86475974Y-70980707D01*
X86481530Y-70596467D01*
X86487823Y-70246340D01*
X86494932Y-69927348D01*
X86502939Y-69636514D01*
X86511924Y-69370863D01*
X86521968Y-69127417D01*
X86533152Y-68903200D01*
X86545555Y-68695235D01*
X86559259Y-68500546D01*
X86574344Y-68316157D01*
X86590891Y-68139089D01*
X86608980Y-67966368D01*
X86628692Y-67795016D01*
X86646583Y-67649810D01*
X86731879Y-67098318D01*
X86845408Y-66584484D01*
X86991929Y-66093007D01*
X87176200Y-65608589D01*
X87402981Y-65115933D01*
X87484841Y-64954939D01*
X87724004Y-64524285D01*
X87976894Y-64131113D01*
X88253955Y-63761452D01*
X88565630Y-63401327D01*
X88907701Y-63051017D01*
X89408071Y-62603871D01*
X89944619Y-62201814D01*
X90516789Y-61845145D01*
X91124028Y-61534165D01*
X91765781Y-61269173D01*
X92441495Y-61050469D01*
X92766140Y-60964860D01*
X93076550Y-60892845D01*
X93351126Y-60839497D01*
X93608042Y-60802541D01*
X93865469Y-60779705D01*
X94141583Y-60768714D01*
X94348835Y-60766845D01*
X94577427Y-60768715D01*
G37*
%TO.C,U8*%
D10*
X71000000Y-77750000D02*
X86000000Y-77750000D01*
X86000000Y-107150000D01*
X71000000Y-107150000D01*
X71000000Y-77750000D01*
%TO.C,R15*%
D13*
X94135000Y-118891359D02*
X94135000Y-119198641D01*
X94895000Y-118891359D02*
X94895000Y-119198641D01*
%TO.C,U5*%
D15*
X54730600Y-66035048D02*
X54730600Y-66254504D01*
X54730600Y-71174992D02*
X54730600Y-71394448D01*
X54730600Y-71394448D02*
X55197071Y-71394448D01*
X55197071Y-66035048D02*
X54730600Y-66035048D01*
X57616929Y-71394448D02*
X58083400Y-71394448D01*
X58083400Y-66035048D02*
X57616929Y-66035048D01*
X58083400Y-66254504D02*
X58083400Y-66035048D01*
X58083400Y-71394448D02*
X58083400Y-71174992D01*
%TO.C,U10*%
D13*
X70549000Y-110264000D02*
X70814000Y-110264000D01*
X70549000Y-117984000D02*
X70549000Y-110264000D01*
X70814000Y-117984000D02*
X70549000Y-117984000D01*
X85904000Y-110264000D02*
X86169000Y-110264000D01*
X86169000Y-110264000D02*
X86169000Y-117984000D01*
X86169000Y-117984000D02*
X85904000Y-117984000D01*
X86379000Y-109814000D02*
X85909000Y-109474000D01*
X86379000Y-109134000D01*
X86379000Y-109814000D01*
G36*
X86379000Y-109814000D02*
G01*
X85909000Y-109474000D01*
X86379000Y-109134000D01*
X86379000Y-109814000D01*
G37*
%TO.C,C28*%
X73173001Y-131376163D02*
X73173001Y-131591835D01*
X73893001Y-131376163D02*
X73893001Y-131591835D01*
%TO.C,J10*%
D15*
X50221001Y-137317999D02*
X50221001Y-150271999D01*
X50221001Y-150271999D02*
X50965260Y-150271999D01*
X50965260Y-137317999D02*
X50221001Y-137317999D01*
X53630740Y-150271999D02*
X54965262Y-150271999D01*
X54965262Y-137317999D02*
X53630740Y-137317999D01*
X57630742Y-150271999D02*
X58375001Y-150271999D01*
X58375001Y-137317999D02*
X57630742Y-137317999D01*
X58375001Y-150271999D02*
X58375001Y-137317999D01*
D16*
X48824001Y-147639997D02*
G75*
G02*
X48062001Y-147639997I-381000J0D01*
G01*
X48062001Y-147639997D02*
G75*
G02*
X48824001Y-147639997I381000J0D01*
G01*
%TO.C,C18*%
D13*
X57642164Y-72055000D02*
X57857836Y-72055000D01*
X57642164Y-72775000D02*
X57857836Y-72775000D01*
%TO.C,C24*%
X55915000Y-129707836D02*
X55915000Y-129492164D01*
X56635000Y-129707836D02*
X56635000Y-129492164D01*
%TO.C,R9*%
X90285000Y-139001359D02*
X90285000Y-139308641D01*
X91045000Y-139001359D02*
X91045000Y-139308641D01*
%TO.C,C36*%
X63775000Y-106251836D02*
X63775000Y-106036164D01*
X64495000Y-106251836D02*
X64495000Y-106036164D01*
%TO.C,U9*%
X64655000Y-107740500D02*
X64855000Y-107740500D01*
X64655000Y-112360500D02*
X64655000Y-107740500D01*
X64855000Y-112360500D02*
X64655000Y-112360500D01*
X69675000Y-107740500D02*
X69875000Y-107740500D01*
X69875000Y-107740500D02*
X69875000Y-112360500D01*
X69875000Y-112360500D02*
X69675000Y-112360500D01*
X64855000Y-113000500D02*
X64385000Y-113340500D01*
X64385000Y-112660500D01*
X64855000Y-113000500D01*
G36*
X64855000Y-113000500D02*
G01*
X64385000Y-113340500D01*
X64385000Y-112660500D01*
X64855000Y-113000500D01*
G37*
%TO.C,C21*%
X58590000Y-67502836D02*
X58590000Y-67287164D01*
X59310000Y-67502836D02*
X59310000Y-67287164D01*
%TO.C,TP6*%
X67380000Y-103194000D02*
X69780000Y-103194000D01*
X67380000Y-105594000D02*
X67380000Y-103194000D01*
X69780000Y-103194000D02*
X69780000Y-105594000D01*
X69780000Y-105594000D02*
X67380000Y-105594000D01*
%TO.C,Q3*%
X93055000Y-128485000D02*
X92405000Y-128485000D01*
X93055000Y-128485000D02*
X93705000Y-128485000D01*
X93055000Y-131605000D02*
X92405000Y-131605000D01*
X93055000Y-131605000D02*
X93705000Y-131605000D01*
X91892500Y-128535000D02*
X91652500Y-128205000D01*
X92132500Y-128205000D01*
X91892500Y-128535000D01*
G36*
X91892500Y-128535000D02*
G01*
X91652500Y-128205000D01*
X92132500Y-128205000D01*
X91892500Y-128535000D01*
G37*
%TO.C,R2*%
X50607742Y-58482500D02*
X51082258Y-58482500D01*
X50607742Y-59527500D02*
X51082258Y-59527500D01*
%TO.C,C4*%
X48912164Y-72240000D02*
X49127836Y-72240000D01*
X48912164Y-72960000D02*
X49127836Y-72960000D01*
%TO.C,JP1*%
X50805970Y-85450000D02*
X52805970Y-85450000D01*
X50805970Y-88250000D02*
X50805970Y-85450000D01*
X52805970Y-85450000D02*
X52805970Y-88250000D01*
X52805970Y-88250000D02*
X50805970Y-88250000D01*
%TO.C,R5*%
X50577500Y-76937258D02*
X50577500Y-76462742D01*
X51622500Y-76937258D02*
X51622500Y-76462742D01*
%TO.C,Q1*%
X93030000Y-146675000D02*
X92380000Y-146675000D01*
X93030000Y-146675000D02*
X93680000Y-146675000D01*
X93030000Y-149795000D02*
X92380000Y-149795000D01*
X93030000Y-149795000D02*
X93680000Y-149795000D01*
X91867500Y-146725000D02*
X91627500Y-146395000D01*
X92107500Y-146395000D01*
X91867500Y-146725000D01*
G36*
X91867500Y-146725000D02*
G01*
X91627500Y-146395000D01*
X92107500Y-146395000D01*
X91867500Y-146725000D01*
G37*
%TO.C,R29*%
X96236359Y-103170000D02*
X96543641Y-103170000D01*
X96236359Y-103930000D02*
X96543641Y-103930000D01*
%TO.C,R31*%
X63715000Y-70889564D02*
X63715000Y-70435436D01*
X65185000Y-70889564D02*
X65185000Y-70435436D01*
%TO.C,R8*%
X90160000Y-148141359D02*
X90160000Y-148448641D01*
X90920000Y-148141359D02*
X90920000Y-148448641D01*
%TO.C,C2*%
X48912164Y-71240000D02*
X49127836Y-71240000D01*
X48912164Y-71960000D02*
X49127836Y-71960000D01*
%TO.C,Q5*%
X36835000Y-127445000D02*
X36835000Y-126795000D01*
X36835000Y-127445000D02*
X36835000Y-128095000D01*
X39955000Y-127445000D02*
X39955000Y-126795000D01*
X39955000Y-127445000D02*
X39955000Y-128095000D01*
X40235000Y-126522500D02*
X39905000Y-126282500D01*
X40235000Y-126042500D01*
X40235000Y-126522500D01*
G36*
X40235000Y-126522500D02*
G01*
X39905000Y-126282500D01*
X40235000Y-126042500D01*
X40235000Y-126522500D01*
G37*
%TO.C,L1*%
X39615000Y-57125000D02*
X39615000Y-56275000D01*
X39615000Y-61825000D02*
X39615000Y-61025000D01*
X40225000Y-55665000D02*
X45925000Y-55665000D01*
X45925000Y-62485000D02*
X40275000Y-62485000D01*
X46535000Y-56275000D02*
X46535000Y-57125000D01*
X46535000Y-61025000D02*
X46535000Y-61875000D01*
X39615000Y-56275000D02*
G75*
G02*
X40225000Y-55665000I610000J0D01*
G01*
X40275000Y-62485000D02*
G75*
G02*
X39615000Y-61825000I2J660002D01*
G01*
X45925000Y-55665000D02*
G75*
G02*
X46535000Y-56275000I0J-610000D01*
G01*
X46535000Y-61875000D02*
G75*
G02*
X45925000Y-62485000I-610000J0D01*
G01*
%TO.C,D10*%
X50510000Y-86500000D02*
X46500000Y-86500000D01*
X50510000Y-88500000D02*
X46500000Y-88500000D01*
X50510000Y-88500000D02*
X50510000Y-86500000D01*
%TO.C,C11*%
X50990580Y-55490000D02*
X50709420Y-55490000D01*
X50990580Y-56510000D02*
X50709420Y-56510000D01*
%TO.C,R1*%
X39436359Y-118420000D02*
X39743641Y-118420000D01*
X39436359Y-119180000D02*
X39743641Y-119180000D01*
%TO.C,C34*%
X73046000Y-121459164D02*
X73046000Y-121674836D01*
X73766000Y-121459164D02*
X73766000Y-121674836D01*
%TO.C,R4*%
X52077500Y-78762258D02*
X52077500Y-78287742D01*
X53122500Y-78762258D02*
X53122500Y-78287742D01*
%TO.C,TP4*%
X67634000Y-114243000D02*
X70034000Y-114243000D01*
X67634000Y-116643000D02*
X67634000Y-114243000D01*
X70034000Y-114243000D02*
X70034000Y-116643000D01*
X70034000Y-116643000D02*
X67634000Y-116643000D01*
%TO.C,C31*%
X52890000Y-73482836D02*
X52890000Y-73267164D01*
X53610000Y-73482836D02*
X53610000Y-73267164D01*
%TO.C,D3*%
X98400000Y-91915000D02*
X102285000Y-91915000D01*
X102285000Y-89645000D02*
X98400000Y-89645000D01*
X102285000Y-91915000D02*
X102285000Y-89645000D01*
%TO.C,C13*%
X50990580Y-56995000D02*
X50709420Y-56995000D01*
X50990580Y-58015000D02*
X50709420Y-58015000D01*
%TO.C,J2*%
X65640000Y-49690000D02*
X65640000Y-53300000D01*
X65640000Y-49690000D02*
X74760000Y-49690000D01*
X65640000Y-53000000D02*
X74760000Y-53000000D01*
X65640000Y-56300000D02*
X65640000Y-59300000D01*
X65640000Y-62300000D02*
X65640000Y-64610000D01*
X65640000Y-64610000D02*
X74760000Y-64610000D01*
X67200000Y-53000000D02*
X67200000Y-57800000D01*
X73200000Y-53000000D02*
X73200000Y-57800000D01*
X74760000Y-49690000D02*
X74760000Y-53300000D01*
X74760000Y-56300000D02*
X74760000Y-59300000D01*
X74760000Y-62300000D02*
X74760000Y-64610000D01*
X77460000Y-53540000D02*
X75560000Y-53540000D01*
X77460000Y-54880000D02*
X77460000Y-53540000D01*
X73200000Y-57800000D02*
G75*
G02*
X67200000Y-57800000I-3000000J0D01*
G01*
%TO.C,R6*%
X48290000Y-59641359D02*
X48290000Y-59948641D01*
X49050000Y-59641359D02*
X49050000Y-59948641D01*
%TO.C,C33*%
X62590000Y-69107164D02*
X62590000Y-69322836D01*
X63310000Y-69107164D02*
X63310000Y-69322836D01*
%TO.C,J11*%
D15*
X58870900Y-137342999D02*
X58870900Y-150296999D01*
X58870900Y-150296999D02*
X59615159Y-150296999D01*
X59615159Y-137342999D02*
X58870900Y-137342999D01*
X62280639Y-150296999D02*
X63615161Y-150296999D01*
X63615161Y-137342999D02*
X62280639Y-137342999D01*
X66280641Y-150296999D02*
X67024900Y-150296999D01*
X67024900Y-137342999D02*
X66280641Y-137342999D01*
X67024900Y-150296999D02*
X67024900Y-137342999D01*
D16*
X57473900Y-147664997D02*
G75*
G02*
X56711900Y-147664997I-381000J0D01*
G01*
X56711900Y-147664997D02*
G75*
G02*
X57473900Y-147664997I381000J0D01*
G01*
%TO.C,D5*%
D13*
X98425000Y-86510000D02*
X102310000Y-86510000D01*
X102310000Y-84240000D02*
X98425000Y-84240000D01*
X102310000Y-86510000D02*
X102310000Y-84240000D01*
%TO.C,R27*%
X38262258Y-96187500D02*
X37787742Y-96187500D01*
X38262258Y-97232500D02*
X37787742Y-97232500D01*
%TO.C,J3*%
X40075000Y-148221567D02*
X40075000Y-146521567D01*
X49415000Y-148221567D02*
X49415000Y-146521567D01*
%TO.C,J4*%
X97150000Y-147465000D02*
X97150000Y-144005000D01*
X97150000Y-149085000D02*
X95680000Y-149085000D01*
X97150000Y-149655000D02*
X97150000Y-149085000D01*
X99910000Y-141815000D02*
X97150000Y-141815000D01*
X99910000Y-142385000D02*
X99910000Y-141815000D01*
X99910000Y-144925000D02*
X99910000Y-141815000D01*
X99910000Y-149085000D02*
X99910000Y-146545000D01*
X99910000Y-149655000D02*
X97150000Y-149655000D01*
X99910000Y-149655000D02*
X99910000Y-146545000D01*
%TO.C,J1*%
X78165000Y-56365000D02*
X78165000Y-59125000D01*
X78735000Y-59125000D02*
X78165000Y-59125000D01*
X81275000Y-59125000D02*
X78165000Y-59125000D01*
X83815000Y-56365000D02*
X80355000Y-56365000D01*
X86355000Y-59125000D02*
X82895000Y-59125000D01*
X88895000Y-56365000D02*
X85435000Y-56365000D01*
X91435000Y-59125000D02*
X87975000Y-59125000D01*
X93975000Y-56365000D02*
X90515000Y-56365000D01*
X96515000Y-59125000D02*
X93055000Y-59125000D01*
X99055000Y-56365000D02*
X95595000Y-56365000D01*
X100675000Y-56365000D02*
X100675000Y-54895000D01*
X100675000Y-59125000D02*
X98135000Y-59125000D01*
X101245000Y-56365000D02*
X100675000Y-56365000D01*
X101245000Y-56365000D02*
X101245000Y-59125000D01*
%TO.C,R11*%
X90160000Y-120926359D02*
X90160000Y-121233641D01*
X90920000Y-120926359D02*
X90920000Y-121233641D01*
%TO.C,L2*%
X40365000Y-84350000D02*
X40365000Y-78700000D01*
X41025000Y-78040000D02*
X41825000Y-78040000D01*
X41825000Y-84960000D02*
X40975000Y-84960000D01*
X45725000Y-78040000D02*
X46575000Y-78040000D01*
X46575000Y-84960000D02*
X45725000Y-84960000D01*
X47185000Y-78650000D02*
X47185000Y-84350000D01*
X40365000Y-78700000D02*
G75*
G02*
X41025000Y-78040000I660002J-2D01*
G01*
X40975000Y-84960000D02*
G75*
G02*
X40365000Y-84350000I0J610000D01*
G01*
X46575000Y-78040000D02*
G75*
G02*
X47185000Y-78650000I0J-610000D01*
G01*
X47185000Y-84350000D02*
G75*
G02*
X46575000Y-84960000I-610000J0D01*
G01*
%TO.C,C15*%
X67337000Y-74241252D02*
X67337000Y-73718748D01*
X68807000Y-74241252D02*
X68807000Y-73718748D01*
%TO.C,C3*%
X44980000Y-64404664D02*
X44980000Y-64620336D01*
X45700000Y-64404664D02*
X45700000Y-64620336D01*
%TO.C,C10*%
X50787836Y-78340000D02*
X50572164Y-78340000D01*
X50787836Y-79060000D02*
X50572164Y-79060000D01*
%TO.C,R18*%
X42198641Y-142231567D02*
X41891359Y-142231567D01*
X42198641Y-142991567D02*
X41891359Y-142991567D01*
%TO.C,TP5*%
X64332000Y-100400000D02*
X66732000Y-100400000D01*
X64332000Y-102800000D02*
X64332000Y-100400000D01*
X66732000Y-100400000D02*
X66732000Y-102800000D01*
X66732000Y-102800000D02*
X64332000Y-102800000D01*
%TO.C,C32*%
X54090000Y-74502836D02*
X54090000Y-74287164D01*
X54810000Y-74502836D02*
X54810000Y-74287164D01*
%TO.C,L3*%
X52690000Y-60065000D02*
X52690000Y-59215000D01*
X52690000Y-64765000D02*
X52690000Y-63965000D01*
X53300000Y-58605000D02*
X59000000Y-58605000D01*
X59000000Y-65425000D02*
X53350000Y-65425000D01*
X59610000Y-59215000D02*
X59610000Y-60065000D01*
X59610000Y-63965000D02*
X59610000Y-64815000D01*
X52690000Y-59215000D02*
G75*
G02*
X53300000Y-58605000I610000J0D01*
G01*
X53350000Y-65425000D02*
G75*
G02*
X52690000Y-64765000I2J660002D01*
G01*
X59000000Y-58605000D02*
G75*
G02*
X59610000Y-59215000I0J-610000D01*
G01*
X59610000Y-64815000D02*
G75*
G02*
X59000000Y-65425000I-610000J0D01*
G01*
%TO.C,R26*%
X38377500Y-94262742D02*
X38377500Y-94737258D01*
X39422500Y-94262742D02*
X39422500Y-94737258D01*
%TO.C,C12*%
X49063748Y-83015000D02*
X50486252Y-83015000D01*
X49063748Y-84835000D02*
X50486252Y-84835000D01*
%TO.C,U4*%
X66965736Y-71937500D02*
X66965736Y-69937500D01*
X69185736Y-71937500D02*
X69185736Y-69937500D01*
X67065736Y-72457500D02*
X66785736Y-72177500D01*
X67065736Y-72177500D01*
X67065736Y-72457500D01*
G36*
X67065736Y-72457500D02*
G01*
X66785736Y-72177500D01*
X67065736Y-72177500D01*
X67065736Y-72457500D01*
G37*
%TO.C,R42*%
X52445000Y-119238641D02*
X52445000Y-118931359D01*
X53205000Y-119238641D02*
X53205000Y-118931359D01*
%TO.C,D7*%
X98375000Y-98885000D02*
X102260000Y-98885000D01*
X102260000Y-96615000D02*
X98375000Y-96615000D01*
X102260000Y-98885000D02*
X102260000Y-96615000D01*
%TO.C,C14*%
X49063748Y-80640000D02*
X50486252Y-80640000D01*
X49063748Y-82460000D02*
X50486252Y-82460000D01*
%TO.C,BZ1*%
D10*
X39350000Y-129835000D02*
X46850000Y-129835000D01*
X46850000Y-137335000D01*
X39350000Y-137335000D01*
X39350000Y-129835000D01*
%TO.C,C30*%
D13*
X59590000Y-69107164D02*
X59590000Y-69322836D01*
X60310000Y-69107164D02*
X60310000Y-69322836D01*
%TO.C,C16*%
X52490000Y-68302836D02*
X52490000Y-68087164D01*
X53210000Y-68302836D02*
X53210000Y-68087164D01*
%TO.C,C8*%
X45040000Y-75492164D02*
X45040000Y-75707836D01*
X45760000Y-75492164D02*
X45760000Y-75707836D01*
%TO.C,R24*%
X96331359Y-97375000D02*
X96638641Y-97375000D01*
X96331359Y-98135000D02*
X96638641Y-98135000D01*
%TO.C,J7*%
X97130000Y-120240000D02*
X97130000Y-116780000D01*
X97130000Y-121860000D02*
X95660000Y-121860000D01*
X97130000Y-122430000D02*
X97130000Y-121860000D01*
X99890000Y-114590000D02*
X97130000Y-114590000D01*
X99890000Y-115160000D02*
X99890000Y-114590000D01*
X99890000Y-117700000D02*
X99890000Y-114590000D01*
X99890000Y-121860000D02*
X99890000Y-119320000D01*
X99890000Y-122430000D02*
X97130000Y-122430000D01*
X99890000Y-122430000D02*
X99890000Y-119320000D01*
%TO.C,R33*%
X51870000Y-72611359D02*
X51870000Y-72918641D01*
X52630000Y-72611359D02*
X52630000Y-72918641D01*
%TO.C,C1*%
X46990000Y-64387164D02*
X46990000Y-64602836D01*
X47710000Y-64387164D02*
X47710000Y-64602836D01*
%TO.C,D1*%
X45555000Y-126345000D02*
X41545000Y-126345000D01*
X45555000Y-128345000D02*
X41545000Y-128345000D01*
X45555000Y-128345000D02*
X45555000Y-126345000D01*
%TO.C,D2*%
X98380000Y-81355000D02*
X102265000Y-81355000D01*
X102265000Y-79085000D02*
X98380000Y-79085000D01*
X102265000Y-81355000D02*
X102265000Y-79085000D01*
%TO.C,R19*%
X96356359Y-79845000D02*
X96663641Y-79845000D01*
X96356359Y-80605000D02*
X96663641Y-80605000D01*
%TO.C,C26*%
X61590000Y-69107164D02*
X61590000Y-69322836D01*
X62310000Y-69107164D02*
X62310000Y-69322836D01*
%TO.C,U6*%
X74243001Y-132498999D02*
X74243001Y-130498999D01*
X77523001Y-132508999D02*
X77523001Y-130508999D01*
X74313001Y-133148999D02*
X74033001Y-132868999D01*
X74313001Y-132868999D01*
X74313001Y-133148999D01*
G36*
X74313001Y-133148999D02*
G01*
X74033001Y-132868999D01*
X74313001Y-132868999D01*
X74313001Y-133148999D01*
G37*
%TO.C,SW1*%
X37405000Y-120930000D02*
X41545000Y-120930000D01*
X37405000Y-121230000D02*
X37405000Y-120930000D01*
X37405000Y-124070000D02*
X37405000Y-123770000D01*
X41545000Y-120930000D02*
X41545000Y-121230000D01*
X41545000Y-123770000D02*
X41545000Y-124070000D01*
X41545000Y-124070000D02*
X37405000Y-124070000D01*
%TO.C,C7*%
X39440000Y-65547164D02*
X39440000Y-65762836D01*
X40160000Y-65547164D02*
X40160000Y-65762836D01*
%TO.C,R3*%
X46737258Y-65852500D02*
X46262742Y-65852500D01*
X46737258Y-66897500D02*
X46262742Y-66897500D01*
%TO.C,SW2*%
X42090000Y-88910000D02*
X46230000Y-88910000D01*
X42090000Y-89210000D02*
X42090000Y-88910000D01*
X42090000Y-92050000D02*
X42090000Y-91750000D01*
X46230000Y-88910000D02*
X46230000Y-89210000D01*
X46230000Y-91750000D02*
X46230000Y-92050000D01*
X46230000Y-92050000D02*
X42090000Y-92050000D01*
%TO.C,J5*%
X97175000Y-138375000D02*
X97175000Y-134915000D01*
X97175000Y-139995000D02*
X95705000Y-139995000D01*
X97175000Y-140565000D02*
X97175000Y-139995000D01*
X99935000Y-132725000D02*
X97175000Y-132725000D01*
X99935000Y-133295000D02*
X99935000Y-132725000D01*
X99935000Y-135835000D02*
X99935000Y-132725000D01*
X99935000Y-139995000D02*
X99935000Y-137455000D01*
X99935000Y-140565000D02*
X97175000Y-140565000D01*
X99935000Y-140565000D02*
X99935000Y-137455000D01*
%TO.C,R20*%
X96381359Y-90395000D02*
X96688641Y-90395000D01*
X96381359Y-91155000D02*
X96688641Y-91155000D01*
%TO.C,C20*%
X38212164Y-97540000D02*
X38427836Y-97540000D01*
X38212164Y-98260000D02*
X38427836Y-98260000D01*
%TO.C,J6*%
X97130000Y-129235000D02*
X97130000Y-125775000D01*
X97130000Y-130855000D02*
X95660000Y-130855000D01*
X97130000Y-131425000D02*
X97130000Y-130855000D01*
X99890000Y-123585000D02*
X97130000Y-123585000D01*
X99890000Y-124155000D02*
X99890000Y-123585000D01*
X99890000Y-126695000D02*
X99890000Y-123585000D01*
X99890000Y-130855000D02*
X99890000Y-128315000D01*
X99890000Y-131425000D02*
X97130000Y-131425000D01*
X99890000Y-131425000D02*
X99890000Y-128315000D01*
%TO.C,R12*%
X94160000Y-146081359D02*
X94160000Y-146388641D01*
X94920000Y-146081359D02*
X94920000Y-146388641D01*
%TO.C,C23*%
X73905164Y-129159000D02*
X74120836Y-129159000D01*
X73905164Y-129879000D02*
X74120836Y-129879000D01*
%TO.C,F1*%
X69595736Y-66725000D02*
X70375736Y-66725000D01*
X69595736Y-74925000D02*
X69595736Y-66725000D01*
X69595736Y-74925000D02*
X70375736Y-74925000D01*
X75255736Y-66725000D02*
X74475736Y-66725000D01*
X75255736Y-74925000D02*
X74475736Y-74925000D01*
X75255736Y-74925000D02*
X75255736Y-66725000D01*
%TO.C,Q2*%
X93117500Y-137585000D02*
X92467500Y-137585000D01*
X93117500Y-137585000D02*
X93767500Y-137585000D01*
X93117500Y-140705000D02*
X92467500Y-140705000D01*
X93117500Y-140705000D02*
X93767500Y-140705000D01*
X91955000Y-137635000D02*
X91715000Y-137305000D01*
X92195000Y-137305000D01*
X91955000Y-137635000D01*
G36*
X91955000Y-137635000D02*
G01*
X91715000Y-137305000D01*
X92195000Y-137305000D01*
X91955000Y-137635000D01*
G37*
%TO.C,C17*%
X51490000Y-68302836D02*
X51490000Y-68087164D01*
X52210000Y-68302836D02*
X52210000Y-68087164D01*
%TO.C,J8*%
D15*
X67558499Y-137330499D02*
X67558499Y-150284499D01*
X67558499Y-150284499D02*
X68302758Y-150284499D01*
X68302758Y-137330499D02*
X67558499Y-137330499D01*
X70968238Y-150284499D02*
X72302760Y-150284499D01*
X72302760Y-137330499D02*
X70968238Y-137330499D01*
X74968240Y-150284499D02*
X75712499Y-150284499D01*
X75712499Y-137330499D02*
X74968240Y-137330499D01*
X75712499Y-150284499D02*
X75712499Y-137330499D01*
D16*
X66161499Y-147652497D02*
G75*
G02*
X65399499Y-147652497I-381000J0D01*
G01*
X65399499Y-147652497D02*
G75*
G02*
X66161499Y-147652497I381000J0D01*
G01*
%TO.C,U1*%
D13*
X29940000Y-99100000D02*
X36140000Y-99100000D01*
X29940000Y-117500000D02*
X29940000Y-99100000D01*
X29940000Y-117500000D02*
X36140000Y-117500000D01*
X54790000Y-117500000D02*
X55790000Y-117500000D01*
X55790000Y-99100000D02*
X54790000Y-99100000D01*
X55790000Y-99100000D02*
X55790000Y-100600000D01*
X55790000Y-117500000D02*
X55790000Y-116000000D01*
X36815000Y-118000000D02*
X36315000Y-117500000D01*
X36815000Y-117500000D01*
X36815000Y-118000000D01*
G36*
X36815000Y-118000000D02*
G01*
X36315000Y-117500000D01*
X36815000Y-117500000D01*
X36815000Y-118000000D01*
G37*
%TO.C,C9*%
X50557836Y-60045000D02*
X50342164Y-60045000D01*
X50557836Y-60765000D02*
X50342164Y-60765000D01*
%TO.C,J9*%
D15*
X76213400Y-137330499D02*
X76213400Y-150284499D01*
X76213400Y-150284499D02*
X76957659Y-150284499D01*
X76957659Y-137330499D02*
X76213400Y-137330499D01*
X79623139Y-150284499D02*
X80957661Y-150284499D01*
X80957661Y-137330499D02*
X79623139Y-137330499D01*
X83623141Y-150284499D02*
X84367400Y-150284499D01*
X84367400Y-137330499D02*
X83623141Y-137330499D01*
X84367400Y-150284499D02*
X84367400Y-137330499D01*
D16*
X74816400Y-147652497D02*
G75*
G02*
X74054400Y-147652497I-381000J0D01*
G01*
X74054400Y-147652497D02*
G75*
G02*
X74816400Y-147652497I381000J0D01*
G01*
%TO.C,C5*%
D13*
X46040000Y-64387164D02*
X46040000Y-64602836D01*
X46760000Y-64387164D02*
X46760000Y-64602836D01*
%TO.C,R22*%
X96431359Y-84970000D02*
X96738641Y-84970000D01*
X96431359Y-85730000D02*
X96738641Y-85730000D01*
%TO.C,R25*%
X52087742Y-65767500D02*
X52562258Y-65767500D01*
X52087742Y-66812500D02*
X52562258Y-66812500D01*
%TO.C,R7*%
X50863641Y-79320000D02*
X50556359Y-79320000D01*
X50863641Y-80080000D02*
X50556359Y-80080000D01*
%TO.C,C27*%
X60590000Y-69107164D02*
X60590000Y-69322836D01*
X61310000Y-69107164D02*
X61310000Y-69322836D01*
%TO.C,C6*%
X48892164Y-73240000D02*
X49107836Y-73240000D01*
X48892164Y-73960000D02*
X49107836Y-73960000D01*
%TO.C,C35*%
X74195000Y-121658748D02*
X74195000Y-122181252D01*
X75665000Y-121658748D02*
X75665000Y-122181252D01*
%TO.C,C19*%
X53490000Y-68312836D02*
X53490000Y-68097164D01*
X54210000Y-68312836D02*
X54210000Y-68097164D01*
%TO.C,C25*%
X58590000Y-69107164D02*
X58590000Y-69322836D01*
X59310000Y-69107164D02*
X59310000Y-69322836D01*
%TO.C,R21*%
X78133641Y-120143000D02*
X77826359Y-120143000D01*
X78133641Y-120903000D02*
X77826359Y-120903000D01*
%TO.C,U7*%
X56933000Y-132000000D02*
X56933000Y-130000000D01*
X60213000Y-132010000D02*
X60213000Y-130010000D01*
X57003000Y-132650000D02*
X56723000Y-132370000D01*
X57003000Y-132370000D01*
X57003000Y-132650000D01*
G36*
X57003000Y-132650000D02*
G01*
X56723000Y-132370000D01*
X57003000Y-132370000D01*
X57003000Y-132650000D01*
G37*
%TO.C,C22*%
X59537836Y-70355000D02*
X59322164Y-70355000D01*
X59537836Y-71075000D02*
X59322164Y-71075000D01*
%TO.C,Q4*%
X93017500Y-119510000D02*
X92367500Y-119510000D01*
X93017500Y-119510000D02*
X93667500Y-119510000D01*
X93017500Y-122630000D02*
X92367500Y-122630000D01*
X93017500Y-122630000D02*
X93667500Y-122630000D01*
X91855000Y-119560000D02*
X91615000Y-119230000D01*
X92095000Y-119230000D01*
X91855000Y-119560000D01*
G36*
X91855000Y-119560000D02*
G01*
X91615000Y-119230000D01*
X92095000Y-119230000D01*
X91855000Y-119560000D01*
G37*
%TO.C,D9*%
X98380000Y-104700000D02*
X102265000Y-104700000D01*
X102265000Y-102430000D02*
X98380000Y-102430000D01*
X102265000Y-104700000D02*
X102265000Y-102430000D01*
%TO.C,U3*%
X46562500Y-74215000D02*
X49562500Y-74215000D01*
X46562500Y-77485000D02*
X49562500Y-77485000D01*
X46012500Y-74300000D02*
X45532500Y-74300000D01*
X46012500Y-73820000D01*
X46012500Y-74300000D01*
G36*
X46012500Y-74300000D02*
G01*
X45532500Y-74300000D01*
X46012500Y-73820000D01*
X46012500Y-74300000D01*
G37*
%TO.C,R17*%
X47266359Y-142231567D02*
X47573641Y-142231567D01*
X47266359Y-142991567D02*
X47573641Y-142991567D01*
%TO.C,R10*%
X90185000Y-129901359D02*
X90185000Y-130208641D01*
X90945000Y-129901359D02*
X90945000Y-130208641D01*
%TO.C,R16*%
X40008641Y-124565000D02*
X39701359Y-124565000D01*
X40008641Y-125325000D02*
X39701359Y-125325000D01*
%TD*%
M02*
