%TF.GenerationSoftware,KiCad,Pcbnew,9.0.2*%
%TF.CreationDate,2026-03-20T16:38:06-04:00*%
%TF.ProjectId,robot-board,726f626f-742d-4626-9f61-72642e6b6963,rev?*%
%TF.SameCoordinates,Original*%
%TF.FileFunction,Soldermask,Top*%
%TF.FilePolarity,Negative*%
%FSLAX46Y46*%
G04 Gerber Fmt 4.6, Leading zero omitted, Abs format (unit mm)*
G04 Created by KiCad (PCBNEW 9.0.2) date 2026-03-20 16:38:06*
%MOMM*%
%LPD*%
G01*
G04 APERTURE LIST*
G04 Aperture macros list*
%AMRoundRect*
0 Rectangle with rounded corners*
0 $1 Rounding radius*
0 $2 $3 $4 $5 $6 $7 $8 $9 X,Y pos of 4 corners*
0 Add a 4 corners polygon primitive as box body*
4,1,4,$2,$3,$4,$5,$6,$7,$8,$9,$2,$3,0*
0 Add four circle primitives for the rounded corners*
1,1,$1+$1,$2,$3*
1,1,$1+$1,$4,$5*
1,1,$1+$1,$6,$7*
1,1,$1+$1,$8,$9*
0 Add four rect primitives between the rounded corners*
20,1,$1+$1,$2,$3,$4,$5,0*
20,1,$1+$1,$4,$5,$6,$7,0*
20,1,$1+$1,$6,$7,$8,$9,0*
20,1,$1+$1,$8,$9,$2,$3,0*%
G04 Aperture macros list end*
%ADD10C,0.000000*%
%ADD11R,1.500000X1.000000*%
%ADD12RoundRect,0.225000X0.225000X0.375000X-0.225000X0.375000X-0.225000X-0.375000X0.225000X-0.375000X0*%
%ADD13RoundRect,0.262500X-0.262500X-0.737500X0.262500X-0.737500X0.262500X0.737500X-0.262500X0.737500X0*%
%ADD14RoundRect,0.135000X-0.185000X0.135000X-0.185000X-0.135000X0.185000X-0.135000X0.185000X0.135000X0*%
%ADD15C,0.600000*%
%ADD16R,3.900000X3.900000*%
%ADD17R,0.900000X1.500000*%
%ADD18R,1.500000X0.900000*%
%ADD19O,2.000000X1.500000*%
%ADD20C,2.000000*%
%ADD21R,3.000000X2.000000*%
%ADD22RoundRect,0.190500X-0.444500X0.762000X-0.444500X-0.762000X0.444500X-0.762000X0.444500X0.762000X0*%
%ADD23RoundRect,0.250000X0.375000X0.625000X-0.375000X0.625000X-0.375000X-0.625000X0.375000X-0.625000X0*%
%ADD24C,0.650000*%
%ADD25RoundRect,0.150000X-0.150000X-0.377500X0.150000X-0.377500X0.150000X0.377500X-0.150000X0.377500X0*%
%ADD26RoundRect,0.075000X-0.075000X-0.500000X0.075000X-0.500000X0.075000X0.500000X-0.075000X0.500000X0*%
%ADD27O,1.000000X2.100000*%
%ADD28O,1.000000X1.800000*%
%ADD29R,2.000000X3.500001*%
%ADD30R,2.000000X6.000001*%
%ADD31R,2.000000X2.000000*%
%ADD32R,1.500000X2.500000*%
%ADD33RoundRect,0.062500X-0.375000X-0.062500X0.375000X-0.062500X0.375000X0.062500X-0.375000X0.062500X0*%
%ADD34R,1.600000X1.000000*%
%ADD35RoundRect,0.093750X-0.106250X0.093750X-0.106250X-0.093750X0.106250X-0.093750X0.106250X0.093750X0*%
%ADD36RoundRect,0.062500X0.062500X-0.187500X0.062500X0.187500X-0.062500X0.187500X-0.062500X-0.187500X0*%
%ADD37R,2.650000X1.000000*%
%ADD38RoundRect,0.140000X0.170000X-0.140000X0.170000X0.140000X-0.170000X0.140000X-0.170000X-0.140000X0*%
%ADD39R,3.100000X2.300000*%
%ADD40RoundRect,0.135000X0.185000X-0.135000X0.185000X0.135000X-0.185000X0.135000X-0.185000X-0.135000X0*%
%ADD41RoundRect,0.140000X-0.170000X0.140000X-0.170000X-0.140000X0.170000X-0.140000X0.170000X0.140000X0*%
%ADD42RoundRect,0.140000X-0.140000X-0.170000X0.140000X-0.170000X0.140000X0.170000X-0.140000X0.170000X0*%
%ADD43RoundRect,0.135000X-0.135000X-0.185000X0.135000X-0.185000X0.135000X0.185000X-0.135000X0.185000X0*%
%ADD44R,0.254000X0.609600*%
%ADD45R,0.660400X0.254000*%
%ADD46R,0.609600X0.254000*%
%ADD47R,3.403600X0.254000*%
%ADD48R,2.510000X1.000000*%
%ADD49RoundRect,0.150000X0.825000X0.150000X-0.825000X0.150000X-0.825000X-0.150000X0.825000X-0.150000X0*%
%ADD50RoundRect,0.216535X1.053465X-0.883465X1.053465X0.883465X-1.053465X0.883465X-1.053465X-0.883465X0*%
%ADD51RoundRect,0.262500X0.262500X0.737500X-0.262500X0.737500X-0.262500X-0.737500X0.262500X-0.737500X0*%
%ADD52RoundRect,0.135000X0.135000X0.185000X-0.135000X0.185000X-0.135000X-0.185000X0.135000X-0.185000X0*%
%ADD53RoundRect,0.250000X0.450000X-0.262500X0.450000X0.262500X-0.450000X0.262500X-0.450000X-0.262500X0*%
%ADD54RoundRect,0.200000X0.200000X0.275000X-0.200000X0.275000X-0.200000X-0.275000X0.200000X-0.275000X0*%
%ADD55RoundRect,0.200000X-0.275000X0.200000X-0.275000X-0.200000X0.275000X-0.200000X0.275000X0.200000X0*%
%ADD56RoundRect,0.200000X-0.200000X-0.275000X0.200000X-0.275000X0.200000X0.275000X-0.200000X0.275000X0*%
%ADD57RoundRect,0.200000X0.275000X-0.200000X0.275000X0.200000X-0.275000X0.200000X-0.275000X-0.200000X0*%
%ADD58RoundRect,0.150000X-0.587500X-0.150000X0.587500X-0.150000X0.587500X0.150000X-0.587500X0.150000X0*%
%ADD59RoundRect,0.150000X-0.150000X0.587500X-0.150000X-0.587500X0.150000X-0.587500X0.150000X0.587500X0*%
%ADD60R,2.950000X3.500000*%
%ADD61R,3.500000X2.950000*%
%ADD62R,1.000000X2.510000*%
%ADD63RoundRect,0.140000X0.140000X0.170000X-0.140000X0.170000X-0.140000X-0.170000X0.140000X-0.170000X0*%
%ADD64RoundRect,0.250000X-0.325000X-0.650000X0.325000X-0.650000X0.325000X0.650000X-0.325000X0.650000X0*%
G04 APERTURE END LIST*
%TO.C,JP1*%
G36*
X51055970Y-87000000D02*
G01*
X52555970Y-87000000D01*
X52555970Y-86700000D01*
X51055970Y-86700000D01*
X51055970Y-87000000D01*
G37*
D10*
%TO.C,U5*%
G36*
X57588100Y-68587748D02*
G01*
X58105803Y-68587748D01*
X58105803Y-68841748D01*
X57588100Y-68841748D01*
X57588100Y-68879848D01*
X55225900Y-68879848D01*
X55225900Y-68841748D01*
X54708197Y-68841748D01*
X54708200Y-68587748D01*
X55225900Y-68587748D01*
X55225900Y-68549648D01*
X57588100Y-68549648D01*
X57588100Y-68587748D01*
G37*
%TD*%
D11*
%TO.C,JP1*%
X51805970Y-87500000D03*
X51805970Y-86200000D03*
%TD*%
D12*
%TO.C,D10*%
X49800000Y-87500000D03*
X46500000Y-87500000D03*
%TD*%
D13*
%TO.C,SW2*%
X41935000Y-90480000D03*
X46385000Y-90480000D03*
%TD*%
D14*
%TO.C,R44*%
X41900000Y-87290000D03*
X41900000Y-88310000D03*
%TD*%
D15*
%TO.C,U1*%
X46000000Y-108400000D03*
X44600000Y-108400000D03*
X46700000Y-109100000D03*
X45300000Y-109100000D03*
X43900000Y-109100000D03*
X46000000Y-109800000D03*
D16*
X45300000Y-109800000D03*
D15*
X44600000Y-109800000D03*
X46700000Y-110500000D03*
X45300000Y-110500000D03*
X43900000Y-110500000D03*
X46000000Y-111200000D03*
X44600000Y-111200000D03*
D17*
X37580000Y-99550000D03*
X38850000Y-99550000D03*
X40120000Y-99550000D03*
X41390000Y-99550000D03*
X42660000Y-99550000D03*
X43930000Y-99550000D03*
X45200000Y-99550000D03*
X46470000Y-99550000D03*
X47740000Y-99550000D03*
X49010000Y-99550000D03*
X50280000Y-99550000D03*
X51550000Y-99550000D03*
X52820000Y-99550000D03*
X54090000Y-99550000D03*
D18*
X55340000Y-101315000D03*
X55340000Y-102585000D03*
X55340000Y-103855000D03*
X55340000Y-105125000D03*
X55340000Y-106395000D03*
X55340000Y-107665000D03*
X55340000Y-108935000D03*
X55340000Y-110205000D03*
X55340000Y-111475000D03*
X55340000Y-112745000D03*
X55340000Y-114015000D03*
X55340000Y-115285000D03*
D17*
X54090000Y-117050000D03*
X52820000Y-117050000D03*
X51550000Y-117050000D03*
X50280000Y-117050000D03*
X49010000Y-117050000D03*
X47740000Y-117050000D03*
X46470000Y-117050000D03*
X45200000Y-117050000D03*
X43930000Y-117050000D03*
X42660000Y-117050000D03*
X41390000Y-117050000D03*
X40120000Y-117050000D03*
X38850000Y-117050000D03*
X37580000Y-117050000D03*
%TD*%
D19*
%TO.C,J2*%
X70200000Y-54900000D03*
D20*
X70200000Y-59300000D03*
D21*
X75700000Y-54800000D03*
X75700000Y-60800000D03*
X64700000Y-60800000D03*
X64700000Y-54800000D03*
%TD*%
D22*
%TO.C,BZ1*%
X46100000Y-129750000D03*
X40140000Y-129750000D03*
X46100000Y-137340000D03*
X40140000Y-137340000D03*
%TD*%
D23*
%TO.C,D2*%
X101380000Y-80220000D03*
X98580000Y-80220000D03*
%TD*%
%TO.C,D3*%
X101400000Y-90780000D03*
X98600000Y-90780000D03*
%TD*%
%TO.C,D4*%
X100850000Y-64015000D03*
X98050000Y-64015000D03*
%TD*%
%TO.C,D5*%
X101425000Y-85375000D03*
X98625000Y-85375000D03*
%TD*%
%TO.C,D6*%
X100825000Y-69250000D03*
X98025000Y-69250000D03*
%TD*%
%TO.C,D7*%
X101375000Y-97750000D03*
X98575000Y-97750000D03*
%TD*%
%TO.C,D8*%
X100825000Y-74430000D03*
X98025000Y-74430000D03*
%TD*%
%TO.C,D9*%
X98580000Y-103565000D03*
X101380000Y-103565000D03*
%TD*%
D24*
%TO.C,J3*%
X41855000Y-145716567D03*
X47635000Y-145716567D03*
D25*
X41545000Y-144594067D03*
X42345000Y-144594067D03*
D26*
X43495000Y-144641567D03*
X44495000Y-144641567D03*
X44995000Y-144641567D03*
X45995000Y-144641567D03*
D25*
X47145000Y-144594067D03*
X47945000Y-144594067D03*
X47945000Y-144594067D03*
X47145000Y-144594067D03*
D26*
X46495000Y-144641567D03*
X45495000Y-144641567D03*
X43995000Y-144641567D03*
X42995000Y-144641567D03*
D25*
X42345000Y-144594067D03*
X41545000Y-144594067D03*
D27*
X40425000Y-145216567D03*
D28*
X40425000Y-149396567D03*
D27*
X49065000Y-145216567D03*
D28*
X49065000Y-149396567D03*
%TD*%
D29*
%TO.C,J10*%
X56298002Y-138389998D03*
X52298000Y-138389998D03*
D30*
X56298002Y-147639998D03*
X52298000Y-147639998D03*
%TD*%
D31*
%TO.C,TP2*%
X60525000Y-97800000D03*
%TD*%
%TO.C,TP3*%
X61025000Y-90200000D03*
%TD*%
%TO.C,TP4*%
X64025000Y-87700000D03*
%TD*%
%TO.C,TP5*%
X84825000Y-117400000D03*
%TD*%
%TO.C,TP6*%
X84725000Y-113300000D03*
%TD*%
D32*
%TO.C,U2*%
X42737500Y-66025000D03*
D33*
X44175000Y-64775000D03*
X44175000Y-65275000D03*
X44175000Y-65775000D03*
X44175000Y-66275000D03*
X44175000Y-66775000D03*
X44175000Y-67275000D03*
X41300000Y-67275000D03*
X41300000Y-66775000D03*
X41300000Y-66275000D03*
X41300000Y-65775000D03*
X41300000Y-65275000D03*
X41300000Y-64775000D03*
%TD*%
D32*
%TO.C,U3*%
X48062500Y-75850000D03*
D33*
X49500000Y-74600000D03*
X49500000Y-75100000D03*
X49500000Y-75600000D03*
X49500000Y-76100000D03*
X49500000Y-76600000D03*
X49500000Y-77100000D03*
X46625000Y-77100000D03*
X46625000Y-76600000D03*
X46625000Y-76100000D03*
X46625000Y-75600000D03*
X46625000Y-75100000D03*
X46625000Y-74600000D03*
%TD*%
D34*
%TO.C,U4*%
X68075736Y-70937500D03*
D35*
X68725736Y-71825000D03*
X68075736Y-71825000D03*
X67425736Y-71825000D03*
X67425736Y-70050000D03*
X68075736Y-70050000D03*
X68725736Y-70050000D03*
%TD*%
D36*
%TO.C,U6*%
X74633001Y-132448999D03*
X75133001Y-132448999D03*
X75633001Y-132448999D03*
X76133001Y-132448999D03*
X76633001Y-132448999D03*
X77133001Y-132448999D03*
X77133001Y-130548999D03*
X76633001Y-130548999D03*
X76133001Y-130548999D03*
X75633001Y-130548999D03*
X75133001Y-130548999D03*
X74633001Y-130548999D03*
D37*
X75883001Y-131498999D03*
%TD*%
%TO.C,U7*%
X58573000Y-131000000D03*
D36*
X57323000Y-130050000D03*
X57823000Y-130050000D03*
X58323000Y-130050000D03*
X58823000Y-130050000D03*
X59323000Y-130050000D03*
X59823000Y-130050000D03*
X59823000Y-131950000D03*
X59323000Y-131950000D03*
X58823000Y-131950000D03*
X58323000Y-131950000D03*
X57823000Y-131950000D03*
X57323000Y-131950000D03*
%TD*%
D38*
%TO.C,C15*%
X66183236Y-72980000D03*
X66183236Y-72020000D03*
%TD*%
D39*
%TO.C,F1*%
X72425736Y-74525000D03*
X72425736Y-67125000D03*
%TD*%
D40*
%TO.C,R42*%
X52825000Y-118575000D03*
X52825000Y-119595000D03*
%TD*%
%TO.C,R43*%
X54125000Y-118575000D03*
X54125000Y-119595000D03*
%TD*%
D29*
%TO.C,J9*%
X82290401Y-138402498D03*
X78290399Y-138402498D03*
D30*
X78290399Y-147652498D03*
X82290401Y-147652498D03*
%TD*%
D29*
%TO.C,J8*%
X73635500Y-138402498D03*
X69635498Y-138402498D03*
D30*
X73635500Y-147652498D03*
X69635498Y-147652498D03*
%TD*%
D41*
%TO.C,C28*%
X73533001Y-131003999D03*
X73533001Y-131963999D03*
%TD*%
D42*
%TO.C,C23*%
X73533000Y-129519000D03*
X74493000Y-129519000D03*
%TD*%
D43*
%TO.C,R28*%
X95425000Y-74450000D03*
X96445000Y-74450000D03*
%TD*%
%TO.C,R29*%
X95880000Y-103550000D03*
X96900000Y-103550000D03*
%TD*%
D44*
%TO.C,U5*%
X57157189Y-66314702D03*
X56657063Y-66314702D03*
X56156937Y-66314702D03*
X55656811Y-66314702D03*
D45*
X55032400Y-66714244D03*
D46*
X55007000Y-67214370D03*
X55007000Y-70215126D03*
D45*
X55032400Y-70715252D03*
D44*
X55656811Y-71114794D03*
X56156937Y-71114794D03*
X56657063Y-71114794D03*
X57157189Y-71114794D03*
D45*
X57781600Y-70715252D03*
D47*
X56410000Y-69715000D03*
X56410000Y-69214874D03*
X56410000Y-68714748D03*
X56410000Y-68214622D03*
X56410000Y-67714496D03*
D46*
X57807000Y-67214370D03*
D45*
X57781600Y-66714244D03*
D46*
X57807000Y-70215126D03*
%TD*%
D41*
%TO.C,C25*%
X58950000Y-69695000D03*
X58950000Y-68735000D03*
%TD*%
%TO.C,C30*%
X59950000Y-69695000D03*
X59950000Y-68735000D03*
%TD*%
%TO.C,C27*%
X60950000Y-69695000D03*
X60950000Y-68735000D03*
%TD*%
%TO.C,C26*%
X61950000Y-69695000D03*
X61950000Y-68735000D03*
%TD*%
%TO.C,C33*%
X62950000Y-69695000D03*
X62950000Y-68735000D03*
%TD*%
D48*
%TO.C,J7*%
X96855000Y-115970000D03*
X100165000Y-118510000D03*
X96855000Y-121050000D03*
%TD*%
%TO.C,J6*%
X96855000Y-124965000D03*
X100165000Y-127505000D03*
X96855000Y-130045000D03*
%TD*%
%TO.C,J5*%
X96900000Y-134105000D03*
X100210000Y-136645000D03*
X96900000Y-139185000D03*
%TD*%
%TO.C,J4*%
X96875000Y-143195000D03*
X100185000Y-145735000D03*
X96875000Y-148275000D03*
%TD*%
D49*
%TO.C,U9*%
X80925000Y-117190000D03*
X80925000Y-115920000D03*
X80925000Y-114650000D03*
X80925000Y-113380000D03*
X80925000Y-112110000D03*
X80925000Y-110840000D03*
X80925000Y-109570000D03*
X80925000Y-108300000D03*
X75975000Y-108300000D03*
X75975000Y-109570000D03*
X75975000Y-110840000D03*
X75975000Y-112110000D03*
X75975000Y-113380000D03*
X75975000Y-114650000D03*
X75975000Y-115920000D03*
X75975000Y-117190000D03*
%TD*%
D50*
%TO.C,U8*%
X86025000Y-98805000D03*
X86025000Y-96265000D03*
X86025000Y-93725000D03*
X86025000Y-91185000D03*
X86025000Y-88645000D03*
X71025000Y-86100000D03*
X71025000Y-88640000D03*
X71025000Y-91180000D03*
X71025000Y-93720000D03*
X71025000Y-96260000D03*
X71025000Y-98800000D03*
%TD*%
D51*
%TO.C,SW1*%
X41700000Y-122500000D03*
X37250000Y-122500000D03*
%TD*%
D43*
%TO.C,R41*%
X68725000Y-96300000D03*
X67705000Y-96300000D03*
%TD*%
%TO.C,R40*%
X68625000Y-86100000D03*
X67605000Y-86100000D03*
%TD*%
D52*
%TO.C,R39*%
X88415000Y-91100000D03*
X89435000Y-91100000D03*
%TD*%
%TO.C,R38*%
X88415000Y-96200000D03*
X89435000Y-96200000D03*
%TD*%
%TO.C,R37*%
X88415000Y-98700000D03*
X89435000Y-98700000D03*
%TD*%
D43*
%TO.C,R36*%
X68725000Y-93800000D03*
X67705000Y-93800000D03*
%TD*%
D52*
%TO.C,R35*%
X88415000Y-88600000D03*
X89435000Y-88600000D03*
%TD*%
%TO.C,R34*%
X88415000Y-93700000D03*
X89435000Y-93700000D03*
%TD*%
D14*
%TO.C,R33*%
X52250000Y-73275000D03*
X52250000Y-72255000D03*
%TD*%
D43*
%TO.C,R32*%
X53960000Y-71175000D03*
X52940000Y-71175000D03*
%TD*%
D53*
%TO.C,R31*%
X64450000Y-71575000D03*
X64450000Y-69750000D03*
%TD*%
D54*
%TO.C,R30*%
X56150000Y-72715000D03*
X54500000Y-72715000D03*
%TD*%
%TO.C,R27*%
X38850000Y-96710000D03*
X37200000Y-96710000D03*
%TD*%
D55*
%TO.C,R26*%
X38900000Y-95325000D03*
X38900000Y-93675000D03*
%TD*%
D56*
%TO.C,R25*%
X51500000Y-66290000D03*
X53150000Y-66290000D03*
%TD*%
D43*
%TO.C,R24*%
X96995000Y-97755000D03*
X95975000Y-97755000D03*
%TD*%
%TO.C,R23*%
X96445000Y-69265000D03*
X95425000Y-69265000D03*
%TD*%
%TO.C,R22*%
X97095000Y-85350000D03*
X96075000Y-85350000D03*
%TD*%
%TO.C,R21*%
X96520000Y-64000000D03*
X95500000Y-64000000D03*
%TD*%
%TO.C,R20*%
X97045000Y-90775000D03*
X96025000Y-90775000D03*
%TD*%
%TO.C,R19*%
X97020000Y-80225000D03*
X96000000Y-80225000D03*
%TD*%
D52*
%TO.C,R18*%
X41535000Y-142611567D03*
X42555000Y-142611567D03*
%TD*%
D43*
%TO.C,R17*%
X47930000Y-142611567D03*
X46910000Y-142611567D03*
%TD*%
D52*
%TO.C,R16*%
X39345000Y-124945000D03*
X40365000Y-124945000D03*
%TD*%
D14*
%TO.C,R15*%
X94515000Y-118535000D03*
X94515000Y-119555000D03*
%TD*%
%TO.C,R14*%
X94490000Y-127485000D03*
X94490000Y-128505000D03*
%TD*%
%TO.C,R13*%
X94590000Y-136635000D03*
X94590000Y-137655000D03*
%TD*%
%TO.C,R12*%
X94540000Y-145725000D03*
X94540000Y-146745000D03*
%TD*%
%TO.C,R11*%
X90540000Y-120570000D03*
X90540000Y-121590000D03*
%TD*%
%TO.C,R10*%
X90565000Y-129545000D03*
X90565000Y-130565000D03*
%TD*%
%TO.C,R9*%
X90665000Y-138645000D03*
X90665000Y-139665000D03*
%TD*%
%TO.C,R8*%
X90540000Y-147785000D03*
X90540000Y-148805000D03*
%TD*%
D52*
%TO.C,R7*%
X50200000Y-79700000D03*
X51220000Y-79700000D03*
%TD*%
D14*
%TO.C,R6*%
X48670000Y-60305000D03*
X48670000Y-59285000D03*
%TD*%
D57*
%TO.C,R5*%
X51100000Y-77525000D03*
X51100000Y-75875000D03*
%TD*%
%TO.C,R4*%
X52600000Y-79350000D03*
X52600000Y-77700000D03*
%TD*%
D54*
%TO.C,R3*%
X47325000Y-66375000D03*
X45675000Y-66375000D03*
%TD*%
D56*
%TO.C,R2*%
X50020000Y-59005000D03*
X51670000Y-59005000D03*
%TD*%
D43*
%TO.C,R1*%
X40100000Y-118800000D03*
X39080000Y-118800000D03*
%TD*%
D58*
%TO.C,Q8*%
X66825000Y-87700000D03*
X66825000Y-89600000D03*
X68700000Y-88650000D03*
%TD*%
%TO.C,Q7*%
X63887500Y-90250000D03*
X63887500Y-92150000D03*
X65762500Y-91200000D03*
%TD*%
%TO.C,Q6*%
X63287500Y-97850000D03*
X63287500Y-99750000D03*
X65162500Y-98800000D03*
%TD*%
D59*
%TO.C,Q5*%
X39345000Y-126507500D03*
X37445000Y-126507500D03*
X38395000Y-128382500D03*
%TD*%
D58*
%TO.C,Q4*%
X93955000Y-121070000D03*
X92080000Y-122020000D03*
X92080000Y-120120000D03*
%TD*%
%TO.C,Q3*%
X93992500Y-130045000D03*
X92117500Y-130995000D03*
X92117500Y-129095000D03*
%TD*%
%TO.C,Q2*%
X94055000Y-139145000D03*
X92180000Y-140095000D03*
X92180000Y-138195000D03*
%TD*%
%TO.C,Q1*%
X93967500Y-148235000D03*
X92092500Y-149185000D03*
X92092500Y-147285000D03*
%TD*%
D60*
%TO.C,L3*%
X53425000Y-62015000D03*
X58875000Y-62015000D03*
%TD*%
D61*
%TO.C,L2*%
X43775000Y-78775000D03*
X43775000Y-84225000D03*
%TD*%
D60*
%TO.C,L1*%
X40350000Y-59075000D03*
X45800000Y-59075000D03*
%TD*%
D30*
%TO.C,J11*%
X60947899Y-147664998D03*
X64947901Y-147664998D03*
D29*
X60947899Y-138414998D03*
X64947901Y-138414998D03*
%TD*%
D62*
%TO.C,J1*%
X79545000Y-56090000D03*
X82085000Y-59400000D03*
X84625000Y-56090000D03*
X87165000Y-59400000D03*
X89705000Y-56090000D03*
X92245000Y-59400000D03*
X94785000Y-56090000D03*
X97325000Y-59400000D03*
X99865000Y-56090000D03*
%TD*%
D12*
%TO.C,D1*%
X44845000Y-127345000D03*
X41545000Y-127345000D03*
%TD*%
D38*
%TO.C,C32*%
X54450000Y-74875000D03*
X54450000Y-73915000D03*
%TD*%
%TO.C,C31*%
X53250000Y-73855000D03*
X53250000Y-72895000D03*
%TD*%
D41*
%TO.C,C29*%
X56273000Y-131000000D03*
X56273000Y-131960000D03*
%TD*%
D38*
%TO.C,C24*%
X56275000Y-130080000D03*
X56275000Y-129120000D03*
%TD*%
D63*
%TO.C,C22*%
X59910000Y-70715000D03*
X58950000Y-70715000D03*
%TD*%
D38*
%TO.C,C21*%
X58950000Y-67875000D03*
X58950000Y-66915000D03*
%TD*%
D42*
%TO.C,C20*%
X37840000Y-97900000D03*
X38800000Y-97900000D03*
%TD*%
D38*
%TO.C,C19*%
X53850000Y-68685000D03*
X53850000Y-67725000D03*
%TD*%
D42*
%TO.C,C18*%
X57270000Y-72415000D03*
X58230000Y-72415000D03*
%TD*%
D38*
%TO.C,C17*%
X51850000Y-68675000D03*
X51850000Y-67715000D03*
%TD*%
%TO.C,C16*%
X52850000Y-68675000D03*
X52850000Y-67715000D03*
%TD*%
D64*
%TO.C,C14*%
X48300000Y-81550000D03*
X51250000Y-81550000D03*
%TD*%
D63*
%TO.C,C13*%
X51130000Y-57605000D03*
X50170000Y-57605000D03*
%TD*%
D64*
%TO.C,C12*%
X48300000Y-83925000D03*
X51250000Y-83925000D03*
%TD*%
D63*
%TO.C,C11*%
X51130000Y-56605000D03*
X50170000Y-56605000D03*
%TD*%
%TO.C,C10*%
X51160000Y-78700000D03*
X50200000Y-78700000D03*
%TD*%
%TO.C,C9*%
X50930000Y-60405000D03*
X49970000Y-60405000D03*
%TD*%
D41*
%TO.C,C8*%
X45400000Y-75120000D03*
X45400000Y-76080000D03*
%TD*%
%TO.C,C7*%
X39800000Y-65175000D03*
X39800000Y-66135000D03*
%TD*%
D42*
%TO.C,C6*%
X49480000Y-73600000D03*
X48520000Y-73600000D03*
%TD*%
D41*
%TO.C,C5*%
X46400000Y-64015000D03*
X46400000Y-64975000D03*
%TD*%
D42*
%TO.C,C4*%
X48540000Y-72600000D03*
X49500000Y-72600000D03*
%TD*%
D41*
%TO.C,C3*%
X45340000Y-64032500D03*
X45340000Y-64992500D03*
%TD*%
D42*
%TO.C,C2*%
X48540000Y-71600000D03*
X49500000Y-71600000D03*
%TD*%
D41*
%TO.C,C1*%
X47350000Y-64015000D03*
X47350000Y-64975000D03*
%TD*%
M02*
