%TF.GenerationSoftware,KiCad,Pcbnew,9.0.2*%
%TF.CreationDate,2026-03-20T16:38:06-04:00*%
%TF.ProjectId,robot-board,726f626f-742d-4626-9f61-72642e6b6963,rev?*%
%TF.SameCoordinates,Original*%
%TF.FileFunction,Copper,L4,Bot*%
%TF.FilePolarity,Positive*%
%FSLAX46Y46*%
G04 Gerber Fmt 4.6, Leading zero omitted, Abs format (unit mm)*
G04 Created by KiCad (PCBNEW 9.0.2) date 2026-03-20 16:38:06*
%MOMM*%
%LPD*%
G01*
G04 APERTURE LIST*
%TA.AperFunction,EtchedComponent*%
%ADD10C,0.000000*%
%TD*%
%TA.AperFunction,HeatsinkPad*%
%ADD11C,0.600000*%
%TD*%
%TA.AperFunction,ComponentPad*%
%ADD12O,1.000000X2.100000*%
%TD*%
%TA.AperFunction,ComponentPad*%
%ADD13O,1.000000X1.800000*%
%TD*%
%TA.AperFunction,ComponentPad*%
%ADD14R,2.000000X2.000000*%
%TD*%
%TA.AperFunction,SMDPad,CuDef*%
%ADD15C,0.500000*%
%TD*%
%TA.AperFunction,ViaPad*%
%ADD16C,0.600000*%
%TD*%
%TA.AperFunction,Conductor*%
%ADD17C,0.200000*%
%TD*%
%TA.AperFunction,Conductor*%
%ADD18C,0.500000*%
%TD*%
%TA.AperFunction,Conductor*%
%ADD19C,1.000000*%
%TD*%
%TA.AperFunction,Conductor*%
%ADD20C,1.500000*%
%TD*%
%TA.AperFunction,Conductor*%
%ADD21C,2.000000*%
%TD*%
%TA.AperFunction,Conductor*%
%ADD22C,0.300000*%
%TD*%
%TA.AperFunction,Conductor*%
%ADD23C,0.400000*%
%TD*%
G04 APERTURE END LIST*
D10*
%TA.AperFunction,EtchedComponent*%
%TO.C,NT2*%
G36*
X49300000Y-78775000D02*
G01*
X48300000Y-78775000D01*
X48300000Y-78275000D01*
X49300000Y-78275000D01*
X49300000Y-78775000D01*
G37*
%TD.AperFunction*%
%TD*%
D11*
%TO.P,U1,41,GND*%
%TO.N,GND*%
X46000000Y-108400000D03*
X44600000Y-108400000D03*
X46700000Y-109100000D03*
X45300000Y-109100000D03*
X43900000Y-109100000D03*
X46000000Y-109800000D03*
X44600000Y-109800000D03*
X46700000Y-110500000D03*
X45300000Y-110500000D03*
X43900000Y-110500000D03*
X46000000Y-111200000D03*
X44600000Y-111200000D03*
%TD*%
D12*
%TO.P,J3,S1,SHIELD*%
%TO.N,unconnected-(J3-SHIELD-PadS1)*%
X40425000Y-145216567D03*
D13*
%TO.N,unconnected-(J3-SHIELD-PadS1)_1*%
X40425000Y-149396567D03*
D12*
%TO.N,unconnected-(J3-SHIELD-PadS1)_3*%
X49065000Y-145216567D03*
D13*
%TO.N,unconnected-(J3-SHIELD-PadS1)_2*%
X49065000Y-149396567D03*
%TD*%
D14*
%TO.P,TP2,1,1*%
%TO.N,/BMS_D0*%
X60525000Y-97800000D03*
%TD*%
%TO.P,TP3,1,1*%
%TO.N,/BMS_D1*%
X61025000Y-90200000D03*
%TD*%
%TO.P,TP4,1,1*%
%TO.N,/BMS_D2*%
X64025000Y-87700000D03*
%TD*%
%TO.P,TP5,1,1*%
%TO.N,/BMS_SDI*%
X84825000Y-117400000D03*
%TD*%
%TO.P,TP6,1,1*%
%TO.N,/BMS_CLK*%
X84725000Y-113300000D03*
%TD*%
D15*
%TO.P,NT2,1,1*%
%TO.N,AGND*%
X49300000Y-78525000D03*
%TO.P,NT2,2,2*%
%TO.N,PGND*%
X48300000Y-78525000D03*
%TD*%
D16*
%TO.N,GND*%
X48400000Y-101200000D03*
%TO.N,Net-(D10-A)*%
X44600000Y-87500000D03*
X42300000Y-143600000D03*
%TO.N,/BS*%
X42000000Y-92600000D03*
X55279515Y-98501879D03*
%TO.N,/LBAT_LED*%
X52200000Y-98000000D03*
X48600000Y-109400000D03*
X49675832Y-100775639D03*
X48600000Y-112600000D03*
%TO.N,+3V3*%
X96700000Y-55600000D03*
X59112500Y-56612500D03*
%TO.N,GND*%
X66400000Y-85200000D03*
X72200000Y-102500000D03*
%TO.N,Vprot*%
X67325000Y-74525000D03*
%TO.N,GND*%
X46750000Y-71450000D03*
X76008236Y-72175000D03*
X101800000Y-141125000D03*
X98875000Y-141000000D03*
X101550000Y-122675000D03*
X99025000Y-122675000D03*
X70575000Y-109525000D03*
X66250000Y-104350000D03*
X73775000Y-115700000D03*
X94425000Y-132500000D03*
X91975000Y-123625000D03*
X92525000Y-112275000D03*
X97450000Y-100900000D03*
X97800000Y-112275000D03*
X101850000Y-113150000D03*
X49625000Y-135200000D03*
X67400000Y-134625000D03*
X62700000Y-118525000D03*
X70300000Y-77875000D03*
X63025000Y-76725000D03*
X61200000Y-62000000D03*
%TO.N,PGND*%
X60137000Y-59150000D03*
%TO.N,AGND*%
X53386765Y-74588235D03*
%TO.N,GND*%
X59575000Y-131000000D03*
X57625000Y-131000000D03*
X74925000Y-131498999D03*
X76850000Y-131498999D03*
X57200000Y-134825000D03*
X59975000Y-134825000D03*
X74475000Y-134925000D03*
X77300000Y-134925000D03*
X80225000Y-142425000D03*
X75975000Y-142400000D03*
X71600000Y-142425000D03*
X54275000Y-142500000D03*
X58600000Y-142500000D03*
X62975000Y-142500000D03*
%TO.N,+3V3*%
X45950000Y-127350000D03*
X51461248Y-127711248D03*
%TO.N,GND*%
X62025000Y-111850000D03*
X78875000Y-110875000D03*
X78100000Y-120700000D03*
X61025000Y-107550000D03*
X56825000Y-105975000D03*
X53750000Y-107800000D03*
X50200000Y-112900000D03*
X50800000Y-105400000D03*
X59675000Y-93600000D03*
X65525000Y-93675000D03*
X63800000Y-93600000D03*
X57675000Y-98925000D03*
X46950000Y-114500000D03*
X78850000Y-105475000D03*
X96125000Y-95550000D03*
%TO.N,/LBAT_LED*%
X59500000Y-88300000D03*
X82725000Y-80175000D03*
%TO.N,/RADIO_LED*%
X72750000Y-104775000D03*
X82200000Y-89375000D03*
X60888246Y-106761776D03*
X71803235Y-105771765D03*
%TO.N,/TX_LED*%
X89986968Y-117814503D03*
X62575000Y-123775000D03*
X50300000Y-118675000D03*
X56150000Y-123800000D03*
%TO.N,/RX_LED*%
X49075000Y-118475000D03*
X61975000Y-124400000D03*
X89899997Y-118750000D03*
X55525000Y-124400000D03*
%TO.N,/LFR_LED*%
X61700000Y-109375000D03*
X72900000Y-107700000D03*
%TO.N,/LFC_LED*%
X59875000Y-110075000D03*
X72075000Y-106700000D03*
%TO.N,/LFL_LED*%
X58775000Y-88900000D03*
X51960626Y-108600000D03*
X59254515Y-86804515D03*
X53325000Y-97975000D03*
%TO.N,/BMS_CLK*%
X67412500Y-113312500D03*
X53600000Y-110800000D03*
X56775000Y-110800000D03*
%TO.N,/BMS_D1*%
X57650000Y-114675000D03*
X57625000Y-97025000D03*
%TO.N,/BMS_D0*%
X43100000Y-97525000D03*
X54274265Y-97874265D03*
%TO.N,GND*%
X50950000Y-98000000D03*
X52675000Y-56800000D03*
X92250000Y-55600000D03*
X86600000Y-55600000D03*
X82500000Y-55500000D03*
X61125000Y-55850000D03*
X40475000Y-86800000D03*
X83850000Y-132250000D03*
X88125000Y-128375000D03*
X89800000Y-137675000D03*
X88200000Y-144925000D03*
X49700000Y-123400000D03*
X44275000Y-125025000D03*
%TO.N,Vprot*%
X47200000Y-69075000D03*
%TO.N,+5V*%
X62350000Y-92125000D03*
%TO.N,+7V*%
X72625000Y-131975000D03*
X63125000Y-71425000D03*
%TO.N,+3V3*%
X89575000Y-129525000D03*
X73512000Y-128538000D03*
%TO.N,/BMS_D2*%
X55879515Y-90179515D03*
X53749493Y-101228553D03*
%TO.N,/BMS_SDI*%
X43300000Y-115400000D03*
X55425000Y-117250000D03*
X60400000Y-116375000D03*
%TO.N,/SERVO3_PWM*%
X57138235Y-103011765D03*
X60488225Y-103816165D03*
%TO.N,/SERVO2_PWM*%
X59611765Y-103788235D03*
X57925735Y-103799265D03*
%TO.N,/SERVO1_PWM*%
X84750000Y-134475000D03*
X86025000Y-135025000D03*
%TO.N,+7V*%
X56275000Y-132775000D03*
%TO.N,/MOTOR1_EN*%
X52950000Y-101200000D03*
X60275000Y-119200000D03*
X61350000Y-125314467D03*
X57725000Y-116700000D03*
%TO.N,/MOTOR1_PWM*%
X52216668Y-124691668D03*
X52673745Y-126498748D03*
%TO.N,/MOTOR0_EN*%
X60175000Y-120325000D03*
X60750000Y-126498748D03*
X57725000Y-118100000D03*
X51575000Y-101225000D03*
%TO.N,/MOTOR0_PWM*%
X52073748Y-127098748D03*
X50450000Y-126375000D03*
%TO.N,/MOTOR3_EN*%
X60125000Y-129300000D03*
X60126000Y-121351000D03*
X57725000Y-118900003D03*
X41425000Y-100775000D03*
%TO.N,/MOTOR3_PWM*%
X59525000Y-112375000D03*
X59525000Y-128080164D03*
%TO.N,/MOTOR2_EN*%
X58925000Y-128609313D03*
X58422500Y-108527500D03*
%TO.N,/MOTOR2_PWM*%
X58325000Y-129175000D03*
X58325000Y-113200000D03*
%TO.N,+3V3*%
X39650000Y-84875000D03*
X44050000Y-74000000D03*
X38850000Y-115250000D03*
X44050000Y-61500000D03*
%TO.N,GND*%
X75883001Y-131498999D03*
X58573000Y-131000000D03*
%TO.N,+5V*%
X49800000Y-85375000D03*
%TO.N,AGND*%
X46400000Y-66300000D03*
X46600492Y-63235279D03*
%TO.N,PGND*%
X48300000Y-78500000D03*
X49600000Y-64050000D03*
%TO.N,AGND*%
X52025000Y-75850000D03*
%TO.N,Vprot*%
X49550000Y-70200000D03*
%TO.N,+7V*%
X52150000Y-71275000D03*
%TO.N,+5V*%
X97900000Y-128830000D03*
X100165000Y-131080000D03*
X97900000Y-135999265D03*
X100165000Y-133730000D03*
X97900000Y-117929265D03*
X99103963Y-117450192D03*
%TO.N,Vprot*%
X48240380Y-64965380D03*
X51450000Y-67575000D03*
%TO.N,/BUZZER*%
X46500000Y-118300000D03*
X41088989Y-124893267D03*
%TO.N,PGND*%
X50807183Y-58180874D03*
X50000000Y-61375000D03*
%TO.N,Net-(Q6-D)*%
X68925000Y-98800000D03*
X66505000Y-98800000D03*
%TO.N,Net-(U9-~{OUT6})*%
X68325000Y-87600000D03*
X68325000Y-97800000D03*
%TO.N,Net-(U9-~{OUT2})*%
X79025000Y-109501000D03*
X67105000Y-100225000D03*
%TO.N,Net-(U9-~{OUT1})*%
X91025000Y-90200000D03*
X90000000Y-102225000D03*
%TO.N,AGND*%
X54050000Y-65590000D03*
X55179064Y-74875000D03*
%TD*%
D17*
%TO.N,Net-(D10-A)*%
X40487989Y-91612011D02*
X44600000Y-87500000D01*
X40487989Y-93262068D02*
X40487989Y-91612011D01*
X42300000Y-143600000D02*
X40487989Y-141787989D01*
X40487989Y-141787989D02*
X40487989Y-93262068D01*
%TO.N,/MOTOR1_PWM*%
X52225000Y-124700000D02*
X52225000Y-126050003D01*
X52225000Y-126050003D02*
X52673745Y-126498748D01*
X52216668Y-124691668D02*
X52225000Y-124700000D01*
%TO.N,/LFL_LED*%
X51960626Y-108600000D02*
X51960626Y-108489904D01*
X52000000Y-108450530D02*
X52000000Y-102499943D01*
X52000000Y-102499943D02*
X50974000Y-101473943D01*
X50974000Y-101473943D02*
X50974000Y-100326000D01*
X51960626Y-108489904D02*
X52000000Y-108450530D01*
X50974000Y-100326000D02*
X53325000Y-97975000D01*
%TO.N,/MOTOR0_EN*%
X57725000Y-118000000D02*
X52950000Y-113225000D01*
X52950000Y-113225000D02*
X52950000Y-111850000D01*
X52950000Y-111850000D02*
X52560626Y-111460626D01*
X52560626Y-111460626D02*
X52560626Y-102210626D01*
X57725000Y-118100000D02*
X57725000Y-118000000D01*
X52560626Y-102210626D02*
X51575000Y-101225000D01*
%TO.N,/BS*%
X43200000Y-93800000D02*
X42000000Y-92600000D01*
X43900000Y-93800000D02*
X43200000Y-93800000D01*
X51049943Y-93800000D02*
X43900000Y-93800000D01*
X55279515Y-98029572D02*
X51049943Y-93800000D01*
X55279515Y-98501879D02*
X55279515Y-98029572D01*
%TO.N,/LBAT_LED*%
X48600000Y-109400000D02*
X48600000Y-112600000D01*
X52200000Y-98532900D02*
X52200000Y-98000000D01*
X49675832Y-100775639D02*
X49957261Y-100775639D01*
X49957261Y-100775639D02*
X52200000Y-98532900D01*
%TO.N,+3V3*%
X96700000Y-55600000D02*
X95400000Y-54300000D01*
X76387500Y-56612500D02*
X59112500Y-56612500D01*
X95400000Y-54300000D02*
X78700000Y-54300000D01*
X78700000Y-54300000D02*
X76387500Y-56612500D01*
%TO.N,/LFC_LED*%
X60150057Y-110075000D02*
X59875000Y-110075000D01*
X72075000Y-106700000D02*
X71476000Y-107299000D01*
X63208900Y-107299000D02*
X61733900Y-108774000D01*
X71476000Y-107299000D02*
X63208900Y-107299000D01*
X61733900Y-108774000D02*
X61451057Y-108774000D01*
X61451057Y-108774000D02*
X60150057Y-110075000D01*
D18*
%TO.N,Vprot*%
X48240380Y-64965380D02*
X50815380Y-64965380D01*
X50815380Y-64965380D02*
X51450000Y-65600000D01*
X49550000Y-70200000D02*
X49550000Y-69475000D01*
X49550000Y-69475000D02*
X49925000Y-69100000D01*
X48240380Y-64965380D02*
X48250000Y-64975000D01*
D19*
X47200000Y-69075000D02*
X47225000Y-69100000D01*
D20*
X49925000Y-69100000D02*
X51450000Y-67575000D01*
D19*
X47225000Y-69100000D02*
X49925000Y-69100000D01*
D21*
X67325000Y-74525000D02*
X67325000Y-73140628D01*
X67325000Y-73140628D02*
X57859372Y-63675000D01*
X57859372Y-63675000D02*
X53375000Y-63675000D01*
D18*
%TO.N,PGND*%
X60137000Y-59150000D02*
X59112000Y-58125000D01*
X59112000Y-58125000D02*
X50863057Y-58125000D01*
X50863057Y-58125000D02*
X50807183Y-58180874D01*
D22*
%TO.N,AGND*%
X53386765Y-74588235D02*
X51509739Y-74588235D01*
X46349000Y-66351000D02*
X46400000Y-66300000D01*
X46349000Y-69427496D02*
X46349000Y-66351000D01*
X51509739Y-74588235D02*
X46349000Y-69427496D01*
D17*
%TO.N,+3V3*%
X51461248Y-127711248D02*
X51447496Y-127725000D01*
X50750000Y-127725000D02*
X50375000Y-127350000D01*
X51447496Y-127725000D02*
X50750000Y-127725000D01*
X50375000Y-127350000D02*
X45950000Y-127350000D01*
%TO.N,/RADIO_LED*%
X60976470Y-106850000D02*
X70725000Y-106850000D01*
X60888246Y-106761776D02*
X60976470Y-106850000D01*
X70725000Y-106850000D02*
X71803235Y-105771765D01*
D22*
%TO.N,/BMS_D1*%
X56487235Y-104050000D02*
X56487235Y-98162765D01*
X56500000Y-104050000D02*
X56487235Y-104050000D01*
X56487235Y-98162765D02*
X57625000Y-97025000D01*
X57650000Y-114675000D02*
X57650000Y-105200000D01*
X57650000Y-105200000D02*
X56500000Y-104050000D01*
D17*
%TO.N,/MOTOR3_PWM*%
X59525000Y-128080164D02*
X59525000Y-112375000D01*
%TO.N,/TX_LED*%
X89652470Y-118149000D02*
X89651054Y-118149000D01*
X89986968Y-117814503D02*
X89652470Y-118149000D01*
X89298997Y-118501057D02*
X89298997Y-118783903D01*
X89651054Y-118149000D02*
X89298997Y-118501057D01*
X62799000Y-123999000D02*
X62575000Y-123775000D01*
X84083900Y-123999000D02*
X62799000Y-123999000D01*
X89298997Y-118783903D02*
X84083900Y-123999000D01*
%TO.N,/RX_LED*%
X89899997Y-118750000D02*
X89899997Y-118750003D01*
X89899997Y-118750003D02*
X84250000Y-124400000D01*
X84250000Y-124400000D02*
X61975000Y-124400000D01*
%TO.N,/MOTOR1_EN*%
X61350000Y-125314467D02*
X61350000Y-120450000D01*
X61350000Y-120450000D02*
X60275000Y-119375000D01*
X60275000Y-119375000D02*
X60275000Y-119200000D01*
%TO.N,/MOTOR0_EN*%
X60750000Y-126498748D02*
X60750000Y-121025000D01*
X60175000Y-120450000D02*
X60175000Y-120325000D01*
X60750000Y-121025000D02*
X60175000Y-120450000D01*
%TO.N,/LBAT_LED*%
X55025000Y-95426470D02*
X55200735Y-95250735D01*
%TO.N,/BMS_D0*%
X54274265Y-97874265D02*
X53775000Y-97375000D01*
X53775000Y-97375000D02*
X43250000Y-97375000D01*
X43250000Y-97375000D02*
X43100000Y-97525000D01*
%TO.N,/LBAT_LED*%
X67625000Y-80175000D02*
X59500000Y-88300000D01*
X82725000Y-80175000D02*
X67625000Y-80175000D01*
%TO.N,/RADIO_LED*%
X82200000Y-89375000D02*
X82200000Y-95325000D01*
X82200000Y-95325000D02*
X72750000Y-104775000D01*
%TO.N,Net-(U9-~{OUT2})*%
X67105000Y-100225000D02*
X76381000Y-109501000D01*
X76381000Y-109501000D02*
X79025000Y-109501000D01*
D21*
%TO.N,Vprot*%
X53375000Y-63675000D02*
X51450000Y-65600000D01*
D20*
X51450000Y-65600000D02*
X51450000Y-67575000D01*
D17*
%TO.N,/TX_LED*%
X56150000Y-123800000D02*
X55425000Y-123800000D01*
X55425000Y-123800000D02*
X50300000Y-118675000D01*
%TO.N,/RX_LED*%
X55525000Y-124400000D02*
X55475000Y-124350000D01*
X55475000Y-124350000D02*
X54150000Y-124350000D01*
X54150000Y-124350000D02*
X49075000Y-119275000D01*
X49075000Y-119275000D02*
X49075000Y-118475000D01*
%TO.N,Net-(U9-~{OUT1})*%
X90000000Y-102225000D02*
X91925000Y-100300000D01*
X91925000Y-100300000D02*
X91925000Y-91100000D01*
X91925000Y-91100000D02*
X91025000Y-90200000D01*
%TO.N,/LFR_LED*%
X61700000Y-109375000D02*
X63375000Y-107700000D01*
X63375000Y-107700000D02*
X72900000Y-107700000D01*
%TO.N,/MOTOR2_EN*%
X58422500Y-108527500D02*
X58925000Y-109030000D01*
X58925000Y-109030000D02*
X58925000Y-128609313D01*
%TO.N,/LFL_LED*%
X59254515Y-86804515D02*
X58775000Y-87284030D01*
X58775000Y-87284030D02*
X58775000Y-88900000D01*
%TO.N,/BMS_CLK*%
X68487500Y-113312500D02*
X68500000Y-113300000D01*
X67412500Y-113312500D02*
X68487500Y-113312500D01*
X68500000Y-113300000D02*
X84725000Y-113300000D01*
X53600000Y-110800000D02*
X56775000Y-110800000D01*
%TO.N,/MOTOR2_PWM*%
X58325000Y-113200000D02*
X58325000Y-129175000D01*
D18*
%TO.N,+5V*%
X60048000Y-92125000D02*
X62350000Y-92125000D01*
X53298000Y-85375000D02*
X60048000Y-92125000D01*
X49800000Y-85375000D02*
X53298000Y-85375000D01*
D17*
%TO.N,+3V3*%
X89575000Y-129525000D02*
X74499000Y-129525000D01*
X74499000Y-129525000D02*
X73512000Y-128538000D01*
%TO.N,/BMS_D2*%
X55879515Y-99098531D02*
X55879515Y-90179515D01*
X53749493Y-101228553D02*
X55879515Y-99098531D01*
D22*
%TO.N,/BMS_SDI*%
X45325000Y-115400000D02*
X43300000Y-115400000D01*
X55425000Y-117250000D02*
X47175000Y-117250000D01*
X47175000Y-117250000D02*
X45325000Y-115400000D01*
X61425000Y-117400000D02*
X60400000Y-116375000D01*
X84825000Y-117400000D02*
X61425000Y-117400000D01*
D17*
%TO.N,/SERVO3_PWM*%
X59683825Y-103011765D02*
X57138235Y-103011765D01*
X60488225Y-103816165D02*
X59683825Y-103011765D01*
%TO.N,/SERVO2_PWM*%
X57936765Y-103788235D02*
X57925735Y-103799265D01*
X59611765Y-103788235D02*
X57936765Y-103788235D01*
%TO.N,/SERVO1_PWM*%
X85300000Y-135025000D02*
X84750000Y-134475000D01*
X86025000Y-135025000D02*
X85300000Y-135025000D01*
%TO.N,/MOTOR3_EN*%
X57725000Y-118900003D02*
X57725000Y-118701000D01*
X52625000Y-113467100D02*
X52549000Y-113391100D01*
X57725000Y-118701000D02*
X57476057Y-118701000D01*
X57476057Y-118701000D02*
X57124000Y-118348943D01*
X57124000Y-118348943D02*
X57124000Y-117999000D01*
X57124000Y-117999000D02*
X52625000Y-113500000D01*
X52625000Y-113500000D02*
X52625000Y-113467100D01*
X41425000Y-100975000D02*
X41425000Y-100775000D01*
X52549000Y-113391100D02*
X52549000Y-112099000D01*
X52549000Y-112099000D02*
X41425000Y-100975000D01*
%TO.N,/MOTOR1_EN*%
X56992100Y-116700000D02*
X53351000Y-113058900D01*
X53351000Y-111683900D02*
X52961626Y-111294526D01*
X57725000Y-116700000D02*
X56992100Y-116700000D01*
X53351000Y-113058900D02*
X53351000Y-111683900D01*
X52961626Y-111294526D02*
X52961626Y-101211626D01*
X52961626Y-101211626D02*
X52950000Y-101200000D01*
%TO.N,/MOTOR0_PWM*%
X51173748Y-127098748D02*
X50450000Y-126375000D01*
X52073748Y-127098748D02*
X51173748Y-127098748D01*
%TO.N,/MOTOR3_EN*%
X60125000Y-129300000D02*
X60125000Y-121352000D01*
X60125000Y-121352000D02*
X60126000Y-121351000D01*
D18*
%TO.N,+3V3*%
X38850000Y-85675000D02*
X39650000Y-84875000D01*
X38850000Y-115250000D02*
X38850000Y-85675000D01*
X44050000Y-74000000D02*
X44050000Y-61500000D01*
D17*
%TO.N,AGND*%
X46600492Y-66099508D02*
X46400000Y-66300000D01*
X46600492Y-63235279D02*
X46600492Y-66099508D01*
X49300000Y-78525000D02*
X51975000Y-75850000D01*
X51975000Y-75850000D02*
X52025000Y-75850000D01*
%TO.N,+5V*%
X97900000Y-117920000D02*
X97900000Y-117929265D01*
X99103963Y-117450192D02*
X98369808Y-117450192D01*
X98369808Y-117450192D02*
X97900000Y-117920000D01*
D23*
%TO.N,PGND*%
X49600000Y-64050000D02*
X49600000Y-61775000D01*
X49600000Y-61775000D02*
X50000000Y-61375000D01*
D17*
%TO.N,AGND*%
X54204064Y-75850000D02*
X55179064Y-74875000D01*
X52025000Y-75850000D02*
X54204064Y-75850000D01*
%TO.N,+5V*%
X97900000Y-128830000D02*
X100150000Y-131080000D01*
X100150000Y-131080000D02*
X100165000Y-131080000D01*
X97900000Y-135995000D02*
X100165000Y-133730000D01*
X97900000Y-135999265D02*
X97900000Y-135995000D01*
%TO.N,/BUZZER*%
X46500000Y-119500000D02*
X46500000Y-118300000D01*
X41088989Y-124893267D02*
X41106733Y-124893267D01*
X41106733Y-124893267D02*
X46500000Y-119500000D01*
D18*
%TO.N,PGND*%
X50000000Y-58988057D02*
X50807183Y-58180874D01*
X50000000Y-61375000D02*
X50000000Y-58988057D01*
D22*
%TO.N,Net-(Q6-D)*%
X66505000Y-98800000D02*
X68925000Y-98800000D01*
D17*
%TO.N,Net-(U9-~{OUT6})*%
X68325000Y-87600000D02*
X68325000Y-97800000D01*
D19*
%TO.N,AGND*%
X54050000Y-65590000D02*
X54050000Y-73745936D01*
D18*
X54050000Y-73745936D02*
X55179064Y-74875000D01*
%TD*%
%TA.AperFunction,Conductor*%
%TO.N,GND*%
G36*
X41293692Y-101693373D02*
G01*
X41300170Y-101699405D01*
X48156272Y-108555507D01*
X48189757Y-108616830D01*
X48184773Y-108686522D01*
X48142901Y-108742455D01*
X48137483Y-108746289D01*
X48089713Y-108778208D01*
X48089707Y-108778213D01*
X47978213Y-108889707D01*
X47978210Y-108889711D01*
X47890609Y-109020814D01*
X47890602Y-109020827D01*
X47830264Y-109166498D01*
X47830261Y-109166510D01*
X47799500Y-109321153D01*
X47799500Y-109478846D01*
X47830261Y-109633489D01*
X47830264Y-109633501D01*
X47890602Y-109779172D01*
X47890609Y-109779185D01*
X47978602Y-109910874D01*
X47999480Y-109977551D01*
X47999500Y-109979765D01*
X47999500Y-112020234D01*
X47979815Y-112087273D01*
X47978602Y-112089125D01*
X47890609Y-112220814D01*
X47890602Y-112220827D01*
X47830264Y-112366498D01*
X47830261Y-112366510D01*
X47799500Y-112521153D01*
X47799500Y-112678846D01*
X47830261Y-112833489D01*
X47830264Y-112833501D01*
X47890602Y-112979172D01*
X47890609Y-112979185D01*
X47978210Y-113110288D01*
X47978213Y-113110292D01*
X48089707Y-113221786D01*
X48089711Y-113221789D01*
X48220814Y-113309390D01*
X48220827Y-113309397D01*
X48366498Y-113369735D01*
X48366503Y-113369737D01*
X48521153Y-113400499D01*
X48521156Y-113400500D01*
X48521158Y-113400500D01*
X48678844Y-113400500D01*
X48678845Y-113400499D01*
X48833497Y-113369737D01*
X48972784Y-113312043D01*
X48979172Y-113309397D01*
X48979172Y-113309396D01*
X48979179Y-113309394D01*
X49110289Y-113221789D01*
X49221789Y-113110289D01*
X49309394Y-112979179D01*
X49369737Y-112833497D01*
X49400500Y-112678842D01*
X49400500Y-112521158D01*
X49400500Y-112521155D01*
X49400499Y-112521153D01*
X49387110Y-112453842D01*
X49369737Y-112366503D01*
X49361963Y-112347735D01*
X49309397Y-112220827D01*
X49309390Y-112220814D01*
X49221398Y-112089125D01*
X49200520Y-112022447D01*
X49200500Y-112020234D01*
X49200500Y-109979765D01*
X49205827Y-109961620D01*
X49206165Y-109942714D01*
X49219665Y-109914495D01*
X49220185Y-109912726D01*
X49221397Y-109910876D01*
X49238494Y-109885288D01*
X49253709Y-109862517D01*
X49307318Y-109817713D01*
X49376643Y-109809004D01*
X49439671Y-109839158D01*
X49444491Y-109843727D01*
X51912181Y-112311416D01*
X51945666Y-112372739D01*
X51948500Y-112399097D01*
X51948500Y-113304430D01*
X51948499Y-113304448D01*
X51948499Y-113470154D01*
X51948498Y-113470154D01*
X51989424Y-113622889D01*
X51989425Y-113622890D01*
X52008483Y-113655900D01*
X52008492Y-113655914D01*
X52010505Y-113659400D01*
X52068480Y-113759816D01*
X52096651Y-113787987D01*
X52103447Y-113798168D01*
X52104133Y-113800362D01*
X52107699Y-113805010D01*
X52144477Y-113868712D01*
X52144481Y-113868717D01*
X52263349Y-113987585D01*
X52263355Y-113987590D01*
X54663584Y-116387819D01*
X54697069Y-116449142D01*
X54692085Y-116518834D01*
X54650213Y-116574767D01*
X54584749Y-116599184D01*
X54575903Y-116599500D01*
X47495808Y-116599500D01*
X47428769Y-116579815D01*
X47408127Y-116563181D01*
X45739674Y-114894727D01*
X45739673Y-114894726D01*
X45739669Y-114894723D01*
X45633127Y-114823535D01*
X45577513Y-114800499D01*
X45514744Y-114774499D01*
X45514738Y-114774497D01*
X45389071Y-114749500D01*
X45389069Y-114749500D01*
X43804935Y-114749500D01*
X43737896Y-114729815D01*
X43736090Y-114728633D01*
X43679179Y-114690606D01*
X43679172Y-114690602D01*
X43533501Y-114630264D01*
X43533489Y-114630261D01*
X43378845Y-114599500D01*
X43378842Y-114599500D01*
X43221158Y-114599500D01*
X43221155Y-114599500D01*
X43066510Y-114630261D01*
X43066498Y-114630264D01*
X42920827Y-114690602D01*
X42920814Y-114690609D01*
X42789711Y-114778210D01*
X42789707Y-114778213D01*
X42678213Y-114889707D01*
X42678210Y-114889711D01*
X42590609Y-115020814D01*
X42590602Y-115020827D01*
X42530264Y-115166498D01*
X42530261Y-115166510D01*
X42499500Y-115321153D01*
X42499500Y-115478846D01*
X42530261Y-115633489D01*
X42530264Y-115633501D01*
X42590602Y-115779172D01*
X42590609Y-115779185D01*
X42678210Y-115910288D01*
X42678213Y-115910292D01*
X42789707Y-116021786D01*
X42789711Y-116021789D01*
X42920814Y-116109390D01*
X42920827Y-116109397D01*
X43066498Y-116169735D01*
X43066503Y-116169737D01*
X43221153Y-116200499D01*
X43221156Y-116200500D01*
X43221158Y-116200500D01*
X43378844Y-116200500D01*
X43378845Y-116200499D01*
X43533497Y-116169737D01*
X43679179Y-116109394D01*
X43736044Y-116071397D01*
X43802721Y-116050520D01*
X43804935Y-116050500D01*
X45004192Y-116050500D01*
X45071231Y-116070185D01*
X45091873Y-116086819D01*
X46326677Y-117321623D01*
X46360162Y-117382946D01*
X46355178Y-117452638D01*
X46313306Y-117508571D01*
X46271896Y-117527047D01*
X46272335Y-117528494D01*
X46266498Y-117530264D01*
X46120827Y-117590602D01*
X46120814Y-117590609D01*
X45989711Y-117678210D01*
X45989707Y-117678213D01*
X45878213Y-117789707D01*
X45878210Y-117789711D01*
X45790609Y-117920814D01*
X45790602Y-117920827D01*
X45730264Y-118066498D01*
X45730261Y-118066510D01*
X45699500Y-118221153D01*
X45699500Y-118378846D01*
X45730261Y-118533489D01*
X45730264Y-118533501D01*
X45790602Y-118679172D01*
X45790609Y-118679185D01*
X45878602Y-118810874D01*
X45899480Y-118877551D01*
X45899500Y-118879765D01*
X45899500Y-119199903D01*
X45879815Y-119266942D01*
X45863181Y-119287584D01*
X41300170Y-123850595D01*
X41238847Y-123884080D01*
X41169155Y-123879096D01*
X41113222Y-123837224D01*
X41088805Y-123771760D01*
X41088489Y-123762914D01*
X41088489Y-101787086D01*
X41108174Y-101720047D01*
X41160978Y-101674292D01*
X41230136Y-101664348D01*
X41293692Y-101693373D01*
G37*
%TD.AperFunction*%
%TA.AperFunction,Conductor*%
G36*
X41228996Y-92962888D02*
G01*
X41230136Y-92962725D01*
X41260977Y-92976809D01*
X41292006Y-92990316D01*
X41293017Y-92991441D01*
X41293692Y-92991750D01*
X41315591Y-93016572D01*
X41378210Y-93110288D01*
X41378213Y-93110292D01*
X41489707Y-93221786D01*
X41489711Y-93221789D01*
X41620814Y-93309390D01*
X41620827Y-93309397D01*
X41766498Y-93369735D01*
X41766503Y-93369737D01*
X41831147Y-93382595D01*
X41921849Y-93400638D01*
X41983760Y-93433023D01*
X41985339Y-93434574D01*
X42715139Y-94164374D01*
X42715149Y-94164385D01*
X42719479Y-94168715D01*
X42719480Y-94168716D01*
X42831284Y-94280520D01*
X42918095Y-94330639D01*
X42918097Y-94330641D01*
X42968213Y-94359576D01*
X42968215Y-94359577D01*
X43120942Y-94400500D01*
X43120943Y-94400500D01*
X43820943Y-94400500D01*
X50749846Y-94400500D01*
X50816885Y-94420185D01*
X50837527Y-94436819D01*
X52963527Y-96562819D01*
X52997012Y-96624142D01*
X52992028Y-96693834D01*
X52950156Y-96749767D01*
X52884692Y-96774184D01*
X52875846Y-96774500D01*
X43404604Y-96774500D01*
X43357155Y-96765062D01*
X43333497Y-96755263D01*
X43333493Y-96755262D01*
X43333488Y-96755260D01*
X43178845Y-96724500D01*
X43178842Y-96724500D01*
X43021158Y-96724500D01*
X43021155Y-96724500D01*
X42866510Y-96755261D01*
X42866498Y-96755264D01*
X42720827Y-96815602D01*
X42720814Y-96815609D01*
X42589711Y-96903210D01*
X42589707Y-96903213D01*
X42478213Y-97014707D01*
X42478210Y-97014711D01*
X42390609Y-97145814D01*
X42390602Y-97145827D01*
X42330264Y-97291498D01*
X42330261Y-97291510D01*
X42299500Y-97446153D01*
X42299500Y-97603846D01*
X42330261Y-97758489D01*
X42330264Y-97758501D01*
X42390602Y-97904172D01*
X42390609Y-97904185D01*
X42478210Y-98035288D01*
X42478213Y-98035292D01*
X42589707Y-98146786D01*
X42589711Y-98146789D01*
X42720814Y-98234390D01*
X42720827Y-98234397D01*
X42854359Y-98289707D01*
X42866503Y-98294737D01*
X42955532Y-98312446D01*
X43021153Y-98325499D01*
X43021156Y-98325500D01*
X43021158Y-98325500D01*
X43178844Y-98325500D01*
X43178845Y-98325499D01*
X43333497Y-98294737D01*
X43479179Y-98234394D01*
X43610289Y-98146789D01*
X43721789Y-98035289D01*
X43724914Y-98030611D01*
X43778525Y-97985806D01*
X43828018Y-97975500D01*
X51277180Y-97975500D01*
X51344219Y-97995185D01*
X51389974Y-98047989D01*
X51398797Y-98075309D01*
X51430261Y-98233489D01*
X51430264Y-98233501D01*
X51462964Y-98312446D01*
X51470433Y-98381915D01*
X51439157Y-98444394D01*
X51436084Y-98447579D01*
X49929866Y-99953797D01*
X49868543Y-99987282D01*
X49817995Y-99987734D01*
X49815722Y-99987282D01*
X49812233Y-99986587D01*
X49754674Y-99975139D01*
X49596990Y-99975139D01*
X49596987Y-99975139D01*
X49442342Y-100005900D01*
X49442330Y-100005903D01*
X49296659Y-100066241D01*
X49296646Y-100066248D01*
X49165543Y-100153849D01*
X49165539Y-100153852D01*
X49054045Y-100265346D01*
X49054042Y-100265350D01*
X48966441Y-100396453D01*
X48966434Y-100396466D01*
X48906096Y-100542137D01*
X48906093Y-100542149D01*
X48875332Y-100696792D01*
X48875332Y-100854485D01*
X48906093Y-101009128D01*
X48906096Y-101009140D01*
X48966434Y-101154811D01*
X48966441Y-101154824D01*
X49054042Y-101285927D01*
X49054045Y-101285931D01*
X49165539Y-101397425D01*
X49165543Y-101397428D01*
X49296646Y-101485029D01*
X49296659Y-101485036D01*
X49442330Y-101545374D01*
X49442335Y-101545376D01*
X49596985Y-101576138D01*
X49596988Y-101576139D01*
X49596990Y-101576139D01*
X49754676Y-101576139D01*
X49754677Y-101576138D01*
X49909329Y-101545376D01*
X50055011Y-101485033D01*
X50055017Y-101485029D01*
X50180608Y-101401112D01*
X50247285Y-101380234D01*
X50314666Y-101398718D01*
X50361356Y-101450697D01*
X50373499Y-101504214D01*
X50373499Y-101552997D01*
X50373498Y-101552997D01*
X50414423Y-101705729D01*
X50414424Y-101705730D01*
X50431490Y-101735289D01*
X50493481Y-101842660D01*
X50612349Y-101961528D01*
X50612355Y-101961533D01*
X51363181Y-102712359D01*
X51396666Y-102773682D01*
X51399500Y-102800040D01*
X51399500Y-107977685D01*
X51379815Y-108044724D01*
X51363181Y-108065366D01*
X51338839Y-108089707D01*
X51338836Y-108089711D01*
X51251235Y-108220814D01*
X51251228Y-108220827D01*
X51190890Y-108366498D01*
X51190887Y-108366510D01*
X51160126Y-108521153D01*
X51160126Y-108678846D01*
X51190887Y-108833489D01*
X51190890Y-108833501D01*
X51251228Y-108979172D01*
X51251235Y-108979185D01*
X51338836Y-109110288D01*
X51338839Y-109110292D01*
X51450333Y-109221786D01*
X51450337Y-109221789D01*
X51581440Y-109309390D01*
X51581453Y-109309397D01*
X51687475Y-109353312D01*
X51727129Y-109369737D01*
X51827288Y-109389660D01*
X51860317Y-109396230D01*
X51922228Y-109428615D01*
X51956802Y-109489330D01*
X51960126Y-109517847D01*
X51960126Y-110361528D01*
X51940441Y-110428567D01*
X51887637Y-110474322D01*
X51818479Y-110484266D01*
X51754923Y-110455241D01*
X51748445Y-110449209D01*
X42260351Y-100961116D01*
X42226866Y-100899793D01*
X42226515Y-100860065D01*
X42224903Y-100859907D01*
X42225500Y-100853844D01*
X42225500Y-100696155D01*
X42225499Y-100696153D01*
X42207204Y-100604179D01*
X42194737Y-100541503D01*
X42190712Y-100531785D01*
X42134397Y-100395827D01*
X42134390Y-100395814D01*
X42046789Y-100264711D01*
X42046786Y-100264707D01*
X41935292Y-100153213D01*
X41935288Y-100153210D01*
X41804185Y-100065609D01*
X41804172Y-100065602D01*
X41658501Y-100005264D01*
X41658489Y-100005261D01*
X41503845Y-99974500D01*
X41503842Y-99974500D01*
X41346158Y-99974500D01*
X41346155Y-99974500D01*
X41236680Y-99996276D01*
X41167089Y-99990049D01*
X41111911Y-99947186D01*
X41088667Y-99881296D01*
X41088489Y-99874659D01*
X41088489Y-93085463D01*
X41098032Y-93052962D01*
X41106994Y-93020296D01*
X41107850Y-93019526D01*
X41108174Y-93018424D01*
X41133743Y-92996267D01*
X41158972Y-92973606D01*
X41160109Y-92973421D01*
X41160978Y-92972669D01*
X41194500Y-92967848D01*
X41227942Y-92962430D01*
X41228996Y-92962888D01*
G37*
%TD.AperFunction*%
%TA.AperFunction,Conductor*%
G36*
X55756069Y-100173726D02*
G01*
X55812002Y-100215598D01*
X55836419Y-100281062D01*
X55836735Y-100289908D01*
X55836735Y-103985931D01*
X55836735Y-104114069D01*
X55836735Y-104114071D01*
X55836734Y-104114071D01*
X55861732Y-104239738D01*
X55861734Y-104239744D01*
X55910768Y-104358124D01*
X55910773Y-104358133D01*
X55981958Y-104464668D01*
X55981961Y-104464672D01*
X56072564Y-104555275D01*
X56076598Y-104557970D01*
X56100878Y-104574193D01*
X56119667Y-104589613D01*
X56963181Y-105433127D01*
X56996666Y-105494450D01*
X56999500Y-105520808D01*
X56999500Y-109877378D01*
X56979815Y-109944417D01*
X56927011Y-109990172D01*
X56859932Y-109999816D01*
X56859905Y-110000097D01*
X56858765Y-109999984D01*
X56857853Y-110000116D01*
X56854809Y-109999595D01*
X56853843Y-109999500D01*
X56853842Y-109999500D01*
X56696158Y-109999500D01*
X56696155Y-109999500D01*
X56541510Y-110030261D01*
X56541498Y-110030264D01*
X56395827Y-110090602D01*
X56395814Y-110090609D01*
X56264125Y-110178602D01*
X56197447Y-110199480D01*
X56195234Y-110199500D01*
X54179766Y-110199500D01*
X54112727Y-110179815D01*
X54110875Y-110178602D01*
X53979185Y-110090609D01*
X53979172Y-110090602D01*
X53833501Y-110030264D01*
X53833489Y-110030261D01*
X53678848Y-109999500D01*
X53673970Y-109999020D01*
X53609183Y-109972858D01*
X53568825Y-109915823D01*
X53562126Y-109875617D01*
X53562126Y-102153053D01*
X53581811Y-102086014D01*
X53634615Y-102040259D01*
X53686126Y-102029053D01*
X53828337Y-102029053D01*
X53828338Y-102029052D01*
X53982990Y-101998290D01*
X54128672Y-101937947D01*
X54259782Y-101850342D01*
X54371282Y-101738842D01*
X54458887Y-101607732D01*
X54519230Y-101462050D01*
X54549993Y-101307395D01*
X54550131Y-101306703D01*
X54582516Y-101244792D01*
X54584011Y-101243269D01*
X55625054Y-100202227D01*
X55686377Y-100168742D01*
X55756069Y-100173726D01*
G37*
%TD.AperFunction*%
%TA.AperFunction,Conductor*%
G36*
X78428181Y-53501712D02*
G01*
X78432385Y-53500780D01*
X78461419Y-53511472D01*
X78491090Y-53520185D01*
X78493908Y-53523437D01*
X78497950Y-53524926D01*
X78516593Y-53549617D01*
X78536845Y-53572989D01*
X78537457Y-53577250D01*
X78540052Y-53580686D01*
X78542386Y-53611526D01*
X78546789Y-53642147D01*
X78545000Y-53646064D01*
X78545325Y-53650356D01*
X78530615Y-53677562D01*
X78517764Y-53705703D01*
X78513890Y-53708496D01*
X78512095Y-53711817D01*
X78483928Y-53733085D01*
X78472894Y-53739169D01*
X78468215Y-53740423D01*
X78418095Y-53769360D01*
X78417068Y-53769952D01*
X78417057Y-53769959D01*
X78331285Y-53819479D01*
X78331282Y-53819481D01*
X78219478Y-53931286D01*
X76175084Y-55975681D01*
X76113761Y-56009166D01*
X76087403Y-56012000D01*
X70872561Y-56012000D01*
X70805522Y-55992315D01*
X70759767Y-55939511D01*
X70749823Y-55870353D01*
X70778848Y-55806797D01*
X70825108Y-55773439D01*
X70892102Y-55745689D01*
X70900231Y-55742322D01*
X71055908Y-55638302D01*
X71188302Y-55505908D01*
X71292322Y-55350231D01*
X71363973Y-55177251D01*
X71400500Y-54993616D01*
X71400500Y-54806384D01*
X71363973Y-54622749D01*
X71292322Y-54449769D01*
X71292321Y-54449768D01*
X71292318Y-54449762D01*
X71188302Y-54294092D01*
X71188299Y-54294088D01*
X71055911Y-54161700D01*
X71055907Y-54161697D01*
X70900237Y-54057681D01*
X70900228Y-54057676D01*
X70727251Y-53986027D01*
X70727243Y-53986025D01*
X70543620Y-53949500D01*
X70543616Y-53949500D01*
X69856384Y-53949500D01*
X69856379Y-53949500D01*
X69672756Y-53986025D01*
X69672748Y-53986027D01*
X69499771Y-54057676D01*
X69499762Y-54057681D01*
X69344092Y-54161697D01*
X69344088Y-54161700D01*
X69211700Y-54294088D01*
X69211697Y-54294092D01*
X69107681Y-54449762D01*
X69107676Y-54449771D01*
X69036027Y-54622748D01*
X69036025Y-54622756D01*
X68999500Y-54806379D01*
X68999500Y-54993620D01*
X69036025Y-55177243D01*
X69036027Y-55177251D01*
X69107676Y-55350228D01*
X69107681Y-55350237D01*
X69211697Y-55505907D01*
X69211700Y-55505911D01*
X69344088Y-55638299D01*
X69344092Y-55638302D01*
X69499762Y-55742318D01*
X69499771Y-55742323D01*
X69574892Y-55773439D01*
X69629295Y-55817280D01*
X69651360Y-55883574D01*
X69634081Y-55951273D01*
X69582944Y-55998884D01*
X69527439Y-56012000D01*
X59692266Y-56012000D01*
X59625227Y-55992315D01*
X59623375Y-55991102D01*
X59491685Y-55903109D01*
X59491672Y-55903102D01*
X59346001Y-55842764D01*
X59345989Y-55842761D01*
X59191345Y-55812000D01*
X59191342Y-55812000D01*
X59033658Y-55812000D01*
X59033655Y-55812000D01*
X58879010Y-55842761D01*
X58878998Y-55842764D01*
X58733327Y-55903102D01*
X58733314Y-55903109D01*
X58602211Y-55990710D01*
X58602207Y-55990713D01*
X58490713Y-56102207D01*
X58490710Y-56102211D01*
X58403109Y-56233314D01*
X58403102Y-56233327D01*
X58342764Y-56378998D01*
X58342761Y-56379010D01*
X58312000Y-56533653D01*
X58312000Y-56691346D01*
X58342761Y-56845989D01*
X58342764Y-56846001D01*
X58403102Y-56991672D01*
X58403109Y-56991685D01*
X58490710Y-57122788D01*
X58490713Y-57122792D01*
X58530740Y-57162819D01*
X58564225Y-57224142D01*
X58559241Y-57293834D01*
X58517369Y-57349767D01*
X58451905Y-57374184D01*
X58443059Y-57374500D01*
X50789138Y-57374500D01*
X50771589Y-57377991D01*
X50747396Y-57380374D01*
X50728338Y-57380374D01*
X50573693Y-57411135D01*
X50573681Y-57411138D01*
X50428010Y-57471476D01*
X50427997Y-57471483D01*
X50296894Y-57559084D01*
X50296890Y-57559087D01*
X50185396Y-57670581D01*
X50185390Y-57670589D01*
X50097790Y-57801692D01*
X50097789Y-57801693D01*
X50087988Y-57825354D01*
X50061110Y-57865577D01*
X49417047Y-58509641D01*
X49417045Y-58509643D01*
X49383367Y-58560050D01*
X49383365Y-58560053D01*
X49334919Y-58632556D01*
X49334912Y-58632568D01*
X49278343Y-58769139D01*
X49278340Y-58769149D01*
X49249500Y-58914136D01*
X49249500Y-61070395D01*
X49247872Y-61078574D01*
X49248789Y-61083653D01*
X49240060Y-61117851D01*
X49230807Y-61140188D01*
X49203929Y-61180413D01*
X49055884Y-61328459D01*
X49055882Y-61328462D01*
X48984077Y-61435927D01*
X48984076Y-61435930D01*
X48979221Y-61443194D01*
X48926421Y-61570667D01*
X48926418Y-61570677D01*
X48899500Y-61706004D01*
X48899500Y-63624684D01*
X48890061Y-63672136D01*
X48830264Y-63816498D01*
X48830261Y-63816510D01*
X48799500Y-63971153D01*
X48799500Y-64090880D01*
X48796949Y-64099565D01*
X48798238Y-64108527D01*
X48787259Y-64132567D01*
X48779815Y-64157919D01*
X48772974Y-64163846D01*
X48769213Y-64172083D01*
X48746978Y-64186372D01*
X48727011Y-64203674D01*
X48716496Y-64205961D01*
X48710435Y-64209857D01*
X48675500Y-64214880D01*
X48544984Y-64214880D01*
X48497535Y-64205442D01*
X48473877Y-64195643D01*
X48473873Y-64195642D01*
X48473868Y-64195640D01*
X48319225Y-64164880D01*
X48319222Y-64164880D01*
X48161538Y-64164880D01*
X48161535Y-64164880D01*
X48006890Y-64195641D01*
X48006878Y-64195644D01*
X47861207Y-64255982D01*
X47861194Y-64255989D01*
X47730091Y-64343590D01*
X47730087Y-64343593D01*
X47618593Y-64455087D01*
X47618590Y-64455091D01*
X47530989Y-64586194D01*
X47530982Y-64586207D01*
X47470644Y-64731878D01*
X47470641Y-64731890D01*
X47446609Y-64852706D01*
X47414224Y-64914617D01*
X47353508Y-64949192D01*
X47283739Y-64945452D01*
X47227067Y-64904585D01*
X47201486Y-64839567D01*
X47200992Y-64828515D01*
X47200992Y-63815044D01*
X47220677Y-63748005D01*
X47221890Y-63746153D01*
X47309882Y-63614464D01*
X47309882Y-63614463D01*
X47309886Y-63614458D01*
X47370229Y-63468776D01*
X47400992Y-63314121D01*
X47400992Y-63156437D01*
X47400992Y-63156434D01*
X47400991Y-63156432D01*
X47370230Y-63001789D01*
X47370229Y-63001782D01*
X47370227Y-63001777D01*
X47309889Y-62856106D01*
X47309882Y-62856093D01*
X47222281Y-62724990D01*
X47222278Y-62724986D01*
X47110784Y-62613492D01*
X47110780Y-62613489D01*
X46979677Y-62525888D01*
X46979664Y-62525881D01*
X46833993Y-62465543D01*
X46833981Y-62465540D01*
X46679337Y-62434779D01*
X46679334Y-62434779D01*
X46521650Y-62434779D01*
X46521647Y-62434779D01*
X46367002Y-62465540D01*
X46366990Y-62465543D01*
X46221319Y-62525881D01*
X46221306Y-62525888D01*
X46090203Y-62613489D01*
X46090199Y-62613492D01*
X45978705Y-62724986D01*
X45978702Y-62724990D01*
X45891101Y-62856093D01*
X45891094Y-62856106D01*
X45830756Y-63001777D01*
X45830753Y-63001789D01*
X45799992Y-63156432D01*
X45799992Y-63314125D01*
X45830753Y-63468768D01*
X45830756Y-63468780D01*
X45891094Y-63614451D01*
X45891101Y-63614464D01*
X45979094Y-63746153D01*
X45999972Y-63812830D01*
X45999992Y-63815044D01*
X45999992Y-65538243D01*
X45980307Y-65605282D01*
X45944884Y-65641345D01*
X45889707Y-65678213D01*
X45778213Y-65789707D01*
X45778210Y-65789711D01*
X45690609Y-65920814D01*
X45690602Y-65920827D01*
X45630264Y-66066498D01*
X45630261Y-66066510D01*
X45599500Y-66221153D01*
X45599500Y-66378846D01*
X45630261Y-66533489D01*
X45630264Y-66533501D01*
X45689061Y-66675450D01*
X45698500Y-66722902D01*
X45698500Y-69491565D01*
X45718116Y-69590178D01*
X45723499Y-69617240D01*
X45772534Y-69735621D01*
X45843726Y-69842169D01*
X51095064Y-75093507D01*
X51095071Y-75093513D01*
X51176283Y-75147777D01*
X51176288Y-75147779D01*
X51184401Y-75153200D01*
X51201612Y-75164700D01*
X51313766Y-75211156D01*
X51315966Y-75212170D01*
X51340523Y-75233602D01*
X51365909Y-75254059D01*
X51366706Y-75256453D01*
X51368606Y-75258112D01*
X51377675Y-75289411D01*
X51387974Y-75320353D01*
X51387349Y-75322798D01*
X51388052Y-75325221D01*
X51378757Y-75356461D01*
X51370695Y-75388053D01*
X51368165Y-75392065D01*
X51368129Y-75392190D01*
X51368038Y-75392267D01*
X51367155Y-75393670D01*
X51315612Y-75470809D01*
X51315602Y-75470827D01*
X51255264Y-75616498D01*
X51255261Y-75616508D01*
X51236777Y-75709433D01*
X51204392Y-75771344D01*
X51202841Y-75772922D01*
X49242584Y-77733181D01*
X49181261Y-77766666D01*
X49154903Y-77769500D01*
X48652889Y-77769500D01*
X48605437Y-77760061D01*
X48533501Y-77730264D01*
X48533489Y-77730261D01*
X48378845Y-77699500D01*
X48378842Y-77699500D01*
X48221158Y-77699500D01*
X48221155Y-77699500D01*
X48066510Y-77730261D01*
X48066498Y-77730264D01*
X47920827Y-77790602D01*
X47920814Y-77790609D01*
X47789711Y-77878210D01*
X47789707Y-77878213D01*
X47678213Y-77989707D01*
X47678210Y-77989711D01*
X47590609Y-78120814D01*
X47590602Y-78120827D01*
X47530264Y-78266498D01*
X47530261Y-78266510D01*
X47499500Y-78421153D01*
X47499500Y-78578846D01*
X47530261Y-78733489D01*
X47530264Y-78733501D01*
X47590602Y-78879172D01*
X47590609Y-78879185D01*
X47678210Y-79010288D01*
X47678213Y-79010292D01*
X47789707Y-79121786D01*
X47789711Y-79121789D01*
X47920814Y-79209390D01*
X47920827Y-79209397D01*
X48010787Y-79246659D01*
X48066503Y-79269737D01*
X48221153Y-79300499D01*
X48221156Y-79300500D01*
X48221158Y-79300500D01*
X48378843Y-79300500D01*
X48424398Y-79291438D01*
X48467408Y-79282882D01*
X48491599Y-79280500D01*
X49300000Y-79280500D01*
X49362863Y-79276004D01*
X49365495Y-79275816D01*
X49373681Y-79275523D01*
X49373920Y-79275500D01*
X49471462Y-79256096D01*
X49518913Y-79246658D01*
X49655495Y-79190084D01*
X49778416Y-79107951D01*
X49882951Y-79003416D01*
X49965084Y-78880495D01*
X50021658Y-78743913D01*
X50036999Y-78666786D01*
X50069381Y-78604879D01*
X50070875Y-78603358D01*
X51987416Y-76686819D01*
X52048739Y-76653334D01*
X52075097Y-76650500D01*
X52103844Y-76650500D01*
X52103845Y-76650499D01*
X52258497Y-76619737D01*
X52404179Y-76559394D01*
X52404185Y-76559390D01*
X52535875Y-76471398D01*
X52602553Y-76450520D01*
X52604766Y-76450500D01*
X54117395Y-76450500D01*
X54117411Y-76450501D01*
X54125007Y-76450501D01*
X54283118Y-76450501D01*
X54283121Y-76450501D01*
X54435849Y-76409577D01*
X54485968Y-76380639D01*
X54572780Y-76330520D01*
X54684584Y-76218716D01*
X54684584Y-76218714D01*
X54694792Y-76208507D01*
X54694794Y-76208504D01*
X55095540Y-75807757D01*
X55130672Y-75783125D01*
X55534193Y-75594355D01*
X55558243Y-75584394D01*
X55569798Y-75576673D01*
X55581181Y-75570821D01*
X55582691Y-75569972D01*
X55657805Y-75518308D01*
X55657805Y-75518306D01*
X55663274Y-75514546D01*
X55666641Y-75511963D01*
X55689353Y-75496789D01*
X55800853Y-75385289D01*
X55888458Y-75254179D01*
X55948801Y-75108497D01*
X55979564Y-74953842D01*
X55979564Y-74796158D01*
X55979564Y-74796155D01*
X55979563Y-74796153D01*
X55974309Y-74769738D01*
X55948801Y-74641503D01*
X55940634Y-74621786D01*
X55888461Y-74495827D01*
X55888454Y-74495814D01*
X55800854Y-74364712D01*
X55800853Y-74364711D01*
X55689353Y-74253211D01*
X55685453Y-74250605D01*
X55667640Y-74236149D01*
X55664606Y-74233181D01*
X55339144Y-73957369D01*
X55311851Y-73924642D01*
X55067038Y-73499427D01*
X55050500Y-73437557D01*
X55050500Y-65491456D01*
X55017129Y-65323692D01*
X55023356Y-65254100D01*
X55066219Y-65198923D01*
X55132109Y-65175678D01*
X55138746Y-65175500D01*
X57186483Y-65175500D01*
X57253522Y-65195185D01*
X57274164Y-65211819D01*
X62658241Y-70595896D01*
X62691726Y-70657219D01*
X62686742Y-70726911D01*
X62644870Y-70782844D01*
X62639453Y-70786678D01*
X62614709Y-70803211D01*
X62503213Y-70914707D01*
X62503210Y-70914711D01*
X62415609Y-71045814D01*
X62415602Y-71045827D01*
X62355264Y-71191498D01*
X62355261Y-71191510D01*
X62324500Y-71346153D01*
X62324500Y-71503846D01*
X62355261Y-71658489D01*
X62355264Y-71658501D01*
X62415602Y-71804172D01*
X62415609Y-71804185D01*
X62503210Y-71935288D01*
X62503213Y-71935292D01*
X62614707Y-72046786D01*
X62614711Y-72046789D01*
X62745814Y-72134390D01*
X62745827Y-72134397D01*
X62815167Y-72163118D01*
X62891503Y-72194737D01*
X63046153Y-72225499D01*
X63046156Y-72225500D01*
X63046158Y-72225500D01*
X63203844Y-72225500D01*
X63203845Y-72225499D01*
X63358497Y-72194737D01*
X63504179Y-72134394D01*
X63635289Y-72046789D01*
X63746789Y-71935289D01*
X63763319Y-71910549D01*
X63816930Y-71865744D01*
X63886255Y-71857035D01*
X63949283Y-71887189D01*
X63954103Y-71891758D01*
X65788181Y-73725836D01*
X65821666Y-73787159D01*
X65824500Y-73813517D01*
X65824500Y-74643097D01*
X65861446Y-74876368D01*
X65934433Y-75100996D01*
X66030436Y-75289411D01*
X66041657Y-75311433D01*
X66180483Y-75502510D01*
X66347490Y-75669517D01*
X66538567Y-75808343D01*
X66637991Y-75859002D01*
X66749003Y-75915566D01*
X66749005Y-75915566D01*
X66749008Y-75915568D01*
X66869412Y-75954689D01*
X66973631Y-75988553D01*
X67206903Y-76025500D01*
X67206908Y-76025500D01*
X67443097Y-76025500D01*
X67676368Y-75988553D01*
X67900992Y-75915568D01*
X68111433Y-75808343D01*
X68302510Y-75669517D01*
X68469517Y-75502510D01*
X68608343Y-75311433D01*
X68715568Y-75100992D01*
X68788553Y-74876368D01*
X68800569Y-74800500D01*
X68825500Y-74643097D01*
X68825500Y-73022530D01*
X68788553Y-72789259D01*
X68717075Y-72569275D01*
X68716012Y-72565508D01*
X68715568Y-72564636D01*
X68715568Y-72564635D01*
X68608343Y-72354194D01*
X68469517Y-72163118D01*
X58836882Y-62530483D01*
X58645806Y-62391657D01*
X58435368Y-62284433D01*
X58210740Y-62211446D01*
X57977469Y-62174500D01*
X57977464Y-62174500D01*
X53493092Y-62174500D01*
X53256908Y-62174500D01*
X53256903Y-62174500D01*
X53023634Y-62211446D01*
X52799005Y-62284433D01*
X52588565Y-62391657D01*
X52397488Y-62530484D01*
X52397487Y-62530485D01*
X50749412Y-64178561D01*
X50722484Y-64193264D01*
X50696666Y-64209857D01*
X50690465Y-64210748D01*
X50688089Y-64212046D01*
X50661731Y-64214880D01*
X50524500Y-64214880D01*
X50457461Y-64195195D01*
X50411706Y-64142391D01*
X50400500Y-64090880D01*
X50400500Y-63971155D01*
X50400499Y-63971153D01*
X50369738Y-63816510D01*
X50369737Y-63816503D01*
X50349173Y-63766857D01*
X50309939Y-63672136D01*
X50300500Y-63624684D01*
X50300500Y-62199837D01*
X50320185Y-62132798D01*
X50372989Y-62087043D01*
X50376986Y-62085302D01*
X50379179Y-62084394D01*
X50510289Y-61996789D01*
X50621789Y-61885289D01*
X50709394Y-61754179D01*
X50769737Y-61608497D01*
X50800500Y-61453842D01*
X50800500Y-61296158D01*
X50800500Y-61296155D01*
X50800499Y-61296153D01*
X50769739Y-61141511D01*
X50769738Y-61141508D01*
X50769737Y-61141503D01*
X50759937Y-61117844D01*
X50750500Y-61070396D01*
X50750500Y-59350286D01*
X50770185Y-59283247D01*
X50786819Y-59262605D01*
X50843911Y-59205513D01*
X51122480Y-58926943D01*
X51128397Y-58922919D01*
X51130782Y-58919362D01*
X51156362Y-58903900D01*
X51160836Y-58900858D01*
X51161713Y-58900477D01*
X51186362Y-58890268D01*
X51188391Y-58888912D01*
X51195729Y-58885731D01*
X51212528Y-58883646D01*
X51245051Y-58875500D01*
X58749770Y-58875500D01*
X58816809Y-58895185D01*
X58837451Y-58911819D01*
X59390927Y-59465295D01*
X59417807Y-59505523D01*
X59427604Y-59529175D01*
X59427609Y-59529185D01*
X59515210Y-59660288D01*
X59515213Y-59660292D01*
X59626707Y-59771786D01*
X59626711Y-59771789D01*
X59757814Y-59859390D01*
X59757827Y-59859397D01*
X59903498Y-59919735D01*
X59903503Y-59919737D01*
X60058153Y-59950499D01*
X60058156Y-59950500D01*
X60058158Y-59950500D01*
X60215844Y-59950500D01*
X60215845Y-59950499D01*
X60370497Y-59919737D01*
X60516179Y-59859394D01*
X60647289Y-59771789D01*
X60758789Y-59660289D01*
X60846394Y-59529179D01*
X60906737Y-59383497D01*
X60937500Y-59228842D01*
X60937500Y-59205513D01*
X68999500Y-59205513D01*
X68999500Y-59394486D01*
X69029059Y-59581118D01*
X69087454Y-59760836D01*
X69137674Y-59859397D01*
X69173240Y-59929199D01*
X69284310Y-60082073D01*
X69417927Y-60215690D01*
X69570801Y-60326760D01*
X69650347Y-60367290D01*
X69739163Y-60412545D01*
X69739165Y-60412545D01*
X69739168Y-60412547D01*
X69835497Y-60443846D01*
X69918881Y-60470940D01*
X70105514Y-60500500D01*
X70105519Y-60500500D01*
X70294486Y-60500500D01*
X70481118Y-60470940D01*
X70660832Y-60412547D01*
X70829199Y-60326760D01*
X70982073Y-60215690D01*
X71115690Y-60082073D01*
X71226760Y-59929199D01*
X71312547Y-59760832D01*
X71370940Y-59581118D01*
X71379167Y-59529175D01*
X71400500Y-59394486D01*
X71400500Y-59205513D01*
X71370940Y-59018881D01*
X71341068Y-58926946D01*
X71312547Y-58839168D01*
X71312545Y-58839165D01*
X71312545Y-58839163D01*
X71226759Y-58670800D01*
X71115690Y-58517927D01*
X70982073Y-58384310D01*
X70829199Y-58273240D01*
X70660836Y-58187454D01*
X70481118Y-58129059D01*
X70294486Y-58099500D01*
X70294481Y-58099500D01*
X70105519Y-58099500D01*
X70105514Y-58099500D01*
X69918881Y-58129059D01*
X69739163Y-58187454D01*
X69570800Y-58273240D01*
X69483579Y-58336610D01*
X69417927Y-58384310D01*
X69417925Y-58384312D01*
X69417924Y-58384312D01*
X69284312Y-58517924D01*
X69284312Y-58517925D01*
X69284310Y-58517927D01*
X69276837Y-58528213D01*
X69173240Y-58670800D01*
X69087454Y-58839163D01*
X69029059Y-59018881D01*
X68999500Y-59205513D01*
X60937500Y-59205513D01*
X60937500Y-59071158D01*
X60937500Y-59071155D01*
X60937499Y-59071153D01*
X60906737Y-58916503D01*
X60874702Y-58839163D01*
X60846397Y-58770827D01*
X60846390Y-58770814D01*
X60758789Y-58639711D01*
X60758786Y-58639707D01*
X60647292Y-58528213D01*
X60647288Y-58528210D01*
X60516185Y-58440609D01*
X60516175Y-58440604D01*
X60492523Y-58430807D01*
X60452295Y-58403927D01*
X59590421Y-57542052D01*
X59590418Y-57542049D01*
X59530608Y-57502086D01*
X59509567Y-57476909D01*
X59487642Y-57452500D01*
X59487275Y-57450235D01*
X59485803Y-57448474D01*
X59481713Y-57415914D01*
X59476466Y-57383530D01*
X59477381Y-57381425D01*
X59477096Y-57379149D01*
X59491255Y-57349552D01*
X59504352Y-57319466D01*
X59506628Y-57317421D01*
X59507250Y-57316122D01*
X59530605Y-57295884D01*
X59622789Y-57234289D01*
X59622788Y-57234289D01*
X59623376Y-57233897D01*
X59690054Y-57213020D01*
X59692266Y-57213000D01*
X76300831Y-57213000D01*
X76300847Y-57213001D01*
X76308443Y-57213001D01*
X76466554Y-57213001D01*
X76466557Y-57213001D01*
X76619285Y-57172077D01*
X76669404Y-57143139D01*
X76756216Y-57093020D01*
X76868020Y-56981216D01*
X76868020Y-56981214D01*
X76878228Y-56971007D01*
X76878229Y-56971004D01*
X78912416Y-54936819D01*
X78973739Y-54903334D01*
X79000097Y-54900500D01*
X95099903Y-54900500D01*
X95166942Y-54920185D01*
X95187584Y-54936819D01*
X95865425Y-55614660D01*
X95898910Y-55675983D01*
X95899361Y-55678149D01*
X95930261Y-55833491D01*
X95930264Y-55833501D01*
X95990602Y-55979172D01*
X95990609Y-55979185D01*
X96078210Y-56110288D01*
X96078213Y-56110292D01*
X96189707Y-56221786D01*
X96189711Y-56221789D01*
X96320814Y-56309390D01*
X96320827Y-56309397D01*
X96466498Y-56369735D01*
X96466503Y-56369737D01*
X96621153Y-56400499D01*
X96621156Y-56400500D01*
X96621158Y-56400500D01*
X96778844Y-56400500D01*
X96778845Y-56400499D01*
X96933497Y-56369737D01*
X97079179Y-56309394D01*
X97210289Y-56221789D01*
X97321789Y-56110289D01*
X97409394Y-55979179D01*
X97469737Y-55833497D01*
X97500500Y-55678842D01*
X97500500Y-55521158D01*
X97500500Y-55521155D01*
X97500499Y-55521153D01*
X97480218Y-55419193D01*
X97469737Y-55366503D01*
X97469735Y-55366498D01*
X97409397Y-55220827D01*
X97409390Y-55220814D01*
X97321789Y-55089711D01*
X97321786Y-55089707D01*
X97210292Y-54978213D01*
X97210288Y-54978210D01*
X97079185Y-54890609D01*
X97079172Y-54890602D01*
X96933501Y-54830264D01*
X96933491Y-54830261D01*
X96778151Y-54799362D01*
X96716241Y-54766977D01*
X96714662Y-54765426D01*
X95887590Y-53938355D01*
X95887588Y-53938352D01*
X95768717Y-53819481D01*
X95768716Y-53819480D01*
X95733359Y-53799067D01*
X95682965Y-53769972D01*
X95682943Y-53769960D01*
X95681904Y-53769360D01*
X95631785Y-53740423D01*
X95627106Y-53739169D01*
X95616071Y-53733084D01*
X95596135Y-53712982D01*
X95574092Y-53695217D01*
X95571856Y-53688500D01*
X95566872Y-53683474D01*
X95560969Y-53655786D01*
X95552029Y-53628923D01*
X95553779Y-53622063D01*
X95552304Y-53615140D01*
X95562307Y-53588656D01*
X95569310Y-53561224D01*
X95574491Y-53556399D01*
X95576993Y-53549778D01*
X95599725Y-53532907D01*
X95620448Y-53513615D01*
X95628184Y-53511786D01*
X95633100Y-53508139D01*
X95647816Y-53507147D01*
X95675950Y-53500500D01*
X99934108Y-53500500D01*
X99997294Y-53500500D01*
X100002702Y-53500617D01*
X100386771Y-53517386D01*
X100397506Y-53518326D01*
X100775971Y-53568152D01*
X100786597Y-53570025D01*
X101159284Y-53652648D01*
X101169710Y-53655442D01*
X101533765Y-53770227D01*
X101543911Y-53773920D01*
X101896578Y-53920000D01*
X101906369Y-53924566D01*
X102244942Y-54100816D01*
X102254309Y-54106223D01*
X102549204Y-54294092D01*
X102576244Y-54311318D01*
X102585105Y-54317523D01*
X102887930Y-54549889D01*
X102896217Y-54556843D01*
X103177635Y-54814715D01*
X103185284Y-54822364D01*
X103443156Y-55103782D01*
X103450110Y-55112069D01*
X103682476Y-55414894D01*
X103688681Y-55423755D01*
X103893775Y-55745689D01*
X103899183Y-55755057D01*
X104075430Y-56093623D01*
X104080002Y-56103427D01*
X104226075Y-56456078D01*
X104229775Y-56466244D01*
X104344554Y-56830278D01*
X104347354Y-56840727D01*
X104429971Y-57213389D01*
X104431849Y-57224042D01*
X104481671Y-57602473D01*
X104482614Y-57613249D01*
X104499382Y-57997297D01*
X104499500Y-58002706D01*
X104499500Y-146997293D01*
X104499382Y-147002702D01*
X104482614Y-147386750D01*
X104481671Y-147397526D01*
X104431849Y-147775957D01*
X104429971Y-147786610D01*
X104347354Y-148159272D01*
X104344554Y-148169721D01*
X104229775Y-148533755D01*
X104226075Y-148543921D01*
X104080002Y-148896572D01*
X104075430Y-148906376D01*
X103899183Y-149244942D01*
X103893775Y-149254310D01*
X103688681Y-149576244D01*
X103682476Y-149585105D01*
X103450110Y-149887930D01*
X103443156Y-149896217D01*
X103185284Y-150177635D01*
X103177635Y-150185284D01*
X102896217Y-150443156D01*
X102887930Y-150450110D01*
X102585105Y-150682476D01*
X102576244Y-150688681D01*
X102254310Y-150893775D01*
X102244942Y-150899183D01*
X101906376Y-151075430D01*
X101896572Y-151080002D01*
X101543921Y-151226075D01*
X101533755Y-151229775D01*
X101169721Y-151344554D01*
X101159272Y-151347354D01*
X100786610Y-151429971D01*
X100775957Y-151431849D01*
X100397526Y-151481671D01*
X100386750Y-151482614D01*
X100002703Y-151499382D01*
X99997294Y-151499500D01*
X41002706Y-151499500D01*
X40997297Y-151499382D01*
X40613249Y-151482614D01*
X40602473Y-151481671D01*
X40224042Y-151431849D01*
X40213389Y-151429971D01*
X39840727Y-151347354D01*
X39830278Y-151344554D01*
X39466244Y-151229775D01*
X39456078Y-151226075D01*
X39103427Y-151080002D01*
X39093623Y-151075430D01*
X38755057Y-150899183D01*
X38745689Y-150893775D01*
X38423755Y-150688681D01*
X38414894Y-150682476D01*
X38112069Y-150450110D01*
X38103782Y-150443156D01*
X37822364Y-150185284D01*
X37814715Y-150177635D01*
X37556843Y-149896217D01*
X37555914Y-149895110D01*
X39424499Y-149895110D01*
X39462947Y-150088396D01*
X39462950Y-150088406D01*
X39538364Y-150270474D01*
X39538371Y-150270487D01*
X39647860Y-150434348D01*
X39647863Y-150434352D01*
X39787214Y-150573703D01*
X39787218Y-150573706D01*
X39951079Y-150683195D01*
X39951092Y-150683202D01*
X40133160Y-150758616D01*
X40133165Y-150758618D01*
X40133169Y-150758618D01*
X40133170Y-150758619D01*
X40326456Y-150797067D01*
X40326459Y-150797067D01*
X40523543Y-150797067D01*
X40653582Y-150771199D01*
X40716835Y-150758618D01*
X40898914Y-150683199D01*
X41062782Y-150573706D01*
X41202139Y-150434349D01*
X41311632Y-150270481D01*
X41387051Y-150088402D01*
X41399632Y-150025149D01*
X41425500Y-149895110D01*
X48064499Y-149895110D01*
X48102947Y-150088396D01*
X48102950Y-150088406D01*
X48178364Y-150270474D01*
X48178371Y-150270487D01*
X48287860Y-150434348D01*
X48287863Y-150434352D01*
X48427214Y-150573703D01*
X48427218Y-150573706D01*
X48591079Y-150683195D01*
X48591092Y-150683202D01*
X48773160Y-150758616D01*
X48773165Y-150758618D01*
X48773169Y-150758618D01*
X48773170Y-150758619D01*
X48966456Y-150797067D01*
X48966459Y-150797067D01*
X49163543Y-150797067D01*
X49293582Y-150771199D01*
X49356835Y-150758618D01*
X49538914Y-150683199D01*
X49702782Y-150573706D01*
X49842139Y-150434349D01*
X49951632Y-150270481D01*
X50027051Y-150088402D01*
X50039632Y-150025149D01*
X50065500Y-149895110D01*
X50065500Y-148898023D01*
X50027052Y-148704737D01*
X50027051Y-148704736D01*
X50027051Y-148704732D01*
X49971589Y-148570834D01*
X49951635Y-148522659D01*
X49951628Y-148522646D01*
X49842139Y-148358785D01*
X49842136Y-148358781D01*
X49702785Y-148219430D01*
X49702781Y-148219427D01*
X49538920Y-148109938D01*
X49538907Y-148109931D01*
X49356839Y-148034517D01*
X49356829Y-148034514D01*
X49163543Y-147996067D01*
X49163541Y-147996067D01*
X48966459Y-147996067D01*
X48966457Y-147996067D01*
X48773170Y-148034514D01*
X48773160Y-148034517D01*
X48591092Y-148109931D01*
X48591079Y-148109938D01*
X48427218Y-148219427D01*
X48427214Y-148219430D01*
X48287863Y-148358781D01*
X48287860Y-148358785D01*
X48178371Y-148522646D01*
X48178364Y-148522659D01*
X48102950Y-148704727D01*
X48102947Y-148704737D01*
X48064500Y-148898023D01*
X48064500Y-148898026D01*
X48064500Y-149895108D01*
X48064500Y-149895110D01*
X48064499Y-149895110D01*
X41425500Y-149895110D01*
X41425500Y-148898023D01*
X41387052Y-148704737D01*
X41387051Y-148704736D01*
X41387051Y-148704732D01*
X41331589Y-148570834D01*
X41311635Y-148522659D01*
X41311628Y-148522646D01*
X41202139Y-148358785D01*
X41202136Y-148358781D01*
X41062785Y-148219430D01*
X41062781Y-148219427D01*
X40898920Y-148109938D01*
X40898907Y-148109931D01*
X40716839Y-148034517D01*
X40716829Y-148034514D01*
X40523543Y-147996067D01*
X40523541Y-147996067D01*
X40326459Y-147996067D01*
X40326457Y-147996067D01*
X40133170Y-148034514D01*
X40133160Y-148034517D01*
X39951092Y-148109931D01*
X39951079Y-148109938D01*
X39787218Y-148219427D01*
X39787214Y-148219430D01*
X39647863Y-148358781D01*
X39647860Y-148358785D01*
X39538371Y-148522646D01*
X39538364Y-148522659D01*
X39462950Y-148704727D01*
X39462947Y-148704737D01*
X39424500Y-148898023D01*
X39424500Y-148898026D01*
X39424500Y-149895108D01*
X39424500Y-149895110D01*
X39424499Y-149895110D01*
X37555914Y-149895110D01*
X37549889Y-149887930D01*
X37317523Y-149585105D01*
X37311318Y-149576244D01*
X37106224Y-149254310D01*
X37100816Y-149244942D01*
X36924566Y-148906369D01*
X36919997Y-148896572D01*
X36773920Y-148543911D01*
X36770224Y-148533755D01*
X36655442Y-148169710D01*
X36652648Y-148159284D01*
X36570025Y-147786597D01*
X36568152Y-147775971D01*
X36518326Y-147397506D01*
X36517386Y-147386771D01*
X36500618Y-147002702D01*
X36500500Y-146997293D01*
X36500500Y-145865110D01*
X39424499Y-145865110D01*
X39462947Y-146058396D01*
X39462950Y-146058406D01*
X39538364Y-146240474D01*
X39538371Y-146240487D01*
X39647860Y-146404348D01*
X39647863Y-146404352D01*
X39787214Y-146543703D01*
X39787218Y-146543706D01*
X39951079Y-146653195D01*
X39951092Y-146653202D01*
X40133160Y-146728616D01*
X40133165Y-146728618D01*
X40133169Y-146728618D01*
X40133170Y-146728619D01*
X40326456Y-146767067D01*
X40326459Y-146767067D01*
X40523543Y-146767067D01*
X40653582Y-146741199D01*
X40716835Y-146728618D01*
X40898914Y-146653199D01*
X41062782Y-146543706D01*
X41202139Y-146404349D01*
X41311632Y-146240481D01*
X41335544Y-146182749D01*
X41379384Y-146128349D01*
X41445678Y-146106283D01*
X41513377Y-146123562D01*
X41525334Y-146132850D01*
X41525890Y-146132126D01*
X41532333Y-146137070D01*
X41532335Y-146137072D01*
X41652164Y-146206255D01*
X41785817Y-146242067D01*
X41785819Y-146242067D01*
X41924181Y-146242067D01*
X41924183Y-146242067D01*
X42057836Y-146206255D01*
X42177665Y-146137072D01*
X42275505Y-146039232D01*
X42344688Y-145919403D01*
X42380500Y-145785750D01*
X42380500Y-145647384D01*
X47109500Y-145647384D01*
X47109500Y-145785750D01*
X47130765Y-145865110D01*
X47145312Y-145919402D01*
X47145313Y-145919405D01*
X47214492Y-146039228D01*
X47214494Y-146039231D01*
X47214495Y-146039232D01*
X47312335Y-146137072D01*
X47432164Y-146206255D01*
X47565817Y-146242067D01*
X47565819Y-146242067D01*
X47704181Y-146242067D01*
X47704183Y-146242067D01*
X47837836Y-146206255D01*
X47957665Y-146137072D01*
X47957669Y-146137067D01*
X47964110Y-146132126D01*
X47966238Y-146134900D01*
X48013331Y-146109083D01*
X48083031Y-146113949D01*
X48139035Y-146155726D01*
X48154455Y-146182751D01*
X48178366Y-146240477D01*
X48178371Y-146240487D01*
X48287860Y-146404348D01*
X48287863Y-146404352D01*
X48427214Y-146543703D01*
X48427218Y-146543706D01*
X48591079Y-146653195D01*
X48591092Y-146653202D01*
X48773160Y-146728616D01*
X48773165Y-146728618D01*
X48773169Y-146728618D01*
X48773170Y-146728619D01*
X48966456Y-146767067D01*
X48966459Y-146767067D01*
X49163543Y-146767067D01*
X49293582Y-146741199D01*
X49356835Y-146728618D01*
X49538914Y-146653199D01*
X49702782Y-146543706D01*
X49842139Y-146404349D01*
X49951632Y-146240481D01*
X50027051Y-146058402D01*
X50065500Y-145865108D01*
X50065500Y-144568026D01*
X50065500Y-144568023D01*
X50027052Y-144374737D01*
X50027051Y-144374736D01*
X50027051Y-144374732D01*
X50027049Y-144374727D01*
X49951635Y-144192659D01*
X49951628Y-144192646D01*
X49842139Y-144028785D01*
X49842136Y-144028781D01*
X49702785Y-143889430D01*
X49702781Y-143889427D01*
X49538920Y-143779938D01*
X49538907Y-143779931D01*
X49356839Y-143704517D01*
X49356829Y-143704514D01*
X49163543Y-143666067D01*
X49163541Y-143666067D01*
X48966459Y-143666067D01*
X48966457Y-143666067D01*
X48773170Y-143704514D01*
X48773160Y-143704517D01*
X48591092Y-143779931D01*
X48591079Y-143779938D01*
X48427218Y-143889427D01*
X48427214Y-143889430D01*
X48287863Y-144028781D01*
X48287860Y-144028785D01*
X48178371Y-144192646D01*
X48178364Y-144192659D01*
X48102950Y-144374727D01*
X48102947Y-144374737D01*
X48064500Y-144568023D01*
X48064500Y-145142969D01*
X48044815Y-145210008D01*
X47992011Y-145255763D01*
X47922853Y-145265707D01*
X47878501Y-145250356D01*
X47837842Y-145226882D01*
X47837838Y-145226880D01*
X47837836Y-145226879D01*
X47704183Y-145191067D01*
X47565817Y-145191067D01*
X47432164Y-145226879D01*
X47432161Y-145226880D01*
X47312338Y-145296059D01*
X47312333Y-145296063D01*
X47214496Y-145393900D01*
X47214492Y-145393905D01*
X47145313Y-145513728D01*
X47145312Y-145513731D01*
X47109500Y-145647384D01*
X42380500Y-145647384D01*
X42344688Y-145513731D01*
X42275505Y-145393902D01*
X42177665Y-145296062D01*
X42177664Y-145296061D01*
X42177661Y-145296059D01*
X42057838Y-145226880D01*
X42057837Y-145226879D01*
X42057836Y-145226879D01*
X41924183Y-145191067D01*
X41785817Y-145191067D01*
X41652164Y-145226879D01*
X41652157Y-145226882D01*
X41611499Y-145250356D01*
X41543599Y-145266829D01*
X41477572Y-145243976D01*
X41434382Y-145189055D01*
X41425500Y-145142969D01*
X41425500Y-144568023D01*
X41387052Y-144374737D01*
X41387051Y-144374736D01*
X41387051Y-144374732D01*
X41387049Y-144374727D01*
X41311635Y-144192659D01*
X41311628Y-144192646D01*
X41202139Y-144028785D01*
X41202136Y-144028781D01*
X41062785Y-143889430D01*
X41062781Y-143889427D01*
X40898920Y-143779938D01*
X40898907Y-143779931D01*
X40716839Y-143704517D01*
X40716829Y-143704514D01*
X40523543Y-143666067D01*
X40523541Y-143666067D01*
X40326459Y-143666067D01*
X40326457Y-143666067D01*
X40133170Y-143704514D01*
X40133160Y-143704517D01*
X39951092Y-143779931D01*
X39951079Y-143779938D01*
X39787218Y-143889427D01*
X39787214Y-143889430D01*
X39647863Y-144028781D01*
X39647860Y-144028785D01*
X39538371Y-144192646D01*
X39538364Y-144192659D01*
X39462950Y-144374727D01*
X39462947Y-144374737D01*
X39424500Y-144568023D01*
X39424500Y-144568026D01*
X39424500Y-145865108D01*
X39424500Y-145865110D01*
X39424499Y-145865110D01*
X36500500Y-145865110D01*
X36500500Y-115171158D01*
X38049500Y-115171158D01*
X38049500Y-115179001D01*
X38049500Y-115328846D01*
X38080261Y-115483489D01*
X38080264Y-115483501D01*
X38140602Y-115629172D01*
X38140609Y-115629185D01*
X38228210Y-115760288D01*
X38228213Y-115760292D01*
X38339707Y-115871786D01*
X38339711Y-115871789D01*
X38470814Y-115959390D01*
X38470827Y-115959397D01*
X38560722Y-115996632D01*
X38616503Y-116019737D01*
X38771153Y-116050499D01*
X38771156Y-116050500D01*
X38771158Y-116050500D01*
X38928844Y-116050500D01*
X38928845Y-116050499D01*
X39083497Y-116019737D01*
X39229179Y-115959394D01*
X39360289Y-115871789D01*
X39471789Y-115760289D01*
X39559394Y-115629179D01*
X39619737Y-115483497D01*
X39639258Y-115385359D01*
X39641872Y-115372220D01*
X39674257Y-115310309D01*
X39734973Y-115275735D01*
X39804742Y-115279474D01*
X39861414Y-115320341D01*
X39886995Y-115385359D01*
X39887489Y-115396411D01*
X39887489Y-141701319D01*
X39887488Y-141701337D01*
X39887488Y-141867043D01*
X39887487Y-141867043D01*
X39928412Y-142019774D01*
X39957347Y-142069889D01*
X39957348Y-142069893D01*
X39957349Y-142069893D01*
X40007468Y-142156703D01*
X40007470Y-142156706D01*
X40126338Y-142275574D01*
X40126344Y-142275579D01*
X41465425Y-143614660D01*
X41498910Y-143675983D01*
X41499361Y-143678149D01*
X41530261Y-143833491D01*
X41530264Y-143833501D01*
X41590602Y-143979172D01*
X41590609Y-143979185D01*
X41678210Y-144110288D01*
X41678213Y-144110292D01*
X41789707Y-144221786D01*
X41789711Y-144221789D01*
X41920814Y-144309390D01*
X41920827Y-144309397D01*
X42066498Y-144369735D01*
X42066503Y-144369737D01*
X42221153Y-144400499D01*
X42221156Y-144400500D01*
X42221158Y-144400500D01*
X42378844Y-144400500D01*
X42378845Y-144400499D01*
X42533497Y-144369737D01*
X42679179Y-144309394D01*
X42810289Y-144221789D01*
X42921789Y-144110289D01*
X43009394Y-143979179D01*
X43069737Y-143833497D01*
X43100500Y-143678842D01*
X43100500Y-143521158D01*
X43100500Y-143521155D01*
X43100499Y-143521153D01*
X43069738Y-143366510D01*
X43069737Y-143366503D01*
X43069735Y-143366498D01*
X43009397Y-143220827D01*
X43009390Y-143220814D01*
X42921789Y-143089711D01*
X42921786Y-143089707D01*
X42810292Y-142978213D01*
X42810288Y-142978210D01*
X42679185Y-142890609D01*
X42679172Y-142890602D01*
X42533501Y-142830264D01*
X42533491Y-142830261D01*
X42378151Y-142799362D01*
X42316241Y-142766977D01*
X42314662Y-142765426D01*
X41124808Y-141575572D01*
X41091323Y-141514249D01*
X41088489Y-141487891D01*
X41088489Y-135920418D01*
X97099500Y-135920418D01*
X97099500Y-136078111D01*
X97130261Y-136232754D01*
X97130264Y-136232766D01*
X97190602Y-136378437D01*
X97190609Y-136378450D01*
X97278210Y-136509553D01*
X97278213Y-136509557D01*
X97389707Y-136621051D01*
X97389711Y-136621054D01*
X97520814Y-136708655D01*
X97520827Y-136708662D01*
X97666498Y-136769000D01*
X97666503Y-136769002D01*
X97821153Y-136799764D01*
X97821156Y-136799765D01*
X97821158Y-136799765D01*
X97978844Y-136799765D01*
X97978845Y-136799764D01*
X98133497Y-136769002D01*
X98279179Y-136708659D01*
X98410289Y-136621054D01*
X98521789Y-136509554D01*
X98609394Y-136378444D01*
X98669737Y-136232762D01*
X98684488Y-136158599D01*
X98701689Y-136072133D01*
X98704895Y-136072770D01*
X98724753Y-136021036D01*
X98735620Y-136008614D01*
X100179664Y-134564571D01*
X100240985Y-134531088D01*
X100243152Y-134530637D01*
X100243841Y-134530500D01*
X100243842Y-134530500D01*
X100398497Y-134499737D01*
X100544179Y-134439394D01*
X100675289Y-134351789D01*
X100786789Y-134240289D01*
X100874394Y-134109179D01*
X100934737Y-133963497D01*
X100965500Y-133808842D01*
X100965500Y-133651158D01*
X100965500Y-133651155D01*
X100965499Y-133651153D01*
X100934738Y-133496507D01*
X100934735Y-133496498D01*
X100874397Y-133350827D01*
X100874390Y-133350814D01*
X100786789Y-133219711D01*
X100786786Y-133219707D01*
X100675292Y-133108213D01*
X100675288Y-133108210D01*
X100544185Y-133020609D01*
X100544172Y-133020602D01*
X100398501Y-132960264D01*
X100398489Y-132960261D01*
X100243845Y-132929500D01*
X100243842Y-132929500D01*
X100086158Y-132929500D01*
X100086155Y-132929500D01*
X99931510Y-132960261D01*
X99931498Y-132960264D01*
X99785827Y-133020602D01*
X99785814Y-133020609D01*
X99654711Y-133108210D01*
X99654707Y-133108213D01*
X99543213Y-133219707D01*
X99543210Y-133219711D01*
X99455609Y-133350814D01*
X99455602Y-133350827D01*
X99395264Y-133496498D01*
X99395262Y-133496507D01*
X99364362Y-133651848D01*
X99331977Y-133713759D01*
X99330426Y-133715337D01*
X97880015Y-135165749D01*
X97818692Y-135199234D01*
X97816526Y-135199685D01*
X97666508Y-135229526D01*
X97666498Y-135229529D01*
X97520827Y-135289867D01*
X97520814Y-135289874D01*
X97389711Y-135377475D01*
X97389707Y-135377478D01*
X97278213Y-135488972D01*
X97278210Y-135488976D01*
X97190609Y-135620079D01*
X97190602Y-135620092D01*
X97130264Y-135765763D01*
X97130261Y-135765775D01*
X97099500Y-135920418D01*
X41088489Y-135920418D01*
X41088489Y-134396153D01*
X83949500Y-134396153D01*
X83949500Y-134553846D01*
X83980261Y-134708489D01*
X83980264Y-134708501D01*
X84040602Y-134854172D01*
X84040609Y-134854185D01*
X84128210Y-134985288D01*
X84128213Y-134985292D01*
X84239707Y-135096786D01*
X84239711Y-135096789D01*
X84370814Y-135184390D01*
X84370827Y-135184397D01*
X84479780Y-135229526D01*
X84516503Y-135244737D01*
X84581147Y-135257595D01*
X84671849Y-135275638D01*
X84688605Y-135284402D01*
X84707085Y-135288423D01*
X84732123Y-135307167D01*
X84733760Y-135308023D01*
X84735339Y-135309574D01*
X84815139Y-135389374D01*
X84815149Y-135389385D01*
X84819479Y-135393715D01*
X84819480Y-135393716D01*
X84931284Y-135505520D01*
X84931286Y-135505521D01*
X84931290Y-135505524D01*
X85068209Y-135584573D01*
X85068216Y-135584577D01*
X85180019Y-135614534D01*
X85220942Y-135625500D01*
X85220943Y-135625500D01*
X85445234Y-135625500D01*
X85512273Y-135645185D01*
X85514125Y-135646398D01*
X85645814Y-135734390D01*
X85645827Y-135734397D01*
X85791498Y-135794735D01*
X85791503Y-135794737D01*
X85946153Y-135825499D01*
X85946156Y-135825500D01*
X85946158Y-135825500D01*
X86103844Y-135825500D01*
X86103845Y-135825499D01*
X86258497Y-135794737D01*
X86404179Y-135734394D01*
X86535289Y-135646789D01*
X86646789Y-135535289D01*
X86734394Y-135404179D01*
X86794737Y-135258497D01*
X86825500Y-135103842D01*
X86825500Y-134946158D01*
X86825500Y-134946155D01*
X86825499Y-134946153D01*
X86807204Y-134854179D01*
X86794737Y-134791503D01*
X86760352Y-134708489D01*
X86734397Y-134645827D01*
X86734390Y-134645814D01*
X86646789Y-134514711D01*
X86646786Y-134514707D01*
X86535292Y-134403213D01*
X86535288Y-134403210D01*
X86404185Y-134315609D01*
X86404172Y-134315602D01*
X86258501Y-134255264D01*
X86258489Y-134255261D01*
X86103845Y-134224500D01*
X86103842Y-134224500D01*
X85946158Y-134224500D01*
X85946155Y-134224500D01*
X85791510Y-134255261D01*
X85791503Y-134255263D01*
X85678959Y-134301879D01*
X85609490Y-134309347D01*
X85547011Y-134278071D01*
X85516950Y-134234775D01*
X85459394Y-134095821D01*
X85459392Y-134095818D01*
X85459390Y-134095814D01*
X85371789Y-133964711D01*
X85371786Y-133964707D01*
X85260292Y-133853213D01*
X85260288Y-133853210D01*
X85129185Y-133765609D01*
X85129172Y-133765602D01*
X84983501Y-133705264D01*
X84983489Y-133705261D01*
X84828845Y-133674500D01*
X84828842Y-133674500D01*
X84671158Y-133674500D01*
X84671155Y-133674500D01*
X84516510Y-133705261D01*
X84516498Y-133705264D01*
X84370827Y-133765602D01*
X84370814Y-133765609D01*
X84239711Y-133853210D01*
X84239707Y-133853213D01*
X84128213Y-133964707D01*
X84128210Y-133964711D01*
X84040609Y-134095814D01*
X84040602Y-134095827D01*
X83980264Y-134241498D01*
X83980261Y-134241510D01*
X83949500Y-134396153D01*
X41088489Y-134396153D01*
X41088489Y-132696153D01*
X55474500Y-132696153D01*
X55474500Y-132853846D01*
X55505261Y-133008489D01*
X55505264Y-133008501D01*
X55565602Y-133154172D01*
X55565609Y-133154185D01*
X55653210Y-133285288D01*
X55653213Y-133285292D01*
X55764707Y-133396786D01*
X55764711Y-133396789D01*
X55895814Y-133484390D01*
X55895827Y-133484397D01*
X56041498Y-133544735D01*
X56041503Y-133544737D01*
X56196153Y-133575499D01*
X56196156Y-133575500D01*
X56196158Y-133575500D01*
X56353844Y-133575500D01*
X56353845Y-133575499D01*
X56508497Y-133544737D01*
X56654179Y-133484394D01*
X56785289Y-133396789D01*
X56896789Y-133285289D01*
X56984394Y-133154179D01*
X57044737Y-133008497D01*
X57075500Y-132853842D01*
X57075500Y-132696158D01*
X57075500Y-132696155D01*
X57075499Y-132696153D01*
X57055734Y-132596789D01*
X57044737Y-132541503D01*
X57021452Y-132485288D01*
X56984397Y-132395827D01*
X56984390Y-132395814D01*
X56896789Y-132264711D01*
X56896786Y-132264707D01*
X56785292Y-132153213D01*
X56785288Y-132153210D01*
X56654185Y-132065609D01*
X56654172Y-132065602D01*
X56508501Y-132005264D01*
X56508489Y-132005261D01*
X56353845Y-131974500D01*
X56353842Y-131974500D01*
X56196158Y-131974500D01*
X56196155Y-131974500D01*
X56041510Y-132005261D01*
X56041498Y-132005264D01*
X55895827Y-132065602D01*
X55895814Y-132065609D01*
X55764711Y-132153210D01*
X55764707Y-132153213D01*
X55653213Y-132264707D01*
X55653210Y-132264711D01*
X55565609Y-132395814D01*
X55565602Y-132395827D01*
X55505264Y-132541498D01*
X55505261Y-132541510D01*
X55474500Y-132696153D01*
X41088489Y-132696153D01*
X41088489Y-131896153D01*
X71824500Y-131896153D01*
X71824500Y-132053846D01*
X71855261Y-132208489D01*
X71855264Y-132208501D01*
X71915602Y-132354172D01*
X71915609Y-132354185D01*
X72003210Y-132485288D01*
X72003213Y-132485292D01*
X72114707Y-132596786D01*
X72114711Y-132596789D01*
X72245814Y-132684390D01*
X72245827Y-132684397D01*
X72391498Y-132744735D01*
X72391503Y-132744737D01*
X72546153Y-132775499D01*
X72546156Y-132775500D01*
X72546158Y-132775500D01*
X72703844Y-132775500D01*
X72703845Y-132775499D01*
X72858497Y-132744737D01*
X73004179Y-132684394D01*
X73135289Y-132596789D01*
X73246789Y-132485289D01*
X73334394Y-132354179D01*
X73394737Y-132208497D01*
X73425500Y-132053842D01*
X73425500Y-131896158D01*
X73425500Y-131896155D01*
X73425499Y-131896153D01*
X73394738Y-131741510D01*
X73394737Y-131741503D01*
X73378286Y-131701786D01*
X73334397Y-131595827D01*
X73334390Y-131595814D01*
X73246789Y-131464711D01*
X73246786Y-131464707D01*
X73135292Y-131353213D01*
X73135288Y-131353210D01*
X73004185Y-131265609D01*
X73004172Y-131265602D01*
X72858501Y-131205264D01*
X72858489Y-131205261D01*
X72703845Y-131174500D01*
X72703842Y-131174500D01*
X72546158Y-131174500D01*
X72546155Y-131174500D01*
X72391510Y-131205261D01*
X72391498Y-131205264D01*
X72245827Y-131265602D01*
X72245814Y-131265609D01*
X72114711Y-131353210D01*
X72114707Y-131353213D01*
X72003213Y-131464707D01*
X72003210Y-131464711D01*
X71915609Y-131595814D01*
X71915602Y-131595827D01*
X71855264Y-131741498D01*
X71855261Y-131741510D01*
X71824500Y-131896153D01*
X41088489Y-131896153D01*
X41088489Y-125811313D01*
X41108174Y-125744274D01*
X41160978Y-125698519D01*
X41188298Y-125689696D01*
X41217837Y-125683819D01*
X41322486Y-125663004D01*
X41468168Y-125602661D01*
X41599278Y-125515056D01*
X41710778Y-125403556D01*
X41798383Y-125272446D01*
X41858726Y-125126764D01*
X41883838Y-125000520D01*
X41885221Y-124993567D01*
X41917606Y-124931656D01*
X41919101Y-124930133D01*
X46858506Y-119990727D01*
X46858511Y-119990724D01*
X46868714Y-119980520D01*
X46868716Y-119980520D01*
X46980520Y-119868716D01*
X47059577Y-119731784D01*
X47090958Y-119614669D01*
X47100500Y-119579058D01*
X47100500Y-119420943D01*
X47100500Y-118879765D01*
X47120185Y-118812726D01*
X47121398Y-118810874D01*
X47209390Y-118679185D01*
X47209390Y-118679184D01*
X47209394Y-118679179D01*
X47212719Y-118671153D01*
X47243782Y-118596158D01*
X47269737Y-118533497D01*
X47300500Y-118378842D01*
X47300500Y-118221158D01*
X47300500Y-118221155D01*
X47300499Y-118221153D01*
X47295033Y-118193675D01*
X47269737Y-118066503D01*
X47269732Y-118066492D01*
X47267969Y-118060676D01*
X47270720Y-118059841D01*
X47264497Y-118002641D01*
X47295691Y-117940122D01*
X47355734Y-117904392D01*
X47386555Y-117900500D01*
X48264127Y-117900500D01*
X48331166Y-117920185D01*
X48376921Y-117972989D01*
X48386865Y-118042147D01*
X48368378Y-118090392D01*
X48368479Y-118090446D01*
X48368049Y-118091249D01*
X48367229Y-118093391D01*
X48365609Y-118095814D01*
X48365602Y-118095827D01*
X48305264Y-118241498D01*
X48305261Y-118241510D01*
X48274500Y-118396153D01*
X48274500Y-118553846D01*
X48305261Y-118708489D01*
X48305264Y-118708501D01*
X48365602Y-118854172D01*
X48365609Y-118854185D01*
X48453602Y-118985874D01*
X48459252Y-119003920D01*
X48469477Y-119019830D01*
X48473928Y-119050789D01*
X48474480Y-119052551D01*
X48474500Y-119054765D01*
X48474500Y-119188330D01*
X48474499Y-119188348D01*
X48474499Y-119354054D01*
X48474498Y-119354054D01*
X48479250Y-119371786D01*
X48515423Y-119506785D01*
X48525651Y-119524500D01*
X48594477Y-119643712D01*
X48594481Y-119643717D01*
X48713349Y-119762585D01*
X48713355Y-119762590D01*
X52730666Y-123779901D01*
X52764151Y-123841224D01*
X52759167Y-123910916D01*
X52717295Y-123966849D01*
X52651831Y-123991266D01*
X52595533Y-123982143D01*
X52450169Y-123921932D01*
X52450157Y-123921929D01*
X52295513Y-123891168D01*
X52295510Y-123891168D01*
X52137826Y-123891168D01*
X52137823Y-123891168D01*
X51983178Y-123921929D01*
X51983166Y-123921932D01*
X51837495Y-123982270D01*
X51837482Y-123982277D01*
X51706379Y-124069878D01*
X51706375Y-124069881D01*
X51594881Y-124181375D01*
X51594878Y-124181379D01*
X51507277Y-124312482D01*
X51507270Y-124312495D01*
X51446932Y-124458166D01*
X51446929Y-124458178D01*
X51416168Y-124612821D01*
X51416168Y-124770514D01*
X51446929Y-124925157D01*
X51446932Y-124925169D01*
X51507270Y-125070840D01*
X51507277Y-125070853D01*
X51594876Y-125201953D01*
X51596350Y-125203749D01*
X51596828Y-125204874D01*
X51598263Y-125207022D01*
X51597855Y-125207294D01*
X51623666Y-125268058D01*
X51624500Y-125282418D01*
X51624500Y-125963333D01*
X51624499Y-125963351D01*
X51624499Y-126129057D01*
X51624498Y-126129057D01*
X51665424Y-126281793D01*
X51667694Y-126287272D01*
X51671087Y-126318838D01*
X51676166Y-126350177D01*
X51674795Y-126353325D01*
X51675163Y-126356741D01*
X51660948Y-126385138D01*
X51648281Y-126414240D01*
X51644828Y-126417341D01*
X51643888Y-126419220D01*
X51622024Y-126437826D01*
X51562873Y-126477350D01*
X51496196Y-126498228D01*
X51493982Y-126498248D01*
X51473845Y-126498248D01*
X51406806Y-126478563D01*
X51386164Y-126461929D01*
X51284574Y-126360339D01*
X51251089Y-126299016D01*
X51250638Y-126296849D01*
X51219738Y-126141510D01*
X51219737Y-126141503D01*
X51210649Y-126119562D01*
X51159397Y-125995827D01*
X51159390Y-125995814D01*
X51071789Y-125864711D01*
X51071786Y-125864707D01*
X50960292Y-125753213D01*
X50960288Y-125753210D01*
X50829185Y-125665609D01*
X50829172Y-125665602D01*
X50683501Y-125605264D01*
X50683489Y-125605261D01*
X50528845Y-125574500D01*
X50528842Y-125574500D01*
X50371158Y-125574500D01*
X50371155Y-125574500D01*
X50216510Y-125605261D01*
X50216498Y-125605264D01*
X50070827Y-125665602D01*
X50070814Y-125665609D01*
X49939711Y-125753210D01*
X49939707Y-125753213D01*
X49828213Y-125864707D01*
X49828210Y-125864711D01*
X49740609Y-125995814D01*
X49740602Y-125995827D01*
X49680264Y-126141498D01*
X49680261Y-126141510D01*
X49649500Y-126296153D01*
X49649500Y-126296158D01*
X49649500Y-126453842D01*
X49649500Y-126453844D01*
X49649499Y-126453844D01*
X49678833Y-126601308D01*
X49672606Y-126670900D01*
X49629743Y-126726077D01*
X49563854Y-126749322D01*
X49557216Y-126749500D01*
X46529766Y-126749500D01*
X46462727Y-126729815D01*
X46460875Y-126728602D01*
X46329185Y-126640609D01*
X46329172Y-126640602D01*
X46183501Y-126580264D01*
X46183489Y-126580261D01*
X46028845Y-126549500D01*
X46028842Y-126549500D01*
X45871158Y-126549500D01*
X45871155Y-126549500D01*
X45716510Y-126580261D01*
X45716498Y-126580264D01*
X45570827Y-126640602D01*
X45570814Y-126640609D01*
X45439711Y-126728210D01*
X45439707Y-126728213D01*
X45328213Y-126839707D01*
X45328210Y-126839711D01*
X45240609Y-126970814D01*
X45240602Y-126970827D01*
X45180264Y-127116498D01*
X45180261Y-127116510D01*
X45149500Y-127271153D01*
X45149500Y-127428846D01*
X45180261Y-127583489D01*
X45180264Y-127583501D01*
X45240602Y-127729172D01*
X45240609Y-127729185D01*
X45328210Y-127860288D01*
X45328213Y-127860292D01*
X45439707Y-127971786D01*
X45439711Y-127971789D01*
X45570814Y-128059390D01*
X45570827Y-128059397D01*
X45653682Y-128093716D01*
X45716503Y-128119737D01*
X45871153Y-128150499D01*
X45871156Y-128150500D01*
X45871158Y-128150500D01*
X46028844Y-128150500D01*
X46028845Y-128150499D01*
X46183497Y-128119737D01*
X46329179Y-128059394D01*
X46329185Y-128059390D01*
X46460875Y-127971398D01*
X46527553Y-127950520D01*
X46529766Y-127950500D01*
X50074903Y-127950500D01*
X50104343Y-127959144D01*
X50134330Y-127965668D01*
X50139345Y-127969422D01*
X50141942Y-127970185D01*
X50162584Y-127986819D01*
X50265139Y-128089374D01*
X50265149Y-128089385D01*
X50269479Y-128093715D01*
X50269480Y-128093716D01*
X50381284Y-128205520D01*
X50464449Y-128253535D01*
X50518215Y-128284577D01*
X50670943Y-128325500D01*
X50902064Y-128325500D01*
X50969103Y-128345185D01*
X50970955Y-128346398D01*
X51082062Y-128420638D01*
X51082075Y-128420645D01*
X51227746Y-128480983D01*
X51227751Y-128480985D01*
X51382401Y-128511747D01*
X51382404Y-128511748D01*
X51382406Y-128511748D01*
X51540092Y-128511748D01*
X51540093Y-128511747D01*
X51694745Y-128480985D01*
X51840427Y-128420642D01*
X51971537Y-128333037D01*
X52083037Y-128221537D01*
X52170642Y-128090427D01*
X52230985Y-127944745D01*
X52230985Y-127944744D01*
X52233316Y-127939117D01*
X52235755Y-127940127D01*
X52267738Y-127891265D01*
X52302275Y-127872405D01*
X52301617Y-127870816D01*
X52327025Y-127860292D01*
X52452927Y-127808142D01*
X52584037Y-127720537D01*
X52695537Y-127609037D01*
X52783142Y-127477927D01*
X52803474Y-127428842D01*
X52842505Y-127334612D01*
X52886346Y-127280208D01*
X52909614Y-127267503D01*
X53052917Y-127208145D01*
X53052917Y-127208144D01*
X53052924Y-127208142D01*
X53184034Y-127120537D01*
X53295534Y-127009037D01*
X53383139Y-126877927D01*
X53443482Y-126732245D01*
X53474245Y-126577590D01*
X53474245Y-126419906D01*
X53474245Y-126419903D01*
X53474244Y-126419901D01*
X53462396Y-126360339D01*
X53443482Y-126265251D01*
X53407488Y-126178352D01*
X53383142Y-126119575D01*
X53383135Y-126119562D01*
X53295534Y-125988459D01*
X53295531Y-125988455D01*
X53184037Y-125876961D01*
X53184033Y-125876958D01*
X53052930Y-125789357D01*
X53052917Y-125789350D01*
X52902048Y-125726859D01*
X52847644Y-125683018D01*
X52825579Y-125616724D01*
X52825500Y-125612298D01*
X52825500Y-125258964D01*
X52845185Y-125191925D01*
X52846398Y-125190073D01*
X52926058Y-125070853D01*
X52926058Y-125070852D01*
X52926062Y-125070847D01*
X52986405Y-124925165D01*
X53017168Y-124770510D01*
X53017168Y-124612826D01*
X53017168Y-124612823D01*
X53017167Y-124612821D01*
X53008597Y-124569737D01*
X52986405Y-124458171D01*
X52926192Y-124312802D01*
X52918723Y-124243333D01*
X52949998Y-124180854D01*
X53010087Y-124145202D01*
X53079913Y-124147696D01*
X53128434Y-124177669D01*
X53665139Y-124714374D01*
X53665149Y-124714385D01*
X53669479Y-124718715D01*
X53669480Y-124718716D01*
X53781284Y-124830520D01*
X53867886Y-124880519D01*
X53867888Y-124880521D01*
X53918211Y-124909575D01*
X53918215Y-124909577D01*
X54070943Y-124950501D01*
X54070946Y-124950501D01*
X54236653Y-124950501D01*
X54236669Y-124950500D01*
X54892060Y-124950500D01*
X54959099Y-124970185D01*
X54979742Y-124986820D01*
X55014707Y-125021786D01*
X55014711Y-125021789D01*
X55145814Y-125109390D01*
X55145827Y-125109397D01*
X55291498Y-125169735D01*
X55291503Y-125169737D01*
X55403049Y-125191925D01*
X55446153Y-125200499D01*
X55446156Y-125200500D01*
X55446158Y-125200500D01*
X55603844Y-125200500D01*
X55603845Y-125200499D01*
X55758497Y-125169737D01*
X55904179Y-125109394D01*
X56035289Y-125021789D01*
X56146789Y-124910289D01*
X56234394Y-124779179D01*
X56290185Y-124644484D01*
X56334024Y-124590084D01*
X56377674Y-124571547D01*
X56377662Y-124571507D01*
X56378035Y-124571393D01*
X56380561Y-124570320D01*
X56383497Y-124569737D01*
X56529179Y-124509394D01*
X56660289Y-124421789D01*
X56771789Y-124310289D01*
X56859394Y-124179179D01*
X56860020Y-124177669D01*
X56904667Y-124069879D01*
X56919737Y-124033497D01*
X56950500Y-123878842D01*
X56950500Y-123721158D01*
X56950500Y-123721155D01*
X56950499Y-123721153D01*
X56919738Y-123566510D01*
X56919737Y-123566503D01*
X56919735Y-123566498D01*
X56859397Y-123420827D01*
X56859390Y-123420814D01*
X56771789Y-123289711D01*
X56771786Y-123289707D01*
X56660292Y-123178213D01*
X56660288Y-123178210D01*
X56529185Y-123090609D01*
X56529172Y-123090602D01*
X56383501Y-123030264D01*
X56383489Y-123030261D01*
X56228845Y-122999500D01*
X56228842Y-122999500D01*
X56071158Y-122999500D01*
X56071155Y-122999500D01*
X55916510Y-123030261D01*
X55916498Y-123030264D01*
X55770828Y-123090602D01*
X55770812Y-123090611D01*
X55731957Y-123116573D01*
X55665280Y-123137450D01*
X55597900Y-123118965D01*
X55575387Y-123101151D01*
X51134573Y-118660337D01*
X51101088Y-118599014D01*
X51100637Y-118596847D01*
X51095593Y-118571488D01*
X51069737Y-118441503D01*
X51065081Y-118430263D01*
X51009397Y-118295827D01*
X51009390Y-118295814D01*
X50921789Y-118164711D01*
X50921786Y-118164707D01*
X50869260Y-118112181D01*
X50835775Y-118050858D01*
X50840759Y-117981166D01*
X50882631Y-117925233D01*
X50948095Y-117900816D01*
X50956941Y-117900500D01*
X54920065Y-117900500D01*
X54987104Y-117920185D01*
X54988909Y-117921366D01*
X55045821Y-117959394D01*
X55045823Y-117959395D01*
X55045827Y-117959397D01*
X55150229Y-118002641D01*
X55191503Y-118019737D01*
X55304165Y-118042147D01*
X55346153Y-118050499D01*
X55346156Y-118050500D01*
X55346158Y-118050500D01*
X55503844Y-118050500D01*
X55503845Y-118050499D01*
X55658497Y-118019737D01*
X55791343Y-117964711D01*
X55804172Y-117959397D01*
X55804172Y-117959396D01*
X55804179Y-117959394D01*
X55935289Y-117871789D01*
X55953739Y-117853338D01*
X56015060Y-117819852D01*
X56084752Y-117824835D01*
X56129102Y-117853337D01*
X56487180Y-118211415D01*
X56520665Y-118272738D01*
X56523499Y-118299096D01*
X56523499Y-118427997D01*
X56523498Y-118427997D01*
X56564423Y-118580730D01*
X56573332Y-118596159D01*
X56573331Y-118596159D01*
X56573333Y-118596161D01*
X56643475Y-118717652D01*
X56643481Y-118717660D01*
X56902826Y-118977005D01*
X56936311Y-119038328D01*
X56936762Y-119040494D01*
X56955261Y-119133494D01*
X56955264Y-119133504D01*
X57015602Y-119279175D01*
X57015609Y-119279188D01*
X57103210Y-119410291D01*
X57103213Y-119410295D01*
X57214707Y-119521789D01*
X57214711Y-119521792D01*
X57345814Y-119609393D01*
X57345827Y-119609400D01*
X57428677Y-119643717D01*
X57491503Y-119669740D01*
X57601987Y-119691716D01*
X57624691Y-119696233D01*
X57686602Y-119728618D01*
X57721176Y-119789333D01*
X57724500Y-119817850D01*
X57724500Y-128595234D01*
X57704815Y-128662273D01*
X57703602Y-128664125D01*
X57615609Y-128795814D01*
X57615602Y-128795827D01*
X57555264Y-128941498D01*
X57555261Y-128941510D01*
X57524500Y-129096153D01*
X57524500Y-129253846D01*
X57555261Y-129408489D01*
X57555264Y-129408501D01*
X57615602Y-129554172D01*
X57615609Y-129554185D01*
X57703210Y-129685288D01*
X57703213Y-129685292D01*
X57814707Y-129796786D01*
X57814711Y-129796789D01*
X57945814Y-129884390D01*
X57945827Y-129884397D01*
X58036101Y-129921789D01*
X58091503Y-129944737D01*
X58246153Y-129975499D01*
X58246156Y-129975500D01*
X58246158Y-129975500D01*
X58403844Y-129975500D01*
X58403845Y-129975499D01*
X58558497Y-129944737D01*
X58704179Y-129884394D01*
X58835289Y-129796789D01*
X58946789Y-129685289D01*
X59034394Y-129554179D01*
X59077081Y-129451120D01*
X59097431Y-129425867D01*
X59116720Y-129399768D01*
X59119680Y-129398257D01*
X59120920Y-129396720D01*
X59147593Y-129382662D01*
X59155561Y-129379633D01*
X59158497Y-129379050D01*
X59174044Y-129372609D01*
X59175713Y-129371976D01*
X59208792Y-129369405D01*
X59241774Y-129365859D01*
X59243475Y-129366710D01*
X59245372Y-129366563D01*
X59274594Y-129382286D01*
X59304254Y-129397132D01*
X59305224Y-129398767D01*
X59306900Y-129399669D01*
X59322982Y-129428695D01*
X59339908Y-129457219D01*
X59340685Y-129460645D01*
X59340763Y-129460785D01*
X59340752Y-129460941D01*
X59341378Y-129463697D01*
X59355261Y-129533491D01*
X59355264Y-129533501D01*
X59415602Y-129679172D01*
X59415609Y-129679185D01*
X59503210Y-129810288D01*
X59503213Y-129810292D01*
X59614707Y-129921786D01*
X59614711Y-129921789D01*
X59745814Y-130009390D01*
X59745827Y-130009397D01*
X59891498Y-130069735D01*
X59891503Y-130069737D01*
X60046153Y-130100499D01*
X60046156Y-130100500D01*
X60046158Y-130100500D01*
X60203844Y-130100500D01*
X60203845Y-130100499D01*
X60358497Y-130069737D01*
X60504179Y-130009394D01*
X60635289Y-129921789D01*
X60746789Y-129810289D01*
X60834394Y-129679179D01*
X60894737Y-129533497D01*
X60925500Y-129378842D01*
X60925500Y-129221158D01*
X60925500Y-129221155D01*
X60925499Y-129221153D01*
X60913292Y-129159786D01*
X60894737Y-129066503D01*
X60835910Y-128924480D01*
X60834397Y-128920827D01*
X60834390Y-128920814D01*
X60746398Y-128789125D01*
X60725520Y-128722447D01*
X60725500Y-128720234D01*
X60725500Y-128459153D01*
X72711500Y-128459153D01*
X72711500Y-128616846D01*
X72742261Y-128771489D01*
X72742264Y-128771501D01*
X72802602Y-128917172D01*
X72802609Y-128917185D01*
X72890210Y-129048288D01*
X72890213Y-129048292D01*
X73001707Y-129159786D01*
X73001711Y-129159789D01*
X73132814Y-129247390D01*
X73132827Y-129247397D01*
X73239298Y-129291498D01*
X73278503Y-129307737D01*
X73333653Y-129318707D01*
X73433849Y-129338638D01*
X73495760Y-129371023D01*
X73497336Y-129372571D01*
X74130284Y-130005520D01*
X74267215Y-130084577D01*
X74419943Y-130125501D01*
X74419946Y-130125501D01*
X74585654Y-130125501D01*
X74585670Y-130125500D01*
X88995234Y-130125500D01*
X89062273Y-130145185D01*
X89064125Y-130146398D01*
X89195814Y-130234390D01*
X89195827Y-130234397D01*
X89304717Y-130279500D01*
X89341503Y-130294737D01*
X89496153Y-130325499D01*
X89496156Y-130325500D01*
X89496158Y-130325500D01*
X89653844Y-130325500D01*
X89653845Y-130325499D01*
X89808497Y-130294737D01*
X89954179Y-130234394D01*
X90085289Y-130146789D01*
X90196789Y-130035289D01*
X90284394Y-129904179D01*
X90344737Y-129758497D01*
X90375500Y-129603842D01*
X90375500Y-129446158D01*
X90375500Y-129446155D01*
X90375499Y-129446153D01*
X90371464Y-129425867D01*
X90344737Y-129291503D01*
X90329139Y-129253846D01*
X90284397Y-129145827D01*
X90284390Y-129145814D01*
X90196789Y-129014711D01*
X90196786Y-129014707D01*
X90085292Y-128903213D01*
X90085288Y-128903210D01*
X90002912Y-128848168D01*
X89954185Y-128815609D01*
X89954172Y-128815602D01*
X89808501Y-128755264D01*
X89808489Y-128755261D01*
X89787837Y-128751153D01*
X97099500Y-128751153D01*
X97099500Y-128908846D01*
X97130261Y-129063489D01*
X97130264Y-129063501D01*
X97190602Y-129209172D01*
X97190609Y-129209185D01*
X97278210Y-129340288D01*
X97278213Y-129340292D01*
X97389707Y-129451786D01*
X97389711Y-129451789D01*
X97520814Y-129539390D01*
X97520827Y-129539397D01*
X97666498Y-129599735D01*
X97666503Y-129599737D01*
X97731147Y-129612595D01*
X97821849Y-129630638D01*
X97883760Y-129663023D01*
X97885339Y-129664574D01*
X99334150Y-131113385D01*
X99367635Y-131174708D01*
X99368086Y-131176874D01*
X99395261Y-131313491D01*
X99395264Y-131313501D01*
X99455602Y-131459172D01*
X99455609Y-131459185D01*
X99543210Y-131590288D01*
X99543213Y-131590292D01*
X99654707Y-131701786D01*
X99654711Y-131701789D01*
X99785814Y-131789390D01*
X99785827Y-131789397D01*
X99931498Y-131849735D01*
X99931503Y-131849737D01*
X100086153Y-131880499D01*
X100086156Y-131880500D01*
X100086158Y-131880500D01*
X100243844Y-131880500D01*
X100243845Y-131880499D01*
X100398497Y-131849737D01*
X100544179Y-131789394D01*
X100675289Y-131701789D01*
X100786789Y-131590289D01*
X100874394Y-131459179D01*
X100934737Y-131313497D01*
X100965500Y-131158842D01*
X100965500Y-131001158D01*
X100965500Y-131001155D01*
X100965499Y-131001153D01*
X100934738Y-130846510D01*
X100934737Y-130846503D01*
X100934735Y-130846498D01*
X100874397Y-130700827D01*
X100874390Y-130700814D01*
X100786789Y-130569711D01*
X100786786Y-130569707D01*
X100675292Y-130458213D01*
X100675288Y-130458210D01*
X100544185Y-130370609D01*
X100544172Y-130370602D01*
X100398501Y-130310264D01*
X100398489Y-130310261D01*
X100243840Y-130279498D01*
X100237955Y-130278919D01*
X100173169Y-130252755D01*
X100162434Y-130243198D01*
X98734573Y-128815337D01*
X98701088Y-128754014D01*
X98700637Y-128751847D01*
X98694349Y-128720234D01*
X98669737Y-128596503D01*
X98634631Y-128511748D01*
X98609397Y-128450827D01*
X98609390Y-128450814D01*
X98521789Y-128319711D01*
X98521786Y-128319707D01*
X98410292Y-128208213D01*
X98410288Y-128208210D01*
X98279185Y-128120609D01*
X98279172Y-128120602D01*
X98133501Y-128060264D01*
X98133489Y-128060261D01*
X97978845Y-128029500D01*
X97978842Y-128029500D01*
X97821158Y-128029500D01*
X97821155Y-128029500D01*
X97666510Y-128060261D01*
X97666498Y-128060264D01*
X97520827Y-128120602D01*
X97520814Y-128120609D01*
X97389711Y-128208210D01*
X97389707Y-128208213D01*
X97278213Y-128319707D01*
X97278210Y-128319711D01*
X97190609Y-128450814D01*
X97190602Y-128450827D01*
X97130264Y-128596498D01*
X97130261Y-128596510D01*
X97099500Y-128751153D01*
X89787837Y-128751153D01*
X89653845Y-128724500D01*
X89653842Y-128724500D01*
X89496158Y-128724500D01*
X89496155Y-128724500D01*
X89341510Y-128755261D01*
X89341498Y-128755264D01*
X89195827Y-128815602D01*
X89195814Y-128815609D01*
X89064125Y-128903602D01*
X88997447Y-128924480D01*
X88995234Y-128924500D01*
X74799098Y-128924500D01*
X74732059Y-128904815D01*
X74711417Y-128888181D01*
X74346573Y-128523337D01*
X74313088Y-128462014D01*
X74312637Y-128459847D01*
X74289829Y-128345185D01*
X74281737Y-128304503D01*
X74281735Y-128304498D01*
X74221397Y-128158827D01*
X74221390Y-128158814D01*
X74133789Y-128027711D01*
X74133786Y-128027707D01*
X74022292Y-127916213D01*
X74022288Y-127916210D01*
X73891185Y-127828609D01*
X73891172Y-127828602D01*
X73745501Y-127768264D01*
X73745489Y-127768261D01*
X73590845Y-127737500D01*
X73590842Y-127737500D01*
X73433158Y-127737500D01*
X73433155Y-127737500D01*
X73278510Y-127768261D01*
X73278498Y-127768264D01*
X73132827Y-127828602D01*
X73132814Y-127828609D01*
X73001711Y-127916210D01*
X73001707Y-127916213D01*
X72890213Y-128027707D01*
X72890210Y-128027711D01*
X72802609Y-128158814D01*
X72802602Y-128158827D01*
X72742264Y-128304498D01*
X72742261Y-128304510D01*
X72711500Y-128459153D01*
X60725500Y-128459153D01*
X60725500Y-127421568D01*
X60745185Y-127354529D01*
X60797989Y-127308774D01*
X60825309Y-127299951D01*
X60870685Y-127290924D01*
X60983497Y-127268485D01*
X61129179Y-127208142D01*
X61260289Y-127120537D01*
X61371789Y-127009037D01*
X61459394Y-126877927D01*
X61519737Y-126732245D01*
X61550500Y-126577590D01*
X61550500Y-126419906D01*
X61550500Y-126419903D01*
X61550499Y-126419901D01*
X61538651Y-126360339D01*
X61519737Y-126265251D01*
X61512516Y-126247819D01*
X61505048Y-126178352D01*
X61536323Y-126115872D01*
X61579626Y-126085807D01*
X61583495Y-126084204D01*
X61583497Y-126084204D01*
X61645792Y-126058400D01*
X61729173Y-126023864D01*
X61729176Y-126023862D01*
X61729179Y-126023861D01*
X61860289Y-125936256D01*
X61971789Y-125824756D01*
X62059394Y-125693646D01*
X62119737Y-125547964D01*
X62150500Y-125393309D01*
X62150500Y-125276613D01*
X62170185Y-125209574D01*
X62222989Y-125163819D01*
X62226975Y-125162083D01*
X62354179Y-125109394D01*
X62411879Y-125070840D01*
X62485875Y-125021398D01*
X62552553Y-125000520D01*
X62554766Y-125000500D01*
X84163331Y-125000500D01*
X84163347Y-125000501D01*
X84170943Y-125000501D01*
X84329054Y-125000501D01*
X84329057Y-125000501D01*
X84481785Y-124959577D01*
X84544353Y-124923453D01*
X84618716Y-124880520D01*
X84730520Y-124768716D01*
X84730520Y-124768714D01*
X84740724Y-124758511D01*
X84740727Y-124758506D01*
X89914663Y-119584571D01*
X89975984Y-119551088D01*
X89978151Y-119550637D01*
X90009140Y-119544472D01*
X90133494Y-119519737D01*
X90279176Y-119459394D01*
X90410286Y-119371789D01*
X90521786Y-119260289D01*
X90609391Y-119129179D01*
X90612716Y-119121153D01*
X90654684Y-119019830D01*
X90669734Y-118983497D01*
X90700497Y-118828842D01*
X90700497Y-118671158D01*
X90700497Y-118671155D01*
X90700496Y-118671153D01*
X90694033Y-118638662D01*
X90669734Y-118516503D01*
X90622741Y-118403052D01*
X90615273Y-118333585D01*
X90634201Y-118286712D01*
X90678005Y-118221155D01*
X90696357Y-118193690D01*
X90696358Y-118193687D01*
X90696362Y-118193682D01*
X90756705Y-118048000D01*
X90787468Y-117893345D01*
X90787468Y-117850418D01*
X97099500Y-117850418D01*
X97099500Y-118008111D01*
X97130261Y-118162754D01*
X97130264Y-118162766D01*
X97190602Y-118308437D01*
X97190609Y-118308450D01*
X97278210Y-118439553D01*
X97278213Y-118439557D01*
X97389707Y-118551051D01*
X97389711Y-118551054D01*
X97520814Y-118638655D01*
X97520827Y-118638662D01*
X97644072Y-118689711D01*
X97666503Y-118699002D01*
X97821153Y-118729764D01*
X97821156Y-118729765D01*
X97821158Y-118729765D01*
X97978844Y-118729765D01*
X97978845Y-118729764D01*
X98133497Y-118699002D01*
X98279179Y-118638659D01*
X98410289Y-118551054D01*
X98521789Y-118439554D01*
X98609394Y-118308444D01*
X98631469Y-118255147D01*
X98675309Y-118200747D01*
X98741603Y-118178681D01*
X98793479Y-118188040D01*
X98870466Y-118219929D01*
X99010255Y-118247735D01*
X99025116Y-118250691D01*
X99025119Y-118250692D01*
X99025121Y-118250692D01*
X99182807Y-118250692D01*
X99182808Y-118250691D01*
X99337460Y-118219929D01*
X99475465Y-118162766D01*
X99483135Y-118159589D01*
X99483135Y-118159588D01*
X99483142Y-118159586D01*
X99614252Y-118071981D01*
X99725752Y-117960481D01*
X99813357Y-117829371D01*
X99873700Y-117683689D01*
X99904463Y-117529034D01*
X99904463Y-117371350D01*
X99904463Y-117371347D01*
X99904462Y-117371345D01*
X99873700Y-117216695D01*
X99863767Y-117192714D01*
X99813360Y-117071019D01*
X99813353Y-117071006D01*
X99725752Y-116939903D01*
X99725749Y-116939899D01*
X99614255Y-116828405D01*
X99614251Y-116828402D01*
X99483148Y-116740801D01*
X99483135Y-116740794D01*
X99337464Y-116680456D01*
X99337452Y-116680453D01*
X99182808Y-116649692D01*
X99182805Y-116649692D01*
X99025121Y-116649692D01*
X99025118Y-116649692D01*
X98870473Y-116680453D01*
X98870461Y-116680456D01*
X98724790Y-116740794D01*
X98724777Y-116740801D01*
X98593088Y-116828794D01*
X98575041Y-116834444D01*
X98559132Y-116844669D01*
X98528170Y-116849120D01*
X98526410Y-116849672D01*
X98524197Y-116849692D01*
X98456477Y-116849692D01*
X98456461Y-116849691D01*
X98448865Y-116849691D01*
X98290751Y-116849691D01*
X98183395Y-116878457D01*
X98138018Y-116890616D01*
X98138017Y-116890617D01*
X98087904Y-116919551D01*
X98087903Y-116919552D01*
X98052661Y-116939899D01*
X98001093Y-116969671D01*
X98001090Y-116969673D01*
X97926000Y-117044764D01*
X97889288Y-117081476D01*
X97889286Y-117081478D01*
X97882618Y-117088145D01*
X97873766Y-117096997D01*
X97843750Y-117113384D01*
X97812444Y-117130477D01*
X97812440Y-117130477D01*
X97812440Y-117130478D01*
X97812439Y-117130477D01*
X97810282Y-117130927D01*
X97666508Y-117159526D01*
X97666498Y-117159529D01*
X97520827Y-117219867D01*
X97520814Y-117219874D01*
X97389711Y-117307475D01*
X97389707Y-117307478D01*
X97278213Y-117418972D01*
X97278210Y-117418976D01*
X97190609Y-117550079D01*
X97190602Y-117550092D01*
X97130264Y-117695763D01*
X97130261Y-117695775D01*
X97099500Y-117850418D01*
X90787468Y-117850418D01*
X90787468Y-117735661D01*
X90787468Y-117735658D01*
X90787467Y-117735656D01*
X90758615Y-117590609D01*
X90756705Y-117581006D01*
X90735687Y-117530263D01*
X90696365Y-117435330D01*
X90696358Y-117435317D01*
X90608757Y-117304214D01*
X90608754Y-117304210D01*
X90497260Y-117192716D01*
X90497256Y-117192713D01*
X90366153Y-117105112D01*
X90366140Y-117105105D01*
X90220469Y-117044767D01*
X90220457Y-117044764D01*
X90065813Y-117014003D01*
X90065810Y-117014003D01*
X89908126Y-117014003D01*
X89908123Y-117014003D01*
X89753478Y-117044764D01*
X89753466Y-117044767D01*
X89607795Y-117105105D01*
X89607782Y-117105112D01*
X89476679Y-117192713D01*
X89476675Y-117192716D01*
X89365181Y-117304210D01*
X89365178Y-117304214D01*
X89277577Y-117435317D01*
X89277570Y-117435330D01*
X89217232Y-117581001D01*
X89217229Y-117581011D01*
X89186681Y-117734582D01*
X89154296Y-117796493D01*
X89152745Y-117798071D01*
X88927185Y-118023631D01*
X88927174Y-118023643D01*
X88818477Y-118132341D01*
X88783062Y-118193682D01*
X88777740Y-118202899D01*
X88777739Y-118202901D01*
X88755455Y-118241498D01*
X88739420Y-118269272D01*
X88698496Y-118422000D01*
X88698496Y-118422002D01*
X88698496Y-118483807D01*
X88678811Y-118550846D01*
X88662177Y-118571488D01*
X83871484Y-123362181D01*
X83810161Y-123395666D01*
X83783803Y-123398500D01*
X63352463Y-123398500D01*
X63285424Y-123378815D01*
X63249361Y-123343391D01*
X63196789Y-123264711D01*
X63196787Y-123264708D01*
X63085292Y-123153213D01*
X63085288Y-123153210D01*
X62954185Y-123065609D01*
X62954172Y-123065602D01*
X62808501Y-123005264D01*
X62808489Y-123005261D01*
X62653845Y-122974500D01*
X62653842Y-122974500D01*
X62496158Y-122974500D01*
X62496155Y-122974500D01*
X62341510Y-123005261D01*
X62341498Y-123005264D01*
X62195827Y-123065602D01*
X62195814Y-123065609D01*
X62143391Y-123100638D01*
X62076713Y-123121516D01*
X62009333Y-123103031D01*
X61962643Y-123051053D01*
X61950500Y-122997536D01*
X61950500Y-120539060D01*
X61950501Y-120539047D01*
X61950501Y-120370944D01*
X61909576Y-120218214D01*
X61909573Y-120218209D01*
X61830524Y-120081290D01*
X61830518Y-120081282D01*
X61111819Y-119362583D01*
X61078334Y-119301260D01*
X61075500Y-119274902D01*
X61075500Y-119121155D01*
X61075499Y-119121153D01*
X61044737Y-118966503D01*
X61017398Y-118900500D01*
X60984397Y-118820827D01*
X60984390Y-118820814D01*
X60896789Y-118689711D01*
X60896786Y-118689707D01*
X60785292Y-118578213D01*
X60785288Y-118578210D01*
X60654185Y-118490609D01*
X60654172Y-118490602D01*
X60508501Y-118430264D01*
X60508489Y-118430261D01*
X60353845Y-118399500D01*
X60353842Y-118399500D01*
X60249500Y-118399500D01*
X60182461Y-118379815D01*
X60136706Y-118327011D01*
X60125500Y-118275500D01*
X60125500Y-117319808D01*
X60145185Y-117252769D01*
X60197989Y-117207014D01*
X60267147Y-117197070D01*
X60330703Y-117226095D01*
X60337181Y-117232127D01*
X61010325Y-117905272D01*
X61010328Y-117905275D01*
X61091325Y-117959395D01*
X61091324Y-117959395D01*
X61116871Y-117976464D01*
X61116872Y-117976464D01*
X61116873Y-117976465D01*
X61235256Y-118025501D01*
X61235260Y-118025501D01*
X61235261Y-118025502D01*
X61360928Y-118050500D01*
X61360931Y-118050500D01*
X82587729Y-118050500D01*
X82654768Y-118070185D01*
X82668037Y-118080020D01*
X83489384Y-118778166D01*
X83489396Y-118778176D01*
X83503840Y-118789650D01*
X83515674Y-118799050D01*
X83515677Y-118799052D01*
X83533569Y-118808717D01*
X83533570Y-118808718D01*
X83541620Y-118813066D01*
X83582669Y-118843796D01*
X83633826Y-118862876D01*
X83642267Y-118867436D01*
X83649838Y-118870221D01*
X83657998Y-118872441D01*
X83668757Y-118875904D01*
X83717517Y-118894091D01*
X83777127Y-118900500D01*
X85872872Y-118900499D01*
X85932483Y-118894091D01*
X86067331Y-118843796D01*
X86182546Y-118757546D01*
X86268796Y-118642331D01*
X86319091Y-118507483D01*
X86325500Y-118447873D01*
X86325499Y-116352128D01*
X86319091Y-116292517D01*
X86311464Y-116272069D01*
X86268797Y-116157671D01*
X86268793Y-116157664D01*
X86182547Y-116042455D01*
X86182544Y-116042452D01*
X86067335Y-115956206D01*
X86067328Y-115956202D01*
X85932482Y-115905908D01*
X85932483Y-115905908D01*
X85872883Y-115899501D01*
X85872881Y-115899500D01*
X85872873Y-115899500D01*
X85872865Y-115899500D01*
X83817138Y-115899500D01*
X83812086Y-115898909D01*
X83808615Y-115899500D01*
X83777141Y-115899500D01*
X83777128Y-115899501D01*
X83717517Y-115905908D01*
X83680413Y-115919746D01*
X83680412Y-115919745D01*
X83672385Y-115922739D01*
X83670255Y-115923103D01*
X83661734Y-115925849D01*
X83611173Y-115945188D01*
X83609675Y-115946129D01*
X83601959Y-115949008D01*
X83601953Y-115949011D01*
X83582669Y-115956203D01*
X83582668Y-115956204D01*
X83528663Y-115996632D01*
X83520404Y-116002308D01*
X83489411Y-116021814D01*
X83489407Y-116021816D01*
X83489399Y-116021822D01*
X82668034Y-116719981D01*
X82604208Y-116748400D01*
X82587728Y-116749500D01*
X61745808Y-116749500D01*
X61678769Y-116729815D01*
X61658127Y-116713181D01*
X61217015Y-116272069D01*
X61183530Y-116210746D01*
X61183093Y-116208652D01*
X61169737Y-116141503D01*
X61145599Y-116083230D01*
X61109397Y-115995827D01*
X61109390Y-115995814D01*
X61021789Y-115864711D01*
X61021786Y-115864707D01*
X60910292Y-115753213D01*
X60910288Y-115753210D01*
X60779185Y-115665609D01*
X60779172Y-115665602D01*
X60633501Y-115605264D01*
X60633489Y-115605261D01*
X60478845Y-115574500D01*
X60478842Y-115574500D01*
X60321158Y-115574500D01*
X60321153Y-115574500D01*
X60273691Y-115583941D01*
X60204099Y-115577714D01*
X60148922Y-115534851D01*
X60125678Y-115468961D01*
X60125500Y-115462324D01*
X60125500Y-113233653D01*
X66612000Y-113233653D01*
X66612000Y-113391346D01*
X66642761Y-113545989D01*
X66642764Y-113546001D01*
X66703102Y-113691672D01*
X66703109Y-113691685D01*
X66790710Y-113822788D01*
X66790713Y-113822792D01*
X66902207Y-113934286D01*
X66902211Y-113934289D01*
X67033314Y-114021890D01*
X67033327Y-114021897D01*
X67178998Y-114082235D01*
X67179003Y-114082237D01*
X67333653Y-114112999D01*
X67333656Y-114113000D01*
X67333658Y-114113000D01*
X67491344Y-114113000D01*
X67491345Y-114112999D01*
X67645997Y-114082237D01*
X67791679Y-114021894D01*
X67853598Y-113980521D01*
X67923375Y-113933898D01*
X67990053Y-113913020D01*
X67992266Y-113913000D01*
X68408439Y-113913000D01*
X68408443Y-113913001D01*
X68566557Y-113913001D01*
X68609894Y-113901388D01*
X68622769Y-113900685D01*
X68624693Y-113901137D01*
X68629536Y-113900500D01*
X82477883Y-113900500D01*
X82544922Y-113920185D01*
X82560835Y-113932332D01*
X83378589Y-114668312D01*
X83396244Y-114682957D01*
X83409944Y-114694322D01*
X83436089Y-114708926D01*
X83482669Y-114743796D01*
X83530354Y-114761581D01*
X83535556Y-114764487D01*
X83543377Y-114767490D01*
X83549620Y-114769236D01*
X83559546Y-114772469D01*
X83564989Y-114774499D01*
X83617517Y-114794091D01*
X83677127Y-114800500D01*
X85772872Y-114800499D01*
X85832483Y-114794091D01*
X85967331Y-114743796D01*
X86082546Y-114657546D01*
X86168796Y-114542331D01*
X86219091Y-114407483D01*
X86225500Y-114347873D01*
X86225499Y-112252128D01*
X86219091Y-112192517D01*
X86180528Y-112089125D01*
X86168797Y-112057671D01*
X86168793Y-112057664D01*
X86082547Y-111942455D01*
X86082544Y-111942452D01*
X85967335Y-111856206D01*
X85967328Y-111856202D01*
X85832482Y-111805908D01*
X85832483Y-111805908D01*
X85772883Y-111799501D01*
X85772881Y-111799500D01*
X85772873Y-111799500D01*
X85772864Y-111799500D01*
X83677129Y-111799500D01*
X83677123Y-111799501D01*
X83617518Y-111805908D01*
X83569423Y-111823846D01*
X83569422Y-111823845D01*
X83560925Y-111827014D01*
X83556594Y-111827880D01*
X83548154Y-111830866D01*
X83526586Y-111839822D01*
X83524454Y-111840618D01*
X83524438Y-111840624D01*
X83482669Y-111856204D01*
X83482668Y-111856204D01*
X83482667Y-111856205D01*
X83482664Y-111856206D01*
X83411949Y-111909143D01*
X83406632Y-111912910D01*
X83378591Y-111931686D01*
X82560834Y-112667668D01*
X82497835Y-112697884D01*
X82477882Y-112699500D01*
X68579062Y-112699500D01*
X68579058Y-112699499D01*
X68420943Y-112699499D01*
X68377606Y-112711111D01*
X68364731Y-112711815D01*
X68362806Y-112711362D01*
X68357964Y-112712000D01*
X67992266Y-112712000D01*
X67925227Y-112692315D01*
X67923375Y-112691102D01*
X67791685Y-112603109D01*
X67791672Y-112603102D01*
X67646001Y-112542764D01*
X67645989Y-112542761D01*
X67491345Y-112512000D01*
X67491342Y-112512000D01*
X67333658Y-112512000D01*
X67333655Y-112512000D01*
X67179010Y-112542761D01*
X67178998Y-112542764D01*
X67033327Y-112603102D01*
X67033314Y-112603109D01*
X66902211Y-112690710D01*
X66902207Y-112690713D01*
X66790713Y-112802207D01*
X66790710Y-112802211D01*
X66703109Y-112933314D01*
X66703102Y-112933327D01*
X66642764Y-113078998D01*
X66642761Y-113079010D01*
X66612000Y-113233653D01*
X60125500Y-113233653D01*
X60125500Y-112954765D01*
X60145185Y-112887726D01*
X60146398Y-112885874D01*
X60234390Y-112754185D01*
X60234390Y-112754184D01*
X60234394Y-112754179D01*
X60294737Y-112608497D01*
X60325500Y-112453842D01*
X60325500Y-112296158D01*
X60325500Y-112296155D01*
X60325499Y-112296153D01*
X60316741Y-112252123D01*
X60294737Y-112141503D01*
X60273284Y-112089711D01*
X60234397Y-111995827D01*
X60234390Y-111995814D01*
X60146789Y-111864711D01*
X60146786Y-111864707D01*
X60035292Y-111753213D01*
X60035288Y-111753210D01*
X59904185Y-111665609D01*
X59904172Y-111665602D01*
X59758501Y-111605264D01*
X59758491Y-111605261D01*
X59625308Y-111578769D01*
X59563397Y-111546384D01*
X59528823Y-111485668D01*
X59525500Y-111457152D01*
X59525500Y-110972757D01*
X59545185Y-110905718D01*
X59597989Y-110859963D01*
X59667147Y-110850019D01*
X59673692Y-110851140D01*
X59796155Y-110875500D01*
X59796158Y-110875500D01*
X59953844Y-110875500D01*
X59953845Y-110875499D01*
X60108497Y-110844737D01*
X60254179Y-110784394D01*
X60385289Y-110696789D01*
X60496789Y-110585289D01*
X60505680Y-110571980D01*
X60521090Y-110553202D01*
X60630577Y-110443716D01*
X60630578Y-110443713D01*
X61050489Y-110023801D01*
X61111811Y-109990318D01*
X61181503Y-109995302D01*
X61207060Y-110008382D01*
X61320814Y-110084390D01*
X61320827Y-110084397D01*
X61412571Y-110122398D01*
X61466503Y-110144737D01*
X61621153Y-110175499D01*
X61621156Y-110175500D01*
X61621158Y-110175500D01*
X61778844Y-110175500D01*
X61778845Y-110175499D01*
X61933497Y-110144737D01*
X62064182Y-110090606D01*
X62079172Y-110084397D01*
X62079172Y-110084396D01*
X62079179Y-110084394D01*
X62210289Y-109996789D01*
X62321789Y-109885289D01*
X62409394Y-109754179D01*
X62417547Y-109734497D01*
X62459380Y-109633501D01*
X62469737Y-109608497D01*
X62493441Y-109489330D01*
X62500638Y-109453150D01*
X62533023Y-109391239D01*
X62534516Y-109389718D01*
X63587417Y-108336819D01*
X63648740Y-108303334D01*
X63675098Y-108300500D01*
X72320234Y-108300500D01*
X72387273Y-108320185D01*
X72389125Y-108321398D01*
X72520814Y-108409390D01*
X72520827Y-108409397D01*
X72622513Y-108451516D01*
X72666503Y-108469737D01*
X72821153Y-108500499D01*
X72821156Y-108500500D01*
X72821158Y-108500500D01*
X72978844Y-108500500D01*
X72978845Y-108500499D01*
X73133497Y-108469737D01*
X73279179Y-108409394D01*
X73410289Y-108321789D01*
X73521789Y-108210289D01*
X73609394Y-108079179D01*
X73615116Y-108065366D01*
X73669735Y-107933501D01*
X73669737Y-107933497D01*
X73673342Y-107915369D01*
X73705724Y-107853458D01*
X73766439Y-107818882D01*
X73836208Y-107822619D01*
X73882641Y-107851876D01*
X75896139Y-109865374D01*
X75896149Y-109865385D01*
X75900479Y-109869715D01*
X75900480Y-109869716D01*
X76012284Y-109981520D01*
X76088462Y-110025501D01*
X76149215Y-110060577D01*
X76301943Y-110101501D01*
X76301946Y-110101501D01*
X76467653Y-110101501D01*
X76467669Y-110101500D01*
X78445234Y-110101500D01*
X78512273Y-110121185D01*
X78514125Y-110122398D01*
X78645814Y-110210390D01*
X78645827Y-110210397D01*
X78791498Y-110270735D01*
X78791503Y-110270737D01*
X78946153Y-110301499D01*
X78946156Y-110301500D01*
X78946158Y-110301500D01*
X79103844Y-110301500D01*
X79103845Y-110301499D01*
X79258497Y-110270737D01*
X79404179Y-110210394D01*
X79535289Y-110122789D01*
X79646789Y-110011289D01*
X79734394Y-109880179D01*
X79794737Y-109734497D01*
X79825500Y-109579842D01*
X79825500Y-109422158D01*
X79825500Y-109422155D01*
X79825499Y-109422153D01*
X79821192Y-109400500D01*
X79794737Y-109267503D01*
X79752900Y-109166498D01*
X79734397Y-109121827D01*
X79734390Y-109121814D01*
X79646789Y-108990711D01*
X79646786Y-108990707D01*
X79535292Y-108879213D01*
X79535288Y-108879210D01*
X79404185Y-108791609D01*
X79404172Y-108791602D01*
X79258501Y-108731264D01*
X79258489Y-108731261D01*
X79103845Y-108700500D01*
X79103842Y-108700500D01*
X78946158Y-108700500D01*
X78946155Y-108700500D01*
X78791510Y-108731261D01*
X78791498Y-108731264D01*
X78645827Y-108791602D01*
X78645814Y-108791609D01*
X78514125Y-108879602D01*
X78447447Y-108900480D01*
X78445234Y-108900500D01*
X76681097Y-108900500D01*
X76614058Y-108880815D01*
X76593416Y-108864181D01*
X73280838Y-105551603D01*
X73247353Y-105490280D01*
X73252337Y-105420588D01*
X73280838Y-105376241D01*
X73371786Y-105285292D01*
X73371789Y-105285289D01*
X73459394Y-105154179D01*
X73519737Y-105008497D01*
X73550500Y-104853842D01*
X73550638Y-104853150D01*
X73583023Y-104791239D01*
X73584518Y-104789716D01*
X76228081Y-102146153D01*
X89199500Y-102146153D01*
X89199500Y-102303846D01*
X89230261Y-102458489D01*
X89230263Y-102458497D01*
X89290602Y-102604172D01*
X89290609Y-102604185D01*
X89378210Y-102735288D01*
X89378213Y-102735292D01*
X89489707Y-102846786D01*
X89489711Y-102846789D01*
X89620814Y-102934390D01*
X89620827Y-102934397D01*
X89766498Y-102994735D01*
X89766503Y-102994737D01*
X89921153Y-103025499D01*
X89921156Y-103025500D01*
X89921158Y-103025500D01*
X90078844Y-103025500D01*
X90078845Y-103025499D01*
X90233497Y-102994737D01*
X90379179Y-102934394D01*
X90510289Y-102846789D01*
X90621789Y-102735289D01*
X90709394Y-102604179D01*
X90769737Y-102458497D01*
X90789113Y-102361085D01*
X90800638Y-102303150D01*
X90833023Y-102241239D01*
X90834519Y-102239715D01*
X92283506Y-100790727D01*
X92283511Y-100790724D01*
X92293714Y-100780520D01*
X92293716Y-100780520D01*
X92405520Y-100668716D01*
X92459916Y-100574499D01*
X92484577Y-100531785D01*
X92525500Y-100379057D01*
X92525500Y-100220943D01*
X92525500Y-91020943D01*
X92520023Y-91000500D01*
X92484577Y-90868215D01*
X92431605Y-90776465D01*
X92405520Y-90731284D01*
X92293716Y-90619480D01*
X92293713Y-90619478D01*
X91859574Y-90185339D01*
X91826089Y-90124016D01*
X91825638Y-90121849D01*
X91806180Y-90024031D01*
X91794737Y-89966503D01*
X91786250Y-89946013D01*
X91734397Y-89820827D01*
X91734390Y-89820814D01*
X91646789Y-89689711D01*
X91646786Y-89689707D01*
X91535292Y-89578213D01*
X91535288Y-89578210D01*
X91404185Y-89490609D01*
X91404172Y-89490602D01*
X91258501Y-89430264D01*
X91258489Y-89430261D01*
X91103845Y-89399500D01*
X91103842Y-89399500D01*
X90946158Y-89399500D01*
X90946155Y-89399500D01*
X90791510Y-89430261D01*
X90791498Y-89430264D01*
X90645827Y-89490602D01*
X90645814Y-89490609D01*
X90514711Y-89578210D01*
X90514707Y-89578213D01*
X90403213Y-89689707D01*
X90403210Y-89689711D01*
X90315609Y-89820814D01*
X90315602Y-89820827D01*
X90255264Y-89966498D01*
X90255261Y-89966510D01*
X90224500Y-90121153D01*
X90224500Y-90278846D01*
X90255261Y-90433489D01*
X90255264Y-90433501D01*
X90315602Y-90579172D01*
X90315609Y-90579185D01*
X90403210Y-90710288D01*
X90403213Y-90710292D01*
X90514707Y-90821786D01*
X90514711Y-90821789D01*
X90645814Y-90909390D01*
X90645827Y-90909397D01*
X90791498Y-90969735D01*
X90791503Y-90969737D01*
X90856147Y-90982595D01*
X90946849Y-91000638D01*
X91008760Y-91033023D01*
X91010339Y-91034574D01*
X91288181Y-91312416D01*
X91321666Y-91373739D01*
X91324500Y-91400097D01*
X91324500Y-99999903D01*
X91304815Y-100066942D01*
X91288181Y-100087584D01*
X89985339Y-101390425D01*
X89924016Y-101423910D01*
X89921850Y-101424361D01*
X89766508Y-101455261D01*
X89766498Y-101455264D01*
X89620827Y-101515602D01*
X89620814Y-101515609D01*
X89489711Y-101603210D01*
X89489707Y-101603213D01*
X89378213Y-101714707D01*
X89378210Y-101714711D01*
X89290609Y-101845814D01*
X89290602Y-101845827D01*
X89230264Y-101991498D01*
X89230261Y-101991510D01*
X89199500Y-102146153D01*
X76228081Y-102146153D01*
X82568713Y-95805521D01*
X82568716Y-95805520D01*
X82680520Y-95693716D01*
X82730639Y-95606904D01*
X82759577Y-95556785D01*
X82800500Y-95404057D01*
X82800500Y-95245943D01*
X82800500Y-89954765D01*
X82820185Y-89887726D01*
X82821398Y-89885874D01*
X82878558Y-89800329D01*
X82909394Y-89754179D01*
X82969737Y-89608497D01*
X83000500Y-89453842D01*
X83000500Y-89296158D01*
X83000500Y-89296155D01*
X83000499Y-89296153D01*
X82980197Y-89194091D01*
X82969737Y-89141503D01*
X82952436Y-89099734D01*
X82909397Y-88995827D01*
X82909390Y-88995814D01*
X82821789Y-88864711D01*
X82821786Y-88864707D01*
X82710292Y-88753213D01*
X82710288Y-88753210D01*
X82579185Y-88665609D01*
X82579172Y-88665602D01*
X82433501Y-88605264D01*
X82433489Y-88605261D01*
X82278845Y-88574500D01*
X82278842Y-88574500D01*
X82121158Y-88574500D01*
X82121155Y-88574500D01*
X81966510Y-88605261D01*
X81966498Y-88605264D01*
X81820827Y-88665602D01*
X81820814Y-88665609D01*
X81689711Y-88753210D01*
X81689707Y-88753213D01*
X81578213Y-88864707D01*
X81578210Y-88864711D01*
X81490609Y-88995814D01*
X81490602Y-88995827D01*
X81430264Y-89141498D01*
X81430261Y-89141510D01*
X81399500Y-89296153D01*
X81399500Y-89453846D01*
X81430261Y-89608489D01*
X81430264Y-89608501D01*
X81490602Y-89754172D01*
X81490609Y-89754185D01*
X81578602Y-89885874D01*
X81599480Y-89952551D01*
X81599500Y-89954765D01*
X81599500Y-95024903D01*
X81579815Y-95091942D01*
X81563181Y-95112584D01*
X72735339Y-103940425D01*
X72674016Y-103973910D01*
X72671850Y-103974361D01*
X72516508Y-104005261D01*
X72516498Y-104005264D01*
X72370827Y-104065602D01*
X72370814Y-104065609D01*
X72239711Y-104153210D01*
X72239707Y-104153213D01*
X72148759Y-104244162D01*
X72087436Y-104277647D01*
X72017744Y-104272663D01*
X71973397Y-104244162D01*
X67939574Y-100210339D01*
X67906089Y-100149016D01*
X67905638Y-100146849D01*
X67886624Y-100051265D01*
X67874737Y-99991503D01*
X67859119Y-99953797D01*
X67814397Y-99845827D01*
X67814390Y-99845814D01*
X67726789Y-99714711D01*
X67726786Y-99714707D01*
X67674260Y-99662181D01*
X67640775Y-99600858D01*
X67645759Y-99531166D01*
X67687631Y-99475233D01*
X67753095Y-99450816D01*
X67761941Y-99450500D01*
X68420065Y-99450500D01*
X68487104Y-99470185D01*
X68488909Y-99471366D01*
X68545821Y-99509394D01*
X68545823Y-99509395D01*
X68545827Y-99509397D01*
X68691498Y-99569735D01*
X68691503Y-99569737D01*
X68824903Y-99596272D01*
X68846153Y-99600499D01*
X68846156Y-99600500D01*
X68846158Y-99600500D01*
X69003844Y-99600500D01*
X69003845Y-99600499D01*
X69158497Y-99569737D01*
X69304179Y-99509394D01*
X69435289Y-99421789D01*
X69546789Y-99310289D01*
X69634394Y-99179179D01*
X69694737Y-99033497D01*
X69725500Y-98878842D01*
X69725500Y-98721158D01*
X69725500Y-98721155D01*
X69725499Y-98721153D01*
X69716272Y-98674765D01*
X69694737Y-98566503D01*
X69660386Y-98483572D01*
X69634397Y-98420827D01*
X69634390Y-98420814D01*
X69546789Y-98289711D01*
X69546786Y-98289707D01*
X69435292Y-98178213D01*
X69435288Y-98178210D01*
X69304185Y-98090609D01*
X69304176Y-98090604D01*
X69194202Y-98045052D01*
X69139799Y-98001211D01*
X69117734Y-97934917D01*
X69120037Y-97906303D01*
X69125500Y-97878842D01*
X69125500Y-97721158D01*
X69125500Y-97721155D01*
X69125499Y-97721153D01*
X69094738Y-97566510D01*
X69094737Y-97566503D01*
X69081808Y-97535289D01*
X69034397Y-97420827D01*
X69034390Y-97420814D01*
X68946398Y-97289125D01*
X68925520Y-97222447D01*
X68925500Y-97220234D01*
X68925500Y-88179765D01*
X68945185Y-88112726D01*
X68946398Y-88110874D01*
X69034390Y-87979185D01*
X69034390Y-87979184D01*
X69034394Y-87979179D01*
X69094737Y-87833497D01*
X69125500Y-87678842D01*
X69125500Y-87521158D01*
X69125500Y-87521155D01*
X69125499Y-87521153D01*
X69105746Y-87421848D01*
X69094737Y-87366503D01*
X69053314Y-87266498D01*
X69034397Y-87220827D01*
X69034390Y-87220814D01*
X68946789Y-87089711D01*
X68946786Y-87089707D01*
X68835292Y-86978213D01*
X68835288Y-86978210D01*
X68704185Y-86890609D01*
X68704172Y-86890602D01*
X68558501Y-86830264D01*
X68558489Y-86830261D01*
X68403845Y-86799500D01*
X68403842Y-86799500D01*
X68246158Y-86799500D01*
X68246155Y-86799500D01*
X68091510Y-86830261D01*
X68091498Y-86830264D01*
X67945827Y-86890602D01*
X67945814Y-86890609D01*
X67814711Y-86978210D01*
X67814707Y-86978213D01*
X67703213Y-87089707D01*
X67703210Y-87089711D01*
X67615609Y-87220814D01*
X67615602Y-87220827D01*
X67555264Y-87366498D01*
X67555261Y-87366510D01*
X67524500Y-87521153D01*
X67524500Y-87678846D01*
X67555261Y-87833489D01*
X67555264Y-87833501D01*
X67615602Y-87979172D01*
X67615609Y-87979185D01*
X67703602Y-88110874D01*
X67724480Y-88177551D01*
X67724500Y-88179765D01*
X67724500Y-97220234D01*
X67704815Y-97287273D01*
X67703602Y-97289125D01*
X67615609Y-97420814D01*
X67615602Y-97420827D01*
X67555264Y-97566498D01*
X67555261Y-97566510D01*
X67524500Y-97721153D01*
X67524500Y-97721158D01*
X67524500Y-97878842D01*
X67524500Y-97878844D01*
X67524499Y-97878844D01*
X67548860Y-98001308D01*
X67542633Y-98070900D01*
X67499770Y-98126077D01*
X67433880Y-98149322D01*
X67427243Y-98149500D01*
X67009935Y-98149500D01*
X66942896Y-98129815D01*
X66941090Y-98128633D01*
X66884179Y-98090606D01*
X66884172Y-98090602D01*
X66738501Y-98030264D01*
X66738489Y-98030261D01*
X66583845Y-97999500D01*
X66583842Y-97999500D01*
X66426158Y-97999500D01*
X66426155Y-97999500D01*
X66271510Y-98030261D01*
X66271498Y-98030264D01*
X66125827Y-98090602D01*
X66125814Y-98090609D01*
X65994711Y-98178210D01*
X65994707Y-98178213D01*
X65883213Y-98289707D01*
X65883210Y-98289711D01*
X65795609Y-98420814D01*
X65795602Y-98420827D01*
X65735264Y-98566498D01*
X65735261Y-98566510D01*
X65704500Y-98721153D01*
X65704500Y-98878846D01*
X65735261Y-99033489D01*
X65735264Y-99033501D01*
X65795602Y-99179172D01*
X65795609Y-99179185D01*
X65883210Y-99310288D01*
X65883213Y-99310292D01*
X65994707Y-99421786D01*
X65994711Y-99421789D01*
X66125814Y-99509390D01*
X66125827Y-99509397D01*
X66271498Y-99569735D01*
X66271503Y-99569737D01*
X66361864Y-99587711D01*
X66423775Y-99620095D01*
X66458349Y-99680811D01*
X66454610Y-99750580D01*
X66440776Y-99778218D01*
X66395608Y-99845816D01*
X66395602Y-99845827D01*
X66335264Y-99991498D01*
X66335261Y-99991510D01*
X66304500Y-100146153D01*
X66304500Y-100303846D01*
X66335261Y-100458489D01*
X66335264Y-100458501D01*
X66395602Y-100604172D01*
X66395609Y-100604185D01*
X66483210Y-100735288D01*
X66483213Y-100735292D01*
X66594707Y-100846786D01*
X66594711Y-100846789D01*
X66725814Y-100934390D01*
X66725827Y-100934397D01*
X66871498Y-100994735D01*
X66871503Y-100994737D01*
X66936147Y-101007595D01*
X67026849Y-101025638D01*
X67088760Y-101058023D01*
X67090339Y-101059574D01*
X71153865Y-105123100D01*
X71187350Y-105184423D01*
X71182366Y-105254115D01*
X71169287Y-105279671D01*
X71093843Y-105392581D01*
X71093837Y-105392592D01*
X71033499Y-105538263D01*
X71033496Y-105538273D01*
X71002597Y-105693613D01*
X70970212Y-105755524D01*
X70968661Y-105757102D01*
X70512584Y-106213181D01*
X70451261Y-106246666D01*
X70424903Y-106249500D01*
X61559410Y-106249500D01*
X61492371Y-106229815D01*
X61471733Y-106213185D01*
X61398535Y-106139987D01*
X61398534Y-106139986D01*
X61398533Y-106139985D01*
X61267431Y-106052385D01*
X61267418Y-106052378D01*
X61121747Y-105992040D01*
X61121735Y-105992037D01*
X60967091Y-105961276D01*
X60967088Y-105961276D01*
X60809404Y-105961276D01*
X60809401Y-105961276D01*
X60654756Y-105992037D01*
X60654744Y-105992040D01*
X60509073Y-106052378D01*
X60509060Y-106052385D01*
X60377957Y-106139986D01*
X60377953Y-106139989D01*
X60266459Y-106251483D01*
X60266456Y-106251487D01*
X60178855Y-106382590D01*
X60178848Y-106382603D01*
X60118510Y-106528274D01*
X60118507Y-106528286D01*
X60087746Y-106682929D01*
X60087746Y-106840622D01*
X60118507Y-106995265D01*
X60118510Y-106995277D01*
X60178848Y-107140948D01*
X60178855Y-107140961D01*
X60266456Y-107272064D01*
X60266459Y-107272068D01*
X60377953Y-107383562D01*
X60377957Y-107383565D01*
X60509060Y-107471166D01*
X60509073Y-107471173D01*
X60634170Y-107522989D01*
X60654749Y-107531513D01*
X60809399Y-107562275D01*
X60809402Y-107562276D01*
X60809404Y-107562276D01*
X60967090Y-107562276D01*
X60967091Y-107562275D01*
X61121743Y-107531513D01*
X61267425Y-107471170D01*
X61267434Y-107471163D01*
X61272799Y-107468297D01*
X61273398Y-107469419D01*
X61333764Y-107450520D01*
X61335975Y-107450500D01*
X61908803Y-107450500D01*
X61975842Y-107470185D01*
X62021597Y-107522989D01*
X62031541Y-107592147D01*
X62002516Y-107655703D01*
X61996484Y-107662181D01*
X61521485Y-108137180D01*
X61460162Y-108170665D01*
X61433804Y-108173499D01*
X61372000Y-108173499D01*
X61264644Y-108202265D01*
X61219267Y-108214424D01*
X61219266Y-108214425D01*
X61169153Y-108243359D01*
X61169152Y-108243360D01*
X61125746Y-108268420D01*
X61082342Y-108293479D01*
X61082339Y-108293481D01*
X60970535Y-108405286D01*
X60123719Y-109252101D01*
X60062396Y-109285586D01*
X60011848Y-109286038D01*
X59953842Y-109274500D01*
X59796158Y-109274500D01*
X59796153Y-109274500D01*
X59673691Y-109298859D01*
X59604099Y-109292632D01*
X59548922Y-109249768D01*
X59525678Y-109183879D01*
X59525500Y-109177242D01*
X59525500Y-108950945D01*
X59525499Y-108950941D01*
X59506280Y-108879213D01*
X59503738Y-108869724D01*
X59484577Y-108798215D01*
X59452383Y-108742455D01*
X59442017Y-108724500D01*
X59442016Y-108724498D01*
X59415657Y-108678842D01*
X59405520Y-108661284D01*
X59293716Y-108549480D01*
X59293715Y-108549479D01*
X59289385Y-108545149D01*
X59289374Y-108545139D01*
X59257074Y-108512839D01*
X59223589Y-108451516D01*
X59223138Y-108449349D01*
X59192238Y-108294010D01*
X59192237Y-108294003D01*
X59161927Y-108220827D01*
X59131897Y-108148327D01*
X59131890Y-108148314D01*
X59044289Y-108017211D01*
X59044286Y-108017207D01*
X58932792Y-107905713D01*
X58932788Y-107905710D01*
X58801685Y-107818109D01*
X58801672Y-107818102D01*
X58656001Y-107757764D01*
X58655989Y-107757761D01*
X58501345Y-107727000D01*
X58501342Y-107727000D01*
X58424500Y-107727000D01*
X58357461Y-107707315D01*
X58311706Y-107654511D01*
X58300500Y-107603000D01*
X58300500Y-105135928D01*
X58275502Y-105010260D01*
X58275500Y-105010254D01*
X58255189Y-104961221D01*
X58255187Y-104961216D01*
X58226468Y-104891878D01*
X58226462Y-104891868D01*
X58155278Y-104785332D01*
X58155272Y-104785325D01*
X58134692Y-104764745D01*
X58101207Y-104703422D01*
X58106191Y-104633730D01*
X58148063Y-104577797D01*
X58174911Y-104562507D01*
X58304914Y-104508659D01*
X58436024Y-104421054D01*
X58436028Y-104421049D01*
X58440734Y-104417189D01*
X58442496Y-104419336D01*
X58493348Y-104391569D01*
X58519706Y-104388735D01*
X59031999Y-104388735D01*
X59099038Y-104408420D01*
X59100890Y-104409633D01*
X59232579Y-104497625D01*
X59232592Y-104497632D01*
X59371757Y-104555275D01*
X59378268Y-104557972D01*
X59518671Y-104585900D01*
X59532918Y-104588734D01*
X59532921Y-104588735D01*
X59532923Y-104588735D01*
X59690609Y-104588735D01*
X59690610Y-104588734D01*
X59845262Y-104557972D01*
X59976814Y-104503481D01*
X60046282Y-104496013D01*
X60093154Y-104514940D01*
X60109046Y-104525559D01*
X60109052Y-104525561D01*
X60109053Y-104525562D01*
X60242840Y-104580978D01*
X60254728Y-104585902D01*
X60409378Y-104616664D01*
X60409381Y-104616665D01*
X60409383Y-104616665D01*
X60567069Y-104616665D01*
X60567070Y-104616664D01*
X60721722Y-104585902D01*
X60867404Y-104525559D01*
X60998514Y-104437954D01*
X61110014Y-104326454D01*
X61197619Y-104195344D01*
X61257962Y-104049662D01*
X61288725Y-103895007D01*
X61288725Y-103737323D01*
X61288725Y-103737320D01*
X61288724Y-103737318D01*
X61257963Y-103582675D01*
X61257962Y-103582668D01*
X61257960Y-103582663D01*
X61197622Y-103436992D01*
X61197615Y-103436979D01*
X61110014Y-103305876D01*
X61110011Y-103305872D01*
X60998517Y-103194378D01*
X60998513Y-103194375D01*
X60867410Y-103106774D01*
X60867397Y-103106767D01*
X60721726Y-103046429D01*
X60721716Y-103046426D01*
X60566374Y-103015526D01*
X60504463Y-102983141D01*
X60502885Y-102981590D01*
X60171415Y-102650120D01*
X60171413Y-102650117D01*
X60052542Y-102531246D01*
X60052534Y-102531240D01*
X59926538Y-102458497D01*
X59926535Y-102458496D01*
X59915610Y-102452188D01*
X59762882Y-102411264D01*
X59604768Y-102411264D01*
X59597172Y-102411264D01*
X59597156Y-102411265D01*
X57718001Y-102411265D01*
X57650962Y-102391580D01*
X57649110Y-102390367D01*
X57517420Y-102302374D01*
X57517407Y-102302367D01*
X57371736Y-102242029D01*
X57371726Y-102242026D01*
X57237543Y-102215335D01*
X57175632Y-102182950D01*
X57141058Y-102122234D01*
X57137735Y-102093718D01*
X57137735Y-98483572D01*
X57157420Y-98416533D01*
X57174050Y-98395895D01*
X57727931Y-97842013D01*
X57789252Y-97808530D01*
X57791317Y-97808099D01*
X57858497Y-97794737D01*
X58004179Y-97734394D01*
X58135289Y-97646789D01*
X58246789Y-97535289D01*
X58334394Y-97404179D01*
X58394737Y-97258497D01*
X58425500Y-97103842D01*
X58425500Y-96946158D01*
X58425500Y-96946155D01*
X58425499Y-96946153D01*
X58412435Y-96880475D01*
X58394737Y-96791503D01*
X58378430Y-96752135D01*
X59024500Y-96752135D01*
X59024500Y-98847870D01*
X59024501Y-98847876D01*
X59030908Y-98907483D01*
X59081202Y-99042328D01*
X59081206Y-99042335D01*
X59167452Y-99157544D01*
X59167455Y-99157547D01*
X59282664Y-99243793D01*
X59282671Y-99243797D01*
X59417517Y-99294091D01*
X59417516Y-99294091D01*
X59424444Y-99294835D01*
X59477127Y-99300500D01*
X61572872Y-99300499D01*
X61632483Y-99294091D01*
X61767331Y-99243796D01*
X61882546Y-99157546D01*
X61968796Y-99042331D01*
X62019091Y-98907483D01*
X62025500Y-98847873D01*
X62025499Y-96752128D01*
X62019091Y-96692517D01*
X61968796Y-96557669D01*
X61968795Y-96557668D01*
X61968793Y-96557664D01*
X61882547Y-96442455D01*
X61882544Y-96442452D01*
X61767335Y-96356206D01*
X61767328Y-96356202D01*
X61632482Y-96305908D01*
X61632483Y-96305908D01*
X61572883Y-96299501D01*
X61572881Y-96299500D01*
X61572873Y-96299500D01*
X61572864Y-96299500D01*
X59477129Y-96299500D01*
X59477123Y-96299501D01*
X59417516Y-96305908D01*
X59282671Y-96356202D01*
X59282664Y-96356206D01*
X59167455Y-96442452D01*
X59167452Y-96442455D01*
X59081206Y-96557664D01*
X59081202Y-96557671D01*
X59030908Y-96692517D01*
X59027470Y-96724500D01*
X59024501Y-96752123D01*
X59024500Y-96752135D01*
X58378430Y-96752135D01*
X58378428Y-96752129D01*
X58334397Y-96645827D01*
X58334390Y-96645814D01*
X58246789Y-96514711D01*
X58246786Y-96514707D01*
X58135292Y-96403213D01*
X58135288Y-96403210D01*
X58004185Y-96315609D01*
X58004172Y-96315602D01*
X57858501Y-96255264D01*
X57858489Y-96255261D01*
X57703845Y-96224500D01*
X57703842Y-96224500D01*
X57546158Y-96224500D01*
X57546155Y-96224500D01*
X57391510Y-96255261D01*
X57391498Y-96255264D01*
X57245827Y-96315602D01*
X57245814Y-96315609D01*
X57114711Y-96403210D01*
X57114707Y-96403213D01*
X57003213Y-96514707D01*
X57003210Y-96514711D01*
X56915609Y-96645814D01*
X56915602Y-96645827D01*
X56855264Y-96791498D01*
X56855261Y-96791508D01*
X56841920Y-96858579D01*
X56833154Y-96875336D01*
X56829135Y-96893813D01*
X56810390Y-96918854D01*
X56809535Y-96920490D01*
X56807985Y-96922068D01*
X56691695Y-97038357D01*
X56630374Y-97071842D01*
X56560682Y-97066858D01*
X56504748Y-97024987D01*
X56480331Y-96959523D01*
X56480015Y-96950676D01*
X56480015Y-90759280D01*
X56499700Y-90692241D01*
X56500913Y-90690389D01*
X56588905Y-90558700D01*
X56588905Y-90558699D01*
X56588909Y-90558694D01*
X56649252Y-90413012D01*
X56680015Y-90258357D01*
X56680015Y-90117744D01*
X56699700Y-90050705D01*
X56752504Y-90004950D01*
X56821662Y-89995006D01*
X56885218Y-90024031D01*
X56891690Y-90030057D01*
X59465049Y-92603416D01*
X59569584Y-92707951D01*
X59569587Y-92707953D01*
X59569588Y-92707954D01*
X59692503Y-92790083D01*
X59692506Y-92790085D01*
X59742665Y-92810861D01*
X59749080Y-92813518D01*
X59829088Y-92846659D01*
X59945241Y-92869763D01*
X59968380Y-92874365D01*
X59974081Y-92875500D01*
X59974082Y-92875500D01*
X59974083Y-92875500D01*
X60121918Y-92875500D01*
X62045396Y-92875500D01*
X62092844Y-92884937D01*
X62116503Y-92894737D01*
X62116508Y-92894738D01*
X62116511Y-92894739D01*
X62271153Y-92925499D01*
X62271156Y-92925500D01*
X62271158Y-92925500D01*
X62428844Y-92925500D01*
X62428845Y-92925499D01*
X62583497Y-92894737D01*
X62729179Y-92834394D01*
X62860289Y-92746789D01*
X62971789Y-92635289D01*
X63059394Y-92504179D01*
X63119737Y-92358497D01*
X63150500Y-92203842D01*
X63150500Y-92046158D01*
X63150500Y-92046155D01*
X63150499Y-92046153D01*
X63136984Y-91978210D01*
X63119737Y-91891503D01*
X63119367Y-91890609D01*
X63059397Y-91745827D01*
X63059390Y-91745814D01*
X62971789Y-91614711D01*
X62971786Y-91614707D01*
X62860292Y-91503213D01*
X62860288Y-91503210D01*
X62729185Y-91415609D01*
X62729172Y-91415602D01*
X62602047Y-91362946D01*
X62547643Y-91319105D01*
X62525578Y-91252811D01*
X62525499Y-91248385D01*
X62525499Y-91247882D01*
X62525500Y-91247873D01*
X62525499Y-89198999D01*
X62545184Y-89131961D01*
X62597988Y-89086206D01*
X62667146Y-89076262D01*
X62723808Y-89099732D01*
X62782665Y-89143793D01*
X62782668Y-89143795D01*
X62782671Y-89143797D01*
X62917517Y-89194091D01*
X62917516Y-89194091D01*
X62924444Y-89194835D01*
X62977127Y-89200500D01*
X65072872Y-89200499D01*
X65132483Y-89194091D01*
X65267331Y-89143796D01*
X65382546Y-89057546D01*
X65468796Y-88942331D01*
X65519091Y-88807483D01*
X65525500Y-88747873D01*
X65525499Y-86652128D01*
X65519091Y-86592517D01*
X65511074Y-86571023D01*
X65468797Y-86457671D01*
X65468793Y-86457664D01*
X65382547Y-86342455D01*
X65382544Y-86342452D01*
X65267335Y-86256206D01*
X65267328Y-86256202D01*
X65132482Y-86205908D01*
X65132483Y-86205908D01*
X65072883Y-86199501D01*
X65072881Y-86199500D01*
X65072873Y-86199500D01*
X65072864Y-86199500D01*
X62977129Y-86199500D01*
X62977123Y-86199501D01*
X62917516Y-86205908D01*
X62782671Y-86256202D01*
X62782664Y-86256206D01*
X62667455Y-86342452D01*
X62667452Y-86342455D01*
X62581206Y-86457664D01*
X62581202Y-86457671D01*
X62530908Y-86592517D01*
X62524501Y-86652116D01*
X62524501Y-86652123D01*
X62524500Y-86652135D01*
X62524500Y-88700999D01*
X62504815Y-88768038D01*
X62452011Y-88813793D01*
X62382853Y-88823737D01*
X62326189Y-88800265D01*
X62267331Y-88756204D01*
X62267328Y-88756202D01*
X62132482Y-88705908D01*
X62132483Y-88705908D01*
X62072883Y-88699501D01*
X62072881Y-88699500D01*
X62072873Y-88699500D01*
X62072865Y-88699500D01*
X60386555Y-88699500D01*
X60319516Y-88679815D01*
X60273761Y-88627011D01*
X60263817Y-88557853D01*
X60268840Y-88539588D01*
X60267969Y-88539324D01*
X60269731Y-88533509D01*
X60269737Y-88533497D01*
X60300500Y-88378842D01*
X60300638Y-88378150D01*
X60333023Y-88316239D01*
X60334518Y-88314716D01*
X67837416Y-80811819D01*
X67898739Y-80778334D01*
X67925097Y-80775500D01*
X82145234Y-80775500D01*
X82212273Y-80795185D01*
X82214125Y-80796398D01*
X82345814Y-80884390D01*
X82345827Y-80884397D01*
X82491498Y-80944735D01*
X82491503Y-80944737D01*
X82646153Y-80975499D01*
X82646156Y-80975500D01*
X82646158Y-80975500D01*
X82803844Y-80975500D01*
X82803845Y-80975499D01*
X82958497Y-80944737D01*
X83104179Y-80884394D01*
X83235289Y-80796789D01*
X83346789Y-80685289D01*
X83434394Y-80554179D01*
X83494737Y-80408497D01*
X83525500Y-80253842D01*
X83525500Y-80096158D01*
X83525500Y-80096155D01*
X83525499Y-80096153D01*
X83494738Y-79941510D01*
X83494737Y-79941503D01*
X83438728Y-79806284D01*
X83434397Y-79795827D01*
X83434390Y-79795814D01*
X83346789Y-79664711D01*
X83346786Y-79664707D01*
X83235292Y-79553213D01*
X83235288Y-79553210D01*
X83104185Y-79465609D01*
X83104172Y-79465602D01*
X82958501Y-79405264D01*
X82958489Y-79405261D01*
X82803845Y-79374500D01*
X82803842Y-79374500D01*
X82646158Y-79374500D01*
X82646155Y-79374500D01*
X82491510Y-79405261D01*
X82491498Y-79405264D01*
X82345827Y-79465602D01*
X82345814Y-79465609D01*
X82214125Y-79553602D01*
X82147447Y-79574480D01*
X82145234Y-79574500D01*
X67704057Y-79574500D01*
X67545942Y-79574500D01*
X67393215Y-79615423D01*
X67393214Y-79615423D01*
X67393212Y-79615424D01*
X67393209Y-79615425D01*
X67343096Y-79644359D01*
X67343095Y-79644360D01*
X67307853Y-79664707D01*
X67256285Y-79694479D01*
X67256282Y-79694481D01*
X67144478Y-79806286D01*
X60247272Y-86703491D01*
X60185949Y-86736976D01*
X60116257Y-86731992D01*
X60060324Y-86690120D01*
X60037974Y-86640001D01*
X60024253Y-86571025D01*
X60024253Y-86571023D01*
X60024252Y-86571018D01*
X60024250Y-86571013D01*
X59963912Y-86425342D01*
X59963905Y-86425329D01*
X59876304Y-86294226D01*
X59876301Y-86294222D01*
X59764807Y-86182728D01*
X59764803Y-86182725D01*
X59633700Y-86095124D01*
X59633687Y-86095117D01*
X59488016Y-86034779D01*
X59488004Y-86034776D01*
X59333360Y-86004015D01*
X59333357Y-86004015D01*
X59175673Y-86004015D01*
X59175670Y-86004015D01*
X59021025Y-86034776D01*
X59021013Y-86034779D01*
X58875342Y-86095117D01*
X58875329Y-86095124D01*
X58744226Y-86182725D01*
X58744222Y-86182728D01*
X58632728Y-86294222D01*
X58632725Y-86294226D01*
X58545124Y-86425329D01*
X58545117Y-86425342D01*
X58484779Y-86571013D01*
X58484776Y-86571023D01*
X58453877Y-86726362D01*
X58445113Y-86743116D01*
X58441094Y-86761594D01*
X58422349Y-86786633D01*
X58421492Y-86788273D01*
X58419943Y-86789849D01*
X58399224Y-86810568D01*
X58399212Y-86810582D01*
X58294480Y-86915314D01*
X58274743Y-86949500D01*
X58215423Y-87052245D01*
X58174499Y-87204973D01*
X58174499Y-87204975D01*
X58174499Y-87373076D01*
X58174500Y-87373089D01*
X58174500Y-88320234D01*
X58154815Y-88387273D01*
X58153602Y-88389125D01*
X58065609Y-88520814D01*
X58065602Y-88520827D01*
X58005264Y-88666498D01*
X58005261Y-88666508D01*
X57991723Y-88734569D01*
X57959338Y-88796480D01*
X57898622Y-88831054D01*
X57828852Y-88827313D01*
X57782425Y-88798058D01*
X53776421Y-84792052D01*
X53776414Y-84792046D01*
X53702729Y-84742812D01*
X53702729Y-84742813D01*
X53653491Y-84709913D01*
X53516917Y-84653343D01*
X53516907Y-84653340D01*
X53371920Y-84624500D01*
X53371918Y-84624500D01*
X50104604Y-84624500D01*
X50057155Y-84615062D01*
X50033497Y-84605263D01*
X50033493Y-84605262D01*
X50033488Y-84605260D01*
X49878845Y-84574500D01*
X49878842Y-84574500D01*
X49721158Y-84574500D01*
X49721155Y-84574500D01*
X49566510Y-84605261D01*
X49566498Y-84605264D01*
X49420827Y-84665602D01*
X49420814Y-84665609D01*
X49289711Y-84753210D01*
X49289707Y-84753213D01*
X49178213Y-84864707D01*
X49178210Y-84864711D01*
X49090609Y-84995814D01*
X49090602Y-84995827D01*
X49030264Y-85141498D01*
X49030261Y-85141510D01*
X48999500Y-85296153D01*
X48999500Y-85453846D01*
X49030261Y-85608489D01*
X49030264Y-85608501D01*
X49090602Y-85754172D01*
X49090609Y-85754185D01*
X49178210Y-85885288D01*
X49178213Y-85885292D01*
X49289707Y-85996786D01*
X49289711Y-85996789D01*
X49420814Y-86084390D01*
X49420827Y-86084397D01*
X49520060Y-86125500D01*
X49566503Y-86144737D01*
X49721153Y-86175499D01*
X49721156Y-86175500D01*
X49721158Y-86175500D01*
X49878844Y-86175500D01*
X49878845Y-86175499D01*
X49955152Y-86160320D01*
X50033488Y-86144739D01*
X50033489Y-86144738D01*
X50033497Y-86144737D01*
X50057155Y-86134937D01*
X50104604Y-86125500D01*
X52935770Y-86125500D01*
X53002809Y-86145185D01*
X53023451Y-86161819D01*
X56028966Y-89167334D01*
X56062451Y-89228657D01*
X56057467Y-89298349D01*
X56015595Y-89354282D01*
X55950131Y-89378699D01*
X55941285Y-89379015D01*
X55800670Y-89379015D01*
X55646025Y-89409776D01*
X55646013Y-89409779D01*
X55500342Y-89470117D01*
X55500329Y-89470124D01*
X55369226Y-89557725D01*
X55369222Y-89557728D01*
X55257728Y-89669222D01*
X55257725Y-89669226D01*
X55170124Y-89800329D01*
X55170117Y-89800342D01*
X55109779Y-89946013D01*
X55109776Y-89946025D01*
X55079015Y-90100668D01*
X55079015Y-90258361D01*
X55109776Y-90413004D01*
X55109779Y-90413016D01*
X55170117Y-90558687D01*
X55170124Y-90558700D01*
X55258117Y-90690389D01*
X55278995Y-90757066D01*
X55279015Y-90759280D01*
X55279015Y-94526234D01*
X55259330Y-94593273D01*
X55206526Y-94639028D01*
X55155015Y-94650234D01*
X55121678Y-94650234D01*
X55007132Y-94680927D01*
X54968949Y-94691158D01*
X54832019Y-94770216D01*
X54832016Y-94770218D01*
X54544483Y-95057751D01*
X54544481Y-95057754D01*
X54465423Y-95194684D01*
X54465423Y-95194685D01*
X54424499Y-95347413D01*
X54424499Y-95347415D01*
X54424499Y-95505524D01*
X54424498Y-95505524D01*
X54424499Y-95505527D01*
X54465423Y-95658255D01*
X54544481Y-95795186D01*
X54656284Y-95906989D01*
X54793215Y-95986047D01*
X54945943Y-96026971D01*
X54945946Y-96026971D01*
X55104054Y-96026971D01*
X55104057Y-96026971D01*
X55122921Y-96021916D01*
X55192768Y-96023577D01*
X55250632Y-96062738D01*
X55278138Y-96126966D01*
X55279015Y-96141690D01*
X55279015Y-96880475D01*
X55259330Y-96947514D01*
X55206526Y-96993269D01*
X55137368Y-97003213D01*
X55073812Y-96974188D01*
X55067334Y-96968156D01*
X51537533Y-93438355D01*
X51537531Y-93438352D01*
X51418660Y-93319481D01*
X51418659Y-93319480D01*
X51331847Y-93269360D01*
X51331847Y-93269359D01*
X51331843Y-93269358D01*
X51281728Y-93240423D01*
X51129000Y-93199499D01*
X50970886Y-93199499D01*
X50963290Y-93199499D01*
X50963274Y-93199500D01*
X43500097Y-93199500D01*
X43433058Y-93179815D01*
X43412416Y-93163181D01*
X42834574Y-92585339D01*
X42801089Y-92524016D01*
X42800638Y-92521849D01*
X42769738Y-92366510D01*
X42769737Y-92366503D01*
X42769735Y-92366498D01*
X42709397Y-92220827D01*
X42709390Y-92220814D01*
X42621789Y-92089711D01*
X42621786Y-92089707D01*
X42510292Y-91978213D01*
X42510288Y-91978210D01*
X42379185Y-91890609D01*
X42379172Y-91890602D01*
X42233501Y-91830264D01*
X42233489Y-91830261D01*
X42078845Y-91799500D01*
X42078842Y-91799500D01*
X41921158Y-91799500D01*
X41921155Y-91799500D01*
X41766510Y-91830261D01*
X41766498Y-91830264D01*
X41620827Y-91890602D01*
X41620814Y-91890609D01*
X41489711Y-91978210D01*
X41489707Y-91978213D01*
X41378213Y-92089707D01*
X41378210Y-92089711D01*
X41315591Y-92183427D01*
X41261978Y-92228232D01*
X41192653Y-92236939D01*
X41129626Y-92206784D01*
X41092907Y-92147341D01*
X41088489Y-92114536D01*
X41088489Y-91912108D01*
X41108174Y-91845069D01*
X41124808Y-91824427D01*
X42848567Y-90100668D01*
X44614664Y-88334571D01*
X44675985Y-88301088D01*
X44678152Y-88300637D01*
X44678841Y-88300500D01*
X44678842Y-88300500D01*
X44833497Y-88269737D01*
X44979179Y-88209394D01*
X45110289Y-88121789D01*
X45221789Y-88010289D01*
X45309394Y-87879179D01*
X45369737Y-87733497D01*
X45400500Y-87578842D01*
X45400500Y-87421158D01*
X45400500Y-87421155D01*
X45400499Y-87421153D01*
X45369738Y-87266510D01*
X45369738Y-87266508D01*
X45369737Y-87266503D01*
X45350812Y-87220814D01*
X45309397Y-87120827D01*
X45309390Y-87120814D01*
X45221789Y-86989711D01*
X45221786Y-86989707D01*
X45110292Y-86878213D01*
X45110288Y-86878210D01*
X44979185Y-86790609D01*
X44979172Y-86790602D01*
X44833501Y-86730264D01*
X44833489Y-86730261D01*
X44678845Y-86699500D01*
X44678842Y-86699500D01*
X44521158Y-86699500D01*
X44521155Y-86699500D01*
X44366510Y-86730261D01*
X44366498Y-86730264D01*
X44220827Y-86790602D01*
X44220814Y-86790609D01*
X44089711Y-86878210D01*
X44089707Y-86878213D01*
X43978213Y-86989707D01*
X43978210Y-86989711D01*
X43890609Y-87120814D01*
X43890602Y-87120827D01*
X43830264Y-87266498D01*
X43830261Y-87266508D01*
X43799362Y-87421848D01*
X43766977Y-87483759D01*
X43765426Y-87485337D01*
X40119275Y-91131489D01*
X40007470Y-91243293D01*
X40007466Y-91243298D01*
X39960586Y-91324499D01*
X39928412Y-91380225D01*
X39928412Y-91380226D01*
X39887488Y-91532954D01*
X39887488Y-91532956D01*
X39887488Y-91701057D01*
X39887489Y-91701070D01*
X39887489Y-115103588D01*
X39881716Y-115123247D01*
X39880816Y-115143716D01*
X39872072Y-115156089D01*
X39867804Y-115170627D01*
X39852320Y-115184043D01*
X39840496Y-115200778D01*
X39826449Y-115206461D01*
X39815000Y-115216382D01*
X39794722Y-115219297D01*
X39775727Y-115226983D01*
X39760838Y-115224169D01*
X39745842Y-115226326D01*
X39727203Y-115217813D01*
X39707072Y-115214010D01*
X39696069Y-115203595D01*
X39682286Y-115197301D01*
X39671208Y-115180064D01*
X39656329Y-115165980D01*
X39647980Y-115143919D01*
X39644512Y-115138523D01*
X39643092Y-115133262D01*
X39642418Y-115130527D01*
X39619737Y-115016503D01*
X39606347Y-114984178D01*
X39604103Y-114975070D01*
X39604519Y-114965603D01*
X39600500Y-114945396D01*
X39600500Y-86037229D01*
X39620185Y-85970190D01*
X39636815Y-85949552D01*
X39965297Y-85621069D01*
X40005524Y-85594191D01*
X40029179Y-85584394D01*
X40160289Y-85496789D01*
X40271789Y-85385289D01*
X40359394Y-85254179D01*
X40419737Y-85108497D01*
X40450500Y-84953842D01*
X40450500Y-84796158D01*
X40450500Y-84796155D01*
X40450499Y-84796153D01*
X40433345Y-84709916D01*
X40419737Y-84641503D01*
X40408785Y-84615062D01*
X40359397Y-84495827D01*
X40359390Y-84495814D01*
X40271789Y-84364711D01*
X40271786Y-84364707D01*
X40160292Y-84253213D01*
X40160288Y-84253210D01*
X40029185Y-84165609D01*
X40029172Y-84165602D01*
X39883501Y-84105264D01*
X39883489Y-84105261D01*
X39728845Y-84074500D01*
X39728842Y-84074500D01*
X39571158Y-84074500D01*
X39571155Y-84074500D01*
X39416510Y-84105261D01*
X39416498Y-84105264D01*
X39270827Y-84165602D01*
X39270814Y-84165609D01*
X39139711Y-84253210D01*
X39139707Y-84253213D01*
X39028213Y-84364707D01*
X39028207Y-84364715D01*
X38940607Y-84495818D01*
X38940606Y-84495819D01*
X38930805Y-84519480D01*
X38903927Y-84559703D01*
X38267049Y-85196582D01*
X38267049Y-85196583D01*
X38244390Y-85230495D01*
X38184914Y-85319508D01*
X38128343Y-85456082D01*
X38128340Y-85456092D01*
X38099500Y-85601079D01*
X38099500Y-114945396D01*
X38098049Y-114952687D01*
X38096408Y-114972916D01*
X38094079Y-114983147D01*
X38080263Y-115016503D01*
X38049500Y-115171158D01*
X36500500Y-115171158D01*
X36500500Y-61421153D01*
X43249500Y-61421153D01*
X43249500Y-61578846D01*
X43280261Y-61733489D01*
X43280263Y-61733497D01*
X43290061Y-61757151D01*
X43299500Y-61804604D01*
X43299500Y-73695396D01*
X43290062Y-73742844D01*
X43282064Y-73762155D01*
X43280262Y-73766506D01*
X43280260Y-73766511D01*
X43249500Y-73921153D01*
X43249500Y-74078846D01*
X43280261Y-74233489D01*
X43280264Y-74233501D01*
X43340602Y-74379172D01*
X43340609Y-74379185D01*
X43428210Y-74510288D01*
X43428213Y-74510292D01*
X43539707Y-74621786D01*
X43539711Y-74621789D01*
X43670814Y-74709390D01*
X43670827Y-74709397D01*
X43816498Y-74769735D01*
X43816503Y-74769737D01*
X43971153Y-74800499D01*
X43971156Y-74800500D01*
X43971158Y-74800500D01*
X44128844Y-74800500D01*
X44128845Y-74800499D01*
X44283497Y-74769737D01*
X44429179Y-74709394D01*
X44560289Y-74621789D01*
X44671789Y-74510289D01*
X44759394Y-74379179D01*
X44819737Y-74233497D01*
X44850500Y-74078842D01*
X44850500Y-73921158D01*
X44850500Y-73921155D01*
X44850499Y-73921153D01*
X44819739Y-73766511D01*
X44819738Y-73766508D01*
X44819737Y-73766503D01*
X44809937Y-73742844D01*
X44800500Y-73695396D01*
X44800500Y-61804604D01*
X44809939Y-61757151D01*
X44819737Y-61733497D01*
X44850500Y-61578842D01*
X44850500Y-61421158D01*
X44850500Y-61421155D01*
X44850499Y-61421153D01*
X44832061Y-61328459D01*
X44819737Y-61266503D01*
X44767416Y-61140188D01*
X44759397Y-61120827D01*
X44759390Y-61120814D01*
X44671789Y-60989711D01*
X44671786Y-60989707D01*
X44560292Y-60878213D01*
X44560288Y-60878210D01*
X44429185Y-60790609D01*
X44429172Y-60790602D01*
X44283501Y-60730264D01*
X44283489Y-60730261D01*
X44128845Y-60699500D01*
X44128842Y-60699500D01*
X43971158Y-60699500D01*
X43971155Y-60699500D01*
X43816510Y-60730261D01*
X43816498Y-60730264D01*
X43670827Y-60790602D01*
X43670814Y-60790609D01*
X43539711Y-60878210D01*
X43539707Y-60878213D01*
X43428213Y-60989707D01*
X43428210Y-60989711D01*
X43340609Y-61120814D01*
X43340602Y-61120827D01*
X43280264Y-61266498D01*
X43280261Y-61266510D01*
X43249500Y-61421153D01*
X36500500Y-61421153D01*
X36500500Y-58002706D01*
X36500618Y-57997297D01*
X36506369Y-57865577D01*
X36517386Y-57613226D01*
X36518326Y-57602495D01*
X36568152Y-57224025D01*
X36570025Y-57213405D01*
X36652649Y-56840709D01*
X36655440Y-56830295D01*
X36770230Y-56466227D01*
X36773917Y-56456095D01*
X36920003Y-56103412D01*
X36924561Y-56093638D01*
X37100822Y-55755045D01*
X37106217Y-55745700D01*
X37311325Y-55423744D01*
X37317515Y-55414905D01*
X37549896Y-55112060D01*
X37556834Y-55103791D01*
X37814726Y-54822352D01*
X37822352Y-54814726D01*
X38103791Y-54556834D01*
X38112060Y-54549896D01*
X38414905Y-54317515D01*
X38423744Y-54311325D01*
X38745700Y-54106217D01*
X38755045Y-54100822D01*
X39093638Y-53924561D01*
X39103412Y-53920003D01*
X39456095Y-53773917D01*
X39466227Y-53770230D01*
X39830295Y-53655440D01*
X39840709Y-53652649D01*
X40213405Y-53570025D01*
X40224025Y-53568152D01*
X40602495Y-53518326D01*
X40613226Y-53517386D01*
X40997297Y-53500617D01*
X41002706Y-53500500D01*
X41065892Y-53500500D01*
X78424051Y-53500500D01*
X78428181Y-53501712D01*
G37*
%TD.AperFunction*%
%TD*%
%TA.AperFunction,Conductor*%
%TO.N,/BMS_CLK*%
G36*
X83732849Y-112307841D02*
G01*
X84717714Y-113291723D01*
X84721145Y-113299994D01*
X84717722Y-113308269D01*
X84717714Y-113308277D01*
X83732849Y-114292158D01*
X83724574Y-114295581D01*
X83716753Y-114292578D01*
X83716286Y-114292158D01*
X83420389Y-114025850D01*
X82728873Y-113403485D01*
X82725016Y-113395403D01*
X82725000Y-113394788D01*
X82725000Y-113205211D01*
X82728427Y-113196938D01*
X82728873Y-113196514D01*
X83716755Y-112307420D01*
X83725195Y-112304434D01*
X83732849Y-112307841D01*
G37*
%TD.AperFunction*%
%TD*%
%TA.AperFunction,Conductor*%
%TO.N,/BMS_SDI*%
G36*
X83832629Y-116407621D02*
G01*
X84817714Y-117391723D01*
X84821145Y-117399994D01*
X84817722Y-117408269D01*
X84817714Y-117408277D01*
X83832629Y-118392378D01*
X83824354Y-118395801D01*
X83816783Y-118393016D01*
X83372336Y-118015235D01*
X82829123Y-117553504D01*
X82825038Y-117545535D01*
X82825000Y-117544589D01*
X82825000Y-117255410D01*
X82828427Y-117247137D01*
X82829116Y-117246500D01*
X83816785Y-116406982D01*
X83825306Y-116404236D01*
X83832629Y-116407621D01*
G37*
%TD.AperFunction*%
%TD*%
%TA.AperFunction,Conductor*%
%TO.N,AGND*%
G36*
X54939426Y-74714986D02*
G01*
X54940936Y-74715835D01*
X55177798Y-74872984D01*
X55181079Y-74876265D01*
X55338228Y-75113127D01*
X55339947Y-75121915D01*
X55334947Y-75129344D01*
X55333437Y-75130193D01*
X54837017Y-75362422D01*
X54828071Y-75362823D01*
X54823786Y-75360097D01*
X54693966Y-75230277D01*
X54690539Y-75222004D01*
X54691639Y-75217051D01*
X54923870Y-74720625D01*
X54930480Y-74714585D01*
X54939426Y-74714986D01*
G37*
%TD.AperFunction*%
%TD*%
%TA.AperFunction,Conductor*%
%TO.N,AGND*%
G36*
X54943871Y-74285001D02*
G01*
X55337798Y-74618833D01*
X55341894Y-74626796D01*
X55339983Y-74634227D01*
X55181079Y-74873734D01*
X55177798Y-74877015D01*
X54938291Y-75035919D01*
X54929503Y-75037638D01*
X54922897Y-75033734D01*
X54589065Y-74639807D01*
X54586331Y-74631280D01*
X54589717Y-74623971D01*
X54928035Y-74285653D01*
X54936307Y-74282227D01*
X54943871Y-74285001D01*
G37*
%TD.AperFunction*%
%TD*%
%TA.AperFunction,Conductor*%
%TO.N,Vprot*%
G36*
X50240236Y-64716790D02*
G01*
X51583633Y-64863030D01*
X51591487Y-64867332D01*
X51593998Y-64875927D01*
X51593845Y-64876929D01*
X51451941Y-65595232D01*
X51446976Y-65602684D01*
X51446956Y-65602697D01*
X50835621Y-66010524D01*
X50826837Y-66012264D01*
X50819758Y-66007797D01*
X50229609Y-65218496D01*
X50227279Y-65211490D01*
X50227279Y-64728422D01*
X50230706Y-64720149D01*
X50238979Y-64716722D01*
X50240236Y-64716790D01*
G37*
%TD.AperFunction*%
%TD*%
%TA.AperFunction,Conductor*%
%TO.N,Vprot*%
G36*
X49928122Y-68601141D02*
G01*
X50009599Y-68608446D01*
X50017533Y-68612598D01*
X50020207Y-68621144D01*
X50020034Y-68622359D01*
X49938573Y-69036136D01*
X49933612Y-69043591D01*
X49924833Y-69045356D01*
X49917378Y-69040395D01*
X49915393Y-69033876D01*
X49915393Y-68612795D01*
X49918820Y-68604522D01*
X49927093Y-68601095D01*
X49928122Y-68601141D01*
G37*
%TD.AperFunction*%
%TD*%
%TA.AperFunction,Conductor*%
%TO.N,Vprot*%
G36*
X49776169Y-68368332D02*
G01*
X49780926Y-68375615D01*
X49925539Y-69097702D01*
X49925539Y-69102298D01*
X49780926Y-69824384D01*
X49775941Y-69831823D01*
X49767427Y-69833609D01*
X48449084Y-69601701D01*
X48441530Y-69596893D01*
X48439411Y-69590178D01*
X48439411Y-68609821D01*
X48442838Y-68601548D01*
X48449082Y-68598298D01*
X49767429Y-68366390D01*
X49776169Y-68368332D01*
G37*
%TD.AperFunction*%
%TD*%
%TA.AperFunction,Conductor*%
%TO.N,Vprot*%
G36*
X52419348Y-65792805D02*
G01*
X52426790Y-65797786D01*
X52428537Y-65806533D01*
X51980469Y-68087878D01*
X51975512Y-68095335D01*
X51966733Y-68097104D01*
X51960715Y-68093896D01*
X50917444Y-67050625D01*
X50914695Y-67046276D01*
X50473754Y-65807838D01*
X50474207Y-65798897D01*
X50480852Y-65792894D01*
X50482482Y-65792443D01*
X51448421Y-65599749D01*
X51452994Y-65599749D01*
X52419348Y-65792805D01*
G37*
%TD.AperFunction*%
%TD*%
%TA.AperFunction,Conductor*%
%TO.N,AGND*%
G36*
X54471564Y-73478325D02*
G01*
X54471960Y-73478963D01*
X54865024Y-74161671D01*
X54922616Y-74261701D01*
X54923774Y-74270581D01*
X54920749Y-74275812D01*
X54579876Y-74616685D01*
X54571603Y-74620112D01*
X54565765Y-74618552D01*
X53959453Y-74269472D01*
X53783031Y-74167898D01*
X53777572Y-74160801D01*
X53778730Y-74151921D01*
X53779115Y-74151298D01*
X54047992Y-73747183D01*
X54051247Y-73743928D01*
X54455344Y-73475064D01*
X54464128Y-73473335D01*
X54471564Y-73478325D01*
G37*
%TD.AperFunction*%
%TD*%
M02*
