%TF.GenerationSoftware,KiCad,Pcbnew,9.0.2*%
%TF.CreationDate,2026-03-20T16:38:06-04:00*%
%TF.ProjectId,robot-board,726f626f-742d-4626-9f61-72642e6b6963,rev?*%
%TF.SameCoordinates,Original*%
%TF.FileFunction,Legend,Top*%
%TF.FilePolarity,Positive*%
%FSLAX46Y46*%
G04 Gerber Fmt 4.6, Leading zero omitted, Abs format (unit mm)*
G04 Created by KiCad (PCBNEW 9.0.2) date 2026-03-20 16:38:06*
%MOMM*%
%LPD*%
G01*
G04 APERTURE LIST*
%ADD10C,0.100000*%
%ADD11C,0.250000*%
%ADD12C,0.150000*%
%ADD13C,0.120000*%
%ADD14C,0.152400*%
%ADD15C,0.508000*%
G04 APERTURE END LIST*
D10*
X83937217Y-119648609D02*
X84080074Y-119696228D01*
X84080074Y-119696228D02*
X84127693Y-119743847D01*
X84127693Y-119743847D02*
X84175312Y-119839085D01*
X84175312Y-119839085D02*
X84175312Y-119981942D01*
X84175312Y-119981942D02*
X84127693Y-120077180D01*
X84127693Y-120077180D02*
X84080074Y-120124800D01*
X84080074Y-120124800D02*
X83984836Y-120172419D01*
X83984836Y-120172419D02*
X83603884Y-120172419D01*
X83603884Y-120172419D02*
X83603884Y-119172419D01*
X83603884Y-119172419D02*
X83937217Y-119172419D01*
X83937217Y-119172419D02*
X84032455Y-119220038D01*
X84032455Y-119220038D02*
X84080074Y-119267657D01*
X84080074Y-119267657D02*
X84127693Y-119362895D01*
X84127693Y-119362895D02*
X84127693Y-119458133D01*
X84127693Y-119458133D02*
X84080074Y-119553371D01*
X84080074Y-119553371D02*
X84032455Y-119600990D01*
X84032455Y-119600990D02*
X83937217Y-119648609D01*
X83937217Y-119648609D02*
X83603884Y-119648609D01*
X84603884Y-120172419D02*
X84603884Y-119172419D01*
X84603884Y-119172419D02*
X84937217Y-119886704D01*
X84937217Y-119886704D02*
X85270550Y-119172419D01*
X85270550Y-119172419D02*
X85270550Y-120172419D01*
X85699122Y-120124800D02*
X85841979Y-120172419D01*
X85841979Y-120172419D02*
X86080074Y-120172419D01*
X86080074Y-120172419D02*
X86175312Y-120124800D01*
X86175312Y-120124800D02*
X86222931Y-120077180D01*
X86222931Y-120077180D02*
X86270550Y-119981942D01*
X86270550Y-119981942D02*
X86270550Y-119886704D01*
X86270550Y-119886704D02*
X86222931Y-119791466D01*
X86222931Y-119791466D02*
X86175312Y-119743847D01*
X86175312Y-119743847D02*
X86080074Y-119696228D01*
X86080074Y-119696228D02*
X85889598Y-119648609D01*
X85889598Y-119648609D02*
X85794360Y-119600990D01*
X85794360Y-119600990D02*
X85746741Y-119553371D01*
X85746741Y-119553371D02*
X85699122Y-119458133D01*
X85699122Y-119458133D02*
X85699122Y-119362895D01*
X85699122Y-119362895D02*
X85746741Y-119267657D01*
X85746741Y-119267657D02*
X85794360Y-119220038D01*
X85794360Y-119220038D02*
X85889598Y-119172419D01*
X85889598Y-119172419D02*
X86127693Y-119172419D01*
X86127693Y-119172419D02*
X86270550Y-119220038D01*
X86461027Y-120267657D02*
X87222931Y-120267657D01*
X87413408Y-120124800D02*
X87556265Y-120172419D01*
X87556265Y-120172419D02*
X87794360Y-120172419D01*
X87794360Y-120172419D02*
X87889598Y-120124800D01*
X87889598Y-120124800D02*
X87937217Y-120077180D01*
X87937217Y-120077180D02*
X87984836Y-119981942D01*
X87984836Y-119981942D02*
X87984836Y-119886704D01*
X87984836Y-119886704D02*
X87937217Y-119791466D01*
X87937217Y-119791466D02*
X87889598Y-119743847D01*
X87889598Y-119743847D02*
X87794360Y-119696228D01*
X87794360Y-119696228D02*
X87603884Y-119648609D01*
X87603884Y-119648609D02*
X87508646Y-119600990D01*
X87508646Y-119600990D02*
X87461027Y-119553371D01*
X87461027Y-119553371D02*
X87413408Y-119458133D01*
X87413408Y-119458133D02*
X87413408Y-119362895D01*
X87413408Y-119362895D02*
X87461027Y-119267657D01*
X87461027Y-119267657D02*
X87508646Y-119220038D01*
X87508646Y-119220038D02*
X87603884Y-119172419D01*
X87603884Y-119172419D02*
X87841979Y-119172419D01*
X87841979Y-119172419D02*
X87984836Y-119220038D01*
X88413408Y-120172419D02*
X88413408Y-119172419D01*
X88413408Y-119172419D02*
X88651503Y-119172419D01*
X88651503Y-119172419D02*
X88794360Y-119220038D01*
X88794360Y-119220038D02*
X88889598Y-119315276D01*
X88889598Y-119315276D02*
X88937217Y-119410514D01*
X88937217Y-119410514D02*
X88984836Y-119600990D01*
X88984836Y-119600990D02*
X88984836Y-119743847D01*
X88984836Y-119743847D02*
X88937217Y-119934323D01*
X88937217Y-119934323D02*
X88889598Y-120029561D01*
X88889598Y-120029561D02*
X88794360Y-120124800D01*
X88794360Y-120124800D02*
X88651503Y-120172419D01*
X88651503Y-120172419D02*
X88413408Y-120172419D01*
X89413408Y-120172419D02*
X89413408Y-119172419D01*
X60937217Y-85448609D02*
X61080074Y-85496228D01*
X61080074Y-85496228D02*
X61127693Y-85543847D01*
X61127693Y-85543847D02*
X61175312Y-85639085D01*
X61175312Y-85639085D02*
X61175312Y-85781942D01*
X61175312Y-85781942D02*
X61127693Y-85877180D01*
X61127693Y-85877180D02*
X61080074Y-85924800D01*
X61080074Y-85924800D02*
X60984836Y-85972419D01*
X60984836Y-85972419D02*
X60603884Y-85972419D01*
X60603884Y-85972419D02*
X60603884Y-84972419D01*
X60603884Y-84972419D02*
X60937217Y-84972419D01*
X60937217Y-84972419D02*
X61032455Y-85020038D01*
X61032455Y-85020038D02*
X61080074Y-85067657D01*
X61080074Y-85067657D02*
X61127693Y-85162895D01*
X61127693Y-85162895D02*
X61127693Y-85258133D01*
X61127693Y-85258133D02*
X61080074Y-85353371D01*
X61080074Y-85353371D02*
X61032455Y-85400990D01*
X61032455Y-85400990D02*
X60937217Y-85448609D01*
X60937217Y-85448609D02*
X60603884Y-85448609D01*
X61603884Y-85972419D02*
X61603884Y-84972419D01*
X61603884Y-84972419D02*
X61937217Y-85686704D01*
X61937217Y-85686704D02*
X62270550Y-84972419D01*
X62270550Y-84972419D02*
X62270550Y-85972419D01*
X62699122Y-85924800D02*
X62841979Y-85972419D01*
X62841979Y-85972419D02*
X63080074Y-85972419D01*
X63080074Y-85972419D02*
X63175312Y-85924800D01*
X63175312Y-85924800D02*
X63222931Y-85877180D01*
X63222931Y-85877180D02*
X63270550Y-85781942D01*
X63270550Y-85781942D02*
X63270550Y-85686704D01*
X63270550Y-85686704D02*
X63222931Y-85591466D01*
X63222931Y-85591466D02*
X63175312Y-85543847D01*
X63175312Y-85543847D02*
X63080074Y-85496228D01*
X63080074Y-85496228D02*
X62889598Y-85448609D01*
X62889598Y-85448609D02*
X62794360Y-85400990D01*
X62794360Y-85400990D02*
X62746741Y-85353371D01*
X62746741Y-85353371D02*
X62699122Y-85258133D01*
X62699122Y-85258133D02*
X62699122Y-85162895D01*
X62699122Y-85162895D02*
X62746741Y-85067657D01*
X62746741Y-85067657D02*
X62794360Y-85020038D01*
X62794360Y-85020038D02*
X62889598Y-84972419D01*
X62889598Y-84972419D02*
X63127693Y-84972419D01*
X63127693Y-84972419D02*
X63270550Y-85020038D01*
X63461027Y-86067657D02*
X64222931Y-86067657D01*
X64461027Y-85972419D02*
X64461027Y-84972419D01*
X64461027Y-84972419D02*
X64699122Y-84972419D01*
X64699122Y-84972419D02*
X64841979Y-85020038D01*
X64841979Y-85020038D02*
X64937217Y-85115276D01*
X64937217Y-85115276D02*
X64984836Y-85210514D01*
X64984836Y-85210514D02*
X65032455Y-85400990D01*
X65032455Y-85400990D02*
X65032455Y-85543847D01*
X65032455Y-85543847D02*
X64984836Y-85734323D01*
X64984836Y-85734323D02*
X64937217Y-85829561D01*
X64937217Y-85829561D02*
X64841979Y-85924800D01*
X64841979Y-85924800D02*
X64699122Y-85972419D01*
X64699122Y-85972419D02*
X64461027Y-85972419D01*
X65413408Y-85067657D02*
X65461027Y-85020038D01*
X65461027Y-85020038D02*
X65556265Y-84972419D01*
X65556265Y-84972419D02*
X65794360Y-84972419D01*
X65794360Y-84972419D02*
X65889598Y-85020038D01*
X65889598Y-85020038D02*
X65937217Y-85067657D01*
X65937217Y-85067657D02*
X65984836Y-85162895D01*
X65984836Y-85162895D02*
X65984836Y-85258133D01*
X65984836Y-85258133D02*
X65937217Y-85400990D01*
X65937217Y-85400990D02*
X65365789Y-85972419D01*
X65365789Y-85972419D02*
X65984836Y-85972419D01*
X58037217Y-92248609D02*
X58180074Y-92296228D01*
X58180074Y-92296228D02*
X58227693Y-92343847D01*
X58227693Y-92343847D02*
X58275312Y-92439085D01*
X58275312Y-92439085D02*
X58275312Y-92581942D01*
X58275312Y-92581942D02*
X58227693Y-92677180D01*
X58227693Y-92677180D02*
X58180074Y-92724800D01*
X58180074Y-92724800D02*
X58084836Y-92772419D01*
X58084836Y-92772419D02*
X57703884Y-92772419D01*
X57703884Y-92772419D02*
X57703884Y-91772419D01*
X57703884Y-91772419D02*
X58037217Y-91772419D01*
X58037217Y-91772419D02*
X58132455Y-91820038D01*
X58132455Y-91820038D02*
X58180074Y-91867657D01*
X58180074Y-91867657D02*
X58227693Y-91962895D01*
X58227693Y-91962895D02*
X58227693Y-92058133D01*
X58227693Y-92058133D02*
X58180074Y-92153371D01*
X58180074Y-92153371D02*
X58132455Y-92200990D01*
X58132455Y-92200990D02*
X58037217Y-92248609D01*
X58037217Y-92248609D02*
X57703884Y-92248609D01*
X58703884Y-92772419D02*
X58703884Y-91772419D01*
X58703884Y-91772419D02*
X59037217Y-92486704D01*
X59037217Y-92486704D02*
X59370550Y-91772419D01*
X59370550Y-91772419D02*
X59370550Y-92772419D01*
X59799122Y-92724800D02*
X59941979Y-92772419D01*
X59941979Y-92772419D02*
X60180074Y-92772419D01*
X60180074Y-92772419D02*
X60275312Y-92724800D01*
X60275312Y-92724800D02*
X60322931Y-92677180D01*
X60322931Y-92677180D02*
X60370550Y-92581942D01*
X60370550Y-92581942D02*
X60370550Y-92486704D01*
X60370550Y-92486704D02*
X60322931Y-92391466D01*
X60322931Y-92391466D02*
X60275312Y-92343847D01*
X60275312Y-92343847D02*
X60180074Y-92296228D01*
X60180074Y-92296228D02*
X59989598Y-92248609D01*
X59989598Y-92248609D02*
X59894360Y-92200990D01*
X59894360Y-92200990D02*
X59846741Y-92153371D01*
X59846741Y-92153371D02*
X59799122Y-92058133D01*
X59799122Y-92058133D02*
X59799122Y-91962895D01*
X59799122Y-91962895D02*
X59846741Y-91867657D01*
X59846741Y-91867657D02*
X59894360Y-91820038D01*
X59894360Y-91820038D02*
X59989598Y-91772419D01*
X59989598Y-91772419D02*
X60227693Y-91772419D01*
X60227693Y-91772419D02*
X60370550Y-91820038D01*
X60561027Y-92867657D02*
X61322931Y-92867657D01*
X61561027Y-92772419D02*
X61561027Y-91772419D01*
X61561027Y-91772419D02*
X61799122Y-91772419D01*
X61799122Y-91772419D02*
X61941979Y-91820038D01*
X61941979Y-91820038D02*
X62037217Y-91915276D01*
X62037217Y-91915276D02*
X62084836Y-92010514D01*
X62084836Y-92010514D02*
X62132455Y-92200990D01*
X62132455Y-92200990D02*
X62132455Y-92343847D01*
X62132455Y-92343847D02*
X62084836Y-92534323D01*
X62084836Y-92534323D02*
X62037217Y-92629561D01*
X62037217Y-92629561D02*
X61941979Y-92724800D01*
X61941979Y-92724800D02*
X61799122Y-92772419D01*
X61799122Y-92772419D02*
X61561027Y-92772419D01*
X63084836Y-92772419D02*
X62513408Y-92772419D01*
X62799122Y-92772419D02*
X62799122Y-91772419D01*
X62799122Y-91772419D02*
X62703884Y-91915276D01*
X62703884Y-91915276D02*
X62608646Y-92010514D01*
X62608646Y-92010514D02*
X62513408Y-92058133D01*
X57237217Y-99748609D02*
X57380074Y-99796228D01*
X57380074Y-99796228D02*
X57427693Y-99843847D01*
X57427693Y-99843847D02*
X57475312Y-99939085D01*
X57475312Y-99939085D02*
X57475312Y-100081942D01*
X57475312Y-100081942D02*
X57427693Y-100177180D01*
X57427693Y-100177180D02*
X57380074Y-100224800D01*
X57380074Y-100224800D02*
X57284836Y-100272419D01*
X57284836Y-100272419D02*
X56903884Y-100272419D01*
X56903884Y-100272419D02*
X56903884Y-99272419D01*
X56903884Y-99272419D02*
X57237217Y-99272419D01*
X57237217Y-99272419D02*
X57332455Y-99320038D01*
X57332455Y-99320038D02*
X57380074Y-99367657D01*
X57380074Y-99367657D02*
X57427693Y-99462895D01*
X57427693Y-99462895D02*
X57427693Y-99558133D01*
X57427693Y-99558133D02*
X57380074Y-99653371D01*
X57380074Y-99653371D02*
X57332455Y-99700990D01*
X57332455Y-99700990D02*
X57237217Y-99748609D01*
X57237217Y-99748609D02*
X56903884Y-99748609D01*
X57903884Y-100272419D02*
X57903884Y-99272419D01*
X57903884Y-99272419D02*
X58237217Y-99986704D01*
X58237217Y-99986704D02*
X58570550Y-99272419D01*
X58570550Y-99272419D02*
X58570550Y-100272419D01*
X58999122Y-100224800D02*
X59141979Y-100272419D01*
X59141979Y-100272419D02*
X59380074Y-100272419D01*
X59380074Y-100272419D02*
X59475312Y-100224800D01*
X59475312Y-100224800D02*
X59522931Y-100177180D01*
X59522931Y-100177180D02*
X59570550Y-100081942D01*
X59570550Y-100081942D02*
X59570550Y-99986704D01*
X59570550Y-99986704D02*
X59522931Y-99891466D01*
X59522931Y-99891466D02*
X59475312Y-99843847D01*
X59475312Y-99843847D02*
X59380074Y-99796228D01*
X59380074Y-99796228D02*
X59189598Y-99748609D01*
X59189598Y-99748609D02*
X59094360Y-99700990D01*
X59094360Y-99700990D02*
X59046741Y-99653371D01*
X59046741Y-99653371D02*
X58999122Y-99558133D01*
X58999122Y-99558133D02*
X58999122Y-99462895D01*
X58999122Y-99462895D02*
X59046741Y-99367657D01*
X59046741Y-99367657D02*
X59094360Y-99320038D01*
X59094360Y-99320038D02*
X59189598Y-99272419D01*
X59189598Y-99272419D02*
X59427693Y-99272419D01*
X59427693Y-99272419D02*
X59570550Y-99320038D01*
X59761027Y-100367657D02*
X60522931Y-100367657D01*
X60761027Y-100272419D02*
X60761027Y-99272419D01*
X60761027Y-99272419D02*
X60999122Y-99272419D01*
X60999122Y-99272419D02*
X61141979Y-99320038D01*
X61141979Y-99320038D02*
X61237217Y-99415276D01*
X61237217Y-99415276D02*
X61284836Y-99510514D01*
X61284836Y-99510514D02*
X61332455Y-99700990D01*
X61332455Y-99700990D02*
X61332455Y-99843847D01*
X61332455Y-99843847D02*
X61284836Y-100034323D01*
X61284836Y-100034323D02*
X61237217Y-100129561D01*
X61237217Y-100129561D02*
X61141979Y-100224800D01*
X61141979Y-100224800D02*
X60999122Y-100272419D01*
X60999122Y-100272419D02*
X60761027Y-100272419D01*
X61951503Y-99272419D02*
X62046741Y-99272419D01*
X62046741Y-99272419D02*
X62141979Y-99320038D01*
X62141979Y-99320038D02*
X62189598Y-99367657D01*
X62189598Y-99367657D02*
X62237217Y-99462895D01*
X62237217Y-99462895D02*
X62284836Y-99653371D01*
X62284836Y-99653371D02*
X62284836Y-99891466D01*
X62284836Y-99891466D02*
X62237217Y-100081942D01*
X62237217Y-100081942D02*
X62189598Y-100177180D01*
X62189598Y-100177180D02*
X62141979Y-100224800D01*
X62141979Y-100224800D02*
X62046741Y-100272419D01*
X62046741Y-100272419D02*
X61951503Y-100272419D01*
X61951503Y-100272419D02*
X61856265Y-100224800D01*
X61856265Y-100224800D02*
X61808646Y-100177180D01*
X61808646Y-100177180D02*
X61761027Y-100081942D01*
X61761027Y-100081942D02*
X61713408Y-99891466D01*
X61713408Y-99891466D02*
X61713408Y-99653371D01*
X61713408Y-99653371D02*
X61761027Y-99462895D01*
X61761027Y-99462895D02*
X61808646Y-99367657D01*
X61808646Y-99367657D02*
X61856265Y-99320038D01*
X61856265Y-99320038D02*
X61951503Y-99272419D01*
X83837217Y-110848609D02*
X83980074Y-110896228D01*
X83980074Y-110896228D02*
X84027693Y-110943847D01*
X84027693Y-110943847D02*
X84075312Y-111039085D01*
X84075312Y-111039085D02*
X84075312Y-111181942D01*
X84075312Y-111181942D02*
X84027693Y-111277180D01*
X84027693Y-111277180D02*
X83980074Y-111324800D01*
X83980074Y-111324800D02*
X83884836Y-111372419D01*
X83884836Y-111372419D02*
X83503884Y-111372419D01*
X83503884Y-111372419D02*
X83503884Y-110372419D01*
X83503884Y-110372419D02*
X83837217Y-110372419D01*
X83837217Y-110372419D02*
X83932455Y-110420038D01*
X83932455Y-110420038D02*
X83980074Y-110467657D01*
X83980074Y-110467657D02*
X84027693Y-110562895D01*
X84027693Y-110562895D02*
X84027693Y-110658133D01*
X84027693Y-110658133D02*
X83980074Y-110753371D01*
X83980074Y-110753371D02*
X83932455Y-110800990D01*
X83932455Y-110800990D02*
X83837217Y-110848609D01*
X83837217Y-110848609D02*
X83503884Y-110848609D01*
X84503884Y-111372419D02*
X84503884Y-110372419D01*
X84503884Y-110372419D02*
X84837217Y-111086704D01*
X84837217Y-111086704D02*
X85170550Y-110372419D01*
X85170550Y-110372419D02*
X85170550Y-111372419D01*
X85599122Y-111324800D02*
X85741979Y-111372419D01*
X85741979Y-111372419D02*
X85980074Y-111372419D01*
X85980074Y-111372419D02*
X86075312Y-111324800D01*
X86075312Y-111324800D02*
X86122931Y-111277180D01*
X86122931Y-111277180D02*
X86170550Y-111181942D01*
X86170550Y-111181942D02*
X86170550Y-111086704D01*
X86170550Y-111086704D02*
X86122931Y-110991466D01*
X86122931Y-110991466D02*
X86075312Y-110943847D01*
X86075312Y-110943847D02*
X85980074Y-110896228D01*
X85980074Y-110896228D02*
X85789598Y-110848609D01*
X85789598Y-110848609D02*
X85694360Y-110800990D01*
X85694360Y-110800990D02*
X85646741Y-110753371D01*
X85646741Y-110753371D02*
X85599122Y-110658133D01*
X85599122Y-110658133D02*
X85599122Y-110562895D01*
X85599122Y-110562895D02*
X85646741Y-110467657D01*
X85646741Y-110467657D02*
X85694360Y-110420038D01*
X85694360Y-110420038D02*
X85789598Y-110372419D01*
X85789598Y-110372419D02*
X86027693Y-110372419D01*
X86027693Y-110372419D02*
X86170550Y-110420038D01*
X86361027Y-111467657D02*
X87122931Y-111467657D01*
X87932455Y-111277180D02*
X87884836Y-111324800D01*
X87884836Y-111324800D02*
X87741979Y-111372419D01*
X87741979Y-111372419D02*
X87646741Y-111372419D01*
X87646741Y-111372419D02*
X87503884Y-111324800D01*
X87503884Y-111324800D02*
X87408646Y-111229561D01*
X87408646Y-111229561D02*
X87361027Y-111134323D01*
X87361027Y-111134323D02*
X87313408Y-110943847D01*
X87313408Y-110943847D02*
X87313408Y-110800990D01*
X87313408Y-110800990D02*
X87361027Y-110610514D01*
X87361027Y-110610514D02*
X87408646Y-110515276D01*
X87408646Y-110515276D02*
X87503884Y-110420038D01*
X87503884Y-110420038D02*
X87646741Y-110372419D01*
X87646741Y-110372419D02*
X87741979Y-110372419D01*
X87741979Y-110372419D02*
X87884836Y-110420038D01*
X87884836Y-110420038D02*
X87932455Y-110467657D01*
X88837217Y-111372419D02*
X88361027Y-111372419D01*
X88361027Y-111372419D02*
X88361027Y-110372419D01*
X89170551Y-111372419D02*
X89170551Y-110372419D01*
X89741979Y-111372419D02*
X89313408Y-110800990D01*
X89741979Y-110372419D02*
X89170551Y-110943847D01*
X54822419Y-96721115D02*
X53822419Y-96721115D01*
X53822419Y-96721115D02*
X54822419Y-96149687D01*
X54822419Y-96149687D02*
X53822419Y-96149687D01*
X54727180Y-95102068D02*
X54774800Y-95149687D01*
X54774800Y-95149687D02*
X54822419Y-95292544D01*
X54822419Y-95292544D02*
X54822419Y-95387782D01*
X54822419Y-95387782D02*
X54774800Y-95530639D01*
X54774800Y-95530639D02*
X54679561Y-95625877D01*
X54679561Y-95625877D02*
X54584323Y-95673496D01*
X54584323Y-95673496D02*
X54393847Y-95721115D01*
X54393847Y-95721115D02*
X54250990Y-95721115D01*
X54250990Y-95721115D02*
X54060514Y-95673496D01*
X54060514Y-95673496D02*
X53965276Y-95625877D01*
X53965276Y-95625877D02*
X53870038Y-95530639D01*
X53870038Y-95530639D02*
X53822419Y-95387782D01*
X53822419Y-95387782D02*
X53822419Y-95292544D01*
X53822419Y-95292544D02*
X53870038Y-95149687D01*
X53870038Y-95149687D02*
X53917657Y-95102068D01*
D11*
X94483520Y-78042238D02*
X93816853Y-77089857D01*
X93340663Y-78042238D02*
X93340663Y-76042238D01*
X93340663Y-76042238D02*
X94102568Y-76042238D01*
X94102568Y-76042238D02*
X94293044Y-76137476D01*
X94293044Y-76137476D02*
X94388282Y-76232714D01*
X94388282Y-76232714D02*
X94483520Y-76423190D01*
X94483520Y-76423190D02*
X94483520Y-76708904D01*
X94483520Y-76708904D02*
X94388282Y-76899380D01*
X94388282Y-76899380D02*
X94293044Y-76994619D01*
X94293044Y-76994619D02*
X94102568Y-77089857D01*
X94102568Y-77089857D02*
X93340663Y-77089857D01*
X95340663Y-78042238D02*
X95340663Y-76042238D01*
X97340663Y-76137476D02*
X97150187Y-76042238D01*
X97150187Y-76042238D02*
X96864473Y-76042238D01*
X96864473Y-76042238D02*
X96578758Y-76137476D01*
X96578758Y-76137476D02*
X96388282Y-76327952D01*
X96388282Y-76327952D02*
X96293044Y-76518428D01*
X96293044Y-76518428D02*
X96197806Y-76899380D01*
X96197806Y-76899380D02*
X96197806Y-77185095D01*
X96197806Y-77185095D02*
X96293044Y-77566047D01*
X96293044Y-77566047D02*
X96388282Y-77756523D01*
X96388282Y-77756523D02*
X96578758Y-77947000D01*
X96578758Y-77947000D02*
X96864473Y-78042238D01*
X96864473Y-78042238D02*
X97054949Y-78042238D01*
X97054949Y-78042238D02*
X97340663Y-77947000D01*
X97340663Y-77947000D02*
X97435901Y-77851761D01*
X97435901Y-77851761D02*
X97435901Y-77185095D01*
X97435901Y-77185095D02*
X97054949Y-77185095D01*
X98293044Y-78042238D02*
X98293044Y-76042238D01*
X98293044Y-76994619D02*
X99435901Y-76994619D01*
X99435901Y-78042238D02*
X99435901Y-76042238D01*
X100102568Y-76042238D02*
X101245425Y-76042238D01*
X100673996Y-78042238D02*
X100673996Y-76042238D01*
X92083520Y-72551761D02*
X91988282Y-72647000D01*
X91988282Y-72647000D02*
X91702568Y-72742238D01*
X91702568Y-72742238D02*
X91512092Y-72742238D01*
X91512092Y-72742238D02*
X91226377Y-72647000D01*
X91226377Y-72647000D02*
X91035901Y-72456523D01*
X91035901Y-72456523D02*
X90940663Y-72266047D01*
X90940663Y-72266047D02*
X90845425Y-71885095D01*
X90845425Y-71885095D02*
X90845425Y-71599380D01*
X90845425Y-71599380D02*
X90940663Y-71218428D01*
X90940663Y-71218428D02*
X91035901Y-71027952D01*
X91035901Y-71027952D02*
X91226377Y-70837476D01*
X91226377Y-70837476D02*
X91512092Y-70742238D01*
X91512092Y-70742238D02*
X91702568Y-70742238D01*
X91702568Y-70742238D02*
X91988282Y-70837476D01*
X91988282Y-70837476D02*
X92083520Y-70932714D01*
X92940663Y-71694619D02*
X93607330Y-71694619D01*
X93893044Y-72742238D02*
X92940663Y-72742238D01*
X92940663Y-72742238D02*
X92940663Y-70742238D01*
X92940663Y-70742238D02*
X93893044Y-70742238D01*
X94750187Y-72742238D02*
X94750187Y-70742238D01*
X94750187Y-70742238D02*
X95893044Y-72742238D01*
X95893044Y-72742238D02*
X95893044Y-70742238D01*
X96559711Y-70742238D02*
X97702568Y-70742238D01*
X97131139Y-72742238D02*
X97131139Y-70742238D01*
X98369235Y-71694619D02*
X99035902Y-71694619D01*
X99321616Y-72742238D02*
X98369235Y-72742238D01*
X98369235Y-72742238D02*
X98369235Y-70742238D01*
X98369235Y-70742238D02*
X99321616Y-70742238D01*
X101321616Y-72742238D02*
X100654949Y-71789857D01*
X100178759Y-72742238D02*
X100178759Y-70742238D01*
X100178759Y-70742238D02*
X100940664Y-70742238D01*
X100940664Y-70742238D02*
X101131140Y-70837476D01*
X101131140Y-70837476D02*
X101226378Y-70932714D01*
X101226378Y-70932714D02*
X101321616Y-71123190D01*
X101321616Y-71123190D02*
X101321616Y-71408904D01*
X101321616Y-71408904D02*
X101226378Y-71599380D01*
X101226378Y-71599380D02*
X101131140Y-71694619D01*
X101131140Y-71694619D02*
X100940664Y-71789857D01*
X100940664Y-71789857D02*
X100178759Y-71789857D01*
X96293044Y-67542238D02*
X95340663Y-67542238D01*
X95340663Y-67542238D02*
X95340663Y-65542238D01*
X96959711Y-66494619D02*
X97626378Y-66494619D01*
X97912092Y-67542238D02*
X96959711Y-67542238D01*
X96959711Y-67542238D02*
X96959711Y-65542238D01*
X96959711Y-65542238D02*
X97912092Y-65542238D01*
X99435902Y-66494619D02*
X98769235Y-66494619D01*
X98769235Y-67542238D02*
X98769235Y-65542238D01*
X98769235Y-65542238D02*
X99721616Y-65542238D01*
X100197807Y-65542238D02*
X101340664Y-65542238D01*
X100769235Y-67542238D02*
X100769235Y-65542238D01*
X89193044Y-83742238D02*
X88240663Y-83742238D01*
X88240663Y-83742238D02*
X88240663Y-81742238D01*
X90240663Y-81742238D02*
X90621616Y-81742238D01*
X90621616Y-81742238D02*
X90812092Y-81837476D01*
X90812092Y-81837476D02*
X91002568Y-82027952D01*
X91002568Y-82027952D02*
X91097806Y-82408904D01*
X91097806Y-82408904D02*
X91097806Y-83075571D01*
X91097806Y-83075571D02*
X91002568Y-83456523D01*
X91002568Y-83456523D02*
X90812092Y-83647000D01*
X90812092Y-83647000D02*
X90621616Y-83742238D01*
X90621616Y-83742238D02*
X90240663Y-83742238D01*
X90240663Y-83742238D02*
X90050187Y-83647000D01*
X90050187Y-83647000D02*
X89859711Y-83456523D01*
X89859711Y-83456523D02*
X89764473Y-83075571D01*
X89764473Y-83075571D02*
X89764473Y-82408904D01*
X89764473Y-82408904D02*
X89859711Y-82027952D01*
X89859711Y-82027952D02*
X90050187Y-81837476D01*
X90050187Y-81837476D02*
X90240663Y-81742238D01*
X91764473Y-81742238D02*
X92240663Y-83742238D01*
X92240663Y-83742238D02*
X92621616Y-82313666D01*
X92621616Y-82313666D02*
X93002568Y-83742238D01*
X93002568Y-83742238D02*
X93478759Y-81742238D01*
X96431140Y-82694619D02*
X96716854Y-82789857D01*
X96716854Y-82789857D02*
X96812092Y-82885095D01*
X96812092Y-82885095D02*
X96907330Y-83075571D01*
X96907330Y-83075571D02*
X96907330Y-83361285D01*
X96907330Y-83361285D02*
X96812092Y-83551761D01*
X96812092Y-83551761D02*
X96716854Y-83647000D01*
X96716854Y-83647000D02*
X96526378Y-83742238D01*
X96526378Y-83742238D02*
X95764473Y-83742238D01*
X95764473Y-83742238D02*
X95764473Y-81742238D01*
X95764473Y-81742238D02*
X96431140Y-81742238D01*
X96431140Y-81742238D02*
X96621616Y-81837476D01*
X96621616Y-81837476D02*
X96716854Y-81932714D01*
X96716854Y-81932714D02*
X96812092Y-82123190D01*
X96812092Y-82123190D02*
X96812092Y-82313666D01*
X96812092Y-82313666D02*
X96716854Y-82504142D01*
X96716854Y-82504142D02*
X96621616Y-82599380D01*
X96621616Y-82599380D02*
X96431140Y-82694619D01*
X96431140Y-82694619D02*
X95764473Y-82694619D01*
X97669235Y-83170809D02*
X98621616Y-83170809D01*
X97478759Y-83742238D02*
X98145425Y-81742238D01*
X98145425Y-81742238D02*
X98812092Y-83742238D01*
X99193045Y-81742238D02*
X100335902Y-81742238D01*
X99764473Y-83742238D02*
X99764473Y-81742238D01*
X100716855Y-81742238D02*
X101859712Y-81742238D01*
X101288283Y-83742238D02*
X101288283Y-81742238D01*
X92340663Y-88842238D02*
X92340663Y-86842238D01*
X92340663Y-86842238D02*
X93102568Y-86842238D01*
X93102568Y-86842238D02*
X93293044Y-86937476D01*
X93293044Y-86937476D02*
X93388282Y-87032714D01*
X93388282Y-87032714D02*
X93483520Y-87223190D01*
X93483520Y-87223190D02*
X93483520Y-87508904D01*
X93483520Y-87508904D02*
X93388282Y-87699380D01*
X93388282Y-87699380D02*
X93293044Y-87794619D01*
X93293044Y-87794619D02*
X93102568Y-87889857D01*
X93102568Y-87889857D02*
X92340663Y-87889857D01*
X94721615Y-86842238D02*
X95102568Y-86842238D01*
X95102568Y-86842238D02*
X95293044Y-86937476D01*
X95293044Y-86937476D02*
X95483520Y-87127952D01*
X95483520Y-87127952D02*
X95578758Y-87508904D01*
X95578758Y-87508904D02*
X95578758Y-88175571D01*
X95578758Y-88175571D02*
X95483520Y-88556523D01*
X95483520Y-88556523D02*
X95293044Y-88747000D01*
X95293044Y-88747000D02*
X95102568Y-88842238D01*
X95102568Y-88842238D02*
X94721615Y-88842238D01*
X94721615Y-88842238D02*
X94531139Y-88747000D01*
X94531139Y-88747000D02*
X94340663Y-88556523D01*
X94340663Y-88556523D02*
X94245425Y-88175571D01*
X94245425Y-88175571D02*
X94245425Y-87508904D01*
X94245425Y-87508904D02*
X94340663Y-87127952D01*
X94340663Y-87127952D02*
X94531139Y-86937476D01*
X94531139Y-86937476D02*
X94721615Y-86842238D01*
X96245425Y-86842238D02*
X96721615Y-88842238D01*
X96721615Y-88842238D02*
X97102568Y-87413666D01*
X97102568Y-87413666D02*
X97483520Y-88842238D01*
X97483520Y-88842238D02*
X97959711Y-86842238D01*
X98721615Y-87794619D02*
X99388282Y-87794619D01*
X99673996Y-88842238D02*
X98721615Y-88842238D01*
X98721615Y-88842238D02*
X98721615Y-86842238D01*
X98721615Y-86842238D02*
X99673996Y-86842238D01*
X101673996Y-88842238D02*
X101007329Y-87889857D01*
X100531139Y-88842238D02*
X100531139Y-86842238D01*
X100531139Y-86842238D02*
X101293044Y-86842238D01*
X101293044Y-86842238D02*
X101483520Y-86937476D01*
X101483520Y-86937476D02*
X101578758Y-87032714D01*
X101578758Y-87032714D02*
X101673996Y-87223190D01*
X101673996Y-87223190D02*
X101673996Y-87508904D01*
X101673996Y-87508904D02*
X101578758Y-87699380D01*
X101578758Y-87699380D02*
X101483520Y-87794619D01*
X101483520Y-87794619D02*
X101293044Y-87889857D01*
X101293044Y-87889857D02*
X100531139Y-87889857D01*
X93183520Y-94251761D02*
X93088282Y-94347000D01*
X93088282Y-94347000D02*
X92802568Y-94442238D01*
X92802568Y-94442238D02*
X92612092Y-94442238D01*
X92612092Y-94442238D02*
X92326377Y-94347000D01*
X92326377Y-94347000D02*
X92135901Y-94156523D01*
X92135901Y-94156523D02*
X92040663Y-93966047D01*
X92040663Y-93966047D02*
X91945425Y-93585095D01*
X91945425Y-93585095D02*
X91945425Y-93299380D01*
X91945425Y-93299380D02*
X92040663Y-92918428D01*
X92040663Y-92918428D02*
X92135901Y-92727952D01*
X92135901Y-92727952D02*
X92326377Y-92537476D01*
X92326377Y-92537476D02*
X92612092Y-92442238D01*
X92612092Y-92442238D02*
X92802568Y-92442238D01*
X92802568Y-92442238D02*
X93088282Y-92537476D01*
X93088282Y-92537476D02*
X93183520Y-92632714D01*
X94421615Y-92442238D02*
X94802568Y-92442238D01*
X94802568Y-92442238D02*
X94993044Y-92537476D01*
X94993044Y-92537476D02*
X95183520Y-92727952D01*
X95183520Y-92727952D02*
X95278758Y-93108904D01*
X95278758Y-93108904D02*
X95278758Y-93775571D01*
X95278758Y-93775571D02*
X95183520Y-94156523D01*
X95183520Y-94156523D02*
X94993044Y-94347000D01*
X94993044Y-94347000D02*
X94802568Y-94442238D01*
X94802568Y-94442238D02*
X94421615Y-94442238D01*
X94421615Y-94442238D02*
X94231139Y-94347000D01*
X94231139Y-94347000D02*
X94040663Y-94156523D01*
X94040663Y-94156523D02*
X93945425Y-93775571D01*
X93945425Y-93775571D02*
X93945425Y-93108904D01*
X93945425Y-93108904D02*
X94040663Y-92727952D01*
X94040663Y-92727952D02*
X94231139Y-92537476D01*
X94231139Y-92537476D02*
X94421615Y-92442238D01*
X96135901Y-94442238D02*
X96135901Y-92442238D01*
X96135901Y-92442238D02*
X96802568Y-93870809D01*
X96802568Y-93870809D02*
X97469234Y-92442238D01*
X97469234Y-92442238D02*
X97469234Y-94442238D01*
X98421615Y-94442238D02*
X98421615Y-92442238D01*
X98421615Y-92442238D02*
X99088282Y-93870809D01*
X99088282Y-93870809D02*
X99754948Y-92442238D01*
X99754948Y-92442238D02*
X99754948Y-94442238D01*
X100612091Y-94347000D02*
X100897805Y-94442238D01*
X100897805Y-94442238D02*
X101373996Y-94442238D01*
X101373996Y-94442238D02*
X101564472Y-94347000D01*
X101564472Y-94347000D02*
X101659710Y-94251761D01*
X101659710Y-94251761D02*
X101754948Y-94061285D01*
X101754948Y-94061285D02*
X101754948Y-93870809D01*
X101754948Y-93870809D02*
X101659710Y-93680333D01*
X101659710Y-93680333D02*
X101564472Y-93585095D01*
X101564472Y-93585095D02*
X101373996Y-93489857D01*
X101373996Y-93489857D02*
X100993043Y-93394619D01*
X100993043Y-93394619D02*
X100802567Y-93299380D01*
X100802567Y-93299380D02*
X100707329Y-93204142D01*
X100707329Y-93204142D02*
X100612091Y-93013666D01*
X100612091Y-93013666D02*
X100612091Y-92823190D01*
X100612091Y-92823190D02*
X100707329Y-92632714D01*
X100707329Y-92632714D02*
X100802567Y-92537476D01*
X100802567Y-92537476D02*
X100993043Y-92442238D01*
X100993043Y-92442238D02*
X101469234Y-92442238D01*
X101469234Y-92442238D02*
X101754948Y-92537476D01*
X99683520Y-107142238D02*
X99016853Y-106189857D01*
X98540663Y-107142238D02*
X98540663Y-105142238D01*
X98540663Y-105142238D02*
X99302568Y-105142238D01*
X99302568Y-105142238D02*
X99493044Y-105237476D01*
X99493044Y-105237476D02*
X99588282Y-105332714D01*
X99588282Y-105332714D02*
X99683520Y-105523190D01*
X99683520Y-105523190D02*
X99683520Y-105808904D01*
X99683520Y-105808904D02*
X99588282Y-105999380D01*
X99588282Y-105999380D02*
X99493044Y-106094619D01*
X99493044Y-106094619D02*
X99302568Y-106189857D01*
X99302568Y-106189857D02*
X98540663Y-106189857D01*
X100350187Y-105142238D02*
X101683520Y-107142238D01*
X101683520Y-105142238D02*
X100350187Y-107142238D01*
X98729949Y-99342238D02*
X99872806Y-99342238D01*
X99301377Y-101342238D02*
X99301377Y-99342238D01*
X100348997Y-99342238D02*
X101682330Y-101342238D01*
X101682330Y-99342238D02*
X100348997Y-101342238D01*
D12*
X49460789Y-87683333D02*
X50175074Y-87683333D01*
X50175074Y-87683333D02*
X50317931Y-87730952D01*
X50317931Y-87730952D02*
X50413170Y-87826190D01*
X50413170Y-87826190D02*
X50460789Y-87969047D01*
X50460789Y-87969047D02*
X50460789Y-88064285D01*
X50460789Y-87207142D02*
X49460789Y-87207142D01*
X49460789Y-87207142D02*
X49460789Y-86826190D01*
X49460789Y-86826190D02*
X49508408Y-86730952D01*
X49508408Y-86730952D02*
X49556027Y-86683333D01*
X49556027Y-86683333D02*
X49651265Y-86635714D01*
X49651265Y-86635714D02*
X49794122Y-86635714D01*
X49794122Y-86635714D02*
X49889360Y-86683333D01*
X49889360Y-86683333D02*
X49936979Y-86730952D01*
X49936979Y-86730952D02*
X49984598Y-86826190D01*
X49984598Y-86826190D02*
X49984598Y-87207142D01*
X50460789Y-85683333D02*
X50460789Y-86254761D01*
X50460789Y-85969047D02*
X49460789Y-85969047D01*
X49460789Y-85969047D02*
X49603646Y-86064285D01*
X49603646Y-86064285D02*
X49698884Y-86159523D01*
X49698884Y-86159523D02*
X49746503Y-86254761D01*
X46935714Y-89954819D02*
X46935714Y-88954819D01*
X46935714Y-88954819D02*
X47173809Y-88954819D01*
X47173809Y-88954819D02*
X47316666Y-89002438D01*
X47316666Y-89002438D02*
X47411904Y-89097676D01*
X47411904Y-89097676D02*
X47459523Y-89192914D01*
X47459523Y-89192914D02*
X47507142Y-89383390D01*
X47507142Y-89383390D02*
X47507142Y-89526247D01*
X47507142Y-89526247D02*
X47459523Y-89716723D01*
X47459523Y-89716723D02*
X47411904Y-89811961D01*
X47411904Y-89811961D02*
X47316666Y-89907200D01*
X47316666Y-89907200D02*
X47173809Y-89954819D01*
X47173809Y-89954819D02*
X46935714Y-89954819D01*
X48459523Y-89954819D02*
X47888095Y-89954819D01*
X48173809Y-89954819D02*
X48173809Y-88954819D01*
X48173809Y-88954819D02*
X48078571Y-89097676D01*
X48078571Y-89097676D02*
X47983333Y-89192914D01*
X47983333Y-89192914D02*
X47888095Y-89240533D01*
X49078571Y-88954819D02*
X49173809Y-88954819D01*
X49173809Y-88954819D02*
X49269047Y-89002438D01*
X49269047Y-89002438D02*
X49316666Y-89050057D01*
X49316666Y-89050057D02*
X49364285Y-89145295D01*
X49364285Y-89145295D02*
X49411904Y-89335771D01*
X49411904Y-89335771D02*
X49411904Y-89573866D01*
X49411904Y-89573866D02*
X49364285Y-89764342D01*
X49364285Y-89764342D02*
X49316666Y-89859580D01*
X49316666Y-89859580D02*
X49269047Y-89907200D01*
X49269047Y-89907200D02*
X49173809Y-89954819D01*
X49173809Y-89954819D02*
X49078571Y-89954819D01*
X49078571Y-89954819D02*
X48983333Y-89907200D01*
X48983333Y-89907200D02*
X48935714Y-89859580D01*
X48935714Y-89859580D02*
X48888095Y-89764342D01*
X48888095Y-89764342D02*
X48840476Y-89573866D01*
X48840476Y-89573866D02*
X48840476Y-89335771D01*
X48840476Y-89335771D02*
X48888095Y-89145295D01*
X48888095Y-89145295D02*
X48935714Y-89050057D01*
X48935714Y-89050057D02*
X48983333Y-89002438D01*
X48983333Y-89002438D02*
X49078571Y-88954819D01*
X56612008Y-65374901D02*
X56850103Y-65374901D01*
X56754865Y-65612996D02*
X56850103Y-65374901D01*
X56850103Y-65374901D02*
X56754865Y-65136806D01*
X57040579Y-65517758D02*
X56850103Y-65374901D01*
X56850103Y-65374901D02*
X57040579Y-65232044D01*
X57702369Y-65374902D02*
X57464274Y-65374902D01*
X57559512Y-65136807D02*
X57464274Y-65374902D01*
X57464274Y-65374902D02*
X57559512Y-65612997D01*
X57273798Y-65232045D02*
X57464274Y-65374902D01*
X57464274Y-65374902D02*
X57273798Y-65517759D01*
D13*
%TO.C,JP1*%
X50805970Y-88250000D02*
X50805970Y-85450000D01*
X52805970Y-88250000D02*
X50805970Y-88250000D01*
X50805970Y-85450000D02*
X52805970Y-85450000D01*
X52805970Y-85450000D02*
X52805970Y-88250000D01*
%TO.C,D10*%
X50510000Y-88500000D02*
X50510000Y-86500000D01*
X50510000Y-88500000D02*
X46500000Y-88500000D01*
X50510000Y-86500000D02*
X46500000Y-86500000D01*
%TO.C,SW2*%
X42090000Y-88910000D02*
X46230000Y-88910000D01*
X42090000Y-89210000D02*
X42090000Y-88910000D01*
X42090000Y-92050000D02*
X42090000Y-91750000D01*
X46230000Y-88910000D02*
X46230000Y-89210000D01*
X46230000Y-91750000D02*
X46230000Y-92050000D01*
X46230000Y-92050000D02*
X42090000Y-92050000D01*
%TO.C,R44*%
X42280000Y-87646359D02*
X42280000Y-87953641D01*
X41520000Y-87646359D02*
X41520000Y-87953641D01*
%TO.C,U1*%
X36815000Y-118000000D02*
X36315000Y-117500000D01*
X36815000Y-117500000D01*
X36815000Y-118000000D01*
G36*
X36815000Y-118000000D02*
G01*
X36315000Y-117500000D01*
X36815000Y-117500000D01*
X36815000Y-118000000D01*
G37*
X55790000Y-99100000D02*
X54790000Y-99100000D01*
X55790000Y-99100000D02*
X55790000Y-100600000D01*
X29940000Y-99100000D02*
X36140000Y-99100000D01*
X55790000Y-117500000D02*
X55790000Y-116000000D01*
X54790000Y-117500000D02*
X55790000Y-117500000D01*
X29940000Y-117500000D02*
X29940000Y-99100000D01*
X29940000Y-117500000D02*
X36140000Y-117500000D01*
%TO.C,J2*%
X74760000Y-49690000D02*
X74760000Y-53300000D01*
X65640000Y-49690000D02*
X74760000Y-49690000D01*
X65640000Y-49690000D02*
X65640000Y-53300000D01*
X73200000Y-53000000D02*
X73200000Y-57800000D01*
X67200000Y-53000000D02*
X67200000Y-57800000D01*
X65640000Y-53000000D02*
X74760000Y-53000000D01*
X77460000Y-53540000D02*
X75560000Y-53540000D01*
X77460000Y-54880000D02*
X77460000Y-53540000D01*
X74760000Y-56300000D02*
X74760000Y-59300000D01*
X65640000Y-56300000D02*
X65640000Y-59300000D01*
X74760000Y-62300000D02*
X74760000Y-64610000D01*
X65640000Y-62300000D02*
X65640000Y-64610000D01*
X65640000Y-64610000D02*
X74760000Y-64610000D01*
X73200000Y-57800000D02*
G75*
G02*
X67200000Y-57800000I-3000000J0D01*
G01*
%TO.C,BZ1*%
D10*
X46850000Y-129835000D02*
X39350000Y-129835000D01*
X39350000Y-137335000D01*
X46850000Y-137335000D01*
X46850000Y-129835000D01*
D13*
%TO.C,D2*%
X102265000Y-81355000D02*
X102265000Y-79085000D01*
X102265000Y-79085000D02*
X98380000Y-79085000D01*
X98380000Y-81355000D02*
X102265000Y-81355000D01*
%TO.C,D3*%
X102285000Y-91915000D02*
X102285000Y-89645000D01*
X102285000Y-89645000D02*
X98400000Y-89645000D01*
X98400000Y-91915000D02*
X102285000Y-91915000D01*
%TO.C,D4*%
X101735000Y-65150000D02*
X101735000Y-62880000D01*
X101735000Y-62880000D02*
X97850000Y-62880000D01*
X97850000Y-65150000D02*
X101735000Y-65150000D01*
%TO.C,D5*%
X102310000Y-86510000D02*
X102310000Y-84240000D01*
X102310000Y-84240000D02*
X98425000Y-84240000D01*
X98425000Y-86510000D02*
X102310000Y-86510000D01*
%TO.C,D6*%
X101710000Y-70385000D02*
X101710000Y-68115000D01*
X101710000Y-68115000D02*
X97825000Y-68115000D01*
X97825000Y-70385000D02*
X101710000Y-70385000D01*
%TO.C,D7*%
X102260000Y-98885000D02*
X102260000Y-96615000D01*
X102260000Y-96615000D02*
X98375000Y-96615000D01*
X98375000Y-98885000D02*
X102260000Y-98885000D01*
%TO.C,D8*%
X101710000Y-75565000D02*
X101710000Y-73295000D01*
X101710000Y-73295000D02*
X97825000Y-73295000D01*
X97825000Y-75565000D02*
X101710000Y-75565000D01*
%TO.C,D9*%
X98380000Y-104700000D02*
X102265000Y-104700000D01*
X102265000Y-102430000D02*
X98380000Y-102430000D01*
X102265000Y-104700000D02*
X102265000Y-102430000D01*
%TO.C,J3*%
X40075000Y-148221567D02*
X40075000Y-146521567D01*
X49415000Y-148221567D02*
X49415000Y-146521567D01*
D14*
%TO.C,J10*%
X54965262Y-137317999D02*
X53630740Y-137317999D01*
X50965260Y-137317999D02*
X50221001Y-137317999D01*
X57630742Y-150271999D02*
X58375001Y-150271999D01*
X53630740Y-150271999D02*
X54965262Y-150271999D01*
X50221001Y-137317999D02*
X50221001Y-150271999D01*
X58375001Y-137317999D02*
X57630742Y-137317999D01*
X58375001Y-150271999D02*
X58375001Y-137317999D01*
X50221001Y-150271999D02*
X50965260Y-150271999D01*
D15*
X48824001Y-147639997D02*
G75*
G02*
X48062001Y-147639997I-381000J0D01*
G01*
X48062001Y-147639997D02*
G75*
G02*
X48824001Y-147639997I381000J0D01*
G01*
D13*
%TO.C,TP2*%
X61725000Y-99000000D02*
X59325000Y-99000000D01*
X61725000Y-96600000D02*
X61725000Y-99000000D01*
X59325000Y-99000000D02*
X59325000Y-96600000D01*
X59325000Y-96600000D02*
X61725000Y-96600000D01*
%TO.C,TP3*%
X62225000Y-91400000D02*
X59825000Y-91400000D01*
X62225000Y-89000000D02*
X62225000Y-91400000D01*
X59825000Y-91400000D02*
X59825000Y-89000000D01*
X59825000Y-89000000D02*
X62225000Y-89000000D01*
%TO.C,TP4*%
X65225000Y-88900000D02*
X62825000Y-88900000D01*
X65225000Y-86500000D02*
X65225000Y-88900000D01*
X62825000Y-88900000D02*
X62825000Y-86500000D01*
X62825000Y-86500000D02*
X65225000Y-86500000D01*
%TO.C,TP5*%
X86025000Y-118600000D02*
X83625000Y-118600000D01*
X86025000Y-116200000D02*
X86025000Y-118600000D01*
X83625000Y-118600000D02*
X83625000Y-116200000D01*
X83625000Y-116200000D02*
X86025000Y-116200000D01*
%TO.C,TP6*%
X85925000Y-114500000D02*
X83525000Y-114500000D01*
X85925000Y-112100000D02*
X85925000Y-114500000D01*
X83525000Y-114500000D02*
X83525000Y-112100000D01*
X83525000Y-112100000D02*
X85925000Y-112100000D01*
%TO.C,U2*%
X40687500Y-64475000D02*
X40207500Y-64475000D01*
X40687500Y-63995000D01*
X40687500Y-64475000D01*
G36*
X40687500Y-64475000D02*
G01*
X40207500Y-64475000D01*
X40687500Y-63995000D01*
X40687500Y-64475000D01*
G37*
X41237500Y-67660000D02*
X44237500Y-67660000D01*
X41237500Y-64390000D02*
X44237500Y-64390000D01*
%TO.C,U3*%
X46012500Y-74300000D02*
X45532500Y-74300000D01*
X46012500Y-73820000D01*
X46012500Y-74300000D01*
G36*
X46012500Y-74300000D02*
G01*
X45532500Y-74300000D01*
X46012500Y-73820000D01*
X46012500Y-74300000D01*
G37*
X46562500Y-77485000D02*
X49562500Y-77485000D01*
X46562500Y-74215000D02*
X49562500Y-74215000D01*
%TO.C,U4*%
X69365736Y-69697500D02*
X69085736Y-69697500D01*
X69085736Y-69417500D01*
X69365736Y-69697500D01*
G36*
X69365736Y-69697500D02*
G01*
X69085736Y-69697500D01*
X69085736Y-69417500D01*
X69365736Y-69697500D01*
G37*
X66965736Y-69937500D02*
X66965736Y-71937500D01*
X69185736Y-69937500D02*
X69185736Y-71937500D01*
%TO.C,U6*%
X77523001Y-132508999D02*
X77523001Y-130508999D01*
X74243001Y-132498999D02*
X74243001Y-130498999D01*
X74313001Y-133148999D02*
X74033001Y-132868999D01*
X74313001Y-132868999D01*
X74313001Y-133148999D01*
G36*
X74313001Y-133148999D02*
G01*
X74033001Y-132868999D01*
X74313001Y-132868999D01*
X74313001Y-133148999D01*
G37*
%TO.C,U7*%
X57003000Y-132650000D02*
X56723000Y-132370000D01*
X57003000Y-132370000D01*
X57003000Y-132650000D01*
G36*
X57003000Y-132650000D02*
G01*
X56723000Y-132370000D01*
X57003000Y-132370000D01*
X57003000Y-132650000D01*
G37*
X56933000Y-132000000D02*
X56933000Y-130000000D01*
X60213000Y-132010000D02*
X60213000Y-130010000D01*
%TO.C,C15*%
X65823236Y-72607836D02*
X65823236Y-72392164D01*
X66543236Y-72607836D02*
X66543236Y-72392164D01*
%TO.C,F1*%
X69595736Y-74925000D02*
X70375736Y-74925000D01*
X69595736Y-74925000D02*
X69595736Y-66725000D01*
X75255736Y-74925000D02*
X74475736Y-74925000D01*
X75255736Y-74925000D02*
X75255736Y-66725000D01*
X69595736Y-66725000D02*
X70375736Y-66725000D01*
X75255736Y-66725000D02*
X74475736Y-66725000D01*
%TO.C,R42*%
X53205000Y-119238641D02*
X53205000Y-118931359D01*
X52445000Y-119238641D02*
X52445000Y-118931359D01*
%TO.C,R43*%
X54505000Y-119238641D02*
X54505000Y-118931359D01*
X53745000Y-119238641D02*
X53745000Y-118931359D01*
D14*
%TO.C,J9*%
X80957661Y-137330499D02*
X79623139Y-137330499D01*
X76957659Y-137330499D02*
X76213400Y-137330499D01*
X83623141Y-150284499D02*
X84367400Y-150284499D01*
X79623139Y-150284499D02*
X80957661Y-150284499D01*
X76213400Y-137330499D02*
X76213400Y-150284499D01*
X84367400Y-137330499D02*
X83623141Y-137330499D01*
X84367400Y-150284499D02*
X84367400Y-137330499D01*
X76213400Y-150284499D02*
X76957659Y-150284499D01*
D15*
X74816400Y-147652497D02*
G75*
G02*
X74054400Y-147652497I-381000J0D01*
G01*
X74054400Y-147652497D02*
G75*
G02*
X74816400Y-147652497I381000J0D01*
G01*
D14*
%TO.C,J8*%
X72302760Y-137330499D02*
X70968238Y-137330499D01*
X68302758Y-137330499D02*
X67558499Y-137330499D01*
X74968240Y-150284499D02*
X75712499Y-150284499D01*
X70968238Y-150284499D02*
X72302760Y-150284499D01*
X67558499Y-137330499D02*
X67558499Y-150284499D01*
X75712499Y-137330499D02*
X74968240Y-137330499D01*
X75712499Y-150284499D02*
X75712499Y-137330499D01*
X67558499Y-150284499D02*
X68302758Y-150284499D01*
D15*
X66161499Y-147652497D02*
G75*
G02*
X65399499Y-147652497I-381000J0D01*
G01*
X65399499Y-147652497D02*
G75*
G02*
X66161499Y-147652497I381000J0D01*
G01*
D13*
%TO.C,C28*%
X73893001Y-131376163D02*
X73893001Y-131591835D01*
X73173001Y-131376163D02*
X73173001Y-131591835D01*
%TO.C,C23*%
X73905164Y-129159000D02*
X74120836Y-129159000D01*
X73905164Y-129879000D02*
X74120836Y-129879000D01*
%TO.C,R28*%
X95781359Y-74070000D02*
X96088641Y-74070000D01*
X95781359Y-74830000D02*
X96088641Y-74830000D01*
%TO.C,R29*%
X96236359Y-103170000D02*
X96543641Y-103170000D01*
X96236359Y-103930000D02*
X96543641Y-103930000D01*
D14*
%TO.C,U5*%
X54730600Y-66035048D02*
X54730600Y-66254504D01*
X54730600Y-71394448D02*
X55197071Y-71394448D01*
X58083400Y-71394448D02*
X58083400Y-71174992D01*
X58083400Y-66035048D02*
X57616929Y-66035048D01*
X55197071Y-66035048D02*
X54730600Y-66035048D01*
X54730600Y-71174992D02*
X54730600Y-71394448D01*
X57616929Y-71394448D02*
X58083400Y-71394448D01*
X58083400Y-66254504D02*
X58083400Y-66035048D01*
D13*
%TO.C,C25*%
X58590000Y-69107164D02*
X58590000Y-69322836D01*
X59310000Y-69107164D02*
X59310000Y-69322836D01*
%TO.C,C30*%
X59590000Y-69107164D02*
X59590000Y-69322836D01*
X60310000Y-69107164D02*
X60310000Y-69322836D01*
%TO.C,C27*%
X60590000Y-69107164D02*
X60590000Y-69322836D01*
X61310000Y-69107164D02*
X61310000Y-69322836D01*
%TO.C,C26*%
X61590000Y-69107164D02*
X61590000Y-69322836D01*
X62310000Y-69107164D02*
X62310000Y-69322836D01*
%TO.C,C33*%
X62590000Y-69107164D02*
X62590000Y-69322836D01*
X63310000Y-69107164D02*
X63310000Y-69322836D01*
%TO.C,J7*%
X97130000Y-120240000D02*
X97130000Y-116780000D01*
X97130000Y-121860000D02*
X95660000Y-121860000D01*
X97130000Y-122430000D02*
X97130000Y-121860000D01*
X99890000Y-114590000D02*
X97130000Y-114590000D01*
X99890000Y-115160000D02*
X99890000Y-114590000D01*
X99890000Y-117700000D02*
X99890000Y-114590000D01*
X99890000Y-121860000D02*
X99890000Y-119320000D01*
X99890000Y-122430000D02*
X97130000Y-122430000D01*
X99890000Y-122430000D02*
X99890000Y-119320000D01*
%TO.C,J6*%
X97130000Y-129235000D02*
X97130000Y-125775000D01*
X97130000Y-130855000D02*
X95660000Y-130855000D01*
X97130000Y-131425000D02*
X97130000Y-130855000D01*
X99890000Y-123585000D02*
X97130000Y-123585000D01*
X99890000Y-124155000D02*
X99890000Y-123585000D01*
X99890000Y-126695000D02*
X99890000Y-123585000D01*
X99890000Y-130855000D02*
X99890000Y-128315000D01*
X99890000Y-131425000D02*
X97130000Y-131425000D01*
X99890000Y-131425000D02*
X99890000Y-128315000D01*
%TO.C,J5*%
X97175000Y-138375000D02*
X97175000Y-134915000D01*
X97175000Y-139995000D02*
X95705000Y-139995000D01*
X97175000Y-140565000D02*
X97175000Y-139995000D01*
X99935000Y-132725000D02*
X97175000Y-132725000D01*
X99935000Y-133295000D02*
X99935000Y-132725000D01*
X99935000Y-135835000D02*
X99935000Y-132725000D01*
X99935000Y-139995000D02*
X99935000Y-137455000D01*
X99935000Y-140565000D02*
X97175000Y-140565000D01*
X99935000Y-140565000D02*
X99935000Y-137455000D01*
%TO.C,J4*%
X97150000Y-147465000D02*
X97150000Y-144005000D01*
X97150000Y-149085000D02*
X95680000Y-149085000D01*
X97150000Y-149655000D02*
X97150000Y-149085000D01*
X99910000Y-141815000D02*
X97150000Y-141815000D01*
X99910000Y-142385000D02*
X99910000Y-141815000D01*
X99910000Y-144925000D02*
X99910000Y-141815000D01*
X99910000Y-149085000D02*
X99910000Y-146545000D01*
X99910000Y-149655000D02*
X97150000Y-149655000D01*
X99910000Y-149655000D02*
X99910000Y-146545000D01*
%TO.C,U9*%
X78450000Y-117805000D02*
X80400000Y-117805000D01*
X78450000Y-117805000D02*
X76500000Y-117805000D01*
X78450000Y-107685000D02*
X80400000Y-107685000D01*
X78450000Y-107685000D02*
X76500000Y-107685000D01*
X81390000Y-118080000D02*
X80910000Y-118080000D01*
X81150000Y-117750000D01*
X81390000Y-118080000D01*
G36*
X81390000Y-118080000D02*
G01*
X80910000Y-118080000D01*
X81150000Y-117750000D01*
X81390000Y-118080000D01*
G37*
%TO.C,U8*%
D10*
X71000000Y-107150000D02*
X86000000Y-107150000D01*
X86000000Y-77750000D01*
X71000000Y-77750000D01*
X71000000Y-107150000D01*
D13*
%TO.C,SW1*%
X41545000Y-124070000D02*
X37405000Y-124070000D01*
X41545000Y-123770000D02*
X41545000Y-124070000D01*
X41545000Y-120930000D02*
X41545000Y-121230000D01*
X37405000Y-124070000D02*
X37405000Y-123770000D01*
X37405000Y-121230000D02*
X37405000Y-120930000D01*
X37405000Y-120930000D02*
X41545000Y-120930000D01*
%TO.C,R41*%
X68061359Y-96680000D02*
X68368641Y-96680000D01*
X68061359Y-95920000D02*
X68368641Y-95920000D01*
%TO.C,R40*%
X67961359Y-86480000D02*
X68268641Y-86480000D01*
X67961359Y-85720000D02*
X68268641Y-85720000D01*
%TO.C,R39*%
X89078641Y-90720000D02*
X88771359Y-90720000D01*
X89078641Y-91480000D02*
X88771359Y-91480000D01*
%TO.C,R38*%
X89078641Y-95820000D02*
X88771359Y-95820000D01*
X89078641Y-96580000D02*
X88771359Y-96580000D01*
%TO.C,R37*%
X89078641Y-98320000D02*
X88771359Y-98320000D01*
X89078641Y-99080000D02*
X88771359Y-99080000D01*
%TO.C,R36*%
X68061359Y-94180000D02*
X68368641Y-94180000D01*
X68061359Y-93420000D02*
X68368641Y-93420000D01*
%TO.C,R35*%
X89078641Y-88220000D02*
X88771359Y-88220000D01*
X89078641Y-88980000D02*
X88771359Y-88980000D01*
%TO.C,R34*%
X89078641Y-93320000D02*
X88771359Y-93320000D01*
X89078641Y-94080000D02*
X88771359Y-94080000D01*
%TO.C,R33*%
X51870000Y-72611359D02*
X51870000Y-72918641D01*
X52630000Y-72611359D02*
X52630000Y-72918641D01*
%TO.C,R32*%
X53296359Y-71555000D02*
X53603641Y-71555000D01*
X53296359Y-70795000D02*
X53603641Y-70795000D01*
%TO.C,R31*%
X63715000Y-70889564D02*
X63715000Y-70435436D01*
X65185000Y-70889564D02*
X65185000Y-70435436D01*
%TO.C,R30*%
X55562258Y-73237500D02*
X55087742Y-73237500D01*
X55562258Y-72192500D02*
X55087742Y-72192500D01*
%TO.C,R27*%
X38262258Y-97232500D02*
X37787742Y-97232500D01*
X38262258Y-96187500D02*
X37787742Y-96187500D01*
%TO.C,R26*%
X38377500Y-94262742D02*
X38377500Y-94737258D01*
X39422500Y-94262742D02*
X39422500Y-94737258D01*
%TO.C,R25*%
X52087742Y-65767500D02*
X52562258Y-65767500D01*
X52087742Y-66812500D02*
X52562258Y-66812500D01*
%TO.C,R24*%
X96331359Y-98135000D02*
X96638641Y-98135000D01*
X96331359Y-97375000D02*
X96638641Y-97375000D01*
%TO.C,R23*%
X95781359Y-69645000D02*
X96088641Y-69645000D01*
X95781359Y-68885000D02*
X96088641Y-68885000D01*
%TO.C,R22*%
X96431359Y-85730000D02*
X96738641Y-85730000D01*
X96431359Y-84970000D02*
X96738641Y-84970000D01*
%TO.C,R21*%
X95856359Y-64380000D02*
X96163641Y-64380000D01*
X95856359Y-63620000D02*
X96163641Y-63620000D01*
%TO.C,R20*%
X96381359Y-91155000D02*
X96688641Y-91155000D01*
X96381359Y-90395000D02*
X96688641Y-90395000D01*
%TO.C,R19*%
X96356359Y-80605000D02*
X96663641Y-80605000D01*
X96356359Y-79845000D02*
X96663641Y-79845000D01*
%TO.C,R18*%
X42198641Y-142231567D02*
X41891359Y-142231567D01*
X42198641Y-142991567D02*
X41891359Y-142991567D01*
%TO.C,R17*%
X47266359Y-142991567D02*
X47573641Y-142991567D01*
X47266359Y-142231567D02*
X47573641Y-142231567D01*
%TO.C,R16*%
X40008641Y-124565000D02*
X39701359Y-124565000D01*
X40008641Y-125325000D02*
X39701359Y-125325000D01*
%TO.C,R15*%
X94895000Y-118891359D02*
X94895000Y-119198641D01*
X94135000Y-118891359D02*
X94135000Y-119198641D01*
%TO.C,R14*%
X94870000Y-127841359D02*
X94870000Y-128148641D01*
X94110000Y-127841359D02*
X94110000Y-128148641D01*
%TO.C,R13*%
X94970000Y-136991359D02*
X94970000Y-137298641D01*
X94210000Y-136991359D02*
X94210000Y-137298641D01*
%TO.C,R12*%
X94920000Y-146081359D02*
X94920000Y-146388641D01*
X94160000Y-146081359D02*
X94160000Y-146388641D01*
%TO.C,R11*%
X90920000Y-120926359D02*
X90920000Y-121233641D01*
X90160000Y-120926359D02*
X90160000Y-121233641D01*
%TO.C,R10*%
X90945000Y-129901359D02*
X90945000Y-130208641D01*
X90185000Y-129901359D02*
X90185000Y-130208641D01*
%TO.C,R9*%
X91045000Y-139001359D02*
X91045000Y-139308641D01*
X90285000Y-139001359D02*
X90285000Y-139308641D01*
%TO.C,R8*%
X90920000Y-148141359D02*
X90920000Y-148448641D01*
X90160000Y-148141359D02*
X90160000Y-148448641D01*
%TO.C,R7*%
X50863641Y-79320000D02*
X50556359Y-79320000D01*
X50863641Y-80080000D02*
X50556359Y-80080000D01*
%TO.C,R6*%
X48290000Y-59641359D02*
X48290000Y-59948641D01*
X49050000Y-59641359D02*
X49050000Y-59948641D01*
%TO.C,R5*%
X50577500Y-76937258D02*
X50577500Y-76462742D01*
X51622500Y-76937258D02*
X51622500Y-76462742D01*
%TO.C,R4*%
X52077500Y-78762258D02*
X52077500Y-78287742D01*
X53122500Y-78762258D02*
X53122500Y-78287742D01*
%TO.C,R3*%
X46737258Y-66897500D02*
X46262742Y-66897500D01*
X46737258Y-65852500D02*
X46262742Y-65852500D01*
%TO.C,R2*%
X50607742Y-58482500D02*
X51082258Y-58482500D01*
X50607742Y-59527500D02*
X51082258Y-59527500D01*
%TO.C,R1*%
X39436359Y-119180000D02*
X39743641Y-119180000D01*
X39436359Y-118420000D02*
X39743641Y-118420000D01*
%TO.C,Q8*%
X67762500Y-87090000D02*
X67112500Y-87090000D01*
X67762500Y-87090000D02*
X68412500Y-87090000D01*
X67762500Y-90210000D02*
X67112500Y-90210000D01*
X67762500Y-90210000D02*
X68412500Y-90210000D01*
X66600000Y-87140000D02*
X66360000Y-86810000D01*
X66840000Y-86810000D01*
X66600000Y-87140000D01*
G36*
X66600000Y-87140000D02*
G01*
X66360000Y-86810000D01*
X66840000Y-86810000D01*
X66600000Y-87140000D01*
G37*
%TO.C,Q7*%
X64825000Y-89640000D02*
X64175000Y-89640000D01*
X64825000Y-89640000D02*
X65475000Y-89640000D01*
X64825000Y-92760000D02*
X64175000Y-92760000D01*
X64825000Y-92760000D02*
X65475000Y-92760000D01*
X63662500Y-89690000D02*
X63422500Y-89360000D01*
X63902500Y-89360000D01*
X63662500Y-89690000D01*
G36*
X63662500Y-89690000D02*
G01*
X63422500Y-89360000D01*
X63902500Y-89360000D01*
X63662500Y-89690000D01*
G37*
%TO.C,Q6*%
X64225000Y-97240000D02*
X63575000Y-97240000D01*
X64225000Y-97240000D02*
X64875000Y-97240000D01*
X64225000Y-100360000D02*
X63575000Y-100360000D01*
X64225000Y-100360000D02*
X64875000Y-100360000D01*
X63062500Y-97290000D02*
X62822500Y-96960000D01*
X63302500Y-96960000D01*
X63062500Y-97290000D01*
G36*
X63062500Y-97290000D02*
G01*
X62822500Y-96960000D01*
X63302500Y-96960000D01*
X63062500Y-97290000D01*
G37*
%TO.C,Q5*%
X39955000Y-127445000D02*
X39955000Y-126795000D01*
X39955000Y-127445000D02*
X39955000Y-128095000D01*
X36835000Y-127445000D02*
X36835000Y-126795000D01*
X36835000Y-127445000D02*
X36835000Y-128095000D01*
X40235000Y-126522500D02*
X39905000Y-126282500D01*
X40235000Y-126042500D01*
X40235000Y-126522500D01*
G36*
X40235000Y-126522500D02*
G01*
X39905000Y-126282500D01*
X40235000Y-126042500D01*
X40235000Y-126522500D01*
G37*
%TO.C,Q4*%
X91855000Y-119560000D02*
X91615000Y-119230000D01*
X92095000Y-119230000D01*
X91855000Y-119560000D01*
G36*
X91855000Y-119560000D02*
G01*
X91615000Y-119230000D01*
X92095000Y-119230000D01*
X91855000Y-119560000D01*
G37*
X93017500Y-122630000D02*
X93667500Y-122630000D01*
X93017500Y-122630000D02*
X92367500Y-122630000D01*
X93017500Y-119510000D02*
X93667500Y-119510000D01*
X93017500Y-119510000D02*
X92367500Y-119510000D01*
%TO.C,Q3*%
X91892500Y-128535000D02*
X91652500Y-128205000D01*
X92132500Y-128205000D01*
X91892500Y-128535000D01*
G36*
X91892500Y-128535000D02*
G01*
X91652500Y-128205000D01*
X92132500Y-128205000D01*
X91892500Y-128535000D01*
G37*
X93055000Y-131605000D02*
X93705000Y-131605000D01*
X93055000Y-131605000D02*
X92405000Y-131605000D01*
X93055000Y-128485000D02*
X93705000Y-128485000D01*
X93055000Y-128485000D02*
X92405000Y-128485000D01*
%TO.C,Q2*%
X91955000Y-137635000D02*
X91715000Y-137305000D01*
X92195000Y-137305000D01*
X91955000Y-137635000D01*
G36*
X91955000Y-137635000D02*
G01*
X91715000Y-137305000D01*
X92195000Y-137305000D01*
X91955000Y-137635000D01*
G37*
X93117500Y-140705000D02*
X93767500Y-140705000D01*
X93117500Y-140705000D02*
X92467500Y-140705000D01*
X93117500Y-137585000D02*
X93767500Y-137585000D01*
X93117500Y-137585000D02*
X92467500Y-137585000D01*
%TO.C,Q1*%
X91867500Y-146725000D02*
X91627500Y-146395000D01*
X92107500Y-146395000D01*
X91867500Y-146725000D01*
G36*
X91867500Y-146725000D02*
G01*
X91627500Y-146395000D01*
X92107500Y-146395000D01*
X91867500Y-146725000D01*
G37*
X93030000Y-149795000D02*
X93680000Y-149795000D01*
X93030000Y-149795000D02*
X92380000Y-149795000D01*
X93030000Y-146675000D02*
X93680000Y-146675000D01*
X93030000Y-146675000D02*
X92380000Y-146675000D01*
%TO.C,L3*%
X52690000Y-60065000D02*
X52690000Y-59215000D01*
X52690000Y-64765000D02*
X52690000Y-63965000D01*
X53300000Y-58605000D02*
X59000000Y-58605000D01*
X59000000Y-65425000D02*
X53350000Y-65425000D01*
X59610000Y-59215000D02*
X59610000Y-60065000D01*
X59610000Y-63965000D02*
X59610000Y-64815000D01*
X52690000Y-59215000D02*
G75*
G02*
X53300000Y-58605000I610000J0D01*
G01*
X53350000Y-65425000D02*
G75*
G02*
X52690000Y-64765000I2J660002D01*
G01*
X59000000Y-58605000D02*
G75*
G02*
X59610000Y-59215000I0J-610000D01*
G01*
X59610000Y-64815000D02*
G75*
G02*
X59000000Y-65425000I-610000J0D01*
G01*
%TO.C,L2*%
X45725000Y-78040000D02*
X46575000Y-78040000D01*
X41025000Y-78040000D02*
X41825000Y-78040000D01*
X47185000Y-78650000D02*
X47185000Y-84350000D01*
X40365000Y-84350000D02*
X40365000Y-78700000D01*
X46575000Y-84960000D02*
X45725000Y-84960000D01*
X41825000Y-84960000D02*
X40975000Y-84960000D01*
X46575000Y-78040000D02*
G75*
G02*
X47185000Y-78650000I0J-610000D01*
G01*
X40365000Y-78700000D02*
G75*
G02*
X41025000Y-78040000I660002J-2D01*
G01*
X47185000Y-84350000D02*
G75*
G02*
X46575000Y-84960000I-610000J0D01*
G01*
X40975000Y-84960000D02*
G75*
G02*
X40365000Y-84350000I0J610000D01*
G01*
%TO.C,L1*%
X39615000Y-57125000D02*
X39615000Y-56275000D01*
X39615000Y-61825000D02*
X39615000Y-61025000D01*
X40225000Y-55665000D02*
X45925000Y-55665000D01*
X45925000Y-62485000D02*
X40275000Y-62485000D01*
X46535000Y-56275000D02*
X46535000Y-57125000D01*
X46535000Y-61025000D02*
X46535000Y-61875000D01*
X39615000Y-56275000D02*
G75*
G02*
X40225000Y-55665000I610000J0D01*
G01*
X40275000Y-62485000D02*
G75*
G02*
X39615000Y-61825000I2J660002D01*
G01*
X45925000Y-55665000D02*
G75*
G02*
X46535000Y-56275000I0J-610000D01*
G01*
X46535000Y-61875000D02*
G75*
G02*
X45925000Y-62485000I-610000J0D01*
G01*
D15*
%TO.C,J11*%
X57473900Y-147664997D02*
G75*
G02*
X56711900Y-147664997I-381000J0D01*
G01*
X56711900Y-147664997D02*
G75*
G02*
X57473900Y-147664997I381000J0D01*
G01*
D14*
X58870900Y-150296999D02*
X59615159Y-150296999D01*
X67024900Y-150296999D02*
X67024900Y-137342999D01*
X67024900Y-137342999D02*
X66280641Y-137342999D01*
X58870900Y-137342999D02*
X58870900Y-150296999D01*
X62280639Y-150296999D02*
X63615161Y-150296999D01*
X66280641Y-150296999D02*
X67024900Y-150296999D01*
X59615159Y-137342999D02*
X58870900Y-137342999D01*
X63615161Y-137342999D02*
X62280639Y-137342999D01*
D13*
%TO.C,J1*%
X78735000Y-59125000D02*
X78165000Y-59125000D01*
X81275000Y-59125000D02*
X78165000Y-59125000D01*
X86355000Y-59125000D02*
X82895000Y-59125000D01*
X91435000Y-59125000D02*
X87975000Y-59125000D01*
X96515000Y-59125000D02*
X93055000Y-59125000D01*
X100675000Y-59125000D02*
X98135000Y-59125000D01*
X78165000Y-56365000D02*
X78165000Y-59125000D01*
X83815000Y-56365000D02*
X80355000Y-56365000D01*
X88895000Y-56365000D02*
X85435000Y-56365000D01*
X93975000Y-56365000D02*
X90515000Y-56365000D01*
X99055000Y-56365000D02*
X95595000Y-56365000D01*
X100675000Y-56365000D02*
X100675000Y-54895000D01*
X101245000Y-56365000D02*
X101245000Y-59125000D01*
X101245000Y-56365000D02*
X100675000Y-56365000D01*
%TO.C,D1*%
X45555000Y-128345000D02*
X45555000Y-126345000D01*
X45555000Y-128345000D02*
X41545000Y-128345000D01*
X45555000Y-126345000D02*
X41545000Y-126345000D01*
%TO.C,C32*%
X54090000Y-74502836D02*
X54090000Y-74287164D01*
X54810000Y-74502836D02*
X54810000Y-74287164D01*
%TO.C,C31*%
X52890000Y-73482836D02*
X52890000Y-73267164D01*
X53610000Y-73482836D02*
X53610000Y-73267164D01*
%TO.C,C29*%
X56633000Y-131372164D02*
X56633000Y-131587836D01*
X55913000Y-131372164D02*
X55913000Y-131587836D01*
%TO.C,C24*%
X55915000Y-129707836D02*
X55915000Y-129492164D01*
X56635000Y-129707836D02*
X56635000Y-129492164D01*
%TO.C,C22*%
X59537836Y-71075000D02*
X59322164Y-71075000D01*
X59537836Y-70355000D02*
X59322164Y-70355000D01*
%TO.C,C21*%
X58590000Y-67502836D02*
X58590000Y-67287164D01*
X59310000Y-67502836D02*
X59310000Y-67287164D01*
%TO.C,C20*%
X38212164Y-97540000D02*
X38427836Y-97540000D01*
X38212164Y-98260000D02*
X38427836Y-98260000D01*
%TO.C,C19*%
X53490000Y-68312836D02*
X53490000Y-68097164D01*
X54210000Y-68312836D02*
X54210000Y-68097164D01*
%TO.C,C18*%
X57642164Y-72055000D02*
X57857836Y-72055000D01*
X57642164Y-72775000D02*
X57857836Y-72775000D01*
%TO.C,C17*%
X51490000Y-68302836D02*
X51490000Y-68087164D01*
X52210000Y-68302836D02*
X52210000Y-68087164D01*
%TO.C,C16*%
X52490000Y-68302836D02*
X52490000Y-68087164D01*
X53210000Y-68302836D02*
X53210000Y-68087164D01*
%TO.C,C14*%
X49063748Y-80640000D02*
X50486252Y-80640000D01*
X49063748Y-82460000D02*
X50486252Y-82460000D01*
%TO.C,C13*%
X50757836Y-57965000D02*
X50542164Y-57965000D01*
X50757836Y-57245000D02*
X50542164Y-57245000D01*
%TO.C,C12*%
X49063748Y-83015000D02*
X50486252Y-83015000D01*
X49063748Y-84835000D02*
X50486252Y-84835000D01*
%TO.C,C11*%
X50757836Y-56965000D02*
X50542164Y-56965000D01*
X50757836Y-56245000D02*
X50542164Y-56245000D01*
%TO.C,C10*%
X50787836Y-79060000D02*
X50572164Y-79060000D01*
X50787836Y-78340000D02*
X50572164Y-78340000D01*
%TO.C,C9*%
X50557836Y-60765000D02*
X50342164Y-60765000D01*
X50557836Y-60045000D02*
X50342164Y-60045000D01*
%TO.C,C8*%
X45760000Y-75492164D02*
X45760000Y-75707836D01*
X45040000Y-75492164D02*
X45040000Y-75707836D01*
%TO.C,C7*%
X40160000Y-65547164D02*
X40160000Y-65762836D01*
X39440000Y-65547164D02*
X39440000Y-65762836D01*
%TO.C,C6*%
X48892164Y-73960000D02*
X49107836Y-73960000D01*
X48892164Y-73240000D02*
X49107836Y-73240000D01*
%TO.C,C5*%
X46760000Y-64387164D02*
X46760000Y-64602836D01*
X46040000Y-64387164D02*
X46040000Y-64602836D01*
%TO.C,C4*%
X48912164Y-72240000D02*
X49127836Y-72240000D01*
X48912164Y-72960000D02*
X49127836Y-72960000D01*
%TO.C,C3*%
X45700000Y-64404664D02*
X45700000Y-64620336D01*
X44980000Y-64404664D02*
X44980000Y-64620336D01*
%TO.C,C2*%
X48912164Y-71240000D02*
X49127836Y-71240000D01*
X48912164Y-71960000D02*
X49127836Y-71960000D01*
%TO.C,C1*%
X47710000Y-64387164D02*
X47710000Y-64602836D01*
X46990000Y-64387164D02*
X46990000Y-64602836D01*
%TD*%
M02*
