M48
; DRILL file KiCad 10.0.1 date 2026-09-05T01:31:53
; FORMAT={-:-/ absolute / metric / decimal}
; #@! TF.CreationDate,2026-09-05T01:31:53-04:00
; #@! TF.GenerationSoftware,Kicad,Pcbnew,10.0.1
; #@! TF.FileFunction,Plated,1,4,PTH
FMAT,2
METRIC
; #@! TA.AperFunction,Plated,PTH,ComponentDrill
T1C0.200
; #@! TA.AperFunction,Plated,PTH,ViaDrill
T2C0.300
; #@! TA.AperFunction,Plated,PTH,ComponentDrill
T3C0.600
; #@! TA.AperFunction,Plated,PTH,ComponentDrill
T4C1.000
%
G90
G05
T1
X43.9Y-109.1
X43.9Y-110.5
X44.6Y-108.4
X44.6Y-109.8
X44.6Y-111.2
X45.3Y-109.1
X45.3Y-110.5
X46.0Y-108.4
X46.0Y-109.8
X46.0Y-111.2
X46.7Y-109.1
X46.7Y-110.5
T2
X38.85Y-115.25
X39.65Y-84.875
X40.475Y-86.8
X41.089Y-124.893
X41.425Y-100.775
X42.0Y-92.6
X42.3Y-143.6
X42.418Y-76.327
X42.69Y-114.8
X43.3Y-115.4
X44.05Y-61.5
X44.275Y-125.025
X44.323Y-114.427
X44.6Y-87.5
X45.95Y-127.35
X46.4Y-66.3
X46.5Y-118.3
X46.6Y-63.235
X46.75Y-71.45
X46.95Y-114.5
X47.2Y-69.075
X48.24Y-64.965
X48.3Y-78.5
X48.4Y-101.2
X48.6Y-109.4
X48.6Y-112.6
X48.895Y-113.538
X49.075Y-118.475
X49.55Y-70.2
X49.6Y-64.05
X49.625Y-135.2
X49.7Y-101.219
X49.7Y-123.4
X49.8Y-85.375
X50.0Y-61.375
X50.2Y-112.9
X50.3Y-118.675
X50.8Y-58.293
X50.8Y-105.4
X50.95Y-98.0
X51.054Y-96.854
X51.45Y-67.575
X51.562Y-114.808
X51.575Y-101.225
X51.815Y-125.094
X52.025Y-75.85
X52.15Y-71.275
X52.217Y-124.333
X52.602Y-126.946
X52.675Y-56.8
X52.95Y-101.2
X52.968Y-126.235
X53.387Y-74.588
X53.518Y-125.654
X53.6Y-110.8
X53.75Y-107.8
X53.975Y-112.522
X54.05Y-65.59
X54.275Y-142.5
X55.179Y-74.875
X55.28Y-98.502
X55.425Y-117.25
X55.525Y-124.4
X56.15Y-123.8
X56.275Y-132.775
X56.769Y-110.236
X56.825Y-105.975
X57.15Y-115.316
X57.2Y-134.825
X57.625Y-131.0
X57.675Y-98.925
X57.725Y-116.7
X57.725Y-118.1
X57.725Y-118.9
X57.785Y-103.759
X58.325Y-113.2
X58.325Y-129.175
X58.483Y-106.617
X58.573Y-131.0
X58.6Y-142.5
X58.717Y-109.05
X58.925Y-128.609
X59.112Y-56.612
X59.525Y-112.375
X59.525Y-128.08
X59.575Y-131.0
X59.675Y-93.6
X59.975Y-134.825
X60.048Y-92.125
X60.125Y-116.049
X60.125Y-129.3
X60.126Y-121.351
X60.137Y-59.15
X60.175Y-120.325
X60.275Y-119.2
X60.452Y-114.046
X60.75Y-126.499
X61.125Y-55.85
X61.2Y-62.0
X61.341Y-84.729
X61.35Y-125.314
X61.468Y-110.109
X61.975Y-124.4
X62.23Y-107.696
X62.357Y-102.362
X62.575Y-123.775
X62.611Y-115.443
X62.7Y-118.525
X62.975Y-142.5
X63.025Y-76.725
X63.125Y-71.425
X63.287Y-107.45
X63.8Y-93.6
X63.881Y-112.522
X65.525Y-93.675
X66.25Y-104.35
X66.4Y-85.2
X67.4Y-134.625
X67.501Y-108.394
X69.2Y-74.566
X69.215Y-109.093
X69.723Y-74.566
X70.3Y-77.875
X70.612Y-107.696
X70.665Y-110.924
X71.374Y-120.904
X71.6Y-142.425
X71.882Y-111.252
X72.2Y-102.5
X72.625Y-131.975
X72.644Y-113.665
X73.512Y-128.538
X73.914Y-113.665
X74.475Y-134.925
X74.529Y-106.914
X74.925Y-131.499
X75.184Y-113.665
X75.883Y-131.499
X75.975Y-142.4
X76.008Y-72.175
X76.85Y-131.499
X77.3Y-134.925
X77.47Y-106.426
X77.724Y-101.219
X78.359Y-113.665
X78.534Y-102.06
X78.994Y-107.569
X79.502Y-102.616
X80.225Y-142.425
X80.264Y-103.124
X81.28Y-103.759
X82.2Y-89.375
X82.5Y-55.5
X82.725Y-80.175
X82.804Y-113.538
X83.85Y-132.25
X84.709Y-128.375
X84.75Y-134.475
X86.025Y-135.025
X86.6Y-55.6
X88.011Y-147.066
X88.265Y-94.107
X89.027Y-100.076
X89.575Y-129.525
X89.8Y-137.675
X89.9Y-118.75
X89.987Y-117.815
X91.975Y-123.625
X92.25Y-55.6
X92.525Y-112.275
X94.425Y-132.5
X96.125Y-95.55
X96.7Y-55.6
X97.45Y-100.9
X97.8Y-112.275
X98.875Y-141.0
X99.025Y-122.675
X101.55Y-122.675
X101.8Y-141.125
X101.85Y-113.15
T4
X65.532Y-101.6
X68.58Y-104.394
X68.834Y-115.443
T3
G00X40.425Y-144.667
M15
G01X40.425Y-145.767
M16
G05
G00X40.425Y-148.997
M15
G01X40.425Y-149.797
M16
G05
G00X49.065Y-144.667
M15
G01X49.065Y-145.767
M16
G05
G00X49.065Y-148.997
M15
G01X49.065Y-149.797
M16
G05
M30
